<svg xmlns="http://www.w3.org/2000/svg" xmlns:xlink="http://www.w3.org/1999/xlink" width="126" height="117" viewBox="0 0 126 117">
  <defs>
    <clipPath id="clip-path">
      <path id="Trazado_611" data-name="Trazado 611" d="M387.043,435.68c-1.2-2.889-2.351-5.673-3.6-8.194a44.932,44.932,0,0,1,4.842,9.622,51.3,51.3,0,0,0,6.354,12.193c-.178.2-.357.39-.536.562l-.045.045-.068.068a87.277,87.277,0,0,1-6.949-14.294m-1.717,17.6a1.084,1.084,0,0,1-.17-.033c-.2-.035-.39-.074-.585-.121-.1-.023-.2-.055-.295-.084-.148-.041-.3-.082-.445-.129-.107-.035-.213-.078-.316-.117-.135-.049-.269-.1-.4-.15s-.217-.1-.324-.148-.25-.111-.371-.172-.215-.117-.326-.178-.234-.127-.347-.2-.213-.135-.32-.2-.222-.142-.334-.219-.209-.152-.312-.228-.213-.158-.316-.24-.2-.17-.3-.256-.2-.172-.3-.259-.2-.183-.293-.277-.2-.183-.289-.281-.2-.2-.285-.3-.185-.2-.277-.3-.181-.211-.271-.318-.178-.211-.263-.32-.176-.226-.261-.338-.168-.222-.25-.337l-.25-.359c-.08-.117-.158-.234-.236-.353s-.16-.25-.238-.375-.15-.246-.226-.371-.15-.257-.226-.39-.142-.258-.213-.39-.142-.269-.213-.4-.137-.267-.2-.4-.135-.277-.2-.418-.127-.275-.2-.416-.125-.285-.2-.427-.119-.287-.178-.431-.117-.289-.172-.437-.111-.3-.164-.445l-.158-.445c-.053-.148-.084-.252-.127-.39l-.025-.076c-.049-.15-.1-.3-.144-.451s-.1-.318-.14-.478-.088-.3-.129-.451-.086-.33-.129-.5-.076-.3-.113-.449-.078-.34-.117-.513-.068-.295-.1-.447-.07-.351-.1-.527c-.029-.148-.059-.295-.084-.443-.033-.181-.061-.365-.09-.546-.023-.146-.049-.291-.068-.435-.029-.2-.053-.39-.078-.57-.018-.14-.037-.279-.055-.419-.023-.2-.041-.39-.062-.585-.014-.135-.029-.269-.041-.4q-.026-.316-.047-.632c0-.123-.02-.246-.027-.371-.016-.236-.023-.472-.031-.708,0-.1-.01-.2-.014-.295-.01-.336-.016-.669-.016-1,0-.244.016-.486.031-.726a8.148,8.148,0,0,1,1.379-4.013c1.073,2.489,2.146,5.063,3.172,7.564,2.647,6.4,5.381,13,8.627,19.219-.261-.023-.517-.053-.78-.1m28.641-19.285c1.083-2.608,2.113-5.09,3.164-7.531a8.959,8.959,0,0,1,1.352,4.866c0,10.508-4.926,21.368-13.223,22.045,3.244-6.221,6.021-12.9,8.7-19.38m-35.025-.449c-1.149-2.778-2.341-5.64-3.529-8.389a4.009,4.009,0,0,1,.552-.349c1.469,3.188,2.86,6.541,4.323,10.08a177.591,177.591,0,0,0,8.408,18.306h-.031l-.055.014c-.139.031-.279.057-.419.08-.064.01-.129.025-.2.033l-.111.012c-3.379-6.356-6.21-13.184-8.945-19.794m5.342,1.422c-1.514-3.654-2.956-7.129-4.516-10.32l.142.053.181.076a83.185,83.185,0,0,1,5.476,11.6,86.93,86.93,0,0,0,7.219,14.753c-.107.086-.215.17-.322.248-.06.047-.125.092-.2.139l-.146.1a129.534,129.534,0,0,1-7.845-16.649m-2.523-.689c-1.448-3.5-2.825-6.8-4.278-9.969h.322c1.74,3.424,3.317,7.244,5,11.278a130.821,130.821,0,0,0,7.938,16.862l-.1.055c-.105.051-.209.1-.314.146l-.09.039a173.2,173.2,0,0,1-8.483-18.4m-18.456-6c0-5.634,3.166-10.217,7.056-10.217.154,0,.3,0,.464.012a9.049,9.049,0,0,1,2.171.365,8.813,8.813,0,0,1,2.021.893,13.311,13.311,0,0,1,3.687,3.436c-.1-.014-.207-.025-.312-.033h-.164a5.877,5.877,0,0,0-1.584.09,4.315,4.315,0,0,0-.57.156h0c-.016,0-.031.014-.047.02a5.775,5.775,0,0,0-2.146,1.381,7.4,7.4,0,0,0-.761.909,10.042,10.042,0,0,0-1.74,4.659,11.567,11.567,0,0,0-.094,1.391h0a34.084,34.084,0,0,0,2.45,12.8c2.589,6.266,7.135,10.874,13.188,10.874a5.231,5.231,0,0,0,.546-.019h.027a9.265,9.265,0,0,0,1.812-.3c.279-.072.556-.154.831-.252h0a11.206,11.206,0,0,0,1.6-.71q.263-.143.527-.3h0c.2-.123.408-.254.611-.39l.131-.09c.14-.1.283-.2.421-.3l.179-.139c.109-.084.217-.168.324-.256s.2-.162.285-.238l.146-.121c.373-.324.648-.6.856-.81.353-.351.71-.741,1.061-1.155a48.267,48.267,0,0,0,6.789-12.724,45.081,45.081,0,0,1,4.833-9.612l-.059.121q-.421.858-.831,1.756c-.059.129-.115.261-.176.39q-.33.732-.656,1.481l-.267.616q-.3.693-.585,1.395c-.078.2-.158.376-.238.566-.258.62-.519,1.243-.78,1.875a81.943,81.943,0,0,1-7.433,15.022,28.9,28.9,0,0,1-1.81,2.376c-.443.529-.907,1.036-1.383,1.51-.111.111-.252.252-.423.417a20.192,20.192,0,0,1-1.711,1.469,17.309,17.309,0,0,1-2,1.329,12.472,12.472,0,0,1-6.181,1.74c-12.562,0-20.067-15.945-20.067-31.359m53.038-8.947a8.974,8.974,0,0,1,2.023-.9,9.1,9.1,0,0,1,2.183-.363c.15,0,.3-.012.455-.012,3.888,0,7.054,4.583,7.054,10.217,0,15.412-7.505,31.359-20.065,31.359-.222,0-.447-.01-.675-.027l-.228-.025c-.154-.016-.308-.033-.464-.055l-.275-.049c-.142-.025-.285-.053-.429-.084-.1-.021-.2-.047-.3-.07-.14-.035-.283-.074-.423-.113l-.306-.094c-.144-.045-.287-.094-.433-.146l-.306-.111c-.15-.058-.3-.121-.455-.183-.1-.041-.2-.082-.295-.125q-.255-.114-.509-.24l-.25-.121-.047-.025c.035-.057.068-.117.1-.176l.176-.295c.137-.236.275-.472.414-.714l.142-.25q.272-.474.546-.975c.043-.076.086-.158.127-.234l.293-.529h.035c9.79,0,15.639-12.037,15.639-23.671a9.93,9.93,0,0,0-2.591-6.961c-.166-.164-.338-.316-.509-.458a5.565,5.565,0,0,0-1.686-.944h0a5.307,5.307,0,0,0-1.865-.258,2.829,2.829,0,0,0-.429.021h0a2.656,2.656,0,0,0-.328.035,13.347,13.347,0,0,1,3.687-3.434m-62.82,5.823c0-7.414,4.2-13.461,9.364-13.461a11.73,11.73,0,0,1,4.661.921c.316.133.632.285.944.451.107.059.219.115.326.178.371.209.736.443,1.1.7h0a17.2,17.2,0,0,1,3.077,2.842l-.092-.019-.2-.045q-.2-.043-.39-.078l-.215-.035c-.135-.021-.271-.039-.408-.057l-.2-.021c-.2-.02-.39-.037-.6-.047s-.363-.014-.546-.014c-4.772,0-8.652,5.3-8.652,11.813a44.98,44.98,0,0,0,5.763,22.689c4.013,6.62,9.659,10.266,15.9,10.266a14.047,14.047,0,0,0,6.965-1.951,18.917,18.917,0,0,0,2.187-1.452,21.762,21.762,0,0,0,1.846-1.584c.183-.177.332-.324.447-.441.505-.505,1-1.048,1.473-1.608a30.977,30.977,0,0,0,1.906-2.5,83.126,83.126,0,0,0,7.593-15.309l.677-1.629.06-.142q.3-.73.611-1.45l.144-.336q.261-.614.525-1.215l.211-.468c.154-.349.308-.7.466-1.038.082-.181.168-.355.25-.535.146-.308.291-.62.435-.921.094-.2.2-.378.285-.566.139-.279.275-.56.418-.829.1-.2.211-.39.312-.585.139-.252.273-.507.412-.751.111-.2.226-.39.339-.574s.23-.39.349-.585c.078-.033.156-.068.236-.1l.061-.023h.023q-.3.616-.6,1.247c-.047.1-.1.207-.142.31q-.24.515-.476,1.038c-.08.176-.158.351-.236.527q-.2.425-.38.854l-.256.585c-.119.277-.24.554-.359.833l-.257.6c-.121.283-.242.57-.363.856q-.127.3-.252.6l-.39.925-.228.544-.585,1.418a123.756,123.756,0,0,1-8.208,17.264c-.63,1.034-1.29,2.027-1.951,2.954-.585.821-1.206,1.615-1.836,2.359-.531.63-1.094,1.247-1.672,1.834l-.133.135c-.33.33-.944.942-1.785,1.654a18.645,18.645,0,0,1-11.745,4.829c-16.413,0-26.22-20.77-26.22-40.852m67.925-11.212a12.412,12.412,0,0,1,2.374-1.331,11.782,11.782,0,0,1,4.657-.915c5.168,0,9.364,6.036,9.364,13.461,0,20.081-9.809,40.852-26.22,40.852-.287,0-.576-.014-.862-.035a2.312,2.312,0,0,1-.287-.031c-.2-.018-.38-.035-.568-.064-.113-.016-.226-.039-.338-.057-.17-.029-.339-.057-.509-.094-.119-.023-.236-.053-.355-.082-.16-.039-.32-.076-.48-.119-.121-.033-.24-.068-.359-.1-.154-.045-.308-.092-.46-.142l-.357-.119c-.15-.055-.3-.107-.447-.164-.117-.043-.234-.09-.349-.135l-.437-.181c-.113-.049-.226-.1-.336-.148-.146-.066-.287-.133-.429-.2-.105-.053-.215-.1-.32-.154-.142-.07-.283-.142-.423-.217l-.3-.156c-.144-.078-.285-.156-.423-.236-.09-.049-.18-.1-.265-.15-.152-.088-.3-.176-.445-.265l-.213-.129q-.316-.2-.618-.39l-.1-.068-.482-.324-.209-.148-.334-.236-.218-.162c-.074-.053-.146-.105-.215-.16l.047-.07q.293-.443.585-.9c.023-.039.049-.078.074-.119.176-.271.349-.548.523-.827l.053-.082.119.057c.119.06.238.117.357.174.168.082.334.16.5.234l.365.156c.162.068.324.133.484.2l.365.133c.158.057.318.107.474.158l.359.107c.16.047.318.086.474.125l.345.084c.164.035.326.064.488.092.107.02.215.041.322.057.178.025.353.045.529.062.088,0,.176.021.265.027.261.019.521.031.78.031,6.243,0,11.885-3.644,15.9-10.266a44.981,44.981,0,0,0,5.763-22.689c0-6.514-3.88-11.813-8.648-11.813-.185,0-.367,0-.538.014a5.945,5.945,0,0,0-.609.047l-.183.021c-.142.016-.281.035-.419.057l-.209.035c-.133.023-.263.051-.39.08l-.2.041a.544.544,0,0,0-.092.02,17.3,17.3,0,0,1,3.077-2.839m-68.224,42.842a68.44,68.44,0,0,1-8.736-34.51c0-9.076,5.164-16.46,11.51-16.46a14.476,14.476,0,0,1,8.791,2.881l.033.023a20.021,20.021,0,0,1,2.382,2.064l-.1-.027c-.3-.1-.6-.183-.905-.259l-.135-.029c-.285-.068-.572-.125-.862-.172l-.162-.027c-.314-.049-.63-.086-.95-.111l-.2-.016c-.33-.023-.661-.037-1-.037-6.048,0-10.966,6.752-10.966,15.053a58.018,58.018,0,0,0,7.429,29.264c5.152,8.5,12.392,13.18,20.387,13.18a20.2,20.2,0,0,0,12.775-5.207c.892-.755,1.537-1.4,1.885-1.746l.137-.139c.609-.618,1.2-1.268,1.756-1.926.657-.78,1.3-1.6,1.914-2.456.691-.958,1.366-1.986,2.023-3.053a125,125,0,0,0,8.323-17.488l.626-1.508.269-.646c.121-.293.244-.585.365-.872.09-.215.179-.425.269-.638l.361-.853.277-.64c.117-.273.236-.55.355-.821.092-.213.2-.421.279-.632.117-.267.236-.537.353-.8l.287-.626c.117-.258.236-.515.353-.769.1-.209.2-.418.3-.624.117-.246.234-.494.353-.736.1-.209.2-.412.306-.616l.256-.509c.107,0,.215,0,.322.01-.154.336-.306.681-.458,1.018s-.3.673-.455,1.014c-.236.537-.474,1.083-.71,1.629-.135.314-.271.626-.406.944-.263.615-.527,1.241-.78,1.869l-.328.78q-.548,1.315-1.106,2.665a168.3,168.3,0,0,1-8.81,19c-.693,1.217-1.4,2.38-2.111,3.461-.654,1-1.29,1.912-1.951,2.794-.527.71-1.091,1.422-1.682,2.121-.615.728-1.25,1.428-1.881,2.074l-.314.316c-6.528,6.528-12.576,7.9-16.495,7.9-9.035,0-17.26-5.363-23.165-15.1m73.355-48.09a14.476,14.476,0,0,1,8.791-2.881c6.348,0,11.51,7.386,11.51,16.46a68.429,68.429,0,0,1-8.736,34.51c-5.905,9.739-14.132,15.1-23.167,15.1-.254,0-.505,0-.757-.021l-.252-.02c-.168-.012-.336-.023-.5-.043l-.3-.035c-.15-.019-.3-.039-.451-.062-.105-.016-.209-.035-.316-.055l-.427-.078-.322-.068-.417-.1-.32-.082-.412-.113-.316-.1-.406-.129-.308-.1c-.139-.047-.271-.1-.408-.146l-.295-.111-.414-.164-.277-.111-.439-.2-.234-.1q-.293-.133-.585-.273l-.08-.039c-.218-.105-.431-.213-.642-.324l-.211-.113c-.14-.074-.281-.148-.417-.222l-.242-.137c-.125-.068-.248-.137-.367-.209l-.252-.148-.337-.2-.252-.156-.316-.2-.244-.156-.306-.2-.23-.154-.295-.2-.219-.15-.287-.2-.2-.14-.285-.209-.172-.127-.293-.22-.14-.105-.373-.291-.025-.022-.378-.3-.07-.059-.271-.222-.1-.078-.216-.183-.088-.074-.2-.164-.076-.066-.164-.144-.062-.057-.148-.135-.033-.031-.14-.129h0l-.045-.041c.084-.115.164-.23.248-.345.162-.222.322-.445.48-.669.066-.094.137-.2.2-.285l.213.156.22.162.353.25.23.162.414.277.215.144c.207.133.421.269.638.4l.031.02c.228.14.464.279.7.417l.242.135c.166.092.33.185.5.275.1.053.2.1.3.156.158.082.316.162.476.242l.336.158c.156.074.312.146.472.217l.357.154c.158.066.316.133.478.2.125.049.248.1.373.142.162.06.324.119.49.176.127.045.256.086.39.127.168.053.336.105.505.154l.39.107c.172.045.347.086.523.127.127.029.256.06.39.086.183.037.371.068.554.1.123.021.244.045.369.062.207.027.414.049.622.068.1,0,.207.025.314.031.314.023.628.039.944.039,8,0,15.233-4.682,20.385-13.18a58,58,0,0,0,7.431-29.264c0-8.3-4.92-15.053-10.968-15.053-.336,0-.669.016-1,.037l-.2.016q-.48.038-.95.111l-.162.027c-.293.049-.585.105-.868.172l-.127.027c-.308.076-.611.164-.913.261l-.092.027a19.732,19.732,0,0,1,2.417-2.087m-81.769,51.662c-6.649-10.968-10.463-26.025-10.463-41.311,0-10.925,6.243-19.825,13.912-19.825a18.248,18.248,0,0,1,13.565,6.048l-.06-.021c-.164-.062-.33-.121-.5-.178l-.156-.055q-.326-.107-.655-.2l-.172-.045c-.164-.043-.33-.086-.5-.125l-.25-.055c-.142-.031-.285-.061-.429-.086l-.273-.049-.419-.066-.281-.037c-.142-.018-.287-.031-.431-.047l-.271-.025c-.16-.014-.32-.023-.48-.031l-.234-.014c-.24-.01-.48-.016-.722-.016-7.218,0-13.1,8.1-13.1,18.056a70.037,70.037,0,0,0,8.974,35.337c6.2,10.235,14.915,15.871,24.527,15.871,4.222,0,10.709-1.451,17.625-8.366l.32-.322c.663-.681,1.325-1.409,1.965-2.165.611-.722,1.2-1.463,1.74-2.195.681-.905,1.34-1.846,2.011-2.874.728-1.108,1.455-2.3,2.162-3.543a169.452,169.452,0,0,0,8.9-19.18l1.116-2.682c.113-.271.226-.535.338-.8.259-.618.517-1.233.78-1.84.144-.337.291-.669.435-1.007.226-.523.453-1.048.681-1.561.158-.363.322-.718.482-1.075s.33-.724.494-1.083c.041.023.078.043.119.068l.086.053c.113.074.222.154.332.24-1.161,2.671-2.283,5.381-3.469,8.241-2.841,6.855-5.781,13.943-9.255,20.422-.833,1.545-1.627,2.938-2.429,4.255h0c-.677,1.116-1.366,2.193-2.054,3.2h0c-.568.837-1.171,1.674-1.783,2.489s-1.268,1.637-1.894,2.374h0c-.855,1.013-1.74,1.976-2.63,2.868-7.837,7.837-15.1,9.481-19.821,9.481-10.851,0-20.729-6.438-27.812-18.122m98.3-61.136c7.669,0,13.908,8.894,13.908,19.825,0,15.287-3.812,30.345-10.461,41.311-7.084,11.686-16.963,18.122-27.814,18.122-10.117,0-19.726-9.39-19.819-9.481-.745-.745-1.481-1.535-2.193-2.357.09-.107.178-.224.269-.336.162-.2.324-.4.486-.607.07-.09.14-.172.211-.263l.018.016.295.269.02.018c.105.094.222.2.349.308l.084.072.451.39.074.06c.15.125.31.258.48.39l.1.076c.2.15.39.306.6.468l.121.094c.2.152.41.308.628.468l.074.055c.234.17.48.343.734.519l.168.113c.263.18.531.359.812.54a23.84,23.84,0,0,0,12.291,4.193c9.614,0,18.327-5.636,24.529-15.871a70.038,70.038,0,0,0,8.974-35.337c0-9.95-5.88-18.056-13.108-18.056-.244,0-.484,0-.724.016l-.234.014c-.16,0-.32.018-.48.031l-.271.025c-.146.016-.293.029-.437.047l-.277.037-.423.066-.271.049c-.144.027-.287.057-.429.086l-.25.055q-.243.056-.486.123l-.181.047q-.334.094-.661.2l-.111.039c-.18.061-.359.125-.536.2l-.055.02a18.257,18.257,0,0,1,13.565-6.048m-17.558,8.254a24.834,24.834,0,0,0-5.131,5.246,21.6,21.6,0,0,0-5.039,5.251,17,17,0,0,0-5.2,5.462c-3.986,2.009-6.216,7.372-8.568,13.054a52.025,52.025,0,0,1-5.89,11.5,51.516,51.516,0,0,1-5.964-11.6c-2.374-5.73-4.622-11.14-8.67-13.106a16.8,16.8,0,0,0-5.1-5.322,21.621,21.621,0,0,0-5.043-5.342,24.882,24.882,0,0,0-5.131-5.246c-5.037-6.623-10.779-9.846-17.558-9.846-8.551,0-15.506,9.61-15.506,21.421,0,15.568,3.9,30.928,10.695,42.14,7.384,12.181,17.753,18.889,29.176,18.889,5.018,0,12.726-1.725,20.949-9.95.714-.714,1.424-1.475,2.117-2.265.689.78,1.389,1.551,2.107,2.267a42.42,42.42,0,0,0,6.356,4.963,28.333,28.333,0,0,0,14.589,4.985c11.432,0,21.794-6.707,29.178-18.889,6.8-11.21,10.693-26.568,10.693-42.14,0-11.811-6.955-21.421-15.5-21.421-6.776,0-12.519,3.223-17.558,9.85" transform="translate(-332.749 -397.62)" fill="#00ac99"/>
    </clipPath>
  </defs>
  <g id="Business_coffee" data-name="Business coffee" transform="translate(-17.508 -3.116)">
    <g id="ElOrdenDelCaos" transform="translate(-235.582 -376.598)">
      <g id="Grupo_457" data-name="Grupo 457" transform="translate(253.09 397.62)">
        <g id="Grupo_456" data-name="Grupo 456" transform="translate(0 0)" clip-path="url(#clip-path)">
          <rect id="Rect치ngulo_930" data-name="Rect치ngulo 930" width="134.331" height="150.221" transform="matrix(0.5, -0.866, 0.866, 0.5, -35.692, 61.85)" fill="#00ac99"/>
        </g>
      </g>
    </g>
    <rect id="Rect치ngulo_931" data-name="Rect치ngulo 931" width="126" height="117" transform="translate(17.508 3.116)" fill="none"/>
  </g>
</svg>
