<svg xmlns="http://www.w3.org/2000/svg" xmlns:xlink="http://www.w3.org/1999/xlink" width="56" height="51.625" viewBox="0 0 56 51.625">
  <defs>
    <clipPath id="clip-path">
      <path id="Trazado_611" data-name="Trazado 611" d="M356.88,414.536c-.532-1.284-1.045-2.521-1.6-3.642a19.969,19.969,0,0,1,2.152,4.276,22.8,22.8,0,0,0,2.824,5.419c-.079.087-.159.173-.238.25l-.02.02-.03.03a38.789,38.789,0,0,1-3.089-6.353m-.763,7.824a.486.486,0,0,1-.075-.015c-.087-.016-.173-.033-.26-.054-.044-.01-.087-.024-.131-.037-.066-.018-.133-.036-.2-.057-.048-.016-.094-.035-.14-.052s-.12-.042-.178-.067-.1-.043-.144-.066-.111-.049-.165-.076-.1-.052-.145-.079-.1-.056-.154-.087-.094-.06-.142-.087-.1-.063-.148-.1-.093-.068-.139-.1-.094-.07-.14-.107-.087-.075-.135-.114-.087-.076-.134-.115-.087-.082-.13-.123-.087-.082-.128-.125-.087-.087-.127-.133-.082-.087-.123-.134-.081-.094-.121-.141-.079-.094-.117-.142l-.116-.15c-.038-.049-.075-.1-.111-.15l-.111-.16c-.036-.052-.07-.1-.1-.157s-.071-.111-.106-.167-.067-.109-.1-.165-.067-.114-.1-.173-.063-.114-.095-.173l-.095-.18c-.031-.06-.061-.119-.087-.179s-.06-.123-.087-.186-.056-.122-.087-.185-.055-.127-.087-.19-.053-.127-.079-.192-.052-.128-.076-.194-.049-.132-.073-.2l-.07-.2c-.023-.066-.037-.112-.056-.173l-.011-.034c-.022-.067-.043-.134-.064-.2s-.043-.141-.062-.212-.039-.133-.057-.2-.038-.147-.057-.22-.034-.133-.05-.2-.035-.151-.052-.228-.03-.131-.044-.2-.031-.156-.046-.234-.026-.131-.037-.2-.027-.162-.04-.243c-.01-.065-.022-.129-.03-.193-.013-.087-.023-.173-.035-.253-.008-.062-.016-.124-.024-.186-.01-.087-.018-.173-.028-.26-.006-.06-.013-.12-.018-.179q-.012-.14-.021-.281c0-.055-.009-.109-.012-.165-.007-.1-.01-.21-.014-.315,0-.043,0-.087-.006-.131,0-.149-.007-.3-.007-.446,0-.108.007-.216.014-.323a3.622,3.622,0,0,1,.613-1.784c.477,1.106.954,2.25,1.41,3.362,1.177,2.844,2.391,5.779,3.834,8.542-.116-.01-.23-.023-.347-.043m12.73-8.571c.481-1.159.939-2.262,1.406-3.347a3.982,3.982,0,0,1,.6,2.162c0,4.67-2.189,9.5-5.877,9.8,1.442-2.765,2.676-5.733,3.869-8.613m-15.567-.2c-.511-1.235-1.04-2.507-1.569-3.728a1.783,1.783,0,0,1,.245-.155c.653,1.417,1.271,2.907,1.921,4.48a78.94,78.94,0,0,0,3.737,8.136h-.014l-.024.006c-.062.014-.124.025-.186.036-.029,0-.057.011-.087.015l-.049.005c-1.5-2.825-2.76-5.86-3.976-8.8m2.374.632c-.673-1.624-1.314-3.168-2.007-4.587l.063.023.081.034a36.965,36.965,0,0,1,2.434,5.156,38.635,38.635,0,0,0,3.208,6.557c-.048.038-.1.075-.143.11-.027.021-.056.041-.087.062l-.065.045a57.57,57.57,0,0,1-3.486-7.4m-1.121-.306c-.643-1.554-1.256-3.023-1.9-4.431h.143c.773,1.522,1.474,3.219,2.221,5.013a58.139,58.139,0,0,0,3.528,7.494l-.046.024-.14.065-.04.017a76.979,76.979,0,0,1-3.77-8.177m-8.2-2.667c0-2.5,1.407-4.541,3.136-4.541.068,0,.135,0,.206.005a4.023,4.023,0,0,1,.965.162,3.919,3.919,0,0,1,.9.4,5.916,5.916,0,0,1,1.639,1.527c-.046-.006-.092-.011-.139-.015h-.073a2.613,2.613,0,0,0-.7.04,1.927,1.927,0,0,0-.253.069h0c-.007,0-.014.006-.021.009a2.567,2.567,0,0,0-.954.614,3.286,3.286,0,0,0-.338.4A4.462,4.462,0,0,0,349.9,412a5.145,5.145,0,0,0-.042.618h0a15.15,15.15,0,0,0,1.089,5.689c1.151,2.785,3.171,4.833,5.861,4.833a2.33,2.33,0,0,0,.243-.009h.012a4.117,4.117,0,0,0,.805-.132c.124-.032.247-.069.369-.112h0a4.977,4.977,0,0,0,.709-.316q.117-.063.234-.134h0c.091-.055.181-.113.271-.173l.058-.04c.062-.043.126-.087.187-.134l.08-.062c.049-.037.1-.075.144-.114l.127-.106.065-.054c.166-.144.288-.267.381-.36.157-.156.316-.329.472-.513a21.454,21.454,0,0,0,3.017-5.655,20.034,20.034,0,0,1,2.148-4.272l-.026.054q-.187.382-.369.78c-.026.057-.051.116-.078.173q-.147.325-.291.658l-.119.274q-.132.308-.26.62c-.035.087-.07.167-.106.251-.114.276-.231.552-.347.833a36.42,36.42,0,0,1-3.3,6.676,12.847,12.847,0,0,1-.8,1.056c-.2.235-.4.46-.615.671-.049.049-.112.112-.188.186a8.981,8.981,0,0,1-.76.653,7.7,7.7,0,0,1-.891.59,5.543,5.543,0,0,1-2.747.773c-5.583,0-8.919-7.087-8.919-13.937m23.572-3.976a3.991,3.991,0,0,1,.9-.4,4.044,4.044,0,0,1,.97-.161c.067,0,.134-.005.2-.005,1.728,0,3.135,2.037,3.135,4.541,0,6.85-3.336,13.937-8.918,13.937-.1,0-.2,0-.3-.012l-.1-.011c-.068-.007-.137-.015-.206-.024l-.122-.022c-.063-.011-.127-.023-.191-.037l-.133-.031c-.062-.016-.126-.033-.188-.05l-.136-.042c-.064-.02-.127-.042-.192-.065l-.136-.049-.2-.082-.131-.055q-.113-.051-.226-.107l-.111-.054-.021-.011c.016-.025.03-.052.046-.078l.078-.131c.061-.1.122-.21.184-.317l.063-.111q.121-.211.243-.434c.019-.034.038-.07.056-.1l.13-.235h.016c4.351,0,6.95-5.35,6.95-10.52a4.413,4.413,0,0,0-1.151-3.094c-.074-.073-.15-.141-.226-.2a2.475,2.475,0,0,0-.749-.42h0a2.36,2.36,0,0,0-.829-.114,1.253,1.253,0,0,0-.191.01h0a1.186,1.186,0,0,0-.146.016,5.933,5.933,0,0,1,1.639-1.526m-27.92,2.588c0-3.295,1.869-5.983,4.162-5.983a5.213,5.213,0,0,1,2.071.409c.14.059.281.127.42.2.048.026.1.051.145.079.165.093.327.2.487.31h0a7.649,7.649,0,0,1,1.367,1.263l-.041-.009-.087-.02q-.087-.019-.173-.035l-.1-.016c-.06-.01-.121-.017-.181-.025l-.087-.01c-.087-.009-.173-.016-.266-.021s-.161-.006-.243-.006c-2.121,0-3.845,2.354-3.845,5.25a19.991,19.991,0,0,0,2.561,10.084c1.784,2.942,4.293,4.563,7.067,4.563a6.243,6.243,0,0,0,3.1-.867,8.4,8.4,0,0,0,.972-.645,9.663,9.663,0,0,0,.82-.7c.082-.079.147-.144.2-.2.225-.225.446-.466.655-.714a13.76,13.76,0,0,0,.847-1.112,36.944,36.944,0,0,0,3.375-6.8l.3-.724.027-.063q.135-.324.271-.644l.064-.149q.116-.273.233-.54l.094-.208c.069-.155.137-.31.207-.461.036-.081.075-.158.111-.238.065-.137.129-.276.193-.409.042-.087.087-.168.127-.251.062-.124.122-.249.186-.368.046-.087.094-.173.139-.26.062-.112.121-.225.183-.334.049-.087.1-.173.151-.255s.1-.173.155-.26c.035-.015.069-.03.1-.044l.027-.01h.01q-.133.274-.265.554l-.063.138q-.107.229-.212.461c-.036.078-.07.156-.1.234q-.087.189-.169.38l-.114.26c-.053.123-.107.246-.16.37l-.114.267c-.054.126-.108.253-.161.381l-.112.265-.173.411-.1.242-.26.63a55,55,0,0,1-3.648,7.673c-.28.46-.573.9-.867,1.313-.26.365-.536.718-.816,1.048-.236.28-.486.554-.743.815l-.059.06c-.146.147-.42.419-.793.735a8.287,8.287,0,0,1-5.22,2.146c-7.295,0-11.653-9.231-11.653-18.157m30.189-4.983a5.515,5.515,0,0,1,1.055-.591,5.237,5.237,0,0,1,2.07-.407c2.3,0,4.162,2.683,4.162,5.983,0,8.925-4.36,18.156-11.653,18.156-.127,0-.256-.006-.383-.016a1.026,1.026,0,0,1-.127-.014c-.087-.008-.169-.016-.252-.029-.05-.007-.1-.017-.15-.025-.075-.013-.151-.025-.226-.042-.053-.01-.1-.023-.158-.036-.071-.017-.142-.034-.213-.053l-.16-.046c-.069-.02-.137-.041-.2-.063l-.159-.053-.2-.073-.155-.06-.194-.081c-.05-.022-.1-.043-.149-.066l-.191-.087-.142-.069c-.063-.031-.126-.063-.188-.1l-.132-.069c-.064-.035-.127-.069-.188-.1l-.118-.067c-.068-.039-.133-.078-.2-.118l-.095-.057q-.14-.087-.275-.173l-.045-.03-.214-.144-.093-.066-.148-.1-.1-.072c-.033-.023-.065-.047-.1-.071l.021-.031q.13-.2.26-.4l.033-.053c.078-.121.155-.244.232-.368l.023-.036.053.025c.053.027.106.052.159.077.075.036.148.071.222.1l.162.069c.072.03.144.059.215.087l.162.059c.07.025.141.048.211.07l.16.048c.071.021.141.038.211.055l.153.037c.073.016.145.029.217.041.048.009.1.018.143.025.079.011.157.02.235.028.039,0,.078.01.118.012.116.009.232.014.347.014,2.775,0,5.282-1.62,7.065-4.563a19.991,19.991,0,0,0,2.561-10.084c0-2.9-1.725-5.25-3.844-5.25-.082,0-.163,0-.239.006a2.65,2.65,0,0,0-.271.021l-.082.01c-.063.007-.125.016-.186.025l-.093.016c-.059.01-.117.023-.173.036l-.087.018a.238.238,0,0,0-.041.009,7.691,7.691,0,0,1,1.367-1.262m-30.321,19.041a30.417,30.417,0,0,1-3.883-15.338c0-4.034,2.3-7.316,5.116-7.316a6.434,6.434,0,0,1,3.907,1.281l.015.01a8.9,8.9,0,0,1,1.059.917l-.043-.012c-.133-.043-.266-.082-.4-.115l-.06-.013c-.127-.03-.254-.055-.383-.076l-.072-.012c-.14-.022-.28-.038-.422-.049l-.091-.007c-.147-.01-.294-.016-.443-.016-2.688,0-4.874,3-4.874,6.69a25.786,25.786,0,0,0,3.3,13.006c2.29,3.778,5.508,5.858,9.061,5.858a8.979,8.979,0,0,0,5.678-2.314c.4-.336.683-.622.838-.776l.061-.062c.271-.275.534-.564.78-.856.292-.347.579-.713.851-1.092.307-.426.607-.883.9-1.357a55.556,55.556,0,0,0,3.7-7.772l.278-.67.12-.287c.054-.13.108-.26.162-.388l.12-.284.16-.379.123-.284c.052-.121.1-.245.158-.365.041-.094.087-.187.124-.281l.157-.356.127-.278c.052-.114.1-.229.157-.342.043-.093.087-.186.132-.277.052-.109.1-.219.157-.327s.087-.183.136-.274l.114-.226c.048,0,.1,0,.143,0-.069.149-.136.3-.2.453l-.2.451c-.1.238-.211.481-.316.724-.06.14-.121.278-.18.42-.117.273-.234.551-.347.831l-.146.347q-.244.584-.492,1.184a74.791,74.791,0,0,1-3.916,8.444c-.308.541-.623,1.058-.938,1.538-.29.445-.573.85-.867,1.242-.234.316-.485.632-.747.943s-.556.635-.836.922l-.14.14c-2.9,2.9-5.589,3.511-7.331,3.511-4.015,0-7.671-2.384-10.3-6.712m32.6-21.373a6.434,6.434,0,0,1,3.907-1.281c2.821,0,5.116,3.283,5.116,7.316a30.413,30.413,0,0,1-3.883,15.338c-2.625,4.328-6.281,6.712-10.3,6.712-.113,0-.225,0-.336-.01l-.112-.009c-.075-.005-.149-.01-.224-.019l-.133-.016c-.067-.009-.134-.017-.2-.028-.047-.007-.093-.016-.141-.024l-.19-.035-.143-.03-.186-.043-.142-.036-.183-.05-.14-.042-.18-.057-.137-.046c-.062-.021-.121-.043-.181-.065l-.131-.049-.184-.073-.123-.049-.2-.087-.1-.046q-.13-.059-.26-.121l-.036-.017c-.1-.047-.192-.095-.285-.144l-.094-.05-.186-.1-.108-.061c-.056-.03-.11-.061-.163-.093l-.112-.066-.15-.087-.112-.069-.14-.087-.108-.069-.136-.087-.1-.069-.131-.087-.1-.067-.127-.087-.087-.062-.127-.093-.076-.056-.13-.1-.062-.047-.166-.129-.011-.01-.168-.134-.031-.026-.121-.1-.042-.035-.1-.082-.039-.033-.087-.073-.034-.029-.073-.064-.028-.025-.066-.06-.015-.014-.062-.057h0l-.02-.018.11-.153c.072-.1.143-.2.213-.3.029-.042.061-.087.087-.127l.095.069.1.072.157.111.1.072.184.123.1.064c.092.059.187.12.284.179l.014.009c.1.062.206.124.313.186l.108.06c.074.041.147.082.223.122l.133.069.212.108.149.07c.069.033.139.065.21.1l.159.069c.07.029.14.059.212.087l.166.063c.072.027.144.053.218.078.056.02.114.038.173.056s.149.047.225.069l.173.048c.076.02.154.038.232.056.056.013.114.027.173.038.082.016.165.03.246.043.055.01.108.02.164.028.092.012.184.022.277.03.046,0,.092.011.14.014.14.01.279.017.42.017,3.555,0,6.77-2.081,9.06-5.858a25.778,25.778,0,0,0,3.3-13.006c0-3.689-2.187-6.69-4.875-6.69-.149,0-.3.007-.443.016l-.091.007c-.142.011-.283.028-.422.049l-.072.012c-.13.022-.26.047-.386.076l-.056.012c-.137.034-.271.073-.406.116l-.041.012a8.776,8.776,0,0,1,1.074-.928m-36.342,22.961c-2.955-4.875-4.65-11.567-4.65-18.36,0-4.856,2.775-8.811,6.183-8.811a8.11,8.11,0,0,1,6.029,2.688l-.027-.01c-.073-.028-.147-.054-.22-.079l-.069-.024q-.145-.048-.291-.087l-.076-.02c-.073-.019-.147-.038-.22-.056l-.111-.024c-.063-.014-.127-.027-.191-.038l-.121-.022-.186-.03-.125-.016-.192-.021-.121-.011c-.071-.006-.142-.01-.213-.014l-.1-.006c-.107,0-.213-.007-.321-.007-3.208,0-5.824,3.6-5.824,8.025a31.127,31.127,0,0,0,3.989,15.705c2.756,4.549,6.629,7.054,10.9,7.054,1.876,0,4.759-.645,7.833-3.718l.142-.143c.295-.3.589-.626.873-.962.271-.321.532-.65.773-.975.3-.4.6-.82.894-1.277.323-.492.647-1.022.961-1.575a75.316,75.316,0,0,0,3.955-8.524l.5-1.192c.05-.121.1-.238.15-.356.115-.275.23-.548.347-.818.064-.15.129-.3.193-.447.1-.232.2-.466.3-.694.07-.161.143-.319.214-.478s.147-.322.219-.481l.053.03.038.023c.05.033.1.068.147.107-.516,1.187-1.015,2.391-1.542,3.663-1.262,3.047-2.569,6.2-4.113,9.077-.37.687-.723,1.306-1.079,1.891h0c-.3.5-.607.975-.913,1.422h0c-.252.372-.52.744-.792,1.106s-.564.727-.842,1.055h0c-.38.45-.773.878-1.169,1.275-3.483,3.483-6.713,4.214-8.809,4.214-4.823,0-9.213-2.861-12.361-8.054m43.687-27.171c3.408,0,6.181,3.953,6.181,8.811,0,6.794-1.694,13.486-4.649,18.36-3.148,5.194-7.539,8.054-12.362,8.054-4.5,0-8.767-4.173-8.809-4.214-.331-.331-.658-.682-.975-1.047.04-.048.079-.1.12-.149.072-.087.144-.178.216-.27.031-.04.062-.076.094-.117l.008.007.131.12.009.008.155.137.037.032.2.173.033.027c.067.055.138.114.213.173l.043.034c.087.067.173.136.267.208l.054.042c.087.068.182.137.279.208l.033.024c.1.075.213.153.326.231l.075.05c.117.08.236.16.361.24a10.6,10.6,0,0,0,5.463,1.863c4.273,0,8.145-2.5,10.9-7.054a31.128,31.128,0,0,0,3.988-15.705c0-4.422-2.613-8.025-5.826-8.025-.108,0-.215,0-.322.007l-.1.006c-.071,0-.142.008-.213.014l-.121.011-.194.021-.123.017-.188.029-.121.022-.191.038-.111.024q-.108.025-.216.055l-.081.021q-.148.042-.294.087l-.049.017c-.08.027-.16.056-.238.087l-.024.009a8.114,8.114,0,0,1,6.029-2.688m-7.8,3.669a11.037,11.037,0,0,0-2.28,2.332,9.6,9.6,0,0,0-2.24,2.334,7.557,7.557,0,0,0-2.309,2.428c-1.771.893-2.763,3.277-3.808,5.8a23.124,23.124,0,0,1-2.618,5.11,22.9,22.9,0,0,1-2.651-5.154c-1.055-2.547-2.054-4.951-3.853-5.825a7.466,7.466,0,0,0-2.266-2.365,9.609,9.609,0,0,0-2.241-2.374,11.058,11.058,0,0,0-2.28-2.332c-2.239-2.944-4.791-4.376-7.8-4.376-3.8,0-6.891,4.271-6.891,9.52,0,6.919,1.734,13.746,4.753,18.729,3.282,5.414,7.89,8.395,12.967,8.395,2.23,0,5.656-.766,9.311-4.422.317-.317.633-.656.941-1.007.306.347.617.689.936,1.008a18.854,18.854,0,0,0,2.825,2.206,12.592,12.592,0,0,0,6.484,2.215c5.081,0,9.686-2.981,12.968-8.395,3.02-4.982,4.752-11.808,4.752-18.729,0-5.249-3.091-9.52-6.891-9.52-3.011,0-5.564,1.432-7.8,4.378" transform="translate(-332.749 -397.62)" fill="#00ac99"/>
    </clipPath>
  </defs>
  <g id="Business_coffee" data-name="Business coffee" transform="translate(-17.508 -3.116)">
    <g id="ElOrdenDelCaos" transform="translate(17.508 11.074)">
      <g id="Grupo_457" data-name="Grupo 457" transform="translate(0 0)">
        <g id="Grupo_456" data-name="Grupo 456" clip-path="url(#clip-path)">
          <rect id="Rect치ngulo_930" data-name="Rect치ngulo 930" width="59.702" height="66.765" transform="matrix(0.5, -0.866, 0.866, 0.5, -15.863, 27.489)" fill="#00ac99"/>
        </g>
      </g>
    </g>
    <rect id="Rect치ngulo_931" data-name="Rect치ngulo 931" width="56" height="51.625" transform="translate(17.508 3.116)" fill="none"/>
  </g>
</svg>
