<svg xmlns="http://www.w3.org/2000/svg" width="126" height="117" viewBox="0 0 126 117">
  <g id="Conectemos" transform="translate(-526.623 0.728)">
    <g id="Grupo_440" data-name="Grupo 440" transform="translate(535.623 5.272)">
      <path id="Trazado_569" data-name="Trazado 569" d="M59.231,104.472c-8.342-.2-16.237-1.077-24.618-.51a.828.828,0,0,1-.762-1.271c4.014-6.195,7.91-12.663,11.926-19.044A3.294,3.294,0,0,1,46.9,82.4a3.293,3.293,0,0,1,1.648-.243c4.861.121,10.674.613,15.535.734,1.242-1.907,5.442-10.62,10.707-18.1,4.518-6.414,10.164-11.6,11.5-14.363A48.062,48.062,0,0,0,82.9,39.872a10.209,10.209,0,0,1,.521-9.174c3.839-5.908,7.278-9.467,12.014-14.691a2.156,2.156,0,0,1,3.692.9c.253,1.005.523,2,.815,2.977l5.825,19.419a8.606,8.606,0,0,1-1.286,7.516c-13.4,18.549-28.9,34.914-40.164,54.8A5.686,5.686,0,0,1,59.231,104.472Z" fill="none" stroke="#00ac99" stroke-linecap="round" stroke-linejoin="round" stroke-width="1.5"/>
      <path id="Trazado_570" data-name="Trazado 570" d="M40.969,51.553c-7.79,2.159-16.039-.169-23.783-2.486A25.284,25.284,0,0,1,10.038,46.1c-3.285-2.242-5.325-5.9-6.726-9.625a32.273,32.273,0,0,1-2.17-14.622A21.566,21.566,0,0,1,7.289,8.6C11.143,4.874,16.441,3.024,21.7,2.02A57.466,57.466,0,0,1,33.656,1.012c7.189.147,14.566,1.754,20.372,6a25.5,25.5,0,0,1,6.25,34.618,4.408,4.408,0,0,0-.72,1.413,3.876,3.876,0,0,0,.13,1.721,44.013,44.013,0,0,0,1.8,5.789,100.717,100.717,0,0,0-9.709-3.135S44.491,50.577,40.969,51.553Z" fill="none" stroke="#00ac99" stroke-linecap="round" stroke-linejoin="round" stroke-width="1.5"/>
      <path id="Trazado_571" data-name="Trazado 571" d="M30.807,22.923a8.223,8.223,0,0,1,3.909.854,2.825,2.825,0,0,1,1.325,3.434,3.369,3.369,0,0,1-1.617,1.4,9.251,9.251,0,0,1-9.123-.661,5.617,5.617,0,0,1-2.633-4.05c-.168-2.6,2.255-4.722,4.759-5.46a15.158,15.158,0,0,1,9.157.591c3.168,1.1,6.427,3.3,6.878,6.619A7.46,7.46,0,0,1,40.573,32.1,15.215,15.215,0,0,1,33.991,35.3c-2.724.657-8.436,2.035-13.9-1.113-1.526-.879-5.529-3.185-6.33-7.517-.981-5.306,3.59-9.6,4.945-10.879a17.969,17.969,0,0,1,10.286-4.549,21.975,21.975,0,0,1,10,1.179c3.43,1.084,6.823,2.156,9.471,5.338,2.931,3.523,4.5,9.179,2.474,14.063-1.431,3.446-4.12,5.208-6.366,6.68A25.237,25.237,0,0,1,30.327,42.33a29.814,29.814,0,0,1-14.242-3.692" fill="none" stroke="#00ac99" stroke-linecap="round" stroke-linejoin="round" stroke-width="1.5"/>
    </g>
    <rect id="Rectángulo_31" data-name="Rectángulo 31" width="126" height="117" transform="translate(526.623 -0.728)" fill="none"/>
  </g>
</svg>
