<svg xmlns="http://www.w3.org/2000/svg" width="56" height="52" viewBox="0 0 56 52">
  <g id="Dot_connector" data-name="Dot connector" transform="translate(-286.65 -0.171)">
    <rect id="Rectángulo_30" data-name="Rectángulo 30" width="56" height="52" transform="translate(286.65 0.171)" fill="none"/>
    <g id="SumaDeTalentos" transform="translate(294.956 6.836)">
      <path id="Trazado_627" data-name="Trazado 627" d="M829.736,203.5c.1-.04.118-.079.037-.094-.094,0-.152-.056-.208.15a1.457,1.457,0,0,0,.159.33.932.932,0,0,1-.011-.313C829.735,203.5,829.706,203.528,829.736,203.5Z" transform="translate(-808.937 -187.406)" fill="#00ac99"/>
      <path id="Trazado_628" data-name="Trazado 628" d="M831.247,205.385a2.307,2.307,0,0,0,.389-.707l.008-.011c.081-.282-.03-.376-.141-.256a.769.769,0,0,0-.012.148l-.016.025a2.452,2.452,0,0,1-.282.517,4.048,4.048,0,0,1-.42.534.639.639,0,0,1-.6.081c-.132-.056-.167-.136-.121-.139-.056,0-.131-.069-.225-.139l.052.074a7.91,7.91,0,0,0-.317-.811,3.089,3.089,0,0,0,.183.869l-.017-.024a.784.784,0,0,0,.753.254,1.364,1.364,0,0,0,.721-.521C831.37,205.15,831.261,205.326,831.247,205.385Z" transform="translate(-808.933 -187.88)" fill="#00ac99"/>
      <path id="Trazado_629" data-name="Trazado 629" d="M841.678,218.055c-.077.1-.154.2-.238.3a2.512,2.512,0,0,0,.238-.3Z" transform="translate(-814.8 -194.642)" fill="#00ac99"/>
      <path id="Trazado_630" data-name="Trazado 630" d="M810.012,208.324a1.34,1.34,0,0,0-.024-.417C809.992,208.171,810,208.387,810.012,208.324Z" transform="translate(-799.27 -189.63)" fill="#00ac99"/>
      <path id="Trazado_631" data-name="Trazado 631" d="M813.675,220.18l-.2-.316a1.75,1.75,0,0,0,.2.316Z" transform="translate(-800.992 -195.537)" fill="#00ac99"/>
      <path id="Trazado_632" data-name="Trazado 632" d="M841.91,217.263c.2-.258.386-.528.565-.8C842.46,216.376,842.2,216.879,841.91,217.263Z" transform="translate(-815.033 -193.85)" fill="#00ac99"/>
      <path id="Trazado_633" data-name="Trazado 633" d="M826.1,202.841c.089-.169.166-.3.229-.436-.081.133-.162.259-.236.4a.14.14,0,0,1,.008.039Z" transform="translate(-807.225 -186.914)" fill="#00ac99"/>
      <path id="Trazado_634" data-name="Trazado 634" d="M818,208.759l-.084-.288c-.039-.081-.083-.156-.126-.227C817.853,208.419,817.925,208.59,818,208.759Z" transform="translate(-803.123 -189.797)" fill="#00ac99"/>
      <path id="Trazado_635" data-name="Trazado 635" d="M831.433,194.819a.668.668,0,0,0-.524.083,1.716,1.716,0,0,1,.622.048C831.541,194.927,831.517,194.881,831.433,194.819Z" transform="translate(-809.601 -183.157)" fill="#00ac99"/>
      <path id="Trazado_636" data-name="Trazado 636" d="M824.19,207.625l-.16-.326Z" transform="translate(-806.203 -189.33)" fill="#00ac99"/>
      <path id="Trazado_637" data-name="Trazado 637" d="M829.167,222.548a.257.257,0,0,0,.087.094C829.261,222.623,829.225,222.59,829.167,222.548Z" transform="translate(-808.74 -196.86)" fill="#00ac99"/>
      <path id="Trazado_638" data-name="Trazado 638" d="M792.459,225.756c-.012-.006-.015.008-.024.008C792.47,225.826,792.486,225.842,792.459,225.756Z" transform="translate(-790.603 -198.443)" fill="#00ac99"/>
      <path id="Trazado_639" data-name="Trazado 639" d="M807.2,247.962l-.167-.1a.156.156,0,0,0-.08.041Z" transform="translate(-797.771 -209.358)" fill="#00ac99"/>
      <path id="Trazado_640" data-name="Trazado 640" d="M832.038,233.443l-.054-.008C831.67,233.4,831.844,233.437,832.038,233.443Z" transform="translate(-810.046 -202.228)" fill="#00ac99"/>
      <path id="Trazado_641" data-name="Trazado 641" d="M858.757,207.4c-.111,1.183-.188-1.926-.307-.146C858.527,207.086,858.633,208.882,858.757,207.4Z" transform="translate(-823.2 -189.031)" fill="#00ac99"/>
      <path id="Trazado_642" data-name="Trazado 642" d="M825.572,203.757l-.218.422Z" transform="translate(-806.857 -187.582)" fill="#00ac99"/>
      <path id="Trazado_643" data-name="Trazado 643" d="M858.439,207.807h0l-.01.183Z" transform="translate(-823.189 -189.581)" fill="#00ac99"/>
      <path id="Trazado_644" data-name="Trazado 644" d="M848.6,191.06a1.973,1.973,0,0,0,.1.269C848.708,191.314,848.694,191.249,848.6,191.06Z" transform="translate(-818.337 -181.312)" fill="#00ac99"/>
      <path id="Trazado_645" data-name="Trazado 645" d="M844.581,227.74a4.469,4.469,0,0,0,.325-.376C844.78,227.515,844.678,227.638,844.581,227.74Z" transform="translate(-816.352 -199.238)" fill="#00ac99"/>
      <path id="Trazado_646" data-name="Trazado 646" d="M830.382,181.365a3.91,3.91,0,0,0-.71-.116,1.1,1.1,0,0,0,.107.031A2.263,2.263,0,0,1,830.382,181.365Z" transform="translate(-808.99 -176.467)" fill="#00ac99"/>
      <path id="Trazado_647" data-name="Trazado 647" d="M812.191,189.224c.042-.038.1-.083.157-.122l.236-.242C812.455,188.981,812.314,189.1,812.191,189.224Z" transform="translate(-800.358 -180.226)" fill="#00ac99"/>
      <path id="Trazado_648" data-name="Trazado 648" d="M815.536,176.353c-.228.032-.362.069-.479.07C815.24,176.455,813.9,177.107,815.536,176.353Z" transform="translate(-801.604 -174.05)" fill="#00ac99"/>
      <path id="Trazado_649" data-name="Trazado 649" d="M825.879,203.159a.708.708,0,0,1-.094.282c.052-.1.1-.2.158-.288C825.94,203.121,825.926,203.1,825.879,203.159Z" transform="translate(-807.071 -187.269)" fill="#00ac99"/>
      <path id="Trazado_650" data-name="Trazado 650" d="M828.559,183.483l-.384-.054a1.394,1.394,0,0,0-.238,0l-.772.142.728-.128c.03,0,.072-.015.094-.016h.048a1,1,0,0,1,.115,0Z" transform="translate(-807.752 -177.541)" fill="#00ac99"/>
      <path id="Trazado_651" data-name="Trazado 651" d="M814.43,239.941l.357.1A2.289,2.289,0,0,0,814.43,239.941Z" transform="translate(-801.464 -205.449)" fill="#00ac99"/>
      <path id="Trazado_652" data-name="Trazado 652" d="M817.828,187.04a3.389,3.389,0,0,0-.785.406,1.217,1.217,0,0,0-.121.142c.148-.094.282-.211.44-.3Z" transform="translate(-802.694 -179.327)" fill="#00ac99"/>
      <path id="Trazado_653" data-name="Trazado 653" d="M815.383,176.491Z" transform="translate(-801.934 -174.118)" fill="#00ac99"/>
      <path id="Trazado_654" data-name="Trazado 654" d="M794.079,180.734a6.9,6.9,0,0,0,.442-.608c.084-.116.094-.17.086-.2-.025-.06-.164-.021-.094-.174,1.211-1.367.676-.522,1.167-.9.4-.391.741-.764,1.058-1.11a6.272,6.272,0,0,1,.995-.871c.07-.013.209-.1.076.044.847-.9,3.018-1.911,4.235-2.65a.653.653,0,0,1,.188-.037c-.244.012-.316-.058-.3-.141.157-.075.306-.155.445-.232s.282-.125.4-.18a1.481,1.481,0,0,1,.6-.167,1.976,1.976,0,0,0-.592.306l.666-.3c.677-.061-.914.4-.864.519l2.029-.867.245-.1c.039-.015.154-.04.23-.057l.5-.1c.326-.057.631-.094.9-.119.123.072-.507.162-.98.25s-.787.159-.07.111l-.41.056-.1.015a.176.176,0,0,0-.057.013l-.2.063-.8.258c1.292-.188-.959.331.24.2l.7-.245.143-.052.02-.007.061-.011.275-.053.958-.17a15.762,15.762,0,0,1,2.307-.224c.489-.119-.171-.133.321-.252a7.07,7.07,0,0,1,2.69.143,7.361,7.361,0,0,0,2.039.277,7.867,7.867,0,0,1,.856-.063,5.193,5.193,0,0,1,1.586.316c-.194.01-.391.038-.584.061a12.873,12.873,0,0,0,1.641.327,4.618,4.618,0,0,1,1.646.584c-.385-.1-1.568-.539-1.278-.406,1.281.64.985.251,1.99.711l.121.261a12.993,12.993,0,0,1,5.294,4.66c-.107-.094-.388-.416-.126.094.188.335.415.659.588,1.024s.359.722.5,1.106l.425,1.183a10.479,10.479,0,0,1,.313,1.177,18.517,18.517,0,0,1,.309,4.782l.094,1.165c-.012.27-.12.492-.109.2-.195,1.17.087.07.078.643-.069.675-.188.876-.183.445a22.419,22.419,0,0,1-.672,4c-.2.73-.456,1.45-.684,2.125-.273.659-.552,1.259-.8,1.757l.126-.418c-.344.792-.511,1.252-.663,1.706a5.942,5.942,0,0,1-.746,1.572c.043-.094.094-.188.13-.282l-1.469,2.442a8.982,8.982,0,0,1-2.005,1.882,10.281,10.281,0,0,1-4.543,1.85,6.276,6.276,0,0,1-2.012.411,5.255,5.255,0,0,0-1.843.208c-1.067-.133-1.441-.2-1.923-.275-.239-.058-.505-.12-.895-.2l-.69-.136a7.688,7.688,0,0,1-.941-.214c-.773-.208-1.206-.088-2.182-.317l.02-.158-1.342-.272-.631-.406-.919-.255a5.354,5.354,0,0,1,.5.206c.131.067.21.12.175.133a12.718,12.718,0,0,1-2.194-.8,5.384,5.384,0,0,1-.739-.423c-.169-.12-.229-.2-.226-.218-.05-.028-.066-.047-.1-.069l-.188-.152c-.125-.107-.253-.2-.376-.29l-.716-.5a4.978,4.978,0,0,1-1.137-1.1c.094.024.419.449.753.692-.631-.536-.612-.677-.62-.734,0-.077,0-.111-.456-.768.073.207-.137-.057-.188-.075-.323-.744-1.006-2.517-1.46-3.873l.188.229-.282-.919-.131-.9c-.088-.665-.167-1.348-.233-2.04a37.585,37.585,0,0,1-.188-4.255c-.056,1.03-.242.8-.255-.053l.169-.335c-.084-.549-.088.882-.177-.243.066-1.078.219-.712.246-.094,0-.434-.014-.871.016-1.3.056-.072.055.232.11.316a7.462,7.462,0,0,1,.154-1.4,9.535,9.535,0,0,0,.217-1.558l.063-.06a12.831,12.831,0,0,1,1.013-3.142,10.508,10.508,0,0,1,.708-1.152,11.883,11.883,0,0,1,1.017-1.165c-.071-.133.583-.753,1.049-1.27a22.175,22.175,0,0,1,4.868-2.823c.642-.33.739-.376.731-.411s-.106-.031.188-.183a4.2,4.2,0,0,0,.971-.224c.386-.088.629-.137.132.056.592-.17,1.065-.343,1.518-.441l1.282-.3,1.421-.344a4.337,4.337,0,0,1,.8-.083,3.282,3.282,0,0,1,.456.02l.573.059c-.339-.1-.726-.176-.518-.188.583.058,1.3.231,1.213.282l-.153-.007a13.985,13.985,0,0,1,2.756.471,8.2,8.2,0,0,1,2.541,1.213,8.921,8.921,0,0,1,1.9,1.861c.532.659.953,1.327,1.35,1.894l-.088-.127c.271.392.484.824.719,1.245a9.879,9.879,0,0,1,.591,1.3c.386,1.275-.336-.728-.112.233a15.814,15.814,0,0,1,.98,3.828c.071.579.142,1.14.173,1.72.019.29.056.582.071.883s.028.611.05.933c-.066.5-.188,1.18-.238,1.971-.124.781-.188,1.678-.406,2.572a19.624,19.624,0,0,1-.721,2.635c-.171.4-.34.79-.5,1.15l-.244.518-.282.443.153-.094a5.042,5.042,0,0,1-.7,1.142c.094-.027.425-.616.264-.215l-.253.488a1.57,1.57,0,0,0-.094.2l-.051.116-.115.235a9.087,9.087,0,0,1-.547.923,8.848,8.848,0,0,1-1.421,1.634,7.511,7.511,0,0,1-3.847,1.86,9.668,9.668,0,0,1-4.339-.365,18.454,18.454,0,0,1-4.076-1.823l-.135-.073a.543.543,0,0,0-.094-.04l-.068-.025-.147-.059-.279-.126c-.167-.071-.308-.112-.426-.159-.24-.089-.416-.12-.6-.177a4.2,4.2,0,0,1-1.8-1.233,7.655,7.655,0,0,0,.7.354,11.428,11.428,0,0,1-4.065-5.064,17.455,17.455,0,0,1-1.188-6.438,2.623,2.623,0,0,1,.1.687c.033-.228.019-.551.048-.906s.064-.744.082-1.108.025-.706.025-.941a1.076,1.076,0,0,0,.015-.376c.194-.635.124-.124.291-.5a12.248,12.248,0,0,1,1.026-2.55c.055-.064-.082.245-.149.4a9.8,9.8,0,0,1,.711-1.346c.263-.475.514-.786.282-.6a12.3,12.3,0,0,1,3-3.106,2.432,2.432,0,0,1,.615-.484c.255-.158.53-.333.8-.478a3.326,3.326,0,0,0,1.129-.636c-.019.1.669-.061,1.466-.32.4-.128.857-.188,1.259-.295l.565-.142c.07-.012.1-.009.152-.022a.88.88,0,0,1,.188-.007c-.343.022.862.188.455.231,1.142.17,2.173.452,2.012.282.994.43,2,.779,2.859,1.2a4.545,4.545,0,0,1,1.882,1.412,8.47,8.47,0,0,1,2.755,3.943,11.691,11.691,0,0,1,.476,4.689,8.339,8.339,0,0,1-.053-1.755,9.93,9.93,0,0,0-.094-1.1c-.061-.282-.121-.457-.175-.416a13.685,13.685,0,0,1,.161,3.759c-.028.291-.046.584-.1.878l-.075.446-.04.227-.021.115a1.01,1.01,0,0,0-.025.178,14.323,14.323,0,0,1-.313,2.005c-.194.745,0-.448-.006-.71a13.708,13.708,0,0,1-3.3,7.468,3.015,3.015,0,0,1,.339-.423c-.335.376-.872.753-.767.793l.358-.329c.337-.225.05.188-.416.618a8.873,8.873,0,0,1-1.169.824c.182-.149.112-.167-.064-.129-.089.019-.2.053-.332.094l-.418.086a1.956,1.956,0,0,1-.67.05c-.117-.022-.074-.085.238-.219a4.3,4.3,0,0,0-.471.112c-.131.037-.216.059-.175.094-.495-.012-.642-.05-.153-.137a8.9,8.9,0,0,1-.958.009,4.535,4.535,0,0,1-.5-.017,4.621,4.621,0,0,1-1.337-.269c.022-.046.352.029.532.02l-.637-.11c-.215-.058-.439-.122-.679-.2a2.745,2.745,0,0,1-.331-.114c-.119-.061-.243-.131-.371-.206a9.79,9.79,0,0,1-.824-.542c.094.023-.029-.1.329.137a30.924,30.924,0,0,1-2.755-1.976,12.118,12.118,0,0,1-2.4-2.623c.642.522-.478-.792-.355-1.029-.135-.2-.251-.4-.367-.611a6.761,6.761,0,0,1-.325-.633c.051.188.086.376.152.565a7.8,7.8,0,0,1-.983-3.283,6.609,6.609,0,0,0,.188.913,7.633,7.633,0,0,1-.118-2.326,4.38,4.38,0,0,0-.082.659,4.589,4.589,0,0,0-.027.667c-.085-.635-.106-.606-.159-.623-.021-.008-.036-.03-.04-.157v-.282a4.507,4.507,0,0,1,.073-.5c0,.177,0-.151.123-.585a5.428,5.428,0,0,1,.461-1.278h0c.081-.308.195-.611.32-.952a7.379,7.379,0,0,1,.609-1.085c.188-.174.069.276.188.163a4.249,4.249,0,0,1,.344-.659l.064-.105a.88.88,0,0,0,.084-.155c.037-.075.074-.154.117-.232.085-.159.181-.322.282-.483.4-.654.923-1.242,1.135-1.588-.152.222-.088.3-.015.25a5.1,5.1,0,0,1,.282-.456c.454-.382.557-.386.525-.276.689-.536.57-.465.45-.471-.109.022-.188-.009.743-.493a3.847,3.847,0,0,0-.348.254,7.786,7.786,0,0,1,2.857-.983l.739-.063.736.041c.122.009.245.012.366.028l.359.076.712.162c.506.3-1.66-.294-1.05,0l1.018.188a3.323,3.323,0,0,1,.493.1,2.905,2.905,0,0,1,.439.2c.149.082.3.174.441.272a2.529,2.529,0,0,1,.356.269,4.608,4.608,0,0,0,.853.83,9.38,9.38,0,0,1,2.872,3.061,4.589,4.589,0,0,0-.245-.439c.217.08.471.537.676,1.129a15.579,15.579,0,0,1,.47,1.991c-.054-.328-.213-.4-.164-.323a7.317,7.317,0,0,1-.195,2.841,16.746,16.746,0,0,1-1.259,3.473l.1-.343a14.294,14.294,0,0,1-1.1,1.661,5.626,5.626,0,0,1-1.466,1.35c-.237.251-.847.486-.445.423a4.371,4.371,0,0,1-2.514.071,9.153,9.153,0,0,1-2.3-1.046,7.611,7.611,0,0,1-3.124-3.73c.166.34.5.774.344.506a10.878,10.878,0,0,1-1.113-2.5c-.05.242.024.368.139.949a5.816,5.816,0,0,1-.617-1.738c.352,1.219.15-.052.165-.583-.023.094-.089-.084-.118-.035.034-.728.008-.778-.071-.907a.671.671,0,0,1-.075-.335,2.464,2.464,0,0,1,.169-.966l.03.116A3.709,3.709,0,0,1,804.895,185c.169-.065.033.079-.118.267s-.31.431-.274.484a5.049,5.049,0,0,1,1.066-1.218,2.688,2.688,0,0,1,1.436-.614,4.244,4.244,0,0,0-1.449.707,6.6,6.6,0,0,1,1.029-.384,6.286,6.286,0,0,1,.87-.188l-.078.01a6.914,6.914,0,0,1,1.84-.015c-.154-.023-.31-.055-.466-.067a4,4,0,0,1,2.157.175,16.849,16.849,0,0,1,2.348,1.058c-.842-.42-.933-.392-.823-.315s.4.274.3.306c.188.15.455.342.584.471.146.136.216.241.132.188a2.37,2.37,0,0,1,.762.834,7.683,7.683,0,0,1,.558,1.256c-.029.031.031.244.012.435s-.025.348-.089.255c-.051,1.052.121-.241.146-.162a4.456,4.456,0,0,1-.941,2.911l-.019.035a2.587,2.587,0,0,1-1.112.957,3.556,3.556,0,0,1-1.606.289.385.385,0,0,1-.137-.017l-.172-.057-.337-.12c-.215-.077-.407-.152-.585-.224-.357-.144-.659-.269-.947-.411a6.361,6.361,0,0,1-.877-.494,4.287,4.287,0,0,1-.978-.872c-.162-.322-.041-.218.109-.05l.262.244c.076.074.135.125.135.125a3.325,3.325,0,0,1-.713-1.262c-.017-.108-.052-.216-.061-.325l0-.325a.326.326,0,0,1,.035-.141l.068-.175c.049-.117.094-.237.151-.358-.056.212.071.025.272-.226a5.437,5.437,0,0,0,.309-.67,2.017,2.017,0,0,1,.565-.734c-.094.175-.188.406-.365.753a4.11,4.11,0,0,1,.9-1.062c.089-.07.188-.117.282-.18.1-.038.2-.082.306-.11a1.008,1.008,0,0,1,.61.045c.03.05.014.062-.023.055a.408.408,0,0,1-.071-.023h-.105a1.165,1.165,0,0,1-.142-.008,1.087,1.087,0,0,0-.155.027.637.637,0,0,0-.255.088.992.992,0,0,1,.344-.068c.059-.018.129.015.183.016a.175.175,0,0,1,.132.035c.03.019.1.068.168.122l.2.155c.131.1.256.213.376.32a7.193,7.193,0,0,1,.882.98,2.612,2.612,0,0,0-.324-.64c.246.338.032.232-.169.016-.7-.653-.992-1.005-.986-1.081a7.138,7.138,0,0,1,.573.451,1.983,1.983,0,0,0-.542-.611,1.258,1.258,0,0,0-1.093.036,4.673,4.673,0,0,0-1.6,1.845c.044-.213.094-.427.158-.64a8.655,8.655,0,0,0-.6,1.43c-.175.272-.386.439-.1-.259-.071.118-.127.222-.173.314a.554.554,0,0,0-.087.277,3.437,3.437,0,0,0,0,.4,8.96,8.96,0,0,0,.248.889c.043.094,0,.068-.049-.021a5.41,5.41,0,0,0,.322.45c.129.13.248.266.382.387-.18-.123.011.247-.413-.29a5.116,5.116,0,0,0,1.86,1.51,11.123,11.123,0,0,1,1.3.685l-.152-.056c.309.132.549.219.734.282l.149.048c.05.006.094,0,.132.008h.175c.188,0,.2-.028.188-.055s-.037-.056.061-.094.324-.051.783-.188a2.879,2.879,0,0,0,1.385-.232,3.024,3.024,0,0,0,.107-.3c.223-.177.542-.647.534-.532a.838.838,0,0,0,.046-.111l-.01.017c.321-.762-.171.188.022-.356a4.833,4.833,0,0,0,.847-2.179c.111-.785-.028-1.443.04-1.62-.135-.218-.038.094-.035.3.007.1.009.172-.008.132a5.137,5.137,0,0,0-.167-.529,1.455,1.455,0,0,0-.393-1.058,7.3,7.3,0,0,0-1.239-1.223c.41.075,1.228.984.369.035a10.1,10.1,0,0,1-1.4-.794,6.116,6.116,0,0,0-1.671-.747,6.173,6.173,0,0,1-1.365-.142,6.943,6.943,0,0,0-2.6.23,3.562,3.562,0,0,0-1.663.743,4.432,4.432,0,0,0-1.129,1.237,4.611,4.611,0,0,0-.578,1.412l-.02-.055c.051.183.016.691.055,1.3a8.922,8.922,0,0,0,.308,1.9c-.118-.02-.229-.216-.382-.868a10.38,10.38,0,0,0,.237,1.129c.137.244.248.583.539,1.261l-.232-.219a10.209,10.209,0,0,0,1.094,2.084,14.76,14.76,0,0,0,1.684,2.087c.084-.01-.142-.337-.17-.5s.069-.116.847.508c.017.094-.015.255-.426-.087.13.119.5.365.766.6-.239-.131-.476-.271-.709-.423.65.605.41.23.973.647-.073.082.4.343.272.356-.165-.082-.495-.376-.738-.505.622.512,1.465,1.012,1.738,1.209-.041-.084.052-.112.609.087a8.111,8.111,0,0,1,.923.31c.049.035,0,.105.478.157.2-.018.557-.029.865-.086s.557-.153.547-.232a4.014,4.014,0,0,1,.725-.166,6.5,6.5,0,0,0,1.622-1.322c.471-.549.724-.985.4-.673l-.13.154.073-.106v0a18.379,18.379,0,0,0,1.818-3.457,16.961,16.961,0,0,0,.636-1.861,9.088,9.088,0,0,0,.188-.973,6.471,6.471,0,0,0,.016-.976h.05a7,7,0,0,0-.571-2.353,6.639,6.639,0,0,0-1.1-1.747c-.257-.363-.6-.872-.427-.771a12.191,12.191,0,0,0-.941-.884l-.505-.438a6.654,6.654,0,0,1-.715-.645c.423.335.376.243.344.216a6.08,6.08,0,0,1,.581.471c-.282-.258-.529-.44-.694-.606a4.534,4.534,0,0,1-.438-.5,1.557,1.557,0,0,0-.111-.141,2.206,2.206,0,0,0-.188-.188c-.1-.081-.212-.159-.334-.24a4.31,4.31,0,0,0-.952-.484c.151.032.162.009.076-.052a1.425,1.425,0,0,0-.5-.2c-.433-.106-1.044-.238-1.407-.282.351.094.7.2,1.041.3-.4-.068-.776-.164-1.146-.21-.376-.024-.735-.071-1.1-.078a3.384,3.384,0,0,1,.4-.152,6.292,6.292,0,0,0-4.223,1.109,18.53,18.53,0,0,0-2.811,2.527c-.188.376.057.026.359-.295.282-.335.625-.63.42-.316a18.175,18.175,0,0,0-1.327,1.593c-.086.112-.188.282-.239.345,0-.018-.065.073-.094.11l-.114.138c-.144.177-.256.319-.318.413a5.071,5.071,0,0,0-.824,1.749l-.1.355-.094.414c-.039.151-.086.317-.144.506-.042.195-.094.413-.158.665.058-.124.141-.237.172-.131a1.075,1.075,0,0,1,0,.346c-.007.188-.015.458-.049.833-.024.351-.043.635-.076.847a1.763,1.763,0,0,1-.061.44c-.056.152-.137.016-.188-.444,0-.35.028-.519.048-.5-.025-.471.071-1.088-.08-.519l.037.194c-.021.18-.039.442-.056.727s.016.59.022.86c.052.535.1.922.013.7.132.546.209.646.188.525a2.6,2.6,0,0,0-.054-.337l-.066-.553a7.634,7.634,0,0,0,.61,2.324,14.055,14.055,0,0,0,1.147,2.14c-.144-.269-.236-.538-.071-.289a5.48,5.48,0,0,0,1.153,1.486,5.907,5.907,0,0,1,.889.818c.684.806-.444-.094.982,1.129.828.792.077.287-.3.014,1.354,1.065,2.47,2.054,3.314,2.594-.271-.144-.534-.3-.8-.452l.652.391.3.18.152.088a1.353,1.353,0,0,0,.224.111,1.129,1.129,0,0,1-.172-.117l-.1-.094-.2-.188.326.207a2.618,2.618,0,0,0,.347.164c.166.072.266.125.253.146.549.119-.326-.328.739-.058a6.911,6.911,0,0,0,1.344.35,5.153,5.153,0,0,1,1.035.217l-.649-.068c-.151-.027-.245-.041-.3-.046-.114-.008-.076.022-.028.056.094.065.236.168-.727-.024.183.044.394.068.621.116a6.806,6.806,0,0,0,.759.127c.083.025-.083.025-.237.021.282.044.507.075.695.094a3.364,3.364,0,0,0,.461,0,1.866,1.866,0,0,0,.51-.085c.263-.119.55-.141,1.663-.5-.257.188.587-.013.917-.241-.87.43-.452.083.253-.4a4.3,4.3,0,0,0,.735-.5,2.823,2.823,0,0,0,.411-.388c.213-.23.347-.407.593-.7a6.628,6.628,0,0,1-.616.61c.152-.263.666-.771,1.189-1.615.118-.024-.479.766-.248.495a14.726,14.726,0,0,0,1.852-3.553c.282-.652.188-.01.412-.595.188-.847.315-1.287.451-1.746a8.187,8.187,0,0,0,.328-1.843c-.094.254-.137.4-.149.327a2.528,2.528,0,0,1,0-.292l.006-.3v-.131l.024-.222-.031.183a.744.744,0,0,0-.011.124l-.031.376c-.023.247-.052.49-.085.735-.066.487-.145.974-.243,1.458q.129-.941.174-1.891a19.575,19.575,0,0,1-.415,2.366c.12-.9.116-.8-.072-.41a6.413,6.413,0,0,0,.377-1.782c.024-.309.049-.623.074-.946a8.767,8.767,0,0,1,.222-.964l.282.094a10.231,10.231,0,0,0,.268-3.036,15.251,15.251,0,0,0-.576-3.506,8.067,8.067,0,0,1,.188.885,16.151,16.151,0,0,0-.96-2.447c.131.027-.1-.5-.272-.856-.011.036-.3-.4-.659-.824a2.939,2.939,0,0,0-.97-.83,11.109,11.109,0,0,0-.872-.9,6.808,6.808,0,0,0-2.108-1.14l-2.184-.721c.642.1-.255-.295,1.129.123a4.154,4.154,0,0,0-1.318-.4,24.574,24.574,0,0,0-2.591-.513,3.024,3.024,0,0,0-.444.053c-.218.019-.421.094-.812.167-.089,0-.006-.049-.006-.049,0,.05-1.21.307-.505.282a9.472,9.472,0,0,0-3.881,1.285,24.6,24.6,0,0,0-3.151,2.328,16.348,16.348,0,0,0-2.648,4.036c.009-.094-.044-.025.086-.259a3.819,3.819,0,0,0-.551,1.506,11.243,11.243,0,0,1-.454,1.738c-.112.282-.112.34-.135.292a1.034,1.034,0,0,1,.043-.392c.074-.343.195-.724.067-.393-.1.053-.195.237-.276.533a8.088,8.088,0,0,0-.094,1.085c-.022.409-.041.855-.076,1.29a11.257,11.257,0,0,1-.039,1.238l-.026-.362a6.972,6.972,0,0,0,.145,2.052c.078.389.139.8.237,1.223.123.42.244.856.353,1.311,0,0-.05-.08-.05,0,.1.3.3.652.471,1.048l.282.619c.094.215.233.417.351.632l.368.648c.119.219.282.413.42.618l.421.6c.146.188.3.358.449.527-.452-.346-.565-.585-.456-.242.532.6,0-.293,1.069.879.157.2.421.529.659.815a2.282,2.282,0,0,1,.487.627l-.583-.49c-.188-.168-.362-.356-.544-.532a7.811,7.811,0,0,0,2.107,1.8l-.128,0a8.732,8.732,0,0,0,2.142,1.06l.231.074a.322.322,0,0,1,.058.017l.11.05.48.225c.344.177.768.367,1.326.632l-.205-.164a5.315,5.315,0,0,1,1.151.455,3.587,3.587,0,0,0,1.164.412l.341.3c.222.044.522.12.887.162l.577.077.638.044a11.083,11.083,0,0,0,2.635-.188,6.615,6.615,0,0,1-1.875.307,11.993,11.993,0,0,1-2.1-.13,10.13,10.13,0,0,0,1.923.235,5.552,5.552,0,0,0,1.61-.147,4.956,4.956,0,0,1-1.182.106,12.1,12.1,0,0,0,4.13-1.223c-.061.246,1.042-.245,2.06-1.2a18.239,18.239,0,0,0,2.3-2.817l.122-.293.01-.029h0c-.008.017-.013.024-.009.016l.008-.017.016-.034.066-.132.268-.526.552-1.046c.167-.358.312-.727.471-1.093a11.72,11.72,0,0,0,.458-1.12,19.953,19.953,0,0,0,.716-2.4,19.357,19.357,0,0,0,.442-2.622c-.234.631-.2.362-.153-.034.024-.4.046-.933-.113-.83.016-.422.028-.712.036-.908a1.949,1.949,0,0,1,.012-.332l.071-1.283-.007-1.287c.042-.619.13.8.194.718a7.346,7.346,0,0,1-.033-1.253,1.977,1.977,0,0,0,.024-.789c-.069.266-.245-.622-.429-1.675.064.5.094,1,.144,1.506a18.526,18.526,0,0,1-.452-2.393,7.87,7.87,0,0,0-.7-2.368c.13.254.258.506.376.764-.127-.322-.282-.773-.532-1.309-.255-.5-.51-1.072-.854-1.607a12.1,12.1,0,0,0-1.045-1.506,6.018,6.018,0,0,0-1.013-.966c-.146-.2-.32-.5.132-.07a8.18,8.18,0,0,0-2.08-1.616,9.452,9.452,0,0,0-2.515-.932,23.872,23.872,0,0,0-2.431-.406l-1.08-.151-.5-.082a5.139,5.139,0,0,0-.533-.069c.089-.023.181-.043.276-.061a4.424,4.424,0,0,0-.92.075c-.151.024-.309.052-.492.094a4.527,4.527,0,0,1-.494.082c.03-.039.215-.124-.051-.071a21.664,21.664,0,0,1-2.291.594l.643-.23a14.744,14.744,0,0,0-3.73,1.223,30.871,30.871,0,0,0-3.067,1.767c-.06-.105-.618.167-1.289.565a16.233,16.233,0,0,0-1.882,1.4l.011-.053a13.429,13.429,0,0,0-1.8,1.919,5.942,5.942,0,0,0-.366.523l-.3.542c-.094.18-.2.356-.29.535l-.215.556a17.45,17.45,0,0,0-.972,4.649,21.636,21.636,0,0,0-.342,4.734c.032,1.93.219,4,.4,5.676-.018-.26.028-.245.094-.094q.024.058.051.138l.07.229c.064.152.113.267.166.415.179.767.829,2.01.6,1.96-.034-.088-.064-.177-.094-.266a9.334,9.334,0,0,0,1.324,3.3l.344.042a4.857,4.857,0,0,0,.8,1.164,8.119,8.119,0,0,0,1.14.981c.188.144.363.282.53.435l.177.147a1.717,1.717,0,0,0,.2.137,4.034,4.034,0,0,0,.376.211,12.33,12.33,0,0,0,1.443.583c.47.16.948.309,1.365.429l1.231.4c.765.246,1.375.524,1.8.693.4.063.839.152,1.279.242a7.848,7.848,0,0,0,1.277.2l-.068.135a20.381,20.381,0,0,0,2.84.371,13.838,13.838,0,0,0,1.458.047c.533-.037,1.129-.036,1.823-.123a4.038,4.038,0,0,1-.559.152c1.587-.157,1.924-.647,3.294-1.023a3.653,3.653,0,0,0,.478.071,14.064,14.064,0,0,0,3.732-1.831,9.438,9.438,0,0,0,1.586-1.387,5.014,5.014,0,0,0,.659-.878q.239-.442.462-.891c0,.054.017.154-.2.535l.678-1.106.413-.677c.135-.232.248-.471.364-.7.454-.906.774-1.634.538-1.49.106.033.389-.6.692-1.424.145-.412.338-.854.451-1.305l.336-1.223.062.258c.115-.61.157-.926.2-1.3s.151-.8.322-1.637c.094-.394.179-.326.039.2a5.829,5.829,0,0,0,.2-1.223c.022-.3.065-.63.188-1.439l.018.618a6.111,6.111,0,0,0,.062-2.048,25.176,25.176,0,0,1,.167-2.844,8.356,8.356,0,0,1-.328-1.749c.034-.118.1.175.137.323a10.05,10.05,0,0,0-.635-2.754c-.036-.094-.071-.188-.113-.282l-.094-.237-.2-.517-.188-.526c-.073-.175-.144-.356-.213-.546a.438.438,0,0,0-.038-.282,20.835,20.835,0,0,1,.87,2.182,6.938,6.938,0,0,1,.248.847c.061-.017,0-.394-.035-.632s0-.336.266.238c-.053-.146-.121-.309-.2-.481-.072-.154-.149-.316-.229-.486-.175-.355-.323-.753-.537-1.129-.4-.769-.853-1.533-1.231-2.173a1.2,1.2,0,0,1-.073-.188l.1.12a7.1,7.1,0,0,0-.552-.764c-.282-.376-.456-.634-.759-.978a3.952,3.952,0,0,0-.678-.8c-.389-.34-.826-.737-1.143-.955-.038.15-.817-.463-.144.188-.094-.074.137.057.519.384.089.072.188.158.252.2l-.047-.024a12.773,12.773,0,0,1,1.336,1.324c-.455-.4-.913-.811-1.5-1.412-.342-.2-.753-.355-.962-.471a5.092,5.092,0,0,0-.668-.617l-.4-.322-.419-.288c-.539-.391-1.048-.648-1.146-.773a19.837,19.837,0,0,0-3.6-1.063,11.743,11.743,0,0,0-3.076-.235,2.589,2.589,0,0,1-.97-.188c.376,0,.816.024,1.02.011a15.775,15.775,0,0,0-4.123.146c-1.622.024.9-.247-1.323-.044l.3-.084a15,15,0,0,0-1.58.111c-.252.032-.5.069-.743.112l-.377.073a3.155,3.155,0,0,0-.381.136c-.444.176-.876.356-1.3.536a11.026,11.026,0,0,0-1.252.586l-1.234.669c-.207.117-.428.212-.632.345l-.631.4c-.424.271-.889.515-1.348.813s-.933.627-1.454.951a2.582,2.582,0,0,1,.5-.289,18.257,18.257,0,0,0-5.567,6.329,19.369,19.369,0,0,0-1.62,3.937c-.094.341-.188.682-.262,1.029-.042.171-.069.348-.1.525-.018.142-.068.311-.1.483l-.236,1.014q-.094.511-.194,1.017a8.212,8.212,0,0,0-.026,2.681c-.056.112-.094.225-.147.339.069.544.146,1.083.263,1.615.172,1.136.25,2.128.454,3.19a10.422,10.422,0,0,0,1.245,3.474c-.025-.127-.049-.255-.065-.385a19.371,19.371,0,0,0,.93,1.8c.346.579.619,1.025.526.982a1.95,1.95,0,0,1,.462.6l-.047.072a23.041,23.041,0,0,0,1.694,1.932c.639.759.544.745.511.826s.006.256,1.078,1.262a12.023,12.023,0,0,0,1.556,1.118c.5.3.9.471.73.333-.371-.246-.876-.7-.847-.782.264.188.537.376.814.55.14-.044.394-.024.376-.166s-.293-.42-1.144-1.223q-.671-.464-1.318-.98c-.1-.148-.2-.3-.295-.452.324.324.659.638,1,.941a8.7,8.7,0,0,0-1.349-1.232,2.46,2.46,0,0,0-.371-.587c-.41-.345-.815-.7-1.2-1.086-.045-.209.583.453-.033-.423-.523-.546.257.711-.529-.262a4.33,4.33,0,0,0-.727-1.286c-.013-.143.115.007.332.3-.509-.642-1.1-1.844-1.385-2.175-.113-.4-.4-1.019-.593-1.563-.212-.535-.312-.991-.2-.983a9.077,9.077,0,0,1-.71-2.064c.134.323.167.311.146.119s-.094-.565-.141-.972a8.373,8.373,0,0,1-.1-1.163c-.007-.317.014-.509.094-.424a5.779,5.779,0,0,1-.152-1.012c-.028-.415-.014-.895,0-1.4.065-1.006.195-2.106.325-3a1.875,1.875,0,0,1-.048.455c.112-.493.2-.807.282-1.076.012-.046.014-.037.037-.129a.807.807,0,0,0,.019-.094l.01-.04.05-.179c.032-.122.071-.251.117-.4-.2-.162.163-1.687.386-2.518.627-1.08-.056.784.258.483-.085,0,.066-.508.216-.975.173-.457.332-.877.183-.715a7.559,7.559,0,0,1,.455-.691,2.219,2.219,0,0,1,.343-.354c-.066-.132.025-.333.18-.585a5.2,5.2,0,0,0,.535-.919c.9-1.035.39-.146,1.242-1.375.26-.244.182-.107.058.1S794.079,180.734,794.079,180.734Zm30.868-1.149h0c-.155-.265-.321-.471-.411-.61.08.131.213.295.41.61Zm1.276,2.714a9.758,9.758,0,0,0-.483-1.212c0-.117.094-.033.219.245-.051-.068,0,.06.064.264Zm-2.667-6.03a2.158,2.158,0,0,1,.495.565c-.17-.169-.363-.376-.635-.623l-.056-.027a.519.519,0,0,1,.195.086Z" transform="translate(-788.779 -171.852)" fill="#00ac99"/>
      <path id="Trazado_655" data-name="Trazado 655" d="M855.761,179.484l-.163-.129.2.222.163.084Z" transform="translate(-821.792 -175.532)" fill="#00ac99"/>
      <path id="Trazado_656" data-name="Trazado 656" d="M841.3,218.7l.043-.051a.949.949,0,0,1-.1.094C841.273,218.711,841.277,218.714,841.3,218.7Z" transform="translate(-814.702 -194.932)" fill="#00ac99"/>
      <path id="Trazado_657" data-name="Trazado 657" d="M820.854,241.913l-.006.036a2.442,2.442,0,0,0,.263.046,2.417,2.417,0,0,1-.257-.082Z" transform="translate(-804.633 -206.422)" fill="#00ac99"/>
      <path id="Trazado_658" data-name="Trazado 658" d="M818.774,205.614a1.3,1.3,0,0,0,.015-.217.852.852,0,0,0-.015.217Z" transform="translate(-803.609 -188.392)" fill="#00ac99"/>
      <path id="Trazado_659" data-name="Trazado 659" d="M825.706,195.863a7.035,7.035,0,0,1,.989-.045,5.469,5.469,0,0,0-.989.045Z" transform="translate(-807.031 -183.659)" fill="#00ac99"/>
      <path id="Trazado_660" data-name="Trazado 660" d="M835.882,198.183a.283.283,0,0,0,.123,0l-.009-.007Z" transform="translate(-812.056 -184.827)" fill="#00ac99"/>
      <path id="Trazado_661" data-name="Trazado 661" d="M842.675,227.1l.127-.158C843.093,226.563,842.887,226.812,842.675,227.1Z" transform="translate(-815.41 -198.933)" fill="#00ac99"/>
      <path id="Trazado_662" data-name="Trazado 662" d="M812.006,202.679l-.188.815C811.958,203.056,812.083,202.721,812.006,202.679Z" transform="translate(-800.172 -187.05)" fill="#00ac99"/>
      <path id="Trazado_663" data-name="Trazado 663" d="M830.089,183.568h0l-.172-.024Z" transform="translate(-809.112 -177.599)" fill="#00ac99"/>
      <path id="Trazado_664" data-name="Trazado 664" d="M811.364,205.466c.067-.455.175-.822.228-1.177a5.694,5.694,0,0,0-.228,1.177Z" transform="translate(-799.95 -187.845)" fill="#00ac99"/>
      <path id="Trazado_665" data-name="Trazado 665" d="M832.321,201.966l.15.194c0-.009.02,0,.035.009Z" transform="translate(-810.298 -186.697)" fill="#00ac99"/>
      <path id="Trazado_666" data-name="Trazado 666" d="M832.686,202.367c.054.07.115.138.163.209a.921.921,0,0,0-.163-.209Z" transform="translate(-810.478 -186.895)" fill="#00ac99"/>
      <path id="Trazado_667" data-name="Trazado 667" d="M833.245,203.231a1.661,1.661,0,0,0-.238-.451C833.1,202.942,833.2,203.141,833.245,203.231Z" transform="translate(-810.637 -187.099)" fill="#00ac99"/>
      <path id="Trazado_668" data-name="Trazado 668" d="M825.083,207.045l.076.046A.094.094,0,0,0,825.083,207.045Z" transform="translate(-806.724 -189.205)" fill="#00ac99"/>
      <path id="Trazado_669" data-name="Trazado 669" d="M826.485,208.613a4.567,4.567,0,0,1-1.191-1.441l-.059-.036c.048.058.083.171.172.3l.124.219.171.232a2.705,2.705,0,0,0,.783.724Z" transform="translate(-806.799 -189.25)" fill="#00ac99"/>
      <path id="Trazado_670" data-name="Trazado 670" d="M840.723,206.106a5.918,5.918,0,0,1-.247.961,9.619,9.619,0,0,1-.411.889c.115-.132.213-.308.256-.337s.044.094-.177.488a3.976,3.976,0,0,0,.337-.621c.071-.149.11-.24.129-.292.039-.1,0-.053-.049-.006s-.094.088-.067-.032l.076-.33a5.214,5.214,0,0,0,.153-.721Z" transform="translate(-814.122 -188.741)" fill="#00ac99"/>
      <path id="Trazado_671" data-name="Trazado 671" d="M834.985,196.075c.941.487.034-.085.094-.079a2.638,2.638,0,0,0-.542-.2C834.5,195.8,834.646,195.872,834.985,196.075Z" transform="translate(-811.388 -183.651)" fill="#00ac99"/>
      <path id="Trazado_672" data-name="Trazado 672" d="M841.81,193.91l.167-.011C841.4,193.32,841.939,193.926,841.81,193.91Z" transform="translate(-814.931 -182.589)" fill="#00ac99"/>
      <path id="Trazado_673" data-name="Trazado 673" d="M827.748,188.43a4.16,4.16,0,0,1,.727.059l.353-.094-.543-.02Z" transform="translate(-808.04 -179.986)" fill="#00ac99"/>
      <path id="Trazado_674" data-name="Trazado 674" d="M817.677,190.367c.085-.088.182-.163.273-.246a5.48,5.48,0,0,0-.513.476,6.088,6.088,0,0,0-.47.509A9.91,9.91,0,0,1,817.677,190.367Z" transform="translate(-802.715 -180.849)" fill="#00ac99"/>
      <path id="Trazado_675" data-name="Trazado 675" d="M814.78,186.458l.293-.028C815.485,186.069,815.474,185.85,814.78,186.458Z" transform="translate(-801.636 -178.851)" fill="#00ac99"/>
      <path id="Trazado_676" data-name="Trazado 676" d="M824.376,237.684a4.75,4.75,0,0,0,1.62.73C825.331,238.16,824.705,237.827,824.376,237.684Z" transform="translate(-806.374 -204.334)" fill="#00ac99"/>
      <path id="Trazado_677" data-name="Trazado 677" d="M804.7,236.779a5.725,5.725,0,0,1-.524-.459,6.058,6.058,0,0,0,.98.847C805.005,237.054,804.858,236.918,804.7,236.779Z" transform="translate(-796.402 -203.66)" fill="#00ac99"/>
    </g>
  </g>
</svg>
