<svg xmlns="http://www.w3.org/2000/svg" width="126" height="117" viewBox="0 0 126 117">
  <g id="Dot_connector" data-name="Dot connector" transform="translate(-286.65 -0.171)">
    <rect id="Rectángulo_30" data-name="Rectángulo 30" width="126" height="117" transform="translate(286.65 0.171)" fill="none"/>
    <g id="SumaDeTalentos" transform="translate(305.294 15.223)">
      <path id="Trazado_627" data-name="Trazado 627" d="M829.95,203.628c.229-.091.265-.178.083-.212-.212,0-.341-.127-.468.337a3.266,3.266,0,0,0,.358.743,2.094,2.094,0,0,1-.026-.705C829.948,203.628,829.883,203.687,829.95,203.628Z" transform="translate(-783.108 -167.47)" fill="#00ac99"/>
      <path id="Trazado_628" data-name="Trazado 628" d="M833.361,206.666a5.2,5.2,0,0,0,.874-1.59l.017-.025c.182-.635-.068-.847-.318-.576a1.73,1.73,0,0,0-.028.332l-.036.057a5.514,5.514,0,0,1-.635,1.162,9.132,9.132,0,0,1-.944,1.2,1.438,1.438,0,0,1-1.36.182c-.3-.127-.377-.3-.273-.313-.125,0-.294-.155-.506-.313l.116.167a17.771,17.771,0,0,0-.714-1.825,6.954,6.954,0,0,0,.411,1.954l-.038-.055a1.764,1.764,0,0,0,1.694.572,3.071,3.071,0,0,0,1.622-1.173C833.636,206.139,833.393,206.533,833.361,206.666Z" transform="translate(-783.112 -167.336)" fill="#00ac99"/>
      <path id="Trazado_629" data-name="Trazado 629" d="M841.976,218.055c-.174.227-.347.455-.536.669a5.65,5.65,0,0,0,.536-.669Z" transform="translate(-781.457 -165.431)" fill="#00ac99"/>
      <path id="Trazado_630" data-name="Trazado 630" d="M810.043,208.845a3.012,3.012,0,0,0-.055-.938C810,208.5,810.013,208.987,810.043,208.845Z" transform="translate(-785.83 -166.84)" fill="#00ac99"/>
      <path id="Trazado_631" data-name="Trazado 631" d="M813.927,220.575l-.453-.711a3.931,3.931,0,0,0,.453.712Z" transform="translate(-785.346 -165.184)" fill="#00ac99"/>
      <path id="Trazado_632" data-name="Trazado 632" d="M841.91,218.277c.455-.58.868-1.188,1.27-1.8C843.147,216.281,842.552,217.414,841.91,218.277Z" transform="translate(-781.394 -165.654)" fill="#00ac99"/>
      <path id="Trazado_633" data-name="Trazado 633" d="M826.109,203.385c.2-.381.373-.686.515-.98-.182.3-.364.582-.531.891a.306.306,0,0,1,.017.089Z" transform="translate(-783.597 -167.606)" fill="#00ac99"/>
      <path id="Trazado_634" data-name="Trazado 634" d="M818.262,209.4l-.188-.648c-.089-.182-.186-.352-.284-.51C817.932,208.638,818.093,209.023,818.262,209.4Z" transform="translate(-784.745 -166.794)" fill="#00ac99"/>
      <path id="Trazado_635" data-name="Trazado 635" d="M832.088,194.845a1.5,1.5,0,0,0-1.179.186,3.862,3.862,0,0,1,1.4.108C832.332,195.088,832.277,194.985,832.088,194.845Z" transform="translate(-782.921 -168.662)" fill="#00ac99"/>
      <path id="Trazado_636" data-name="Trazado 636" d="M824.39,208.032l-.36-.733Z" transform="translate(-783.875 -166.925)" fill="#00ac99"/>
      <path id="Trazado_637" data-name="Trazado 637" d="M829.167,222.548a.577.577,0,0,0,.195.212C829.379,222.717,829.3,222.643,829.167,222.548Z" transform="translate(-783.164 -164.807)" fill="#00ac99"/>
      <path id="Trazado_638" data-name="Trazado 638" d="M792.49,225.758c-.028-.013-.034.019-.055.019C792.513,225.914,792.549,225.95,792.49,225.758Z" transform="translate(-788.27 -164.359)" fill="#00ac99"/>
      <path id="Trazado_639" data-name="Trazado 639" d="M807.509,248.09l-.377-.231a.352.352,0,0,0-.18.093Z" transform="translate(-786.252 -161.287)" fill="#00ac99"/>
      <path id="Trazado_640" data-name="Trazado 640" d="M832.321,233.47l-.121-.017C831.493,233.377,831.885,233.457,832.321,233.47Z" transform="translate(-782.796 -163.293)" fill="#00ac99"/>
      <path id="Trazado_641" data-name="Trazado 641" d="M859.14,208.291c-.25,2.662-.423-4.334-.69-.328C858.624,207.578,858.861,211.618,859.14,208.291Z" transform="translate(-779.095 -167.009)" fill="#00ac99"/>
      <path id="Trazado_642" data-name="Trazado 642" d="M825.845,203.757l-.491.949Z" transform="translate(-783.693 -167.419)" fill="#00ac99"/>
      <path id="Trazado_643" data-name="Trazado 643" d="M858.452,207.807h0l-.023.411Z" transform="translate(-779.095 -166.855)" fill="#00ac99"/>
      <path id="Trazado_644" data-name="Trazado 644" d="M848.6,191.06a4.436,4.436,0,0,0,.224.606C848.844,191.632,848.812,191.486,848.6,191.06Z" transform="translate(-780.465 -169.184)" fill="#00ac99"/>
      <path id="Trazado_645" data-name="Trazado 645" d="M844.581,228.211a10.086,10.086,0,0,0,.731-.847C845.028,227.7,844.8,227.98,844.581,228.211Z" transform="translate(-781.022 -164.136)" fill="#00ac99"/>
      <path id="Trazado_646" data-name="Trazado 646" d="M831.269,181.509a8.8,8.8,0,0,0-1.6-.26,2.445,2.445,0,0,0,.241.07,5.094,5.094,0,0,1,1.355.191Z" transform="translate(-783.095 -170.546)" fill="#00ac99"/>
      <path id="Trazado_647" data-name="Trazado 647" d="M812.191,189.679c.1-.085.233-.186.354-.275l.531-.544C812.784,189.133,812.469,189.389,812.191,189.679Z" transform="translate(-785.524 -169.489)" fill="#00ac99"/>
      <path id="Trazado_648" data-name="Trazado 648" d="M816.563,176.353c-.512.072-.815.155-1.078.157C815.9,176.582,812.887,178.049,816.563,176.353Z" transform="translate(-785.174 -171.228)" fill="#00ac99"/>
      <path id="Trazado_649" data-name="Trazado 649" d="M826,203.2a1.6,1.6,0,0,1-.212.635c.116-.229.235-.44.356-.648C826.134,203.12,826.1,203.075,826,203.2Z" transform="translate(-783.635 -167.508)" fill="#00ac99"/>
      <path id="Trazado_650" data-name="Trazado 650" d="M830.3,183.557l-.864-.121a3.137,3.137,0,0,0-.536,0l-1.736.32,1.639-.288c.068,0,.161-.034.212-.036h.108a2.255,2.255,0,0,1,.259,0Z" transform="translate(-783.442 -170.243)" fill="#00ac99"/>
      <path id="Trazado_651" data-name="Trazado 651" d="M814.43,239.941l.8.227A5.157,5.157,0,0,0,814.43,239.941Z" transform="translate(-785.213 -162.389)" fill="#00ac99"/>
      <path id="Trazado_652" data-name="Trazado 652" d="M818.961,187.04a7.626,7.626,0,0,0-1.766.913,2.73,2.73,0,0,0-.273.32c.332-.212.635-.474.989-.667Z" transform="translate(-784.866 -169.742)" fill="#00ac99"/>
      <path id="Trazado_653" data-name="Trazado 653" d="M815.383,176.491Z" transform="translate(-785.08 -171.207)" fill="#00ac99"/>
      <path id="Trazado_654" data-name="Trazado 654" d="M800.7,191.836a15.543,15.543,0,0,0,1-1.368c.188-.26.211-.383.195-.453-.057-.135-.368-.047-.212-.392,2.725-3.077,1.52-1.175,2.626-2.028.911-.881,1.666-1.719,2.38-2.5a14.12,14.12,0,0,1,2.238-1.961c.157-.03.47-.229.172.1,1.906-2.016,6.791-4.3,9.528-5.963a1.469,1.469,0,0,1,.423-.083c-.548.028-.711-.131-.675-.318.354-.169.688-.349,1-.521s.635-.282.908-.4a3.331,3.331,0,0,1,1.345-.375,4.445,4.445,0,0,0-1.332.688l1.5-.678c1.525-.138-2.056.9-1.944,1.169l4.565-1.95.55-.233c.087-.034.347-.089.517-.129l1.124-.229c.733-.129,1.421-.212,2.033-.267.277.161-1.141.364-2.2.563s-1.77.358-.157.25l-.923.125-.222.034a.4.4,0,0,0-.129.03l-.442.142-1.8.58c2.907-.423-2.158.745.54.453l1.567-.551.322-.116.044-.015.138-.025.618-.119,2.156-.383a35.464,35.464,0,0,1,5.19-.5c1.1-.267-.385-.3.722-.568a15.907,15.907,0,0,1,6.052.322,16.563,16.563,0,0,0,4.588.623,17.706,17.706,0,0,1,1.925-.142,11.685,11.685,0,0,1,3.568.711c-.436.023-.879.085-1.315.138a28.967,28.967,0,0,0,3.693.737,10.39,10.39,0,0,1,3.7,1.315c-.866-.227-3.528-1.213-2.875-.913,2.882,1.44,2.217.565,4.478,1.6l.273.587A29.233,29.233,0,0,1,870.063,189.3c-.241-.212-.872-.936-.284.212.424.754.934,1.482,1.323,2.3s.807,1.624,1.122,2.488l.957,2.662a23.578,23.578,0,0,1,.705,2.649,41.659,41.659,0,0,1,.694,10.759l.212,2.621c-.027.608-.269,1.107-.246.449-.438,2.632.195.157.176,1.446-.155,1.518-.424,1.971-.411,1a50.44,50.44,0,0,1-1.512,8.993c-.455,1.643-1.027,3.263-1.539,4.781-.614,1.482-1.243,2.833-1.8,3.953l.284-.94c-.775,1.783-1.15,2.816-1.493,3.839a13.367,13.367,0,0,1-1.679,3.536c.1-.212.212-.423.292-.635l-3.305,5.495a20.214,20.214,0,0,1-4.512,4.235,23.132,23.132,0,0,1-10.221,4.163,14.123,14.123,0,0,1-4.527.925,11.824,11.824,0,0,0-4.146.468c-2.4-.3-3.242-.447-4.326-.618-.538-.131-1.137-.269-2.014-.447l-1.552-.307a17.3,17.3,0,0,1-2.117-.481c-1.738-.468-2.713-.2-4.908-.714l.044-.356-3.019-.612-1.421-.913-2.067-.574a12.063,12.063,0,0,1,1.133.464c.294.15.472.271.394.3a28.614,28.614,0,0,1-4.936-1.808,12.119,12.119,0,0,1-1.662-.953c-.379-.269-.514-.449-.508-.491-.112-.064-.148-.106-.233-.155l-.423-.341c-.282-.241-.57-.44-.847-.652l-1.611-1.12a11.2,11.2,0,0,1-2.558-2.48c.212.053.942,1.01,1.694,1.556-1.421-1.207-1.376-1.522-1.4-1.652,0-.174,0-.25-1.027-1.728.165.466-.309-.129-.424-.169-.726-1.675-2.263-5.664-3.284-8.713l.424.515-.635-2.067-.294-2.024c-.2-1.5-.377-3.032-.525-4.591A84.563,84.563,0,0,1,801.63,214c-.127,2.316-.544,1.793-.574-.119l.381-.754c-.188-1.234-.2,1.984-.4-.546.148-2.427.493-1.6.553-.212.011-.976-.032-1.961.036-2.933.127-.163.123.523.248.711a16.8,16.8,0,0,1,.347-3.155,21.451,21.451,0,0,0,.489-3.507l.142-.135a28.874,28.874,0,0,1,2.278-7.07,23.659,23.659,0,0,1,1.592-2.592,26.711,26.711,0,0,1,2.289-2.621c-.161-.3,1.313-1.694,2.361-2.856a49.9,49.9,0,0,1,10.953-6.352c1.444-.743,1.662-.847,1.645-.925s-.239-.07.423-.411a9.456,9.456,0,0,0,2.185-.5c.868-.2,1.414-.309.3.127,1.332-.383,2.4-.771,3.415-.993l2.884-.682,3.2-.773a9.76,9.76,0,0,1,1.789-.186,7.385,7.385,0,0,1,1.025.045l1.29.133c-.762-.224-1.633-.4-1.165-.423,1.313.131,2.935.519,2.729.635l-.345-.015a31.467,31.467,0,0,1,6.2,1.059,18.436,18.436,0,0,1,5.717,2.729,20.077,20.077,0,0,1,4.264,4.186c1.2,1.482,2.145,2.986,3.036,4.262l-.2-.286c.61.883,1.088,1.855,1.618,2.8a22.238,22.238,0,0,1,1.33,2.922c.868,2.869-.756-1.639-.252.525a35.571,35.571,0,0,1,2.2,8.614c.159,1.3.32,2.564.39,3.871.042.652.127,1.309.159,1.986s.064,1.374.112,2.1c-.148,1.124-.423,2.655-.536,4.434-.28,1.757-.424,3.775-.913,5.787a44.2,44.2,0,0,1-1.622,5.929c-.385.908-.764,1.779-1.135,2.587l-.548,1.165-.635,1,.345-.212a11.348,11.348,0,0,1-1.578,2.568c.212-.061.957-1.387.6-.485l-.57,1.1a3.531,3.531,0,0,0-.212.44l-.114.26-.258.529a20.438,20.438,0,0,1-1.23,2.077,19.9,19.9,0,0,1-3.2,3.676,16.9,16.9,0,0,1-8.656,4.184,21.753,21.753,0,0,1-9.763-.822,41.514,41.514,0,0,1-9.171-4.1l-.3-.165a1.218,1.218,0,0,0-.212-.091l-.153-.057-.33-.133-.627-.284c-.375-.159-.693-.252-.959-.358-.54-.2-.936-.269-1.351-.4a9.445,9.445,0,0,1-4.051-2.774,17.212,17.212,0,0,0,1.579.8,25.714,25.714,0,0,1-9.147-11.394,39.273,39.273,0,0,1-2.672-14.485,5.9,5.9,0,0,1,.231,1.546c.074-.512.043-1.241.108-2.039s.144-1.675.184-2.492.057-1.588.057-2.117a2.421,2.421,0,0,0,.034-.847c.436-1.429.28-.28.654-1.124a27.55,27.55,0,0,1,2.308-5.738c.123-.144-.184.55-.335.889a22.057,22.057,0,0,1,1.6-3.028c.593-1.069,1.156-1.768.635-1.357a27.673,27.673,0,0,1,6.748-6.987,5.472,5.472,0,0,1,1.383-1.088c.574-.356,1.192-.75,1.8-1.076a7.482,7.482,0,0,0,2.541-1.431c-.042.231,1.505-.138,3.3-.72.9-.288,1.929-.423,2.833-.663l1.271-.32c.157-.028.229-.021.341-.049a1.983,1.983,0,0,1,.424-.015c-.771.049,1.94.423,1.025.519,2.568.383,4.889,1.016,4.527.635,2.236.968,4.5,1.753,6.433,2.7a10.224,10.224,0,0,1,4.235,3.176,19.056,19.056,0,0,1,6.2,8.872,26.3,26.3,0,0,1,1.071,10.551,18.771,18.771,0,0,1-.118-3.949,22.285,22.285,0,0,0-.212-2.482c-.137-.635-.273-1.029-.394-.936a30.8,30.8,0,0,1,.362,8.457c-.064.654-.1,1.315-.233,1.976l-.169,1-.089.51-.046.258a2.275,2.275,0,0,0-.055.4,32.241,32.241,0,0,1-.705,4.512c-.436,1.677,0-1.008-.013-1.6a30.843,30.843,0,0,1-7.432,16.8,6.783,6.783,0,0,1,.762-.953c-.754.847-1.961,1.694-1.726,1.785l.8-.741c.758-.506.112.423-.936,1.391a19.953,19.953,0,0,1-2.63,1.855c.409-.335.252-.375-.144-.29-.2.042-.459.119-.747.212l-.94.193a4.4,4.4,0,0,1-1.508.112c-.263-.049-.167-.191.536-.493a9.664,9.664,0,0,0-1.059.252c-.294.083-.485.133-.394.212-1.114-.028-1.444-.112-.345-.309a20.02,20.02,0,0,1-2.156.021,10.205,10.205,0,0,1-1.122-.038,10.4,10.4,0,0,1-3.009-.606c.049-.1.792.066,1.2.044l-1.434-.248c-.483-.131-.987-.275-1.527-.443a6.19,6.19,0,0,1-.745-.256c-.267-.138-.546-.294-.834-.464a22.035,22.035,0,0,1-1.853-1.22c.212.051-.066-.224.741.309a69.6,69.6,0,0,1-6.2-4.447,27.264,27.264,0,0,1-5.4-5.9c1.444,1.175-1.076-1.783-.8-2.314-.3-.443-.565-.908-.826-1.374a15.184,15.184,0,0,1-.73-1.425c.114.423.193.847.343,1.27a17.548,17.548,0,0,1-2.213-7.386,14.853,14.853,0,0,0,.423,2.054,17.178,17.178,0,0,1-.264-5.234,9.859,9.859,0,0,0-.184,1.482,10.289,10.289,0,0,0-.062,1.5c-.19-1.429-.239-1.364-.358-1.4-.047-.019-.081-.068-.089-.354v-.635a10.147,10.147,0,0,1,.165-1.133c0,.4,0-.339.277-1.317a12.206,12.206,0,0,1,1.038-2.876h0c.182-.692.438-1.374.72-2.143a16.587,16.587,0,0,1,1.37-2.441c.423-.392.155.62.423.366a9.574,9.574,0,0,1,.775-1.482l.144-.237a1.971,1.971,0,0,0,.189-.349c.084-.169.167-.347.264-.523.191-.358.407-.724.635-1.086.9-1.472,2.077-2.8,2.554-3.572-.341.5-.2.671-.034.563a11.461,11.461,0,0,1,.635-1.027c1.021-.86,1.254-.868,1.182-.62,1.55-1.207,1.283-1.046,1.012-1.059-.246.049-.424-.021,1.673-1.11a8.667,8.667,0,0,0-.783.572,17.518,17.518,0,0,1,6.429-2.213l1.662-.142,1.656.093c.275.021.551.028.824.064l.809.172,1.6.364c1.139.671-3.735-.661-2.363-.011l2.291.423a7.471,7.471,0,0,1,1.109.231,6.534,6.534,0,0,1,.987.46c.334.184.667.392.993.612a5.683,5.683,0,0,1,.8.606,10.367,10.367,0,0,0,1.919,1.868,21.107,21.107,0,0,1,6.462,6.888,10.334,10.334,0,0,0-.55-.989c.489.18,1.059,1.209,1.52,2.541a35.036,35.036,0,0,1,1.059,4.48c-.121-.739-.479-.91-.369-.726a16.464,16.464,0,0,1-.438,6.393,37.668,37.668,0,0,1-2.833,7.813l.235-.771a32.166,32.166,0,0,1-2.469,3.737,12.662,12.662,0,0,1-3.3,3.038c-.534.565-1.906,1.093-1,.951a9.835,9.835,0,0,1-5.656.159,20.6,20.6,0,0,1-5.179-2.355,17.125,17.125,0,0,1-7.03-8.391c.373.764,1.135,1.741.775,1.139a24.475,24.475,0,0,1-2.5-5.624c-.112.544.055.828.313,2.134a13.088,13.088,0,0,1-1.387-3.911c.792,2.742.337-.116.371-1.311-.051.212-.2-.188-.265-.078.076-1.639.017-1.751-.161-2.041a1.509,1.509,0,0,1-.169-.754,5.546,5.546,0,0,1,.381-2.172l.068.26a8.345,8.345,0,0,1,2.289-4.375c.379-.146.074.178-.267.6s-.7.97-.616,1.088a11.353,11.353,0,0,1,2.4-2.74A6.047,6.047,0,0,1,829.787,199a9.549,9.549,0,0,0-3.261,1.59,14.854,14.854,0,0,1,2.314-.864,14.138,14.138,0,0,1,1.957-.423l-.176.023a15.556,15.556,0,0,1,4.14-.034c-.347-.051-.7-.123-1.048-.15a9.009,9.009,0,0,1,4.853.394,37.909,37.909,0,0,1,5.283,2.38c-1.9-.944-2.1-.881-1.853-.709s.9.616.669.688c.423.337,1.025.769,1.315,1.059.328.307.487.542.3.423a5.332,5.332,0,0,1,1.715,1.876,17.292,17.292,0,0,1,1.256,2.827c-.066.07.07.548.027.978s-.057.783-.2.574c-.114,2.367.273-.542.328-.364a10.026,10.026,0,0,1-2.117,6.549l-.042.078a5.821,5.821,0,0,1-2.5,2.153,8,8,0,0,1-3.614.65.863.863,0,0,1-.307-.038l-.387-.129-.758-.269c-.483-.174-.915-.343-1.317-.5-.8-.324-1.482-.606-2.13-.925a14.319,14.319,0,0,1-1.974-1.112,9.651,9.651,0,0,1-2.2-1.963c-.364-.724-.093-.491.246-.112l.589.548c.171.167.3.282.3.282a7.48,7.48,0,0,1-1.6-2.84c-.038-.243-.116-.485-.138-.73l.011-.731a.734.734,0,0,1,.078-.318l.153-.394c.11-.263.212-.534.339-.8-.127.476.159.057.612-.508a12.233,12.233,0,0,0,.695-1.508,4.536,4.536,0,0,1,1.27-1.652c-.212.394-.423.913-.822,1.694a9.246,9.246,0,0,1,2.031-2.391c.2-.157.423-.263.635-.4.224-.085.453-.184.688-.248a2.267,2.267,0,0,1,1.372.1c.068.112.032.14-.053.123a.913.913,0,0,1-.159-.051h-.237a2.626,2.626,0,0,1-.32-.017,2.454,2.454,0,0,0-.349.061,1.433,1.433,0,0,0-.574.2,2.231,2.231,0,0,1,.775-.153c.133-.04.29.034.411.036a.393.393,0,0,1,.3.078c.068.042.222.152.379.275l.445.349c.294.235.576.479.847.72a16.177,16.177,0,0,1,1.984,2.2,5.879,5.879,0,0,0-.728-1.44c.553.76.072.523-.381.036-1.569-1.47-2.232-2.261-2.219-2.433a16.083,16.083,0,0,1,1.289,1.014,4.461,4.461,0,0,0-1.22-1.374,2.831,2.831,0,0,0-2.458.081,10.514,10.514,0,0,0-3.6,4.15c.1-.479.212-.961.356-1.44a19.489,19.489,0,0,0-1.359,3.216c-.394.612-.868.989-.233-.582-.161.265-.286.5-.39.707a1.246,1.246,0,0,0-.195.623,7.766,7.766,0,0,0,0,.906,20.183,20.183,0,0,0,.559,2c.1.212,0,.152-.11-.047A12.171,12.171,0,0,0,829.99,214c.29.292.559.6.86.87-.4-.277.025.555-.93-.652a11.51,11.51,0,0,0,4.184,3.4,25.037,25.037,0,0,1,2.924,1.542l-.343-.125c.695.3,1.234.493,1.652.635l.335.108c.112.013.212.011.3.017h.394c.423,0,.445-.063.423-.123s-.083-.125.138-.212.728-.114,1.762-.423a6.478,6.478,0,0,0,3.117-.521,6.818,6.818,0,0,0,.241-.671c.5-.4,1.219-1.455,1.2-1.2a1.874,1.874,0,0,0,.1-.25l-.021.038c.722-1.715-.385.423.049-.8a10.875,10.875,0,0,0,1.906-4.9c.25-1.766-.064-3.246.091-3.644-.3-.491-.085.212-.078.678.015.229.021.387-.019.3a11.527,11.527,0,0,0-.375-1.19,3.273,3.273,0,0,0-.885-2.38,16.421,16.421,0,0,0-2.789-2.753c.923.17,2.763,2.213.83.078a22.727,22.727,0,0,1-3.148-1.787,13.76,13.76,0,0,0-3.761-1.681,13.888,13.888,0,0,1-3.07-.32,15.621,15.621,0,0,0-5.851.517,8.014,8.014,0,0,0-3.742,1.673A9.973,9.973,0,0,0,822.944,203a10.373,10.373,0,0,0-1.3,3.176l-.044-.125c.114.411.036,1.554.125,2.92a20.07,20.07,0,0,0,.692,4.273c-.264-.044-.514-.485-.859-1.952a23.322,23.322,0,0,0,.533,2.541c.307.548.557,1.313,1.214,2.837l-.521-.493a22.974,22.974,0,0,0,2.461,4.69,33.218,33.218,0,0,0,3.788,4.7c.188-.023-.32-.758-.383-1.135s.155-.26,1.906,1.143c.038.212-.034.574-.959-.195.292.267,1.135.822,1.724,1.347-.538-.294-1.071-.61-1.594-.951,1.463,1.362.923.517,2.189,1.457-.165.184.9.771.612.8-.37-.184-1.114-.847-1.66-1.137,1.4,1.152,3.3,2.276,3.911,2.721-.091-.188.116-.252,1.37.195a18.242,18.242,0,0,1,2.077.7c.11.078.011.237,1.076.354.447-.04,1.253-.066,1.946-.193s1.253-.345,1.23-.521a9.035,9.035,0,0,1,1.633-.373,14.629,14.629,0,0,0,3.648-2.975c1.059-1.234,1.628-2.217.9-1.514l-.292.347.163-.239v0a41.347,41.347,0,0,0,4.091-7.777,38.152,38.152,0,0,0,1.432-4.188,20.448,20.448,0,0,0,.423-2.189,14.578,14.578,0,0,0,.036-2.2h.112a15.735,15.735,0,0,0-1.285-5.294,14.939,14.939,0,0,0-2.486-3.93c-.578-.817-1.353-1.963-.961-1.734a27.39,27.39,0,0,0-2.118-1.988l-1.137-.985a14.964,14.964,0,0,1-1.609-1.45c.953.754.847.546.775.485a13.691,13.691,0,0,1,1.306,1.059c-.635-.58-1.19-.991-1.561-1.364a10.184,10.184,0,0,1-.985-1.116,3.528,3.528,0,0,0-.25-.318,4.991,4.991,0,0,0-.423-.423c-.231-.182-.476-.358-.752-.54a9.7,9.7,0,0,0-2.143-1.088c.339.072.364.021.172-.116a3.208,3.208,0,0,0-1.133-.453c-.974-.239-2.35-.536-3.166-.635.79.212,1.569.455,2.342.682-.91-.152-1.747-.368-2.579-.472-.847-.053-1.654-.159-2.475-.176a7.62,7.62,0,0,1,.9-.343,14.157,14.157,0,0,0-9.5,2.494,41.688,41.688,0,0,0-6.325,5.685c-.423.847.129.059.807-.663.635-.754,1.406-1.417.944-.711A40.888,40.888,0,0,0,818,199.234c-.195.252-.423.635-.538.777,0-.04-.146.165-.212.248l-.256.311c-.324.4-.576.718-.716.93a11.407,11.407,0,0,0-1.855,3.936l-.229.8-.212.932c-.087.339-.193.714-.324,1.139-.1.438-.212.93-.356,1.5.131-.28.318-.534.387-.294a2.419,2.419,0,0,1,0,.779c-.015.423-.034,1.031-.11,1.874-.053.79-.1,1.429-.172,1.906a3.956,3.956,0,0,1-.137.991c-.125.343-.307.036-.424-1,0-.788.064-1.167.108-1.131-.057-1.059.159-2.448-.18-1.169l.083.436c-.047.4-.087,1-.125,1.635s.036,1.328.049,1.935c.116,1.2.233,2.075.03,1.565.3,1.228.47,1.455.423,1.181a5.847,5.847,0,0,0-.121-.758l-.148-1.245a17.179,17.179,0,0,0,1.372,5.23,31.622,31.622,0,0,0,2.581,4.815c-.324-.606-.531-1.211-.159-.65a12.328,12.328,0,0,0,2.594,3.343,13.289,13.289,0,0,1,2,1.84c1.539,1.813-1-.212,2.211,2.541,1.863,1.783.174.646-.671.032,3.047,2.4,5.558,4.622,7.457,5.836-.61-.324-1.2-.667-1.8-1.016l1.467.879.682.4.343.2a3.052,3.052,0,0,0,.5.25,2.538,2.538,0,0,1-.388-.262l-.231-.212-.44-.423.733.466a5.89,5.89,0,0,0,.781.368c.373.163.6.282.57.328,1.234.269-.733-.737,1.662-.131a15.554,15.554,0,0,0,3.024.788,11.592,11.592,0,0,1,2.329.489l-1.461-.153c-.339-.061-.55-.093-.68-.1-.256-.019-.171.049-.064.127.212.146.531.379-1.635-.055.411.1.887.152,1.4.26a15.3,15.3,0,0,0,1.707.286c.186.057-.186.057-.534.047.635.1,1.141.169,1.563.212a7.565,7.565,0,0,0,1.037,0,4.2,4.2,0,0,0,1.148-.191c.591-.267,1.237-.318,3.742-1.133-.578.423,1.321-.03,2.064-.542-1.959.968-1.016.186.57-.889a9.674,9.674,0,0,0,1.654-1.122,6.347,6.347,0,0,0,.925-.872c.478-.517.781-.915,1.334-1.567a14.9,14.9,0,0,1-1.387,1.372c.343-.593,1.5-1.734,2.674-3.633.267-.055-1.078,1.724-.559,1.114a33.132,33.132,0,0,0,4.167-7.993c.635-1.467.423-.023.927-1.338.423-1.906.709-2.9,1.014-3.928a18.427,18.427,0,0,0,.737-4.146c-.212.572-.307.9-.335.737a5.661,5.661,0,0,1,0-.656l.013-.678v-.294l.053-.5-.07.411a1.664,1.664,0,0,0-.025.28l-.07.847c-.051.555-.116,1.1-.191,1.654-.148,1.1-.326,2.192-.546,3.28q.29-2.117.392-4.254a44.052,44.052,0,0,1-.934,5.323c.271-2.018.26-1.8-.161-.923a14.43,14.43,0,0,0,.847-4.01c.055-.695.11-1.4.167-2.128a19.7,19.7,0,0,1,.5-2.168l.635.212a23.012,23.012,0,0,0,.6-6.831,34.314,34.314,0,0,0-1.3-7.89,18.13,18.13,0,0,1,.423,1.99,36.337,36.337,0,0,0-2.16-5.505c.294.061-.227-1.116-.612-1.927-.026.08-.675-.9-1.482-1.855a6.612,6.612,0,0,0-2.183-1.868,25.015,25.015,0,0,0-1.963-2.031,15.319,15.319,0,0,0-4.743-2.564l-4.915-1.622c1.444.229-.574-.663,2.541.277a9.349,9.349,0,0,0-2.964-.894,55.3,55.3,0,0,0-5.829-1.154,6.8,6.8,0,0,0-1,.119c-.491.042-.947.212-1.827.375-.2,0-.013-.11-.013-.11,0,.112-2.723.69-1.137.635a21.309,21.309,0,0,0-8.732,2.89,55.357,55.357,0,0,0-7.089,5.238,36.791,36.791,0,0,0-5.959,9.082c.021-.212-.1-.057.193-.582a8.592,8.592,0,0,0-1.239,3.388,25.274,25.274,0,0,1-1.021,3.911c-.252.635-.252.764-.3.656a2.325,2.325,0,0,1,.1-.881c.167-.771.438-1.628.15-.885-.229.119-.438.534-.62,1.2a18.214,18.214,0,0,0-.212,2.441c-.049.921-.093,1.925-.171,2.9a25.3,25.3,0,0,1-.087,2.787l-.059-.815a15.683,15.683,0,0,0,.326,4.618c.176.875.313,1.8.534,2.753.277.944.548,1.927.794,2.95,0,0-.112-.18-.112,0,.226.686.671,1.467,1.059,2.359l.635,1.393c.212.483.525.938.79,1.423l.828,1.459c.267.493.635.93.944,1.391l.947,1.34c.328.423.686.8,1.01,1.186-1.016-.779-1.27-1.317-1.027-.544,1.2,1.357,0-.659,2.405,1.978.354.459.947,1.19,1.482,1.834a5.132,5.132,0,0,1,1.095,1.41l-1.311-1.1c-.423-.379-.815-.8-1.224-1.2a17.573,17.573,0,0,0,4.741,4.051l-.288.011a19.643,19.643,0,0,0,4.819,2.384l.519.167a.724.724,0,0,1,.131.038l.248.112,1.08.506c.773.4,1.728.826,2.983,1.423l-.462-.368a11.965,11.965,0,0,1,2.59,1.025,8.069,8.069,0,0,0,2.619.927l.766.676c.5.1,1.175.271,1.995.364l1.3.174,1.436.1a24.941,24.941,0,0,0,5.929-.423,14.884,14.884,0,0,1-4.218.69,26.987,26.987,0,0,1-4.728-.292,22.792,22.792,0,0,0,4.326.529,12.489,12.489,0,0,0,3.623-.33,11.149,11.149,0,0,1-2.66.239,27.217,27.217,0,0,0,9.293-2.753c-.138.553,2.344-.551,4.635-2.691a41.029,41.029,0,0,0,5.177-6.337l.275-.659.023-.066h0c-.019.038-.03.053-.021.036l.019-.038.036-.076.148-.3.6-1.184,1.241-2.352c.375-.8.7-1.637,1.059-2.458a26.382,26.382,0,0,0,1.031-2.52,44.934,44.934,0,0,0,1.611-5.393,43.528,43.528,0,0,0,.993-5.9c-.527,1.419-.453.815-.343-.076.055-.9.1-2.1-.254-1.868.036-.949.064-1.6.08-2.043a4.37,4.37,0,0,1,.028-.747l.159-2.886-.015-2.9c.1-1.393.292,1.8.436,1.616a16.523,16.523,0,0,1-.074-2.818,4.448,4.448,0,0,0,.053-1.774c-.155.6-.55-1.4-.966-3.769.144,1.124.212,2.257.324,3.388a41.694,41.694,0,0,1-1.016-5.385,17.7,17.7,0,0,0-1.573-5.328c.292.572.58,1.139.847,1.719-.286-.724-.635-1.738-1.2-2.945-.574-1.118-1.148-2.412-1.921-3.617a27.219,27.219,0,0,0-2.35-3.388,13.546,13.546,0,0,0-2.278-2.175c-.328-.447-.72-1.114.3-.157a18.4,18.4,0,0,0-4.68-3.636,21.267,21.267,0,0,0-5.658-2.1,53.713,53.713,0,0,0-5.469-.913l-2.431-.339-1.116-.184a11.574,11.574,0,0,0-1.2-.155c.2-.051.406-.1.62-.138a9.952,9.952,0,0,0-2.071.169c-.339.055-.695.116-1.107.212a10.193,10.193,0,0,1-1.112.184c.068-.087.483-.28-.114-.159a48.75,48.75,0,0,1-5.154,1.336l1.446-.517a33.174,33.174,0,0,0-8.393,2.753,69.466,69.466,0,0,0-6.9,3.977c-.136-.237-1.391.375-2.9,1.27a36.552,36.552,0,0,0-4.235,3.146l.025-.119a30.217,30.217,0,0,0-4.042,4.317,13.386,13.386,0,0,0-.823,1.177l-.682,1.22c-.212.4-.449.8-.652,1.2l-.483,1.251a39.268,39.268,0,0,0-2.187,10.46,48.673,48.673,0,0,0-.768,10.651c.072,4.343.493,8.991.9,12.77-.04-.584.064-.551.212-.212q.054.13.114.311l.157.515c.144.341.254.6.373.934.4,1.726,1.865,4.523,1.351,4.411-.076-.2-.144-.4-.212-.6a21,21,0,0,0,2.979,7.428l.773.1a10.937,10.937,0,0,0,1.794,2.619,18.274,18.274,0,0,0,2.566,2.206c.424.324.817.635,1.192.978l.4.33a3.86,3.86,0,0,0,.445.309,9.058,9.058,0,0,0,.847.474,27.752,27.752,0,0,0,3.246,1.311c1.059.36,2.134.695,3.072.966l2.769.9c1.722.553,3.094,1.179,4.057,1.558.9.142,1.889.343,2.878.544a17.657,17.657,0,0,0,2.873.449l-.152.3a45.847,45.847,0,0,0,6.39.834,31.138,31.138,0,0,0,3.28.106c1.2-.083,2.541-.08,4.1-.277a9.091,9.091,0,0,1-1.258.341c3.57-.354,4.33-1.455,7.411-2.3a8.217,8.217,0,0,0,1.076.159,31.642,31.642,0,0,0,8.4-4.12,21.236,21.236,0,0,0,3.568-3.121,11.283,11.283,0,0,0,1.482-1.975q.538-1,1.039-2.005c0,.121.038.347-.445,1.2L868,242.422l.93-1.522c.3-.521.559-1.059.819-1.571,1.021-2.039,1.743-3.676,1.211-3.352.239.074.875-1.359,1.556-3.2.326-.927.76-1.921,1.014-2.937l.756-2.753.14.58c.258-1.372.354-2.084.459-2.935s.339-1.8.724-3.682c.212-.887.4-.733.087.44a13.1,13.1,0,0,0,.453-2.753c.049-.675.146-1.417.424-3.238l.04,1.391a13.748,13.748,0,0,0,.14-4.608,56.669,56.669,0,0,1,.375-6.4,18.791,18.791,0,0,1-.739-3.934c.076-.265.229.394.307.726a22.612,22.612,0,0,0-1.429-6.2c-.081-.212-.159-.423-.254-.635l-.212-.534-.457-1.162-.423-1.184c-.165-.394-.324-.8-.479-1.228a.985.985,0,0,0-.085-.635,46.866,46.866,0,0,1,1.956,4.91,15.623,15.623,0,0,1,.559,1.906c.138-.038,0-.887-.078-1.423s0-.756.6.536c-.119-.328-.273-.695-.445-1.082-.161-.347-.335-.711-.514-1.093-.394-.8-.726-1.694-1.209-2.541-.889-1.73-1.918-3.449-2.77-4.889a2.663,2.663,0,0,1-.165-.423l.222.269a15.975,15.975,0,0,0-1.243-1.719c-.635-.847-1.025-1.427-1.707-2.2a8.9,8.9,0,0,0-1.525-1.8c-.875-.764-1.859-1.658-2.571-2.149-.085.337-1.838-1.042-.324.423-.212-.167.307.129,1.167.864.2.161.424.356.567.455l-.106-.055a28.749,28.749,0,0,1,3,2.979c-1.023-.9-2.054-1.825-3.371-3.176-.769-.445-1.694-.8-2.164-1.059a11.467,11.467,0,0,0-1.5-1.389l-.9-.724-.942-.648c-1.213-.879-2.359-1.459-2.579-1.738a44.627,44.627,0,0,0-8.1-2.393,26.421,26.421,0,0,0-6.922-.529,5.824,5.824,0,0,1-2.183-.423c.847,0,1.836.055,2.3.025a35.5,35.5,0,0,0-9.276.328c-3.648.055,2.022-.557-2.977-.1l.665-.188a33.751,33.751,0,0,0-3.555.25c-.568.072-1.122.155-1.671.252l-.847.165a7.081,7.081,0,0,0-.858.307c-1,.4-1.971.8-2.926,1.207a24.815,24.815,0,0,0-2.816,1.319l-2.776,1.505c-.466.263-.963.476-1.423.777l-1.419.889c-.955.61-2,1.158-3.032,1.829s-2.1,1.41-3.271,2.139a5.813,5.813,0,0,1,1.135-.65,41.078,41.078,0,0,0-12.525,14.24,43.586,43.586,0,0,0-3.644,8.859c-.212.767-.424,1.535-.589,2.314-.1.385-.155.783-.231,1.182-.04.32-.153.7-.235,1.086l-.531,2.28q-.212,1.15-.436,2.289a18.468,18.468,0,0,0-.059,6.033c-.125.252-.212.506-.33.762.155,1.224.328,2.437.593,3.634.387,2.556.563,4.788,1.021,7.178a23.452,23.452,0,0,0,2.8,7.815c-.057-.286-.11-.574-.146-.866a43.588,43.588,0,0,0,2.092,4.051c.779,1.3,1.393,2.306,1.184,2.208a4.386,4.386,0,0,1,1.04,1.34l-.106.161a51.838,51.838,0,0,0,3.812,4.347c1.438,1.709,1.224,1.677,1.15,1.859s.013.576,2.427,2.839a27.043,27.043,0,0,0,3.5,2.515c1.133.686,2.014,1.059,1.643.75-.834-.553-1.971-1.569-1.906-1.76.6.423,1.209.847,1.832,1.237.315-.1.887-.055.847-.373s-.658-.944-2.575-2.753q-1.509-1.045-2.964-2.2c-.231-.332-.443-.68-.663-1.016.728.728,1.482,1.436,2.251,2.117a19.566,19.566,0,0,0-3.034-2.772,5.533,5.533,0,0,0-.834-1.321c-.923-.777-1.834-1.586-2.7-2.444-.1-.47,1.313,1.018-.074-.953-1.177-1.228.578,1.6-1.19-.589a9.742,9.742,0,0,0-1.637-2.895c-.03-.322.258.015.747.667-1.146-1.444-2.477-4.148-3.117-4.893-.254-.891-.908-2.293-1.334-3.517-.476-1.2-.7-2.23-.455-2.213a20.432,20.432,0,0,1-1.6-4.644c.3.726.375.7.328.267s-.212-1.27-.318-2.187a18.838,18.838,0,0,1-.233-2.617c-.015-.714.032-1.146.212-.955a13.007,13.007,0,0,1-.341-2.276c-.064-.934-.032-2.014,0-3.147.146-2.264.438-4.739.73-6.744a4.21,4.21,0,0,1-.108,1.025c.252-1.11.451-1.817.635-2.42.028-.1.032-.083.083-.29a1.784,1.784,0,0,0,.042-.212l.023-.091.112-.4c.072-.275.159-.565.263-.908-.447-.364.366-3.8.868-5.666,1.41-2.431-.127,1.764.58,1.086-.191,0,.148-1.143.485-2.194.39-1.029.747-1.973.413-1.609a17.009,17.009,0,0,1,1.023-1.554,4.99,4.99,0,0,1,.773-.8c-.148-.3.055-.75.4-1.317a11.7,11.7,0,0,0,1.2-2.069c2.016-2.329.878-.328,2.795-3.094.584-.548.409-.241.131.235S800.7,191.836,800.7,191.836Zm69.452-2.585h0c-.349-.6-.722-1.059-.925-1.372.18.294.479.663.923,1.372Zm2.871,6.107a21.947,21.947,0,0,0-1.086-2.727c0-.263.211-.074.493.55-.114-.152,0,.135.144.593Zm-6-13.566a4.857,4.857,0,0,1,1.114,1.271c-.383-.381-.817-.847-1.429-1.4l-.127-.061a1.165,1.165,0,0,1,.438.193Z" transform="translate(-788.736 -171.908)" fill="#00ac99"/>
      <path id="Trazado_655" data-name="Trazado 655" d="M855.964,179.645l-.366-.29.459.5.366.188Z" transform="translate(-779.491 -170.81)" fill="#00ac99"/>
      <path id="Trazado_656" data-name="Trazado 656" d="M841.368,218.76l.1-.114a2.123,2.123,0,0,1-.227.212C841.315,218.792,841.324,218.8,841.368,218.76Z" transform="translate(-781.487 -165.345)" fill="#00ac99"/>
      <path id="Trazado_657" data-name="Trazado 657" d="M820.861,241.913l-.013.08a5.483,5.483,0,0,0,.591.1,5.428,5.428,0,0,1-.578-.184Z" transform="translate(-784.32 -162.114)" fill="#00ac99"/>
      <path id="Trazado_658" data-name="Trazado 658" d="M818.776,205.886a2.942,2.942,0,0,0,.034-.489,1.917,1.917,0,0,0-.034.489Z" transform="translate(-784.611 -167.191)" fill="#00ac99"/>
      <path id="Trazado_659" data-name="Trazado 659" d="M825.706,195.926a15.824,15.824,0,0,1,2.226-.1,12.3,12.3,0,0,0-2.226.1Z" transform="translate(-783.645 -168.523)" fill="#00ac99"/>
      <path id="Trazado_660" data-name="Trazado 660" d="M835.882,198.191a.637.637,0,0,0,.278,0l-.019-.015Z" transform="translate(-782.23 -168.196)" fill="#00ac99"/>
      <path id="Trazado_661" data-name="Trazado 661" d="M842.675,227.533l.286-.356C843.615,226.331,843.151,226.892,842.675,227.533Z" transform="translate(-781.286 -164.221)" fill="#00ac99"/>
      <path id="Trazado_662" data-name="Trazado 662" d="M812.242,202.679l-.424,1.834C812.133,203.528,812.415,202.774,812.242,202.679Z" transform="translate(-785.57 -167.569)" fill="#00ac99"/>
      <path id="Trazado_663" data-name="Trazado 663" d="M830.3,183.6h0l-.387-.055Z" transform="translate(-783.062 -170.224)" fill="#00ac99"/>
      <path id="Trazado_664" data-name="Trazado 664" d="M811.364,206.938c.15-1.023.394-1.851.512-2.649a12.817,12.817,0,0,0-.512,2.649Z" transform="translate(-785.639 -167.345)" fill="#00ac99"/>
      <path id="Trazado_665" data-name="Trazado 665" d="M832.321,201.966l.337.436c.011-.021.045,0,.078.021Z" transform="translate(-782.726 -167.667)" fill="#00ac99"/>
      <path id="Trazado_666" data-name="Trazado 666" d="M832.686,202.367c.121.157.258.311.366.47a2.072,2.072,0,0,0-.366-.47Z" transform="translate(-782.674 -167.61)" fill="#00ac99"/>
      <path id="Trazado_667" data-name="Trazado 667" d="M833.543,203.794a3.733,3.733,0,0,0-.536-1.014C833.221,203.144,833.433,203.593,833.543,203.794Z" transform="translate(-782.631 -167.553)" fill="#00ac99"/>
      <path id="Trazado_668" data-name="Trazado 668" d="M825.083,207.045l.171.1a.212.212,0,0,0-.171-.1Z" transform="translate(-783.731 -166.961)" fill="#00ac99"/>
      <path id="Trazado_669" data-name="Trazado 669" d="M828.048,210.458a10.275,10.275,0,0,1-2.681-3.242l-.133-.08c.108.131.186.385.387.68l.28.493.385.521a6.086,6.086,0,0,0,1.762,1.628Z" transform="translate(-783.711 -166.948)" fill="#00ac99"/>
      <path id="Trazado_670" data-name="Trazado 670" d="M841.545,206.106a13.292,13.292,0,0,1-.555,2.162,21.608,21.608,0,0,1-.925,2c.258-.3.479-.692.576-.758s.1.212-.4,1.1a8.955,8.955,0,0,0,.758-1.4c.159-.335.248-.54.29-.656.087-.235,0-.119-.11-.013s-.212.2-.15-.072l.172-.743a11.742,11.742,0,0,0,.343-1.622Z" transform="translate(-781.649 -167.091)" fill="#00ac99"/>
      <path id="Trazado_671" data-name="Trazado 671" d="M835.551,196.422c2.117,1.095.076-.191.212-.178a5.939,5.939,0,0,0-1.219-.447C834.465,195.8,834.789,195.966,835.551,196.422Z" transform="translate(-782.416 -168.525)" fill="#00ac99"/>
      <path id="Trazado_672" data-name="Trazado 672" d="M841.943,194.237l.377-.025C841.016,192.911,842.233,194.273,841.943,194.237Z" transform="translate(-781.42 -168.822)" fill="#00ac99"/>
      <path id="Trazado_673" data-name="Trazado 673" d="M827.748,188.5a9.362,9.362,0,0,1,1.637.133l.794-.212-1.222-.044Z" transform="translate(-783.362 -169.556)" fill="#00ac99"/>
      <path id="Trazado_674" data-name="Trazado 674" d="M818.565,190.674c.191-.2.411-.366.614-.553a12.3,12.3,0,0,0-1.154,1.071,13.692,13.692,0,0,0-1.059,1.146A22.271,22.271,0,0,1,818.565,190.674Z" transform="translate(-784.857 -169.314)" fill="#00ac99"/>
      <path id="Trazado_675" data-name="Trazado 675" d="M814.78,186.934l.659-.064C816.366,186.058,816.341,185.567,814.78,186.934Z" transform="translate(-785.163 -169.875)" fill="#00ac99"/>
      <path id="Trazado_676" data-name="Trazado 676" d="M824.376,237.684a10.688,10.688,0,0,0,3.646,1.643C826.525,238.755,825.117,238.006,824.376,237.684Z" transform="translate(-783.829 -162.702)" fill="#00ac99"/>
      <path id="Trazado_677" data-name="Trazado 677" d="M805.358,237.353a12.845,12.845,0,0,1-1.179-1.033,13.633,13.633,0,0,0,2.2,1.906C806.038,237.972,805.706,237.665,805.358,237.353Z" transform="translate(-786.638 -162.891)" fill="#00ac99"/>
    </g>
  </g>
</svg>
