<svg xmlns="http://www.w3.org/2000/svg" width="126" height="117" viewBox="0 0 126 117">
  <g id="Inspiración_" data-name="Inspiración " transform="translate(171.062 -6)">
    <g id="Grupo_450" data-name="Grupo 450" transform="translate(-171.001)">
      <path id="Trazado_596" data-name="Trazado 596" d="M54,102c-.217-3.827-1.017-7.165-3.434-10.14S44.277,84.3,41.853,81.334c-5.913-7.245-7.92-14.63-8.18-23.978a37.379,37.379,0,0,1,3.173-14.55c3.213-6.777,10.214-11.035,17.38-13.249,8.689-2.684,18.535-2.2,26.107,2.836,3.167,2.107,7.715,6.957,8.99,9.331A32.451,32.451,0,0,1,90.76,68.25C87.389,76.824,81.5,84.5,74.521,91.161A13.549,13.549,0,0,0,70,102" fill="none" stroke="#00ac99" stroke-linecap="round" stroke-linejoin="round" stroke-width="1.5"/>
      <path id="Trazado_597" data-name="Trazado 597" d="M59,102V75.659c1.565-6.6,2.575-13.248,4.14-19.849.561-2.365,1.039-5.126-.506-7s-4.363-1.939-6.738-1.487a13.278,13.278,0,0,0-7.125,3.419c-3.265,3.343-3.482,8.75-1.936,13.159,1.9,5.41,6.386,10.042,11.975,11.316S70.863,73.9,73.37,68.743a12.925,12.925,0,0,0,1.242-5.593A10.355,10.355,0,0,0,73.5,58.189a10.762,10.762,0,0,0-3.931-3.908c-4.593-2.825-10.873-3.113-15.269.011s-6.09,9.821-3.057,14.279c2.4,3.528,6.971,4.994,11.238,4.99a8.589,8.589,0,0,0,3.7-.662c2.434-1.16,3.613-3.968,4.085-6.623a21.988,21.988,0,0,0,.208-6.221,6.293,6.293,0,0,0-1.036-3.176,5.229,5.229,0,0,0-3.124-1.771A8.636,8.636,0,0,0,58,57.906a7.8,7.8,0,0,0-.807,8.638,7.125,7.125,0,0,0,7.921,3.248c3.48-1.036,5.485-4.681,6.473-8.174a29.934,29.934,0,0,0,1.123-7.582c.031-1.725-.14-3.591-1.269-4.9-1.667-1.927-4.909-1.782-6.928-.227s-3.005,4.112-3.466,6.618a22.421,22.421,0,0,0-.072,7.678,12.072,12.072,0,0,0,3.614,7.338c2.112,1.813,5.466,2.361,7.7.7,1.818-1.354,2.5-3.758,2.719-6.014.267-2.714-.443-6.113-3.065-6.865a4.366,4.366,0,0,0-3.006.334c-3.231,1.5-4.474,5.505-4.454,9.066s1,4.2.534,7.734V102" fill="none" stroke="#00ac99" stroke-linecap="round" stroke-linejoin="round" stroke-width="1.5"/>
      <rect id="Rectángulo_923" data-name="Rectángulo 923" width="32" height="13.5" rx="1.651" transform="translate(46.5 102)" fill="none" stroke="#00ac99" stroke-linecap="round" stroke-linejoin="round" stroke-width="1.5"/>
      <path id="Trazado_598" data-name="Trazado 598" d="M73.061,115.619c0,1.881-2.561,5.881-10.561,5.881s-10.446-4-10.446-6.035" fill="none" stroke="#00ac99" stroke-linecap="round" stroke-linejoin="round" stroke-width="1.5"/>
      <path id="Trazado_599" data-name="Trazado 599" d="M36.411,77.129" fill="none" stroke="#00ac99" stroke-linecap="round" stroke-linejoin="round" stroke-width="1.5"/>
      <g id="Grupo_443" data-name="Grupo 443">
        <path id="Trazado_600" data-name="Trazado 600" d="M70,24.393s-.074-1.466-.343-3.547C69,15.76,67.187,7,62.47,7c-6.648,0-7.534,17.393-7.534,17.393" fill="none" stroke="#00ac99" stroke-linecap="round" stroke-linejoin="round" stroke-width="1.5"/>
      </g>
      <g id="Grupo_444" data-name="Grupo 444">
        <circle id="Elipse_22" data-name="Elipse 22" cx="1.773" cy="1.773" r="1.773" transform="translate(38.157 27.581)" fill="none" stroke="#00ac99" stroke-linecap="round" stroke-linejoin="round" stroke-width="1.5"/>
        <path id="Trazado_601" data-name="Trazado 601" d="M38.566,28.208c-4.061-3.132-11.539-8.042-14.875-4.706-4.7,4.7,6.971,17.626,6.971,17.626" fill="none" stroke="#00ac99" stroke-linecap="round" stroke-linejoin="round" stroke-width="1.5"/>
      </g>
      <g id="Grupo_445" data-name="Grupo 445">
        <path id="Trazado_602" data-name="Trazado 602" d="M25.332,55.058s-1.466.075-3.547.343c-5.086.657-13.846,2.473-13.846,7.191,0,6.647,17.393,7.533,17.393,7.533" fill="none" stroke="#00ac99" stroke-linecap="round" stroke-linejoin="round" stroke-width="1.5"/>
      </g>
      <g id="Grupo_446" data-name="Grupo 446">
        <circle id="Elipse_23" data-name="Elipse 23" cx="1.773" cy="1.773" r="1.773" transform="translate(28.519 83.359)" fill="none" stroke="#00ac99" stroke-linecap="round" stroke-linejoin="round" stroke-width="1.5"/>
        <path id="Trazado_603" data-name="Trazado 603" d="M29.147,86.5c-3.132,4.061-8.042,11.54-4.706,14.875,4.7,4.7,17.625-6.971,17.625-6.971" fill="none" stroke="#00ac99" stroke-linecap="round" stroke-linejoin="round" stroke-width="1.5"/>
      </g>
      <g id="Grupo_447" data-name="Grupo 447">
        <circle id="Elipse_24" data-name="Elipse 24" cx="1.773" cy="1.773" r="1.773" transform="translate(84.297 92.997)" fill="none" stroke="#00ac99" stroke-linecap="round" stroke-linejoin="round" stroke-width="1.5"/>
        <path id="Trazado_604" data-name="Trazado 604" d="M87.434,95.914c4.061,3.132,11.539,8.042,14.875,4.707C107.01,95.92,95.338,83,95.338,83" fill="none" stroke="#00ac99" stroke-linecap="round" stroke-linejoin="round" stroke-width="1.5"/>
      </g>
      <g id="Grupo_448" data-name="Grupo 448">
        <path id="Trazado_605" data-name="Trazado 605" d="M100.668,69.065s1.466-.075,3.547-.344c5.086-.656,13.846-2.472,13.846-7.19,0-6.647-17.393-7.534-17.393-7.534" fill="none" stroke="#00ac99" stroke-linecap="round" stroke-linejoin="round" stroke-width="1.5"/>
      </g>
      <g id="Grupo_449" data-name="Grupo 449">
        <circle id="Elipse_25" data-name="Elipse 25" cx="1.773" cy="1.773" r="1.773" transform="translate(93.935 37.219)" fill="none" stroke="#00ac99" stroke-linecap="round" stroke-linejoin="round" stroke-width="1.5"/>
        <path id="Trazado_606" data-name="Trazado 606" d="M96.853,37.627c3.132-4.061,8.042-11.539,4.706-14.875-4.7-4.7-17.625,6.972-17.625,6.972" fill="none" stroke="#00ac99" stroke-linecap="round" stroke-linejoin="round" stroke-width="1.5"/>
      </g>
    </g>
    <rect id="Rectángulo_28" data-name="Rectángulo 28" width="126" height="117" transform="translate(-171.062 6)" fill="none"/>
  </g>
</svg>
