<svg xmlns="http://www.w3.org/2000/svg" width="535.653" height="680.332" viewBox="0 0 535.653 680.332">
  <g id="Jael_Rostro" data-name="Jael Rostro" transform="translate(-0.29 -0.732)">
    <g id="Layer_23" data-name="Layer 23" transform="translate(0.573 508.142)">
      <path id="Trazado_548" data-name="Trazado 548" d="M.573,1718.19s51.511-20.957,57.908-38.676c.227-.63.471-1.25.748-1.859.714-1.571,1.857-7.822-3.6-31.639a24.1,24.1,0,0,1,2.039-16.579c1.753-3.34,4.214-6.078,7.493-5.611a5.227,5.227,0,0,1,2.271.952c1.831,1.3,5.8,4.751,5.423,10.025a4.043,4.043,0,0,0,3.878,4.418A53.162,53.162,0,0,0,118.045,1622a109.555,109.555,0,0,1,9.746-9.24A177.529,177.529,0,0,1,152.9,1595.3a90.236,90.236,0,0,1,39.9-11.267c1.151-.059,2.363-.163,3.614-.326.786-.1,1.576-.179,2.364-.255,5.277-.511,19.054-4.32,23.254-8.573,7-7.092,11.976-25.659,25.432-28.68,1.288-.289,2.64.045,3.957-.062,2.783-.226,8.5.472,13.607,8.434" transform="translate(-0.573 -1546.076)" fill="none" stroke="#aeaeae" stroke-miterlimit="10" stroke-width="1.5"/>
    </g>
    <g id="Layer_22" data-name="Layer 22" transform="translate(54.695 480.267)">
      <path id="Trazado_549" data-name="Trazado 549" d="M163.116,1660.208s16.492-3.829,16.23-11.823c0,0-.262-9.541,4.712-12.894,0,0,.262-2.579,10.733-2.063l11.518-.068s5.236.584,2.88-3.542c0,0-6.021-25.014,1.833-32.75,0,0,2.88-3.61,13.874,1.547,0,0,10.209,0,13.351-5.931,0,0,.13-3.855-7.853-17.658,0,0-8.115-28.76,7.853-39.591,0,0,.523.258,13.089,4.642,0,0,11.518,3.094,10.471-14.442-.337-5.641,3.288-8.81,13.089-18.567,0,0,2.879-3.868,17.539-6.7,0,0,6.806.937,12.041-11.394,0,0,3.927-7.689,10.471-10.783a61.066,61.066,0,0,1,8.639-1.29s6.708-1.595,12.079-9.5a8.981,8.981,0,0,1,3.412-3.018c3.429-1.706,10.541-4.186,21.418-2.956l24.083-.33s23.036.846,17.8,30.76c0,0-1.832,16.246-6.283,22.178l-17.015,11.862-17.238,5.66a13.782,13.782,0,0,0-5.543,3.43c-4.387,4.47-12.35,15.545-17.27,40.043,0,0-5.5,55.744,9.947,85.183l-3.665.874s-54.973-38.485-46.857-54.989c0,0-1.571-2.063,14.659-3.095,0,0,14-1.292,19.862-12.875a2.982,2.982,0,0,0-.4-3.319c-1.571-1.794-4.966-5.392-11.866-11.779,0,0-10.21-11.74,9.947-24.893l17.015-12.12s3.665-1.032,2.879-5.416c0,0-2.094-18.309,17.277-25.787,0,0,12.3-1.806,14.659,4.384,0,0,3.141,5.158,5.235-.258,0,0,6.283-18.4-1.309-21.967,0,0-2.061-2.214-9.61-4.189a5.452,5.452,0,0,1-2.413-1.378,3.028,3.028,0,0,0-3.554-.679,6.9,6.9,0,0,1-1.691.552,102.512,102.512,0,0,1-25.924.583s-17.484-2.215-20.979,19.8a9.835,9.835,0,0,0-.036,2.782c.7,5.469,1.582,28.633-31.078,39.056,0,0-19.42,5.218-26.078,13.458a2.01,2.01,0,0,1-.89.643c-2.993,1.062-17.135,7.05-1.827,20.97a112.02,112.02,0,0,0,23.717,14.582,6.647,6.647,0,0,1,2,1.307c3.378,3.247,11.706,14.951-15.769,34.655,0,0-11.78,9.026-35.339,14.183a82.433,82.433,0,0,0-31.675,14.918" transform="translate(-163.116 -1461.093)" fill="none" stroke="#aeaeae" stroke-miterlimit="10" stroke-width="1.5"/>
    </g>
    <g id="Layer_21" data-name="Layer 21" transform="translate(297.359 529.082)">
      <path id="Trazado_550" data-name="Trazado 550" d="M1022.009,1760.505s10.733-14.435-4.188-13.661l-34.816-1.29s-18.848-4.642-2.356-21.4c0,0,26.749-21.454,16.768-27.773a14.252,14.252,0,0,1-3.743-3.311c-1.124-1.465-2.533-3.314-3.6-4.761,0,0-8.115-8.252-47.119-23.983,0,0-7.591-5.415,2.88-8.252,0,0,16.738-6.342,13.436-13.743a.386.386,0,0,0-.282-.22c-1.789-.337-15.311-2.92-18.693-4.605,0,0-5.8-2.063,0-8.768a7.192,7.192,0,0,0-.507-8.165,1.315,1.315,0,0,0-1.212-.506c-3.69.473-20.781,2.281-29.391-3.449,0,0-1.738-2.446-.136-6.385a.227.227,0,0,0-.213-.316c-1.968.037-11.764.395-16.928,3.864" transform="translate(-891.908 -1609.915)" fill="none" stroke="#aeaeae" stroke-miterlimit="10" stroke-width="1.5"/>
    </g>
    <g id="Layer_20" data-name="Layer 20" transform="translate(364.435 564.462)">
      <path id="Trazado_551" data-name="Trazado 551" d="M1223.4,1832.694s-6.021-17.239-56.02-15.949c0,0-29.318-1.031-15.968-17.793,0,0,9.286-12.518,10.15-20.11a1.106,1.106,0,0,0-.79-1.184c-1.866-.559-7.471-1.014-22.972,3.757,0,0-13.612.258-2.88-16.246,0,0,10.21-15.975,6.545-17.658,0,0,1.923-2.954-20.265-.369a8.176,8.176,0,0,1-7.143-2.728c-2.1-2.438-4.483-6.712-5.784-14.11a5.214,5.214,0,0,0-2-3.275l-12.309-9.255-.59,10.5a11,11,0,0,0,1.225,5.7c5.525,10.6,25.343,52.3,21.731,99.007" transform="translate(-1093.357 -1717.774)" fill="none" stroke="#aeaeae" stroke-miterlimit="10" stroke-width="1.5"/>
    </g>
    <g id="Layer_19" data-name="Layer 19" transform="translate(303.903 499.828)">
      <path id="Trazado_552" data-name="Trazado 552" d="M1072.816,1700.573s7.4-3.8,10.978-8.923a5.952,5.952,0,0,0-.387-7.3,73.389,73.389,0,0,0-24.466-18.064s-27.346-13.878-20.086-23.314c0,0,22.9-16.062,18.027-34.956a.834.834,0,0,0-1.22-.516c-2.365,1.353-8.752,5.024-12.951,7.6,0,0-25.672,6.068-25.684-32.35a4.857,4.857,0,0,1,2.266-4.085c1.05-.671,2.593-1.589,4.862-2.835a7.952,7.952,0,0,0,2.775-2.52c1.948-2.9,5.307-9.047,3.163-14.487a2.927,2.927,0,0,0-2.857-1.806l-23.53.956s-4.382-.617-7,1.087a19.825,19.825,0,0,1-2.951,1.653c-5.938,2.559-22.843,9.218-29.055,5,0,0-3.4,1.289-2.618-8.768,0,0,2.625-11.453.258-17.63a5.481,5.481,0,0,0-4.772-3.533c-3.186-.2-9.283.777-19.831,6.98,0,0-15.706,4.642-12.565-9.542a76.394,76.394,0,0,1,3.112-9.541s2.386-4.9-16.724-2.063" transform="translate(-911.563 -1520.728)" fill="none" stroke="#aeaeae" stroke-miterlimit="10" stroke-width="1.5"/>
    </g>
    <g id="Layer_18" data-name="Layer 18" transform="translate(297.359 479.974)">
      <path id="Trazado_553" data-name="Trazado 553" d="M1130.122,1659.9s-5.719-3.245-6.067-8.95a9.768,9.768,0,0,0-2.077-5.648c-2.125-2.6-6.218-5.263-13.845-3.962,0,0-21.509,1.948-30.89-11.433a7.794,7.794,0,0,1-1.266-3.007c-.485-2.52-1.183-8.321-1.351-21.147,0,0-.7-11.705-16.691-4.846a12.149,12.149,0,0,1-7.53.683,19.731,19.731,0,0,1-8.014-3.614,4.927,4.927,0,0,1-1.6-2.6c-1.171-4.676-5.32-20.33-10.4-28.819,0,0-12.042-4.642-15.968-10.058,0,0-5.5-3.352-2.094-19.341l-.655-7.3a10.75,10.75,0,0,0-4.735-7.956l-21.442-14.4s-5.095-2.868-5.646-8.056a14.134,14.134,0,0,0-2.02-5.908c-2.477-4.03-7.3-10-14.951-11.99a10.682,10.682,0,0,0-2.465-.3c-2.044-.044-7.485-1.042-14.053-9.331,0,0-2-3.22-8.412-1.615a30.427,30.427,0,0,1-13.257.411c-6.25-1.231-14.457-3.665-19.931-8.4a8.366,8.366,0,0,0-12.387,1.405q-.233.341-.462.719" transform="translate(-891.908 -1460.201)" fill="none" stroke="#aeaeae" stroke-miterlimit="10" stroke-width="1.5"/>
    </g>
    <g id="Layer_17" data-name="Layer 17" transform="translate(311.57 607.266)">
      <path id="Trazado_554" data-name="Trazado 554" d="M939.487,1921.26s-6.021-29.975-4.712-44.932a48.046,48.046,0,0,1,12.565-21.662s8.895-5.6,26.685-6.39a6.036,6.036,0,0,1,2.933.606l8.384,4.13a.155.155,0,0,1-.085.294l-9.807-.84a5.529,5.529,0,0,0-2.623.411c-4.355,1.833-19.263,7.483-25.487,1.79" transform="translate(-934.589 -1848.27)" fill="none" stroke="#aeaeae" stroke-miterlimit="10" stroke-width="1.5"/>
    </g>
    <g id="Layer_16" data-name="Layer 16" transform="translate(242.679 629.393)">
      <path id="Trazado_555" data-name="Trazado 555" d="M768.756,1915.727l-23.036,2.321-17.981,11.469a.108.108,0,0,0,.1.191l18.145-6.81,19.633-3.045Z" transform="translate(-727.688 -1915.727)" fill="none" stroke="#aeaeae" stroke-miterlimit="10" stroke-width="1.5"/>
    </g>
    <g id="Layer_15" data-name="Layer 15" transform="translate(248.931 642.185)">
      <path id="Trazado_556" data-name="Trazado 556" d="M784.421,1957.923s-11.541-7.192-25.916,0c-3.519,1.761-6.741,3.43-12.042,10.057" transform="translate(-746.464 -1954.726)" fill="none" stroke="#aeaeae" stroke-miterlimit="10" stroke-width="1.5"/>
    </g>
    <g id="Layer_14" data-name="Layer 14" transform="translate(245.528 648.812)">
      <path id="Trazado_557" data-name="Trazado 557" d="M746.977,1975.624s-6.479,1.833-10.733-.7" transform="translate(-736.244 -1974.929)" fill="none" stroke="#aeaeae" stroke-miterlimit="10" stroke-width="1.5"/>
    </g>
    <g id="Layer_13" data-name="Layer 13" transform="translate(241.863 650.386)">
      <path id="Trazado_558" data-name="Trazado 558" d="M735.577,1981.944s-6.741,1.046-10.34-2.218" transform="translate(-725.237 -1979.727)" fill="none" stroke="#aeaeae" stroke-miterlimit="10" stroke-width="1.5"/>
    </g>
    <g id="Layer_12" data-name="Layer 12" transform="translate(245.135 654.15)">
      <path id="Trazado_559" data-name="Trazado 559" d="M740.824,1991.2s-3.273,1.741-5.759,1.29" transform="translate(-735.065 -1991.201)" fill="none" stroke="#aeaeae" stroke-miterlimit="10" stroke-width="1.5"/>
    </g>
    <g id="Layer_11" data-name="Layer 11" transform="translate(325.434 623.082)">
      <path id="Trazado_560" data-name="Trazado 560" d="M976.226,1912.274s8.9-17.406,25.065-15.666c0,0,8.573.645,11.714,1.611" transform="translate(-976.226 -1896.486)" fill="none" stroke="#aeaeae" stroke-miterlimit="10" stroke-width="1.5"/>
    </g>
    <g id="Layer_10" data-name="Layer 10" transform="translate(351.415 619.4)">
      <path id="Trazado_561" data-name="Trazado 561" d="M1054.255,1890.678s3.534-2.45,2.487-5.415" transform="translate(-1054.255 -1885.263)" fill="none" stroke="#aeaeae" stroke-miterlimit="10" stroke-width="1.5"/>
    </g>
    <g id="Layer_9" data-name="Layer 9" transform="translate(354.491 617.144)">
      <path id="Trazado_562" data-name="Trazado 562" d="M1063.493,1885.733s4.585-2.36,5.3-7.35" transform="translate(-1063.493 -1878.383)" fill="none" stroke="#aeaeae" stroke-miterlimit="10" stroke-width="1.5"/>
    </g>
    <g id="Layer_8" data-name="Layer 8" transform="translate(358.941 618.433)">
      <path id="Trazado_563" data-name="Trazado 563" d="M1076.858,1890.373a20.4,20.4,0,0,0,9.1-8.059" transform="translate(-1076.858 -1882.314)" fill="none" stroke="#aeaeae" stroke-miterlimit="10" stroke-width="1.5"/>
    </g>
    <g id="Layer_7" data-name="Layer 7" transform="translate(360.119 627.781)">
      <path id="Trazado_564" data-name="Trazado 564" d="M1084.126,1910.814s-1.964,2.449-3.73,2.449l.916,1.806.949-.709,2.716.709v-1.677l.655-.451Z" transform="translate(-1080.396 -1910.814)" fill="#aeaeae"/>
    </g>
    <g id="Layer_6" data-name="Layer 6" transform="translate(124.952 1.5)">
      <path id="Trazado_565" data-name="Trazado 565" d="M546.527,523.6s44.24-50.48-11.714-127.65c0,0-15.9-32.493-83.637-77.17,0,0-100.717-62.665-71.857-183.352,0,0,10.013-93.417,127.222-129.971,0,0,148.426-31.332,185.532,82.392,0,0,31.806,76.01-36.517,181.611,0,0-45.353,67.887-169.629,22.049,0,0-22.191-6.542-27.682-11.6-12.238-11.282-22.971-8.7-40.051-64.985,0,0-16.221-95.516,13.547-136.934,0,0,31.44-46.844,105.054-60.344l11.69-2.5a41,41,0,0,1,11.93-.392c33.6,4.746,66.881,4.587,92.2,60.335,0,0,38.284,84.713-11.191,164.785,0,0-32.984,80.652-130.756,25.53,0,0-81.76-28.253-67.145-133.452,0,0,15.437-79.878,97.887-90.94a10.926,10.926,0,0,1,2.51-.043C556.707,42.21,658.332,55.554,633.174,162.7c0,0-9.424,120.107-99.539,82.393,0,0-110.73-59.183-51.242-141,0,0,24.22-51.128,78.937-36.464.97.26,1.991.305,2.957.583,4.539,1.3,10.092,5.524,11.907,6.97a5.693,5.693,0,0,1,1.028,1.078,36.3,36.3,0,0,0,7.5,7.39c11.883,8.892,37.5,32.415,30.193,65.7,0,0-15.9,71.368-59.488,62.665,0,0-30.038-5.8-47.708-38.875,0,0-13.024-22.217-10.845-44.591,1.439-14.778,12.388-27.023,27-30.657,13.281-3.3,33.034-3.61,55.113,11.423,0,0,29.449,17.407,7.068,52.8,0,0-7.068,14.506-27.094,11.6,0,0-40.051-13.925-36.518-34.814,0,0,11.78-30.172,28.272-24.95,0,0,20.615,14.506,13.547,24.369,0,0-8.966,15.086-17.735,6.963,0,0-6.544-15.086,0-16.247" transform="translate(-374.12 -1.5)" fill="none" stroke="#aeaeae" stroke-miterlimit="10" stroke-width="1.5"/>
    </g>
    <g id="Layer_5" data-name="Layer 5" transform="translate(252.203 645.394)">
      <g id="Grupo_436" data-name="Grupo 436">
        <path id="Trazado_566" data-name="Trazado 566" d="M756.292,1975.068s17.211,10.96,27.879-4.061c0,0,5.432,1.547,6.479-1.1C790.649,1969.911,772.129,1954.825,756.292,1975.068Zm3.4-.515c2.683-3.739,8.311-6.627,8.311-6.627,1.9,7.879,9.817,6.047,9.817,6.047C770.362,1979.775,759.695,1974.553,759.695,1974.553Zm16.3-2.235a6.052,6.052,0,0,1-5.89-4.793,22.936,22.936,0,0,1,6.675-.838c1.244,3.482,4.123.774,4.123.774l1.832.9C780.7,1972.425,775.99,1972.318,775.99,1972.318Z" transform="translate(-756.292 -1964.508)" fill="#aeaeae"/>
      </g>
    </g>
    <g id="Layer_4" data-name="Layer 4" transform="translate(326.612 626.463)">
      <g id="Grupo_437" data-name="Grupo 437">
        <path id="Trazado_567" data-name="Trazado 567" d="M994.685,1908.372a23.472,23.472,0,0,0-11.715,9.154,18.132,18.132,0,0,0-3.207,3.868s3.6.258,5.628-1.934c0,0,11.256,4.513,18.063-1.1,0,0,5.316-2.709,10.732-9.992C1014.187,1908.372,1004.305,1904.825,994.685,1908.372Zm-8.7,8.767c1.375-4.9,8.246-7.22,8.246-7.22,2.618,6.512,8.311,6.512,8.311,6.512A14.853,14.853,0,0,1,985.981,1917.139Zm16.819-3.04c-6.006-.024-6.283-4.442-6.283-4.442l6.283-1.157c.2,1.673,1.153,1.625,1.767,1.741a2.122,2.122,0,0,0,2.225-1.354l2.421.193C1009.083,1914.4,1005.025,1914.108,1002.8,1914.1Z" transform="translate(-979.764 -1906.796)" fill="#aeaeae"/>
      </g>
    </g>
    <g id="Layer_3" data-name="Layer 3" transform="translate(245.528 657.115)">
      <path id="Trazado_568" data-name="Trazado 568" d="M739.647,2000.242l.524,2.7-3.927,1.686,3.927.645-3.927,7.27,8.115-7.141" transform="translate(-736.244 -2000.242)" fill="none" stroke="#aeaeae" stroke-miterlimit="10" stroke-width="1.5"/>
    </g>
  </g>
</svg>
