<svg id="Logosobreblanco" xmlns="http://www.w3.org/2000/svg" width="244.838" height="84.997" viewBox="0 0 244.838 84.997">
  <g id="Grupo_432" data-name="Grupo 432" transform="translate(77.462 0)">
    <path id="Trazado_536" data-name="Trazado 536" d="M380.179,335.372c-3.362,0-6.763.328-10.077-.07-6.161-.741-10.657-4.268-14.083-9.344-1.841-2.728-3.782-5.4-5.857-7.954-1.986-2.444-4.465-4.518-6.249-7.088a82.18,82.18,0,0,1-5.753-10.082,6.269,6.269,0,0,1-.113-3.614c1.112-6.241,2.334-12.462,3.52-18.69.06-.318.054-.723.247-.928,3.268-3.478,3.465-8.737,7.147-12.035a72.747,72.747,0,0,0,5.82-6.5c3.208-3.662,7.625-5.02,12.086-6.15,9.627-2.439,19.365-2.317,29.116-.847,3.326.5,6.625,1.181,9.938,1.778A5.2,5.2,0,0,1,409.4,256.3c2.184,3.093,4.868,5.834,7.044,8.931,2.252,3.206,4.19,6.637,6.17,10.025.876,1.5,1.441,3.183,2.28,4.709a21.321,21.321,0,0,1,2.175,14.851c-1.174,5.893-2.388,11.8-4.038,17.57-1.119,3.913-3.941,6.975-7,9.592a57.853,57.853,0,0,1-6.284,4.146c-1.769,1.149-3.492,2.375-5.313,3.434-3.274,1.9-6.313,4.413-10.2,4.953-4.651.645-9.339,1.019-14.012,1.51Zm10.087-80.135c-.186-.105-.393-.237-.611-.343-3.853-1.884-7.825-1.625-11.724-.356-4.983,1.622-9.895,3.459-14.816,5.264a4.2,4.2,0,0,0-1.857,1.306c-3.206,4.3-6.385,8.62-9.484,13-2.691,3.8-5.132,7.787-7.935,11.5a9.541,9.541,0,0,0-1.743,8.916,94.971,94.971,0,0,1,2.233,9.433c.794,4.626,4.017,7.4,7.788,8.916,5.735,2.307,11.905,3.5,17.769,5.523a53.212,53.212,0,0,0,27.57,1.7c3.932-.727,6.8-2.639,8.033-6.645a13.21,13.21,0,0,1,4.3-5.852c3.562-3.168,7.513-5.947,10.176-10.063a6.355,6.355,0,0,0,1.063-5.118,83.061,83.061,0,0,1-2-10.281c-.432-4.852-2.919-8.331-6.426-11.3-4.126-3.492-8.186-7.083-12.5-10.325-3.175-2.384-6.532-4.725-10.949-4.077-4.535.666-9.243.7-13.587,1.98-4.639,1.37-10.313.785-13.53,6.427a6.159,6.159,0,0,1,4.8-5.092c3.6-1.025,7.239-1.978,10.915-2.672C381.863,256.295,386.039,255.842,390.266,255.237ZM402.5,319.406a51.821,51.821,0,0,1-31.334.245c-4.6-1.342-9.2-2.661-13.773-4.074-3.367-1.04-6.964-1.646-9.443-4.566a4.449,4.449,0,0,0-1.133-.711c1.749,3.358,3.315,6.735,6.5,8.882a65.847,65.847,0,0,1,11.309,9.4c5.607,5.957,5.749,5.823,13.813,5.388.388-.021.777-.03,1.165-.052a27.835,27.835,0,0,0,12.44-3.318C396.671,328,399.775,324.126,402.5,319.406Zm-.821,9.409a19.956,19.956,0,0,0,3.921-1.98c4.347-3.637,8.555-7.441,12.861-11.129,3.882-3.323,6.02-9.939,4.575-14.588-.214.177-.419.321-.594.494-5.637,5.6-11.071,11.43-16.982,16.725C402.231,321.23,401.67,324.536,401.677,328.815Zm22.25-24.971.563.1c.478-2.43.863-4.881,1.456-7.282a20.764,20.764,0,0,0,.051-11.5,73.209,73.209,0,0,0-4.551-10.43c-1.515-2.974-2.959-6.2-5.249-8.511a72.5,72.5,0,0,1-7.878-10.009c-.321-.461-.747-1.057-1.224-1.17-2.826-.673-5.682-1.221-8.527-1.811l-.512.8a15.447,15.447,0,0,1,1.651,1.016c3.518,2.8,7.036,5.6,10.515,8.452,1.935,1.584,4.292,2.94,5.585,4.959a97.762,97.762,0,0,1,6.856,12.946,25.714,25.714,0,0,1,1.652,7.528,73.415,73.415,0,0,1,.386,9.241A44.717,44.717,0,0,1,423.927,303.844ZM359.42,261.891l-.264-.38c-1.728,1.3-3.368,2.749-5.2,3.885-7.215,4.479-10.21,11.246-10.565,19.563Q351.416,273.411,359.42,261.891Zm21-9.845a48.619,48.619,0,0,0-14.824,2.062c-3.147.905-6.464,1.662-8.812,4.211-3.364,3.652-6.636,7.39-9.9,11.133a4.421,4.421,0,0,0-.615,1.5c3.2-2.664,6.361-5.5,9.741-8.048a105.421,105.421,0,0,1,9.452-6.288C370.04,253.881,375.2,252.911,380.418,252.046Zm-27.95,67.816a4,4,0,0,0,.354.839c2.477,3.07,4.874,6.212,7.483,9.165,2.292,2.594,5.455,3.631,8.81,4.183C363.547,329.435,359.446,323.139,352.468,319.862Zm39.6,12.924-.223-.649c.537-.243,1.063-.517,1.614-.722,2.057-.764,4.136-1.468,6.172-2.279a1.921,1.921,0,0,0,1.117-1.09c.263-1.476.329-2.986.469-4.482l-.463-.264c-1.549,3.442-4.36,5.635-7.428,7.33a101.271,101.271,0,0,1-9.315,4.1,24.877,24.877,0,0,0,13.663-2.481Zm13.315-16.7c4.574-2.763,10.853-10.261,10.6-12.542C410.5,306.791,406.929,310.967,405.377,316.087ZM422.926,289.3a7.787,7.787,0,0,0,.008,1.209c.676,3.516-.1,6.624-2.883,8.951-2.433,2.035-3.01,4.948-4.258,7.8C423.194,301.266,425.2,296.266,422.926,289.3Zm-2.668,25.588-11.8,10.488C413.444,323.9,418.6,319.378,420.257,314.889Zm-81.743-17.866a17.307,17.307,0,0,0,.541,3.938,34.515,34.515,0,0,0,2.8,5.5c1.567,2.52,3.318,4.925,4.99,7.378l.464-.3c-1.424-2.64-2.859-5.273-4.269-7.92C341.6,302.917,340.188,300.2,338.514,297.023Zm4.654,7.152.531-.127-3.029-12.223A13.083,13.083,0,0,0,343.168,304.174Zm55.58-46.994a20.431,20.431,0,0,0,9.43,6.365C405.009,261.461,402.933,257.787,398.748,257.181Zm19.575,17.875c-.633-3.8-5.289-9.512-7.829-9.766Zm-77.606,12.518.672.2,2.8-11.077-.9-.225C341.611,279.967,341.43,283.838,340.717,287.574ZM363.854,258.3l.175.469,12.6-4.741C371.889,254.164,367.838,256.141,363.854,258.3Zm56.28,22.223-.72.145q1.192,6,2.385,12l.771-.155Zm-29.348-27.281,8.443,2.744C396.987,252.156,393.524,253.064,390.785,253.242Zm16.232,10.687-.72.76,5.259,4.445.487-.549Z" transform="translate(-337.839 -251.02)" fill="#009674"/>
  </g>
  <g id="Grupo_433" data-name="Grupo 433" transform="translate(0 37.244)">
    <path id="Trazado_537" data-name="Trazado 537" d="M243.447,304.943v-5.6h2.014v5.82a3.417,3.417,0,0,1-1.152,2.653,4.193,4.193,0,0,1-5.529,0,4.119,4.119,0,0,1-1.152-3.212h2.014a2.853,2.853,0,0,0,.56,1.964,1.758,1.758,0,0,0,1.343.61,1.844,1.844,0,0,0,1.343-.553A2.276,2.276,0,0,0,243.447,304.943Z" transform="translate(-237.627 -299.235)" fill="#1d1d1d"/>
    <path id="Trazado_538" data-name="Trazado 538" d="M269.522,306.734l-.862,2.014h-2.082l4.074-9.4h1.892l4.1,9.4h-2.092l-.862-2.014Zm3.492-1.567-1.41-3.5-1.411,3.5Z" transform="translate(-244.2 -299.235)" fill="#1d1d1d"/>
    <path id="Trazado_539" data-name="Trazado 539" d="M304.838,299.347v1.679h-4.253v2.126h3.805v1.679h-3.805v2.35h4.253v1.567h-6.267v-9.4Z" transform="translate(-251.463 -299.235)" fill="#1d1d1d"/>
    <path id="Trazado_540" data-name="Trazado 540" d="M326.509,308.748v-9.4h2.014v7.723h4.029v1.678Z" transform="translate(-257.805 -299.235)" fill="#1d1d1d"/>
    <path id="Trazado_541" data-name="Trazado 541" d="M378.9,305.614v3.134h-2.015v-9.4h4.253a3.212,3.212,0,0,1,2.456.957,3.156,3.156,0,0,1,.9,2.233,2.882,2.882,0,0,1-.957,2.177,3.364,3.364,0,0,1-2.4.9Zm0-4.588v2.91h2.126a1.455,1.455,0,1,0,0-2.91Z" transform="translate(-269.241 -299.235)" fill="#1d1d1d"/>
    <path id="Trazado_542" data-name="Trazado 542" d="M412.147,305.021a2.263,2.263,0,0,1,1.22,2.194,6,6,0,0,0,.38,1.567h-1.824a1.677,1.677,0,0,1-.458-1.2,2.876,2.876,0,0,0-.309-1.427,1.189,1.189,0,0,0-1.135-.543h-2.026v3.134H405.98v-9.4h4.253a3.212,3.212,0,0,1,2.456.957,3.159,3.159,0,0,1,.9,2.233A2.922,2.922,0,0,1,412.147,305.021Zm-4.152-4v2.91h2.126a1.455,1.455,0,1,0,0-2.91Z" transform="translate(-275.847 -299.235)" fill="#1d1d1d"/>
    <path id="Trazado_543" data-name="Trazado 543" d="M441.923,299.347v1.679h-4.253v2.126h3.805v1.679h-3.805v2.35h4.253v1.567h-6.267v-9.4Z" transform="translate(-282.584 -299.235)" fill="#1d1d1d"/>
    <path id="Trazado_544" data-name="Trazado 544" d="M469.909,305.828l1.734.907a4.5,4.5,0,0,1-4.04,2.092,4.556,4.556,0,0,1-3.251-1.265,4.645,4.645,0,0,1-1.337-3.548,4.755,4.755,0,0,1,1.282-3.547,5.006,5.006,0,0,1,7.325.727l-1.757.94a2.544,2.544,0,0,0-2.261-1.254,2.327,2.327,0,0,0-1.869.834,4.1,4.1,0,0,0,0,4.6,2.326,2.326,0,0,0,1.869.833A2.621,2.621,0,0,0,469.909,305.828Z" transform="translate(-288.795 -299.202)" fill="#1d1d1d"/>
    <path id="Trazado_545" data-name="Trazado 545" d="M495.573,299.347v9.4h-2.014v-9.4Z" transform="translate(-295.729 -299.235)" fill="#1d1d1d"/>
    <path id="Trazado_546" data-name="Trazado 546" d="M518.071,306.734l-.862,2.014h-2.081l4.073-9.4h1.892l4.1,9.4H523.1l-.862-2.014Zm3.492-1.567-1.41-3.5-1.41,3.5Z" transform="translate(-300.626 -299.235)" fill="#1d1d1d"/>
    <path id="Trazado_547" data-name="Trazado 547" d="M552.069,299.347v1.679h-2.921v7.722h-2.015v-7.722h-2.91v-1.679Z" transform="translate(-307.231 -299.235)" fill="#1d1d1d"/>
  </g>
</svg>
