<svg xmlns="http://www.w3.org/2000/svg" width="255.182" height="88.588" viewBox="0 0 255.182 88.588">
  <g id="Logo_Jael_blanco" data-name="Logo Jael blanco" transform="translate(-237.627 -251.02)">
    <g id="Grupo_432" data-name="Grupo 432" transform="translate(318.362 251.02)">
      <path id="Trazado_536" data-name="Trazado 536" d="M381.968,338.936c-3.5,0-7.049.342-10.5-.073-6.421-.772-11.107-4.449-14.678-9.738-1.919-2.843-3.942-5.629-6.1-8.29-2.07-2.547-4.654-4.709-6.514-7.387a85.654,85.654,0,0,1-6-10.508,6.534,6.534,0,0,1-.118-3.766c1.159-6.5,2.432-12.988,3.669-19.48.063-.331.056-.753.258-.968,3.406-3.624,3.612-9.106,7.449-12.544a75.825,75.825,0,0,0,6.066-6.771c3.344-3.817,7.948-5.233,12.6-6.41,10.033-2.542,20.184-2.415,30.346-.883,3.467.523,6.905,1.231,10.357,1.853a5.419,5.419,0,0,1,3.628,2.548c2.277,3.223,5.074,6.08,7.342,9.308,2.347,3.341,4.367,6.917,6.431,10.448.913,1.565,1.5,3.318,2.376,4.908a22.221,22.221,0,0,1,2.267,15.478c-1.224,6.142-2.489,12.3-4.209,18.313-1.167,4.078-4.107,7.269-7.3,10a60.289,60.289,0,0,1-6.55,4.321c-1.844,1.2-3.64,2.475-5.537,3.579-3.412,1.984-6.579,4.6-10.626,5.162-4.847.673-9.734,1.062-14.6,1.573Zm10.514-83.52c-.194-.11-.409-.247-.637-.358-4.016-1.963-8.155-1.693-12.219-.371-5.193,1.69-10.313,3.605-15.442,5.486a4.381,4.381,0,0,0-1.935,1.362c-3.341,4.481-6.655,8.984-9.884,13.546-2.8,3.963-5.349,8.116-8.27,11.988a9.945,9.945,0,0,0-1.817,9.292,99.016,99.016,0,0,1,2.328,9.831c.827,4.822,4.187,7.713,8.117,9.293,5.977,2.4,12.408,3.65,18.519,5.756a55.461,55.461,0,0,0,28.735,1.768c4.1-.758,7.084-2.75,8.372-6.926.779-2.522,2.514-4.35,4.479-6.1,3.712-3.3,7.83-6.2,10.605-10.488a6.624,6.624,0,0,0,1.108-5.334,86.535,86.535,0,0,1-2.08-10.716c-.45-5.057-3.042-8.683-6.7-11.778-4.3-3.64-8.532-7.383-13.033-10.762-3.31-2.485-6.808-4.925-11.412-4.25-4.727.694-9.633.727-14.161,2.064-4.835,1.428-10.749.819-14.1,6.7a6.419,6.419,0,0,1,5-5.307c3.754-1.068,7.545-2.062,11.376-2.785C383.723,256.518,388.075,256.046,392.481,255.415ZM405.23,322.3a54.01,54.01,0,0,1-32.658.255c-4.789-1.4-9.587-2.773-14.355-4.246-3.509-1.084-7.258-1.716-9.842-4.759a4.636,4.636,0,0,0-1.18-.741c1.823,3.5,3.456,7.019,6.774,9.257a68.627,68.627,0,0,1,11.786,9.793c5.844,6.208,5.992,6.069,14.4,5.616.4-.022.81-.031,1.214-.054a29.012,29.012,0,0,0,12.965-3.459C399.157,331.25,402.392,327.215,405.23,322.3Zm-.856,9.806a20.806,20.806,0,0,0,4.087-2.063c4.531-3.79,8.916-7.756,13.4-11.6,4.046-3.463,6.274-10.359,4.769-15.2-.223.184-.437.334-.619.515-5.875,5.839-11.538,11.913-17.7,17.432C404.952,324.2,404.367,327.642,404.374,332.1Zm23.19-26.026.587.109c.5-2.532.9-5.088,1.517-7.59.989-4.011,1.323-8.092.053-11.99a76.316,76.316,0,0,0-4.744-10.871c-1.579-3.1-3.084-6.464-5.471-8.871A75.576,75.576,0,0,1,411.3,256.43c-.334-.481-.778-1.1-1.275-1.22-2.945-.7-5.922-1.272-8.888-1.888l-.533.835a16.093,16.093,0,0,1,1.721,1.059c3.667,2.919,7.334,5.84,10.96,8.809,2.017,1.651,4.474,3.065,5.822,5.168a101.894,101.894,0,0,1,7.145,13.493,26.8,26.8,0,0,1,1.722,7.846,76.548,76.548,0,0,1,.4,9.631A46.606,46.606,0,0,1,427.564,306.075ZM360.332,262.35l-.275-.4c-1.8,1.358-3.51,2.865-5.419,4.049-7.52,4.668-10.641,11.721-11.011,20.39Q351.989,274.357,360.332,262.35Zm21.885-10.261a50.672,50.672,0,0,0-15.45,2.149c-3.281.943-6.738,1.732-9.184,4.389-3.506,3.807-6.916,7.7-10.317,11.6a4.606,4.606,0,0,0-.641,1.558c3.335-2.777,6.63-5.735,10.153-8.388a109.879,109.879,0,0,1,9.851-6.554C371.4,254,376.777,252.99,382.217,252.089Zm-29.131,70.682a4.176,4.176,0,0,0,.369.875c2.582,3.2,5.08,6.474,7.8,9.552,2.389,2.7,5.685,3.784,9.182,4.359C364.633,332.748,360.359,326.186,353.086,322.771Zm41.268,13.47-.232-.677c.56-.253,1.108-.539,1.682-.753,2.144-.8,4.311-1.53,6.433-2.376A2,2,0,0,0,403.4,331.3c.274-1.538.342-3.112.489-4.672l-.482-.275c-1.615,3.587-4.544,5.873-7.742,7.64a105.512,105.512,0,0,1-9.709,4.272,25.928,25.928,0,0,0,14.24-2.585Zm13.877-17.4c4.768-2.88,11.311-10.694,11.053-13.072C413.575,309.147,409.848,313.5,408.231,318.836Zm18.29-27.918a8.1,8.1,0,0,0,.008,1.26c.7,3.664-.1,6.9-3.005,9.329-2.536,2.121-3.137,5.157-4.438,8.125C426.8,303.389,428.886,298.178,426.52,290.918Zm-2.781,26.669-12.3,10.931C416.638,326.98,422.009,322.266,423.739,317.587Zm-85.2-18.621a18.032,18.032,0,0,0,.564,4.1,35.956,35.956,0,0,0,2.921,5.731c1.633,2.626,3.459,5.133,5.2,7.69l.484-.311c-1.484-2.751-2.98-5.5-4.45-8.255C341.763,305.109,340.287,302.28,338.543,298.966Zm4.85,7.454.553-.132-3.157-12.74A13.637,13.637,0,0,0,343.393,306.42Zm57.928-48.979a21.293,21.293,0,0,0,9.829,6.634C407.846,261.9,405.683,258.073,401.321,257.441Zm20.4,18.63c-.66-3.961-5.513-9.913-8.16-10.178Zm-80.884,13.047.7.213,2.915-11.545-.937-.234C341.771,281.19,341.581,285.225,340.838,289.118Zm24.114-30.511.182.488,13.127-4.941C373.327,254.3,369.105,256.357,364.953,258.607Zm58.658,23.162-.751.151q1.242,6.255,2.485,12.51l.8-.162Zm-30.588-28.433,8.8,2.86C399.486,252.2,395.877,253.15,393.022,253.336Zm16.918,11.139-.751.792,5.481,4.633.508-.572Z" transform="translate(-337.839 -251.02)" fill="#009674"/>
    </g>
    <g id="Grupo_433" data-name="Grupo 433" transform="translate(237.627 289.837)">
      <path id="Trazado_537" data-name="Trazado 537" d="M243.693,305.18v-5.833h2.1v6.066a3.561,3.561,0,0,1-1.2,2.765,4.37,4.37,0,0,1-5.763,0,4.294,4.294,0,0,1-1.2-3.348h2.1a2.973,2.973,0,0,0,.583,2.047,1.832,1.832,0,0,0,1.4.635,1.922,1.922,0,0,0,1.4-.577A2.372,2.372,0,0,0,243.693,305.18Z" transform="translate(-237.627 -299.23)" fill="#fff"/>
      <path id="Trazado_538" data-name="Trazado 538" d="M269.647,307.046l-.9,2.1h-2.17l4.246-9.8H272.8l4.269,9.8h-2.181l-.9-2.1Zm3.639-1.633-1.47-3.651-1.47,3.651Z" transform="translate(-243.254 -299.23)" fill="#fff"/>
      <path id="Trazado_539" data-name="Trazado 539" d="M305.1,299.347v1.75H300.67v2.216h3.966v1.75H300.67v2.449H305.1v1.633h-6.532v-9.8Z" transform="translate(-249.472 -299.23)" fill="#fff"/>
      <path id="Trazado_540" data-name="Trazado 540" d="M326.509,309.145v-9.8h2.1V307.4h4.2v1.749Z" transform="translate(-254.902 -299.23)" fill="#fff"/>
      <path id="Trazado_541" data-name="Trazado 541" d="M378.983,305.879v3.266h-2.1v-9.8h4.433a3.348,3.348,0,0,1,2.56,1,3.289,3.289,0,0,1,.939,2.328,3,3,0,0,1-1,2.269,3.505,3.505,0,0,1-2.5.939Zm0-4.782v3.033H381.2a1.517,1.517,0,1,0,0-3.033Z" transform="translate(-264.693 -299.23)" fill="#fff"/>
      <path id="Trazado_542" data-name="Trazado 542" d="M412.407,305.261a2.359,2.359,0,0,1,1.271,2.286,6.252,6.252,0,0,0,.4,1.633h-1.9a1.747,1.747,0,0,1-.478-1.248,3,3,0,0,0-.322-1.487,1.239,1.239,0,0,0-1.183-.566H408.08v3.266h-2.1v-9.8h4.433a3.347,3.347,0,0,1,2.56,1,3.293,3.293,0,0,1,.939,2.328A3.046,3.046,0,0,1,412.407,305.261ZM408.08,301.1v3.033H410.3a1.517,1.517,0,1,0,0-3.033Z" transform="translate(-270.349 -299.23)" fill="#fff"/>
      <path id="Trazado_543" data-name="Trazado 543" d="M442.188,299.347v1.75h-4.432v2.216h3.966v1.75h-3.966v2.449h4.432v1.633h-6.532v-9.8Z" transform="translate(-276.117 -299.23)" fill="#fff"/>
      <path id="Trazado_544" data-name="Trazado 544" d="M470.2,306.108l1.808.945a4.686,4.686,0,0,1-4.211,2.181,4.748,4.748,0,0,1-3.388-1.318,4.842,4.842,0,0,1-1.394-3.7,4.957,4.957,0,0,1,1.336-3.7,5.218,5.218,0,0,1,7.634.758l-1.831.98a2.652,2.652,0,0,0-2.356-1.307,2.425,2.425,0,0,0-1.948.869,4.278,4.278,0,0,0,0,4.794,2.424,2.424,0,0,0,1.948.868A2.731,2.731,0,0,0,470.2,306.108Z" transform="translate(-281.434 -299.202)" fill="#fff"/>
      <path id="Trazado_545" data-name="Trazado 545" d="M495.658,299.347v9.8h-2.1v-9.8Z" transform="translate(-287.371 -299.23)" fill="#fff"/>
      <path id="Trazado_546" data-name="Trazado 546" d="M518.195,307.046l-.9,2.1h-2.169l4.245-9.8h1.972l4.269,9.8h-2.181l-.9-2.1Zm3.639-1.633-1.469-3.651-1.469,3.651Z" transform="translate(-291.563 -299.23)" fill="#fff"/>
      <path id="Trazado_547" data-name="Trazado 547" d="M552.4,299.347v1.75h-3.045v8.048h-2.1V301.1h-3.033v-1.75Z" transform="translate(-297.218 -299.23)" fill="#fff"/>
    </g>
  </g>
</svg>
