<svg xmlns="http://www.w3.org/2000/svg" xmlns:xlink="http://www.w3.org/1999/xlink" width="514" height="448" viewBox="0 0 514 448">
  <defs>
    <clipPath id="clip-path">
      <rect id="Rectángulo_976" data-name="Rectángulo 976" width="514" height="448" transform="translate(-156 3132)" fill="#fff" stroke="#707070" stroke-width="1"/>
    </clipPath>
  </defs>
  <g id="Trazados_izq_inicio" data-name="Trazados izq inicio" transform="translate(156 -3132)" clip-path="url(#clip-path)">
    <path id="Trazado_609" data-name="Trazado 609" d="M509.721,474.125c-25.905,6.072-48.414-16.513-77.332-23.028-5.09-1.146-14.057-4.022-24.778-7.541-14.253-4.678-18.827-8.172-36.9-12.12C307,417.519,238.554,444.42,173.341,443.869a182.091,182.091,0,0,1-36.34-3.6c-40.714-8.659-67.24-31.627-91.851-53.217a357.261,357.261,0,0,1-69.083-82.325" transform="translate(-151.35 3098.131)" fill="none" stroke="#00ac99" stroke-miterlimit="10" stroke-width="1.5" opacity="0.3"/>
    <path id="Trazado_524" data-name="Trazado 524" d="M720.2,540.938c-36.123,8.466-40.458-78.057-115.162-87.8S483.2,346.3,400.562,339.574s-72.84-138.722-136.817-171.005S79.461,186.675-11.473,185.906c-17-.144-34.042-1.484-50.673-5.02-56.772-12.074-93.76-44.1-128.078-74.207A498.174,498.174,0,0,1-286.554-8.115" transform="translate(-361.83 2980.115)" fill="none" stroke="#161615" stroke-miterlimit="10" stroke-width="1.5"/>
  </g>
</svg>
