<svg xmlns="http://www.w3.org/2000/svg" xmlns:xlink="http://www.w3.org/1999/xlink" width="93" height="426" viewBox="0 0 93 426">
  <defs>
    <clipPath id="clip-path">
      <rect id="Rectángulo_950" data-name="Rectángulo 950" width="93" height="426" transform="translate(1180 2741)" fill="#fff" stroke="#707070" stroke-width="1"/>
    </clipPath>
  </defs>
  <g id="Trazado_blanco_dcha" data-name="Trazado blanco dcha" transform="translate(-1180 -2741)" clip-path="url(#clip-path)">
    <path id="Trazado_679" data-name="Trazado 679" d="M2489.429-231.308c-20.194-55.11-23.073-115-21.683-173.675a1276.112,1276.112,0,0,1,23.53-215.483c8.7-44.31,21.488-91.111,55.6-120.7,27.017-23.438,63.44-32.435,98.7-38.462a856.892,856.892,0,0,1,140.755-12.242c32.262-.134,66.729,2.3,92.511,21.7,18.006,13.546,29.528,33.75,43.769,51.21,63.6,77.981,180.225,100.19,236.979,183.285,34.516,50.535,40.454,114.688,44.485,175.752,11.338,171.757,15.071,349.55-47.626,509.856-27.8,71.077-71.628,141.673-138.863,181.3-48.12,28.363-168.123,66.113-217.609,22.75-38.973-34.149-25-116.458-34.992-162.551-17.829-82.266-64.852-148.091-119.553-209.994C2587.243-84.4,2520.372-146.866,2489.429-231.308Z" transform="translate(-1281.695 3491.103)" fill="none" stroke="#e9e6e5" stroke-miterlimit="10" stroke-width="1"/>
  </g>
</svg>
