<svg xmlns="http://www.w3.org/2000/svg" xmlns:xlink="http://www.w3.org/1999/xlink" width="585" height="186" viewBox="0 0 585 186">
  <defs>
    <clipPath id="clip-path">
      <rect id="Rectángulo_949" data-name="Rectángulo 949" width="585" height="186" transform="translate(0 3288)" fill="#fff" stroke="#707070" stroke-width="1"/>
    </clipPath>
  </defs>
  <g id="Trazados_verdez_izq" data-name="Trazados verdez izq" transform="translate(0 -3288)" clip-path="url(#clip-path)">
    <g id="Grupo_469" data-name="Grupo 469" transform="translate(-797.175 2806.881)">
      <path id="Trazado_531" data-name="Trazado 531" d="M1440.158,1165.091c-19.689-43.511-39.975-56.606-55.385-60.132-7.209-1.65-15.768-1.758-30.066-6.33a142.894,142.894,0,0,1-37.978-18.989c-28.886-19.073-52.673-10.542-130.084-25.686-42.344-8.284-38.808-10.7-76.856-18.071-30.588-5.927-61.968-5.937-93.013-8.59a547.926,547.926,0,0,1-211.053-62.564C782.883,952.514,760.31,938.115,745.3,917c-11.76-16.544-18.216-36.313-29.35-53.284-34.747-52.963-104.53-67.007-166.32-80.953C479.1,766.846,408.418,744.527,350,701.917c-64.247-46.862-63.545-74.334-131.812-125.89-59.909-45.243-119.8-66.963-160.2-78.176" transform="translate(-57.983 -497.851)" fill="none" stroke="#00ac99" stroke-miterlimit="10" stroke-width="1.5" opacity="0.51"/>
      <path id="Trazado_532" data-name="Trazado 532" d="M1384.132,1125.441c-32.519-15.021-66.162-30.335-102.525-32.569-22.183-1.363-44.333,2.238-66.534,3.357-43.049,2.169-86.039-5.014-127.825-14.714-14.67-3.406-29.63-7.158-44.707-5.925-13.263,1.085-25.733,5.961-38.4,9.713-45.151,13.376-95.136,12.449-139.846-2.111-25.326-8.248-49.714-20.861-76.575-22-39.173-1.664-78.821,21.374-115.844,9.569-13.46-4.292-24.794-12.827-37.806-18.148-42.97-17.57-91.747,2.659-136.758,15.268-9.058,2.538-18.4,4.785-27.863,4.436-15.411-.569-29.394-7.871-43.083-14.359A487.008,487.008,0,0,0,258.2,1013.123" transform="translate(-144.957 -458.201)" fill="none" stroke="#00ac99" stroke-miterlimit="10" stroke-width="1.5" opacity="0.51"/>
    </g>
  </g>
</svg>
