<svg xmlns="http://www.w3.org/2000/svg" width="126.122" height="99.384" viewBox="0 0 126.122 99.384"><defs><style>.a{fill:none;stroke:#000;stroke-linecap:round;stroke-linejoin:round;stroke-width:2px;}</style></defs><g transform="translate(-0.508 -20.116)"><path class="a" d="M13.354,29.632"/><path class="a" d="M69.507,22.386"/><path d="M61.993,100.791a63.86,63.86,0,0,1-20.342-3.74,1,1,0,0,1-.552-.519L12.267,33.447a1,1,0,1,1,1.818-.831l28.658,62.7a62.907,62.907,0,0,0,19.25,3.472,63.082,63.082,0,0,0,19.279-3.472l28.658-62.7a1,1,0,1,1,1.818.831L82.917,96.532a1,1,0,0,1-.554.519A64.129,64.129,0,0,1,61.993,100.791Z"/><path d="M62.008,44.116c-24.239,0-50-4.206-50-12s25.761-12,50-12,50,4.2,50,12S86.247,44.116,62.008,44.116Zm0-22c-28.287,0-48,5.27-48,10s19.713,10,48,10,48-5.27,48-10S90.295,22.116,62.008,22.116Z"/><path d="M61.508,119.5c-42.757,0-61-6.879-61-23,0-17.629,29.7-23.354,30.965-23.589a1,1,0,1,1,.365,1.967c-.293.055-29.33,5.65-29.33,21.622,0,14.523,18.2,21,59,21,36.991,0,59.971-8.813,59.971-23,0-13.98-29.506-18.681-29.8-18.727a1,1,0,1,1,.3-1.976c1.286.2,31.5,5.025,31.5,20.7C123.479,109.921,99.732,119.5,61.508,119.5Z"/><path d="M61.748,104.771A84.575,84.575,0,0,1,35.987,100.6c-3.422-1.1-6.931-2.486-9.424-5.181a2.821,2.821,0,0,1-.773-2.53c.4-2.051,3.085-4.208,8.2-6.6a1,1,0,0,1,.846,1.812c-6.2,2.893-6.99,4.687-7.085,5.168a.836.836,0,0,0,.28.788c2.178,2.355,5.405,3.619,8.567,4.633,17.584,5.641,35.274,5.425,49.814-.61,2.443-1.014,5.514-2.486,7.587-4.9.587-.684,1.528-2.016,1.236-3.266-.34-1.455-2.174-2.271-3.922-2.876a1,1,0,0,1,.655-1.891c2.263.786,4.653,1.911,5.215,4.312.468,2.005-.648,3.839-1.666,5.023-2.349,2.735-5.69,4.347-8.338,5.446A66.285,66.285,0,0,1,61.748,104.771Z"/><path d="M63.473,112.372c-13.085,0-27.2-2.715-41.964-8.074a34.592,34.592,0,0,1-8.658-4.195c-.558-.4-1.042-.711-1.465-.98a5.812,5.812,0,0,1-3.229-4.4c-.644-2.8,1.514-7.329,5.642-9.349,2.486-1.216,7.186-2.377,11.732-3.5a69.682,69.682,0,0,0,8.829-2.513,1,1,0,1,1,.817,1.826,69.673,69.673,0,0,1-9.166,2.628c-4.238,1.047-9.039,2.234-11.333,3.356-3.406,1.666-4.983,5.319-4.572,7.1.451,1.953.929,2.256,2.352,3.16.452.287.97.616,1.565,1.047a32.88,32.88,0,0,0,8.167,3.935c14.816,5.378,28.979,8.073,41.993,7.952,15.213-.116,29.286-4,40.7-11.216a20.74,20.74,0,0,0,6.74-6.094c1.669-2.67,1.958-5.865.736-8.137-1.481-2.756-4.851-4.037-7.621-4.846a53.111,53.111,0,0,0-13.846-2.32,1,1,0,0,1-.968-1.03.976.976,0,0,1,1.03-.968,54.963,54.963,0,0,1,14.345,2.4c3.144.918,6.988,2.408,8.822,5.819a10.211,10.211,0,0,1-.8,10.144,22.491,22.491,0,0,1-7.366,6.724c-11.725,7.422-26.162,11.407-41.75,11.526C63.957,112.371,63.714,112.372,63.473,112.372Z"/><path d="M62.974,115.724c-2.724,0-5.466-.143-8.124-.28-1.827-.094-3.715-.192-5.568-.242-1.907-.051-3.862-.055-5.753-.057-6.248-.01-12.709-.02-18.863-1.726a59.956,59.956,0,0,1-13.958-6.373,17.413,17.413,0,0,1-5.155-4.012c-3.1-3.927-2.7-10.982.831-14.8,4.2-4.541,18.533-10.971,26.157-12.457a1,1,0,1,1,.383,1.963c-7.193,1.4-21.167,7.635-25.073,11.854-2.875,3.1-3.229,9.036-.728,12.2a15.554,15.554,0,0,0,4.592,3.522A58.11,58.11,0,0,0,25.2,111.491c5.893,1.634,12.217,1.644,18.332,1.654,1.9,0,3.87.006,5.8.057,1.878.051,3.779.15,5.618.244,2.8.146,5.686.3,8.523.276,3.462-.024,6.986-.3,10.393-.566,3.18-.249,6.454-.506,9.632-.977,6.25-.928,17.987-3.506,26.375-10.345,1.543-1.258,5.668-7.48,5.632-9.2-.05-2.392-1.021-3.185-3.213-4.75-4.977-3.554-11.637-5.547-22.988-6.88a1,1,0,0,1,.232-1.986c11.715,1.375,18.645,3.472,23.918,7.239,2.466,1.761,3.981,3.009,4.051,6.336.054,2.644-4.745,9.472-6.368,10.8-8.758,7.14-20.892,9.814-27.346,10.772-3.245.482-6.555.741-9.756.992-3.455.271-7.015.549-10.549.573Z"/><path class="a" d="M61.993,96.116"/><path d="M31.479,41.407a1.049,1.049,0,0,1-.125-.008c-.429-.052-6.957-2.446-8.361-4.523a3.868,3.868,0,0,1-.475-3.029,6.7,6.7,0,0,1,3.118-4.141c2.593-1.561,14.106-6.036,32.388-5.97,18.758.039,39.685,4.36,43.906,9.065a2.771,2.771,0,0,1,.829,2.161c-.546,5.127-24.828,5.736-35.243,5.76-8.491.016-36.212-.333-36.8-5.673a2.558,2.558,0,0,1,.75-2.026c3.092-3.43,15.986-5.636,26.056-5.583,13.99.1,30.066,3.311,31.854,5.631a1.312,1.312,0,0,1,.262,1.144c-1.179,4.606-28.826,3.674-31.975,3.552-15.853-.613-16.128-2.183-16.276-3.027a1.369,1.369,0,0,1,.442-1.247c2.295-2.222,19.51-3.2,29.627-1.087a1,1,0,0,1-.41,1.958c-9.34-1.953-22.777-1.019-26.773.116,5.344,1.364,27.089,2.2,38.53.554a16.154,16.154,0,0,0,4.471-1.08C84.287,32.44,71.04,29.539,57.5,29.44c-11.229-.083-22.443,2.579-24.557,4.922a.745.745,0,0,0-.247.466c.9,2.5,22.821,4.716,46.18,3.626,17.389-.811,21.7-2.952,21.892-3.707a1.025,1.025,0,0,0-.33-.611c-3.384-3.772-23.061-8.36-42.42-8.4H57.8c-18,0-29.128,4.478-31.13,5.683a4.739,4.739,0,0,0-2.2,2.859,1.91,1.91,0,0,0,.178,1.478c.836,1.236,6.176,3.446,7.037,3.674a.962.962,0,0,1,.827,1.107A1.034,1.034,0,0,1,31.479,41.407Z"/><path d="M99.617,74.728a4.254,4.254,0,0,1-2.711-.8c-1.265-1.013-1.756-3.069-1.418-5.946.5-4.291,3.021-10.763,7.33-16.134a1,1,0,0,1-.137-1.227c7.84-12.691,13.579-11.914,16.329-11.543.222.03.422.058.6.071,4.165.324,6.451,5.6,6.913,8.857,1.222,8.6-8.046,18.119-17.174,23.328C107.7,72.273,103.066,74.727,99.617,74.728Zm18.648-30.274a13.617,13.617,0,0,0-5.305,1.6c-8.9,4.2-14.712,15.574-15.485,22.166-.243,2.063.012,3.614.681,4.149,1.106.887,4.964.218,10.2-2.767,8.832-5.041,17.228-13.979,16.186-21.311-.392-2.752-2.278-6.926-5.087-7.143-.211-.017-.448-.048-.712-.084-1.969-.266-5.736-.774-11.154,6.006a23.436,23.436,0,0,1,4.516-2.824c1.744-.823,6.373-3.009,9.05-.878a4.571,4.571,0,0,1,1.581,3.258c.419,4.036-2.354,10.813-6.452,15.763-4.52,5.462-11.731,9.016-14.71,9.065a2.24,2.24,0,0,1-1.791-.641c-1.508-1.705-1.229-5.085.825-10.045,3.426-8.275,11.164-13.674,15.317-14.717a3.777,3.777,0,0,1,3.388.355c2.523,2.067-.592,7.183-6.436,14.769-2.533,3.29-6.348,6.081-8.5,6.22a1.936,1.936,0,0,1-1.569-.519c-.552-.552-1.579-1.579,3.483-8.854l.086-.125a1,1,0,1,1,1.66,1.116l-.1.151c-2.481,3.565-3.356,5.475-3.54,6.232,1.115-.174,4.3-2.059,6.9-5.442,7.684-9.973,7.11-11.707,6.752-12-.12-.1-.619-.218-1.633.038-3.907.981-10.931,6.234-13.956,13.542-1.889,4.56-1.874,7.056-1.219,7.9,1.314.435,8.8-2.638,13.506-8.322,3.731-4.505,6.367-10.779,6-14.281a2.682,2.682,0,0,0-.838-1.9A2.572,2.572,0,0,0,118.265,44.454Zm-17.07,24.961"/></g></svg>