<svg xmlns="http://www.w3.org/2000/svg" width="107.126" height="105.473" viewBox="0 0 107.126 105.473"><g transform="translate(-535.622 -10.272)"><path d="M595,115.745l-.164,0h0c-2.7-.065-5.387-.2-7.983-.335a136.515,136.515,0,0,0-16.544-.178,1.837,1.837,0,0,1-1.709-.9,1.809,1.809,0,0,1,.04-1.911c2.5-3.854,5-7.893,7.416-11.8,1.493-2.411,2.99-4.83,4.5-7.235a3.416,3.416,0,0,1,3.645-1.957c2.45.061,5.177.218,7.813.369,2.405.138,4.885.28,7.145.349.361-.618.872-1.565,1.483-2.694A151.119,151.119,0,0,1,609.6,74.49a105.157,105.157,0,0,1,7.042-8.675,41.461,41.461,0,0,0,4.225-5.268,47.172,47.172,0,0,0-3.23-9.947,11.249,11.249,0,0,1,.572-10.176A94.518,94.518,0,0,1,628.778,27.3l1.543-1.7a3.168,3.168,0,0,1,3.118-.946,3.1,3.1,0,0,1,2.285,2.279c.267,1.064.531,2.024.8,2.933l5.826,19.42a9.672,9.672,0,0,1-1.434,8.388c-4.739,6.558-9.806,12.928-14.706,19.09-8.919,11.214-18.142,22.81-25.4,35.618A6.663,6.663,0,0,1,595,115.745Zm-.116-2a4.677,4.677,0,0,0,4.194-2.343c7.334-12.943,16.607-24.6,25.573-35.877,4.887-6.142,9.939-12.5,14.651-19.015a7.659,7.659,0,0,0,1.139-6.643l-5.826-19.42c-.281-.937-.551-1.925-.827-3.019a1.115,1.115,0,0,0-.83-.826,1.151,1.151,0,0,0-1.15.349l-1.547,1.7a92.689,92.689,0,0,0-10.369,12.865,9.172,9.172,0,0,0-.471,8.173A48.693,48.693,0,0,1,622.9,60.525a1,1,0,0,1-.084.614,34.543,34.543,0,0,1-4.669,6,102.233,102.233,0,0,0-6.911,8.509A149.981,149.981,0,0,0,602.4,90.4c-.85,1.574-1.464,2.711-1.851,3.305a1.039,1.039,0,0,1-.863.454c-2.443-.061-5.16-.218-7.787-.368s-5.33-.307-7.748-.366a2.6,2.6,0,0,0-1.153.125,2.641,2.641,0,0,0-.749.9q-2.268,3.6-4.5,7.224c-2.362,3.815-4.8,7.759-7.248,11.54a142.635,142.635,0,0,1,16.446.2c2.584.132,5.256.269,7.931.333Z"/><path d="M569.964,63.676c-6.141,0-12.251-1.828-17.44-3.38a26,26,0,0,1-7.425-3.1c-2.985-2.037-5.307-5.34-7.1-10.1a32.977,32.977,0,0,1-2.229-15.079,22.437,22.437,0,0,1,6.447-13.875c3.467-3.347,8.347-5.583,14.921-6.838a59.112,59.112,0,0,1,12.16-1.025c8.513.174,15.56,2.256,20.942,6.189a26.5,26.5,0,0,1,6.495,35.976l-.061.094a3.374,3.374,0,0,0-.518.985,3.123,3.123,0,0,0,.127,1.275,42.9,42.9,0,0,0,1.758,5.656,1,1,0,0,1-1.346,1.273,93.368,93.368,0,0,0-9.222-2.988c-1.476.633-7.453,3.168-10.615,4.045h0A25.748,25.748,0,0,1,569.964,63.676Zm6.629-1.852h0Zm-8.484-49.553a56.631,56.631,0,0,0-10.594,1c-6.18,1.18-10.729,3.245-13.908,6.313a20.442,20.442,0,0,0-5.846,12.644A31.037,31.037,0,0,0,539.872,46.4c1.642,4.36,3.721,7.354,6.354,9.15A24.472,24.472,0,0,0,553.1,58.38c6.895,2.062,15.475,4.633,23.227,2.48h0c3.415-.946,10.607-4.061,10.679-4.092a1.008,1.008,0,0,1,.663-.047c.231.064,4.626,1.272,7.76,2.372-.419-1.26-.783-2.543-1.088-3.831a4.777,4.777,0,0,1-.134-2.168,4.933,4.933,0,0,1,.8-1.654l.059-.091a24.5,24.5,0,0,0-6-33.262c-5.044-3.686-11.708-5.639-19.8-5.8C568.876,12.275,568.492,12.271,568.109,12.271Z"/><path d="M568.639,53.833a48.066,48.066,0,0,1-11.207-1.17,13.494,13.494,0,0,1-4.188-1.62,9.534,9.534,0,0,1-2.6-2.667,14.089,14.089,0,0,1-2.623-7.3,17.266,17.266,0,0,1,1.795-7.737,16.279,16.279,0,0,1,3.3-5.168c3.827-3.827,11.152-5.916,16.622-6.994a1,1,0,1,1,.387,1.962c-5.2,1.025-12.123,2.975-15.6,6.446a14.478,14.478,0,0,0-2.88,4.555A15.431,15.431,0,0,0,550.023,41a12.1,12.1,0,0,0,2.274,6.247,7.461,7.461,0,0,0,2.044,2.128,11.669,11.669,0,0,0,3.557,1.346,50.127,50.127,0,0,0,13.577,1.06,20.692,20.692,0,0,0,6.667-1.068,15.4,15.4,0,0,0,3.533-2.1,10.453,10.453,0,0,0,2.422-2.287,8.385,8.385,0,0,0,1.08-3.136c.635-3.163,1.1-6.228-.14-8.961A11.273,11.273,0,0,0,581.1,29.8a17.751,17.751,0,0,0-8.55-3.012,15.614,15.614,0,0,0-8.962,1.824,14.041,14.041,0,0,0-3.575,3.088c-3.166,3.678-4.362,7.728-3.279,11.11a4.794,4.794,0,0,0,1.458,2.316c1.65,1.369,4.606,1.6,7,1.656a23.309,23.309,0,0,0,6.667-.581,18.427,18.427,0,0,0,6.765-3.936,5.6,5.6,0,0,0,1.18-1.194,3.069,3.069,0,0,0,.3-1.937,9.346,9.346,0,0,0-3.633-6.756,8.986,8.986,0,0,0-3.336-1.61,10.66,10.66,0,0,0-6.963.921,12.994,12.994,0,0,0-4.79,4.242c-.846,1.193-2.066,3.427-.747,4.971A7.089,7.089,0,0,0,565,42.712a11.609,11.609,0,0,0,6.629-.79c1.722-.865,2.658-2.427,2.18-3.634a2.144,2.144,0,0,0-.8-.977,5.791,5.791,0,0,0-3.122-.708,6.133,6.133,0,0,0-3.671.847,1.29,1.29,0,0,0-.563.972.632.632,0,0,0,.3.53,4.5,4.5,0,0,0,2.442.4,4.117,4.117,0,0,0,.746-.088c-.108-.05-.241-.106-.4-.167a1,1,0,1,1,.7-1.874c.553.206,2.235.831,2.085,2.278-.116,1.115-1.23,1.789-3.057,1.85a6.094,6.094,0,0,1-3.659-.762,2.61,2.61,0,0,1-1.151-2.139,3.249,3.249,0,0,1,1.367-2.6,8.041,8.041,0,0,1,4.887-1.242,7.651,7.651,0,0,1,4.224,1.054,4.133,4.133,0,0,1,1.534,1.894c.878,2.212-.443,4.8-3.141,6.158a13.57,13.57,0,0,1-7.8.984c-1.8-.245-4.243-.876-5.622-2.489-1.6-1.88-1.374-4.587.636-7.426a14.976,14.976,0,0,1,5.532-4.877,12.713,12.713,0,0,1,8.317-1.075,10.989,10.989,0,0,1,4.089,1.967,11.326,11.326,0,0,1,4.411,8.18,5.066,5.066,0,0,1-.586,3.149,7.182,7.182,0,0,1-1.6,1.683A20.216,20.216,0,0,1,572.4,48.13a25.168,25.168,0,0,1-7.248.655c-2.883-.063-6.117-.364-8.23-2.117a6.716,6.716,0,0,1-2.085-3.245c-1.3-4.06.037-8.807,3.667-13.025a16.235,16.235,0,0,1,4.079-3.508A17.639,17.639,0,0,1,572.715,24.8a19.768,19.768,0,0,1,9.527,3.362,13.242,13.242,0,0,1,4.615,5.24c1.488,3.273.955,6.825.281,10.182a10.278,10.278,0,0,1-1.381,3.858,12.177,12.177,0,0,1-2.885,2.773,17.455,17.455,0,0,1-4,2.357,22.446,22.446,0,0,1-7.325,1.206Q570.052,53.833,568.639,53.833Z"/></g></svg>