<svg xmlns="http://www.w3.org/2000/svg" width="83.188" height="99.998" viewBox="0 0 83.188 99.998"><defs><style>.a{fill:none;stroke:#000;stroke-linecap:round;stroke-linejoin:round;stroke-width:2px;}</style></defs><g transform="translate(-307.65 -9.171)"><path d="M326.171,109.168a5.79,5.79,0,0,1-4.125-1.709h0a5.834,5.834,0,1,1,4.125,1.709Zm0-9.666a3.832,3.832,0,0,0-2.712,6.543h0a3.926,3.926,0,0,0,5.423,0,3.832,3.832,0,0,0-2.711-6.543Z"/><path d="M346.5,53.834h-.091a5.834,5.834,0,0,1-5.744-5.922h0a5.842,5.842,0,0,1,5.833-5.744h.091a5.834,5.834,0,0,1-.089,11.667Zm-3.835-5.893a3.835,3.835,0,1,0,3.893-3.774,3.807,3.807,0,0,0-3.893,3.774Z"/><path d="M349.945,45.612a1,1,0,0,1-.705-1.709l26.248-26.087a1,1,0,0,1,1.41,1.419L350.65,45.322A1,1,0,0,1,349.945,45.612Z"/><path class="a" d="M343.269,51.133"/><path class="a" d="M349.731,44.867"/><path class="a" d="M349.981,51.59"/><path class="a" d="M343.019,44.41"/><path d="M379.739,20.839h-.093a5.945,5.945,0,1,1,.093,0Zm-.005-9.668a3.834,3.834,0,0,0-.056,7.668,3.759,3.759,0,0,0,2.727-1.081,3.833,3.833,0,0,0-2.61-6.586Z"/><path class="a" d="M376.506,18.138"/><path class="a" d="M382.967,11.873"/><path class="a" d="M383.217,18.595"/><path class="a" d="M376.256,11.416"/><path d="M326.172,109.169h-.091a5.834,5.834,0,0,1-5.743-5.924l1,.016-1-.016a5.792,5.792,0,0,1,1.772-4.1,5.856,5.856,0,0,1,4.152-1.645,5.834,5.834,0,0,1-.09,11.668Zm0-9.669a3.832,3.832,0,0,0-3.831,3.775h0a3.835,3.835,0,0,0,3.774,3.893,3.849,3.849,0,0,0,3.893-3.775,3.832,3.832,0,0,0-3.774-3.892Z"/><path class="a" d="M322.941,106.467"/><path class="a" d="M329.4,100.2"/><path d="M329.6,100.99a1,1,0,0,1-.7-1.714L362.65,66.133,349.143,52.169a1,1,0,1,1,1.437-1.39l14.2,14.677a1,1,0,0,1-.018,1.409L330.3,100.7A.994.994,0,0,1,329.6,100.99Z"/><path d="M322.941,48.189a1.081,1.081,0,0,1-.976-.673L318.28,37.56l-9.947-3.681a1.044,1.044,0,0,1,.006-1.961l9.942-3.679,3.681-9.948a1.044,1.044,0,0,1,1.954-.012l0,.012L327.6,28.24l9.947,3.68a1.045,1.045,0,0,1,.013,1.954L327.6,37.56l-3.681,9.948A1.082,1.082,0,0,1,322.941,48.189ZM311.449,32.9l7.938,2.937a1.082,1.082,0,0,1,.631.66l2.922,7.9,2.938-7.939a1.089,1.089,0,0,1,.612-.615l7.943-2.939-7.938-2.937a1.088,1.088,0,0,1-.608-.592l-2.947-7.963L320,29.345a1.087,1.087,0,0,1-.578.6Z"/><path d="M322.941,48.189a1.081,1.081,0,0,1-.976-.673L318.28,37.56l-9.947-3.681a1.044,1.044,0,0,1,.006-1.961l10.373-3.839a1,1,0,0,1,.693,1.876L311.449,32.9l7.938,2.937a1.082,1.082,0,0,1,.631.66l2.922,7.9,2.938-7.939a1.089,1.089,0,0,1,.612-.615l7.943-2.939-7.956-2.944a1,1,0,0,1,.693-1.876l10.379,3.841a1.046,1.046,0,0,1,.013,1.955L327.6,37.56l-3.681,9.948A1.082,1.082,0,0,1,322.941,48.189Z"/><path d="M380.821,97.29a1.107,1.107,0,0,1-1.032-.717l-2.233-6.034-6.031-2.231a1.1,1.1,0,0,1,0-2.067l6.035-2.232,2.231-6.031a1.1,1.1,0,0,1,2.066,0v0l2.232,6.03,6.031,2.232a1.1,1.1,0,0,1,0,2.067l-6.034,2.233-2.232,6.03A1.108,1.108,0,0,1,380.821,97.29Zm-6.327-10.017,4.144,1.535a1.2,1.2,0,0,1,.658.671l1.525,4.124,1.534-4.144a1.2,1.2,0,0,1,.672-.659l4.123-1.526-4.143-1.534a1.194,1.194,0,0,1-.655-.661l-1.53-4.133-1.534,4.144a1.2,1.2,0,0,1-.661.654Z"/></g></svg>