<svg xmlns="http://www.w3.org/2000/svg" width="280.057" height="307" viewBox="0 0 280.057 307"><defs><style>.a{fill:#864944;}</style></defs><g transform="translate(-1045.943 -594.478)"><g transform="translate(1046 594.756)"><g transform="translate(-0.057 -0.278)"><circle class="a" cx="0.75" cy="0.75" r="0.75" transform="translate(21.964 145.176)"/><circle class="a" cx="0.75" cy="0.75" r="0.75" transform="translate(0.209 152.794) rotate(8)"/><circle class="a" cx="0.75" cy="0.75" r="0.75" transform="translate(80.481 108.555) rotate(-21)"/><circle class="a" cx="0.75" cy="0.75" r="0.75" transform="translate(121.804 55.647) rotate(-43)"/><circle class="a" cx="0.75" cy="0.75" r="0.75" transform="translate(32.881 140.258)"/><circle class="a" cx="0.75" cy="0.75" r="0.75" transform="translate(11.64 149.439) rotate(8)"/><circle class="a" cx="0.75" cy="0.75" r="0.75" transform="translate(89.115 99.464) rotate(-21)"/><circle class="a" cx="0.75" cy="0.75" r="0.75" transform="translate(126.542 45.269) rotate(-43)"/><circle class="a" cx="0.75" cy="0.75" r="0.75" transform="translate(43.533 134.247)"/><circle class="a" cx="0.75" cy="0.75" r="0.75" transform="translate(97.004 90.288) rotate(-21)"/><circle class="a" cx="0.75" cy="0.75" r="0.75" transform="translate(54.459 127.689)"/><circle class="a" cx="0.75" cy="0.75" r="0.75" transform="translate(104.308 81.889) rotate(-21)"/><circle class="a" cx="0.75" cy="0.75" r="0.75" transform="translate(63.472 121.951)"/><circle class="a" cx="0.75" cy="0.75" r="0.75" transform="translate(111.214 72.481) rotate(-21)"/><circle class="a" cx="0.75" cy="0.75" r="0.75" transform="translate(71.666 115.667)"/><circle class="a" cx="0.75" cy="0.75" r="0.75" transform="matrix(0.914, -0.407, 0.407, 0.914, 116.606, 64.336)"/><circle class="a" cx="0.75" cy="0.75" r="0.75" transform="translate(130.969 33.805) rotate(-43)"/><circle class="a" cx="0.75" cy="0.75" r="0.75" transform="translate(134.49 21.556) rotate(-43)"/><circle class="a" cx="0.75" cy="0.75" r="0.75" transform="translate(137.171 11.21) rotate(-43)"/><circle class="a" cx="0.75" cy="0.75" r="0.75" transform="translate(138.88 1.023) rotate(-43)"/></g><g transform="translate(0 152.34)"><circle class="a" cx="0.75" cy="0.75" r="0.75" transform="translate(22.206 7.534)"/><circle class="a" cx="0.75" cy="0.75" r="0.75" transform="translate(0 0.209) rotate(-8)"/><circle class="a" cx="0.75" cy="0.75" r="0.75" transform="translate(80.816 44.509) rotate(21)"/><circle class="a" cx="0.75" cy="0.75" r="0.75" transform="translate(122.492 97.638) rotate(43)"/><circle class="a" cx="0.75" cy="0.75" r="0.75" transform="translate(32.629 12.445)"/><circle class="a" cx="0.75" cy="0.75" r="0.75" transform="translate(11.432 3.563) rotate(-8)"/><circle class="a" cx="0.75" cy="0.75" r="0.75" transform="translate(89.45 53.6) rotate(21)"/><circle class="a" cx="0.75" cy="0.75" r="0.75" transform="translate(127.231 108.016) rotate(43)"/><circle class="a" cx="0.75" cy="0.75" r="0.75" transform="translate(43.673 18.583)"/><circle class="a" cx="0.75" cy="0.75" r="0.75" transform="translate(97.339 62.776) rotate(21)"/><circle class="a" cx="0.75" cy="0.75" r="0.75" transform="translate(54.104 25.335)"/><circle class="a" cx="0.75" cy="0.75" r="0.75" transform="translate(104.643 71.176) rotate(21)"/><circle class="a" cx="0.75" cy="0.75" r="0.75" transform="translate(63.307 30.859)"/><circle class="a" cx="0.75" cy="0.75" r="0.75" transform="translate(111.549 80.584) rotate(21)"/><circle class="a" cx="0.75" cy="0.75" r="0.75" transform="translate(71.897 37.611)"/><circle class="a" cx="0.75" cy="0.75" r="0.75" transform="matrix(0.914, 0.407, -0.407, 0.914, 116.994, 88.75)"/><circle class="a" cx="0.75" cy="0.75" r="0.75" transform="translate(131.658 119.48) rotate(43)"/><circle class="a" cx="0.75" cy="0.75" r="0.75" transform="translate(135.178 131.73) rotate(43)"/><circle class="a" cx="0.75" cy="0.75" r="0.75" transform="translate(137.86 142.076) rotate(43)"/><circle class="a" cx="0.75" cy="0.75" r="0.75" transform="translate(139.569 152.263) rotate(43)"/></g></g><g transform="translate(1185 594.478)"><g transform="translate(0 0)"><ellipse class="a" cx="0.75" cy="0.75" rx="0.75" ry="0.75" transform="translate(117.536 145.176)"/><ellipse class="a" cx="0.75" cy="0.75" rx="0.75" ry="0.75" transform="translate(141 154.279) rotate(172)"/><ellipse class="a" cx="0.75" cy="0.75" rx="0.75" ry="0.75" transform="translate(59.981 109.956) rotate(-159)"/><circle class="a" cx="0.75" cy="0.75" r="0.75" transform="translate(18.173 56.744) rotate(-137)"/><ellipse class="a" cx="0.75" cy="0.75" rx="0.75" ry="0.75" transform="translate(106.619 140.258)"/><ellipse class="a" cx="0.75" cy="0.75" rx="0.75" ry="0.75" transform="translate(129.568 150.925) rotate(172)"/><ellipse class="a" cx="0.75" cy="0.75" rx="0.75" ry="0.75" transform="translate(51.348 100.865) rotate(-159)"/><circle class="a" cx="0.75" cy="0.75" r="0.75" transform="translate(13.435 46.366) rotate(-137)"/><ellipse class="a" cx="0.75" cy="0.75" rx="0.75" ry="0.75" transform="translate(95.967 134.247)"/><ellipse class="a" cx="0.75" cy="0.75" rx="0.75" ry="0.75" transform="translate(43.458 91.689) rotate(-159)"/><ellipse class="a" cx="0.75" cy="0.75" rx="0.75" ry="0.75" transform="translate(85.041 127.689)"/><ellipse class="a" cx="0.75" cy="0.75" rx="0.75" ry="0.75" transform="translate(36.154 83.289) rotate(-159)"/><ellipse class="a" cx="0.75" cy="0.75" rx="0.75" ry="0.75" transform="translate(76.028 121.951)"/><ellipse class="a" cx="0.75" cy="0.75" rx="0.75" ry="0.75" transform="translate(29.249 73.881) rotate(-159)"/><ellipse class="a" cx="0.75" cy="0.75" rx="0.75" ry="0.75" transform="translate(67.834 115.667)"/><ellipse class="a" cx="0.75" cy="0.75" rx="0.75" ry="0.75" transform="matrix(-0.914, -0.407, 0.407, -0.914, 23.784, 65.707)"/><circle class="a" cx="0.75" cy="0.75" r="0.75" transform="translate(9.008 34.902) rotate(-137)"/><circle class="a" cx="0.75" cy="0.75" r="0.75" transform="translate(5.487 22.653) rotate(-137)"/><circle class="a" cx="0.75" cy="0.75" r="0.75" transform="translate(2.806 12.307) rotate(-137)"/><circle class="a" cx="0.75" cy="0.75" r="0.75" transform="translate(1.097 2.12) rotate(-137)"/></g><g transform="translate(0.278 152.617)"><ellipse class="a" cx="0.75" cy="0.75" rx="0.75" ry="0.75" transform="translate(116.959 7.534)"/><ellipse class="a" cx="0.75" cy="0.75" rx="0.75" ry="0.75" transform="translate(140.457 1.694) rotate(-172)"/><ellipse class="a" cx="0.75" cy="0.75" rx="0.75" ry="0.75" transform="translate(60.387 45.91) rotate(159)"/><circle class="a" cx="0.75" cy="0.75" r="0.75" transform="translate(19.196 98.735) rotate(137)"/><ellipse class="a" cx="0.75" cy="0.75" rx="0.75" ry="0.75" transform="translate(106.537 12.445)"/><ellipse class="a" cx="0.75" cy="0.75" rx="0.75" ry="0.75" transform="translate(129.025 5.049) rotate(-172)"/><ellipse class="a" cx="0.75" cy="0.75" rx="0.75" ry="0.75" transform="translate(51.753 55.001) rotate(159)"/><circle class="a" cx="0.75" cy="0.75" r="0.75" transform="translate(14.458 109.113) rotate(137)"/><ellipse class="a" cx="0.75" cy="0.75" rx="0.75" ry="0.75" transform="translate(95.493 18.583)"/><ellipse class="a" cx="0.75" cy="0.75" rx="0.75" ry="0.75" transform="translate(43.864 64.176) rotate(159)"/><ellipse class="a" cx="0.75" cy="0.75" rx="0.75" ry="0.75" transform="translate(85.062 25.335)"/><ellipse class="a" cx="0.75" cy="0.75" rx="0.75" ry="0.75" transform="translate(36.56 72.576) rotate(159)"/><ellipse class="a" cx="0.75" cy="0.75" rx="0.75" ry="0.75" transform="translate(75.858 30.859)"/><ellipse class="a" cx="0.75" cy="0.75" rx="0.75" ry="0.75" transform="translate(29.654 81.984) rotate(159)"/><ellipse class="a" cx="0.75" cy="0.75" rx="0.75" ry="0.75" transform="translate(67.268 37.611)"/><ellipse class="a" cx="0.75" cy="0.75" rx="0.75" ry="0.75" transform="matrix(-0.914, 0.407, -0.407, -0.914, 24.282, 90.121)"/><circle class="a" cx="0.75" cy="0.75" r="0.75" transform="translate(10.031 120.577) rotate(137)"/><circle class="a" cx="0.75" cy="0.75" r="0.75" transform="translate(6.51 132.827) rotate(137)"/><circle class="a" cx="0.75" cy="0.75" r="0.75" transform="translate(3.829 143.173) rotate(137)"/><circle class="a" cx="0.75" cy="0.75" r="0.75" transform="translate(2.12 153.36) rotate(137)"/></g></g></g></svg>