<svg xmlns="http://www.w3.org/2000/svg" width="1288.134" height="999" viewBox="0 0 1288.134 999"><defs><style>.a{fill:#ecddd7;}</style></defs><g transform="translate(-44 -1987)"><path class="a" d="M2.213.956a.3.3,0,0,1,.575,0l.335,1.115a.3.3,0,0,0,.168.189l1.073.464a.3.3,0,0,1,0,.551L3.291,3.74a.3.3,0,0,0-.168.189L2.787,5.044a.3.3,0,0,1-.575,0L1.878,3.929a.3.3,0,0,0-.168-.189L.636,3.275a.3.3,0,0,1,0-.551L1.709,2.26a.3.3,0,0,0,.168-.189Z" transform="translate(206 2741)"/><path class="a" d="M2,0l.8,1.053L4,1.528,3.294,2.653,3.236,4,2,3.642.764,4,.706,2.653,0,1.528l1.2-.474Z" transform="translate(1208 2727)"/><path class="a" d="M1.5,0l.593.534L3,.764l-.541.56L2.427,2,1.5,1.812.573,2,.541,1.324,0,.764.907.534Z" transform="translate(1131 2407)"/><ellipse class="a" cx="1.557" cy="1.557" rx="1.557" ry="1.557" transform="matrix(0.978, 0.208, -0.208, 0.978, 1329.087, 2648.978)"/><ellipse class="a" cx="2" cy="1.5" rx="2" ry="1.5" transform="translate(262 2263)"/><circle class="a" cx="1.5" cy="1.5" r="1.5" transform="translate(66 2549)"/><circle class="a" cx="2" cy="2" r="2" transform="translate(288 2678)"/><circle class="a" cx="1.5" cy="1.5" r="1.5" transform="translate(1258 2587)"/><circle class="a" cx="0.5" cy="0.5" r="0.5" transform="translate(220 2638)"/><circle class="a" cx="0.5" cy="0.5" r="0.5" transform="translate(1137 2300)"/><circle class="a" cx="0.5" cy="0.5" r="0.5" transform="translate(611 2586)"/><circle class="a" cx="1" cy="1" r="1" transform="translate(1171 2584)"/><ellipse class="a" cx="0.5" cy="1" rx="0.5" ry="1" transform="translate(372 1987)"/><ellipse class="a" cx="0.5" cy="1" rx="0.5" ry="1" transform="translate(1168 2309)"/><ellipse class="a" cx="0.5" cy="1" rx="0.5" ry="1" transform="translate(805 2615)"/><ellipse class="a" cx="0.5" cy="1" rx="0.5" ry="1" transform="translate(147 2250)"/><ellipse class="a" cx="0.5" cy="1" rx="0.5" ry="1" transform="translate(44 2675)"/><circle class="a" cx="1" cy="1" r="1" transform="translate(239 2604)"/><circle class="a" cx="1" cy="1" r="1" transform="translate(1156 2266)"/><path class="a" d="M10.544,1.013a.5.5,0,0,1,.912,0l2.99,6.643a.5.5,0,0,0,.235.243l6.407,3.152a.5.5,0,0,1,0,.9L14.681,15.1a.5.5,0,0,0-.235.243l-2.99,6.643a.5.5,0,0,1-.912,0l-2.99-6.643a.5.5,0,0,0-.235-.243L.912,11.949a.5.5,0,0,1,0-.9L7.319,7.9a.5.5,0,0,0,.235-.243Z" transform="translate(346 2638) rotate(180)"/><path class="a" d="M2.213.956a.3.3,0,0,1,.575,0l.335,1.115a.3.3,0,0,0,.168.189l1.073.464a.3.3,0,0,1,0,.551L3.291,3.74a.3.3,0,0,0-.168.189L2.787,5.044a.3.3,0,0,1-.575,0L1.878,3.929a.3.3,0,0,0-.168-.189L.636,3.275a.3.3,0,0,1,0-.551L1.709,2.26a.3.3,0,0,0,.168-.189Z" transform="translate(1263 2476) rotate(180)"/><path class="a" d="M1.5,0l.6,1.053.9.474L2.471,2.653,2.427,4,1.5,3.642.573,4,.529,2.653,0,1.528l.9-.474Z" transform="translate(423 2039) rotate(180)"/><path class="a" d="M1.5,0l.6,1.053.9.474L2.471,2.653,2.427,4,1.5,3.642.573,4,.529,2.653,0,1.528l.9-.474Z" transform="translate(1101 2252) rotate(180)"/><path class="a" d="M1.5,0l.593,1.068L3,1.528l-.541,1.12L2.427,4,1.5,3.624.573,4,.541,2.648,0,1.528l.907-.46Z" transform="translate(188 2490) rotate(180)"/><path class="a" d="M1.5,0l.593,1.068L3,1.528l-.541,1.12L2.427,4,1.5,3.624.573,4,.541,2.648,0,1.528l.907-.46Z" transform="translate(1048 2271) rotate(180)"/><circle class="a" cx="1.557" cy="1.557" r="1.557" transform="matrix(0.978, -0.208, 0.208, 0.978, 825.735, 2580.852)"/><circle class="a" cx="1.5" cy="1.5" r="1.5" transform="translate(1053 2634)"/><ellipse class="a" cx="1.5" cy="1" rx="1.5" ry="1" transform="translate(290 2392)"/><ellipse class="a" cx="2" cy="1" rx="2" ry="1" transform="translate(433 2578)"/><circle class="a" cx="1.5" cy="1.5" r="1.5" transform="translate(683 2607)"/><circle class="a" cx="1" cy="1" r="1" transform="translate(183 2412)"/><circle class="a" cx="1" cy="1" r="1" transform="translate(1043 2193)"/><circle class="a" cx="0.5" cy="0.5" r="0.5" transform="translate(98 2496)"/><circle class="a" cx="0.5" cy="0.5" r="0.5" transform="translate(1074 2237)"/><ellipse class="a" cx="1" cy="0.5" rx="1" ry="0.5" transform="translate(236 2461)"/><ellipse class="a" cx="1" cy="0.5" rx="1" ry="0.5" transform="translate(1096 2242)"/><circle class="a" cx="0.5" cy="0.5" r="0.5" transform="translate(196 2487)"/><circle class="a" cx="0.5" cy="0.5" r="0.5" transform="translate(1056 2268)"/><ellipse class="a" cx="0.5" cy="1" rx="0.5" ry="1" transform="translate(241 2114)"/><circle class="a" cx="1" cy="1" r="1" transform="translate(548 2628)"/><path class="a" d="M7,0,9.24,4.42,14,6.5,9.24,8.58,7,13,4.76,8.58,0,6.5,4.76,4.42Z" transform="translate(48 2842)"/><path class="a" d="M4.718.783a.3.3,0,0,1,.564,0l.995,2.76a.3.3,0,0,0,.18.18l2.76.995a.3.3,0,0,1,0,.564l-2.76.995a.3.3,0,0,0-.18.18l-.995,2.76a.3.3,0,0,1-.564,0l-.995-2.76a.3.3,0,0,0-.18-.18L.783,5.282a.3.3,0,0,1,0-.564l2.76-.995a.3.3,0,0,0,.18-.18Z" transform="translate(128 2375)"/><path class="a" d="M4.718.783a.3.3,0,0,1,.564,0l.995,2.76a.3.3,0,0,0,.18.18l2.76.995a.3.3,0,0,1,0,.564l-2.76.995a.3.3,0,0,0-.18.18l-.995,2.76a.3.3,0,0,1-.564,0l-.995-2.76a.3.3,0,0,0-.18-.18L.783,5.282a.3.3,0,0,1,0-.564l2.76-.995a.3.3,0,0,0,.18-.18Z" transform="translate(1258 2305)"/><path class="a" d="M1.5,0l.6,1.053.9.474L2.471,2.653,2.427,4,1.5,3.642.573,4,.529,2.653,0,1.528l.9-.474Z" transform="translate(1297 2769)"/><path class="a" d="M2,0l.79,1.068L4,1.528l-.722,1.12L3.236,4,2,3.624.764,4,.722,2.648,0,1.528l1.21-.46Z" transform="translate(1015 2592)"/><circle class="a" cx="1.557" cy="1.557" r="1.557" transform="matrix(-0.978, 0.208, -0.208, -0.978, 61.661, 2774.148)"/><circle class="a" cx="1.5" cy="1.5" r="1.5" transform="translate(293 2533)"/><ellipse class="a" cx="1.5" cy="1" rx="1.5" ry="1" transform="translate(153 2676)"/><ellipse class="a" cx="1.5" cy="1" rx="1.5" ry="1" transform="translate(1070 2338)"/><ellipse class="a" cx="1.5" cy="1" rx="1.5" ry="1" transform="translate(62 2373)"/><ellipse class="a" cx="2" cy="1.5" rx="2" ry="1.5" transform="translate(1258 2850)"/><ellipse class="a" cx="0.5" cy="1" rx="0.5" ry="1" transform="translate(284 2731)"/><ellipse class="a" cx="1" cy="0.5" rx="1" ry="0.5" transform="translate(152 2803)"/><circle class="a" cx="0.5" cy="0.5" r="0.5" transform="translate(113 2740)"/><ellipse class="a" cx="1" cy="0.5" rx="1" ry="0.5" transform="translate(128 2584)"/><ellipse class="a" cx="1" cy="0.5" rx="1" ry="0.5" transform="translate(1120 2337)"/><ellipse class="a" cx="0.5" cy="1" rx="0.5" ry="1" transform="translate(45 2984)"/><circle class="a" cx="1" cy="1" r="1" transform="translate(367 2144)"/><path class="a" d="M6.542,1.042a.5.5,0,0,1,.916,0l1.71,3.893a.5.5,0,0,0,.233.245l3.714,1.873a.5.5,0,0,1,0,.893L9.4,9.819a.5.5,0,0,0-.233.245l-1.71,3.893a.5.5,0,0,1-.916,0l-1.71-3.893A.5.5,0,0,0,4.6,9.819L.885,7.946a.5.5,0,0,1,0-.893L4.6,5.181a.5.5,0,0,0,.233-.245Z" transform="translate(193 2335)"/></g></svg>