<svg xmlns="http://www.w3.org/2000/svg" width="112.124" height="116.5" viewBox="0 0 112.124 116.5"><defs><style>.a{fill:none;stroke:#000;stroke-linecap:round;stroke-linejoin:round;stroke-width:2px;}</style></defs><g transform="translate(164.062 -6)"><path d="M-101,103a1,1,0,0,1-1-.917A14.59,14.59,0,0,1-97.17,90.438c7.575-7.23,12.959-14.818,16-22.554A31.4,31.4,0,0,0-82.558,42.2c-1.171-2.18-5.583-6.922-8.663-8.972-6.758-4.5-16.2-5.511-25.258-2.712-4.7,1.451-13.126,5.034-16.771,12.721a36.181,36.181,0,0,0-3.078,14.095c.28,10.02,2.585,16.792,7.955,23.373,1.148,1.4,2.621,3.174,4.11,4.961,1.656,1.987,3.332,4,4.6,5.566A17.892,17.892,0,0,1-116,101.943a1,1,0,0,1-.942,1.055,1,1,0,0,1-1.056-.941c-.239-4.23-1.2-7.09-3.212-9.567-1.268-1.561-2.938-3.566-4.589-5.547-1.493-1.793-2.971-3.566-4.122-4.976-5.6-6.865-8.116-14.217-8.4-24.583a38.5,38.5,0,0,1,3.269-15.006c2.945-6.21,9.333-11.1,17.989-13.776,9.624-2.974,19.7-1.868,26.956,2.958,3.109,2.069,7.9,7.05,9.317,9.69a33.449,33.449,0,0,1,1.487,27.366C-82.457,76.624-88,84.452-95.789,91.885A12.61,12.61,0,0,0-100,101.917a1,1,0,0,1-.913,1.079A.8.8,0,0,1-101,103Z"/><path d="M-105.989,103a1,1,0,0,1-1-1V76.376a14.626,14.626,0,0,1-4.011.062V102a1,1,0,0,1-1,1,1,1,0,0,1-1-1V76.044A18.6,18.6,0,0,1-125.108,64.23c-1.877-5.352-1.027-10.921,2.164-14.189a14.118,14.118,0,0,1,7.653-3.7c3.45-.656,6.182,0,7.7,1.834.058.07.114.141.167.214.107-.092.215-.18.326-.265,2.312-1.783,6.2-2.059,8.294.365,1.4,1.619,1.544,3.826,1.513,5.568-.016.805-.061,1.609-.14,2.409a9.308,9.308,0,0,1,.814,1.25,9.933,9.933,0,0,1,.959,2.652A10.329,10.329,0,0,1-95,65.329c-.308,3.146-1.356,5.406-3.116,6.718a5.8,5.8,0,0,1-1.29.722,14.188,14.188,0,0,1-5.58,3.156V102A1,1,0,0,1-105.989,103ZM-110.7,74.458q.585.067,1.172.078c-.394-.019-.785-.051-1.169-.094Zm.433-1.98c.568.054,1.125.072,1.743.083a11.946,11.946,0,0,0,1.566-.089c-.049-.358-.114-.7-.184-1.076-.011-.06-.023-.121-.034-.182-.064-.057-.126-.113-.188-.172a7.823,7.823,0,0,1-2.539-.311Q-110.077,71.6-110.263,72.478Zm-.115-19.376a11.476,11.476,0,0,0-5.743,2c-4.087,2.905-5.426,9.054-2.809,12.9a10.783,10.783,0,0,0,6.69,4.152q.238-1.116.464-2.233a7.983,7.983,0,0,1-2.9-2.882,8.755,8.755,0,0,1,.9-9.775,8.978,8.978,0,0,1,2.907-2.292A16.914,16.914,0,0,1-110.378,53.1Zm10.867,11.671q-.085.843-.234,1.677a12.676,12.676,0,0,1-1.787,4.779,4.565,4.565,0,0,0,1.007-.18,9.947,9.947,0,0,0,2-2.743,11.977,11.977,0,0,0,1.14-5.159,11.259,11.259,0,0,0-.191-2.179,3.9,3.9,0,0,0-.455-.737q-.186.835-.42,1.659A19.724,19.724,0,0,1-99.511,64.773Zm-5.281,5.686a6.328,6.328,0,0,0,1,.444,7.114,7.114,0,0,0,1.162-1.791A8.288,8.288,0,0,1-104.792,70.459Zm-4.709-1.705c.127.041.256.077.386.11q-.158-.259-.3-.532C-109.446,68.473-109.474,68.613-109.5,68.754Zm7.909-9.173-.056.026c-2.883,1.336-3.892,5.088-3.874,8.153,0,.3.009.569.024.825a8.678,8.678,0,0,0,4.028-4.341,20.916,20.916,0,0,0-.047-4.08C-101.537,59.973-101.562,59.778-101.592,59.581Zm-9.648-2.012a6.664,6.664,0,0,0-.992.973,6.809,6.809,0,0,0-.714,7.5,5.869,5.869,0,0,0,1.593,1.764q.223-1.14.441-2.265l.162-.831q-.153-.648-.266-1.34A23.27,23.27,0,0,1-111.24,57.569Zm2.54,7.081a12.535,12.535,0,0,0,1.178,2.959c.018-3.657,1.345-8.107,5.032-9.817.09-.041.179-.08.269-.117-.042-.066-.086-.13-.133-.191a4.326,4.326,0,0,0-2.538-1.4,7.42,7.42,0,0,0-1.969-.153c-.009.036-.017.072-.026.108C-107.563,58.894-108.145,61.8-108.7,64.65Zm-4.089-16.561a11.646,11.646,0,0,0-2.128.214,12.2,12.2,0,0,0-6.6,3.135c-3.236,3.315-2.943,8.606-1.707,12.13a17.612,17.612,0,0,0,1.437,3.1,12.113,12.113,0,0,1,4.5-13.186,13.739,13.739,0,0,1,7.752-2.407,10.044,10.044,0,0,1,.71-1.154,3.1,3.1,0,0,0-.321-.473A4.6,4.6,0,0,0-112.789,48.089Zm12.729,9.141a5.016,5.016,0,0,1,.523.028q.012-.083.021-.165a11.487,11.487,0,0,0-2.438-1.961,14.089,14.089,0,0,0-4.443-1.768q-.03.279-.072.56a9.512,9.512,0,0,1,2,.206,6.159,6.159,0,0,1,3.709,2.142,5.094,5.094,0,0,1,.573.96Zm-9.025-.852c-.036.235-.068.471-.1.706.056-.244.111-.487.167-.731Zm2.724-5.038a15.989,15.989,0,0,1,5.454,2.089,14.982,14.982,0,0,1,1.6,1.127c.007-.18.012-.359.015-.539.025-1.385-.068-3.117-1.024-4.223-1.34-1.547-4.006-1.29-5.562-.089a6.131,6.131,0,0,0-.657.587A6.843,6.843,0,0,1-106.361,51.34Zm-2.074,2.255q-.095.281-.18.575l.088-.019Q-108.476,53.872-108.435,53.6Z"/><path d="M-94.151,116.5h-28.7a2.654,2.654,0,0,1-2.651-2.651v-10.2A2.654,2.654,0,0,1-122.849,101h28.7a2.654,2.654,0,0,1,2.651,2.651v10.2A2.654,2.654,0,0,1-94.151,116.5Zm-28.7-13.5a.652.652,0,0,0-.651.651v10.2a.652.652,0,0,0,.651.651h28.7a.652.652,0,0,0,.651-.651v-10.2a.652.652,0,0,0-.651-.651Z"/><path d="M-108.5,122.5c-8.338,0-11.446-4.314-11.446-7.034a1,1,0,0,1,1-1,1,1,0,0,1,1,1c0,1.642,2.309,5.034,9.446,5.034,7.153,0,9.561-3.352,9.561-4.881a1,1,0,0,1,1-1,1,1,0,0,1,1,1C-96.939,117.864-99.766,122.5-108.5,122.5Z"/><path class="a" d="M-134.589,77.129"/><path d="M-116.063,25.393h-.052a1,1,0,0,1-.948-1.05C-116.967,22.465-115.915,6-108.53,6c5.19,0,7.314,8,8.182,14.718.27,2.095.347,3.562.351,3.624a1,1,0,0,1-.947,1.05A1,1,0,0,1-102,24.444c0-.014-.077-1.457-.337-3.47C-103.381,12.85-105.7,8-108.53,8c-4.651,0-6.318,12.178-6.535,16.444A1,1,0,0,1-116.063,25.393Z"/><path d="M-131.07,32.125a2.764,2.764,0,0,1-1.96-.811,2.776,2.776,0,0,1,0-3.921,2.777,2.777,0,0,1,3.921,0h0a2.776,2.776,0,0,1,0,3.921A2.768,2.768,0,0,1-131.07,32.125Zm0-3.544a.767.767,0,0,0-.546.226.774.774,0,0,0,0,1.093.774.774,0,0,0,1.093,0,.773.773,0,0,0,0-1.092A.771.771,0,0,0-131.07,28.581Z"/><path d="M-140.337,42.128a1,1,0,0,1-.743-.33c-1.259-1.4-12.158-13.782-6.936-19,3.671-3.669,10.831.486,16.193,4.622a1,1,0,0,1,.181,1.4,1,1,0,0,1-1.4.181c-6.486-5-11.553-6.791-13.557-4.791-3.289,3.288,4.144,13.079,7.007,16.249a1,1,0,0,1-.072,1.412A1,1,0,0,1-140.337,42.128Z"/><path d="M-145.667,71.125h-.052c-1.878-.1-18.343-1.147-18.343-8.533,0-5.191,8-7.315,14.719-8.181,2.1-.271,3.562-.348,3.624-.351a1.01,1.01,0,0,1,1.049.947,1,1,0,0,1-.947,1.05c-.015,0-1.457.077-3.469.337-8.125,1.049-12.976,3.366-12.976,6.2,0,4.646,12.179,6.316,16.445,6.535a1,1,0,0,1,.947,1.05A1,1,0,0,1-145.667,71.125Z"/><path d="M-140.708,87.9a2.759,2.759,0,0,1-1.96-.81,2.774,2.774,0,0,1,0-3.921,2.773,2.773,0,0,1,3.92,0,2.776,2.776,0,0,1,0,3.921A2.759,2.759,0,0,1-140.708,87.9Zm0-3.543a.771.771,0,0,0-.546.226.773.773,0,0,0,0,1.093.773.773,0,0,0,1.092,0,.773.773,0,0,0,0-1.093A.773.773,0,0,0-140.708,84.359Z"/><path d="M-143.613,103.484a4.95,4.95,0,0,1-3.653-1.407c-3.671-3.67.487-10.831,4.621-16.192a1,1,0,0,1,1.4-.182,1,1,0,0,1,.181,1.4c-5,6.488-6.793,11.556-4.791,13.558,3.289,3.285,13.077-4.145,16.248-7.007a1,1,0,0,1,1.413.073,1,1,0,0,1-.072,1.412C-129.392,96.159-137.711,103.483-143.613,103.484Z"/><path d="M-84.931,97.54a2.756,2.756,0,0,1-1.96-.811,2.775,2.775,0,0,1,0-3.92,2.774,2.774,0,0,1,3.921,0,2.775,2.775,0,0,1,0,3.92A2.757,2.757,0,0,1-84.931,97.54Zm0-3.543a.771.771,0,0,0-.547.226.775.775,0,0,0,0,1.092.773.773,0,0,0,1.093,0,.773.773,0,0,0,0-1.092A.767.767,0,0,0-84.93,94Z"/><path d="M-71.637,102.743c-3.771,0-8.634-3.024-12.54-6.037a1,1,0,0,1-.181-1.4,1,1,0,0,1,1.4-.182c6.487,5,11.555,6.795,13.559,4.792,3.285-3.285-4.146-13.078-7.007-16.249a1,1,0,0,1,.072-1.412,1,1,0,0,1,1.412.072c1.26,1.4,12.158,13.78,6.937,19A4.956,4.956,0,0,1-71.637,102.743Z"/><path d="M-70.333,70.064a1,1,0,0,1-1-.949,1,1,0,0,1,.948-1.05c.015,0,1.458-.076,3.47-.336,8.124-1.048,12.975-3.366,12.975-6.2,0-4.646-12.179-6.316-16.445-6.535a1,1,0,0,1-.948-1.05A1,1,0,0,1-70.281,53c1.878.1,18.343,1.147,18.343,8.532,0,5.192-8,7.315-14.719,8.183-2.1.269-3.563.347-3.624.349Z"/><path d="M-75.292,41.764a2.755,2.755,0,0,1-1.961-.813,2.757,2.757,0,0,1-.811-1.96,2.756,2.756,0,0,1,.812-1.96,2.841,2.841,0,0,1,3.921,0,2.779,2.779,0,0,1,0,3.922h0A2.752,2.752,0,0,1-75.292,41.764Zm1.254-1.519h0Zm-1.254-2.026a.767.767,0,0,0-.546.226.771.771,0,0,0-.226.546.764.764,0,0,0,.226.546.79.79,0,0,0,1.093,0,.775.775,0,0,0,0-1.094A.767.767,0,0,0-75.292,38.219Z"/><path d="M-74.148,38.627a.992.992,0,0,1-.61-.208,1,1,0,0,1-.181-1.4c5-6.487,6.794-11.555,4.792-13.558C-73.431,20.174-83.225,27.6-86.4,30.466a1,1,0,0,1-1.413-.072,1,1,0,0,1,.073-1.413c1.394-1.259,13.779-12.158,19-6.936,3.671,3.672-.488,10.832-4.622,16.193A1,1,0,0,1-74.148,38.627Z"/></g></svg>