<svg xmlns="http://www.w3.org/2000/svg" width="101.119" height="78" viewBox="0 0 101.119 78"><defs><style>.a{fill:#8d362a;}</style></defs><g transform="translate(-5.017 0)"><g transform="translate(22.311 20.241)"><path class="a" d="M87.016,158.289c-.081.061-.161.123-.238.188C86.8,158.491,86.863,158.445,87.016,158.289Z" transform="translate(-77.901 -127.864)"/><path class="a" d="M161.771,138.893c0-.024,0-.051,0-.072A.185.185,0,0,0,161.771,138.893Z" transform="translate(-128.889 -114.628)"/><path class="a" d="M63.092,186.486l.005-.016.013-.083Z" transform="translate(-61.797 -146.969)"/><path class="a" d="M69.459,89.8c-1.5,1.426-2.445,2.348-3.354,3.336a23.381,23.381,0,0,0-2.951,3.891,25.723,25.723,0,0,0-2.809,5.716,5.445,5.445,0,0,1-.189.838l-.147.47c-.049.162-.09.331-.137.5-.092.337-.185.68-.263,1.011a7.492,7.492,0,0,0-.113.952l-.2.422a5.33,5.33,0,0,1-.124,1.269l-.03-.028c0,.151,0,.306-.01.457s0,.3-.005.443a6.35,6.35,0,0,0,0,.673l-.033-.026c0,.243-.016.486,0,.727l-.051-.125c.067.522.082,1.047.15,1.564.024.259.048.514.071.764l.09.735.125-.1.032.367c.017.117.038.229.059.338.041.217.084.418.127.607.1.377.227.7.337,1.026.275.633.52,1.238.955,2.11l-.043-.005a14.326,14.326,0,0,0,2.275,2.311,4.743,4.743,0,0,0,1.439.742,4.849,4.849,0,0,0,.882.166,4.418,4.418,0,0,0,.942-.052c-.3.052.13.068.107.1a10.278,10.278,0,0,0,1.552-.192c.423-.106.7-.222.689-.358.775-.135.646-.039.769.048-.014-.059.145-.134.381-.212s.543-.185.839-.265l-.261.117c.569-.149,1.116-.361,1.669-.552l-.4-.107c.449-.108.523-.078.593-.044s.129.05.534-.138l-.08-.17.831-.278c.259-.081.506-.147.756-.211a13.2,13.2,0,0,0,1.565-.534,23.81,23.81,0,0,0,6.056-5.055,66.323,66.323,0,0,0,4.554-6.035l.225-.111c.224.021.377-1.3.631-1.362l.186-.527c.1-.121.282-.4.2-.129a3.165,3.165,0,0,0,.317-.838l.358-.435c.122-.222.242-.439.347-.659s.2-.443.287-.664c.183-.441.352-.879.521-1.32.318-.89.6-1.8,1-2.781.262-.579.539-1.3.818-2.1s.5-1.695.739-2.589c.124-.447.222-.9.312-1.349l.267-1.317c.182-.852.294-1.656.4-2.332.117-.957.32-1.934.5-2.937.1-.5.205-1,.318-1.511l.169-.762.148-.769c.193-1.026.406-2.057.542-3.08a27.423,27.423,0,0,0,.222-3.023.968.968,0,0,0-.015-.459l.277-3.582s0-.068.014-.192.02-.3.027-.529c.014-.45.035-1.078.058-1.79s.04-1.509.037-2.3-.04-1.565-.08-2.239c-.164-2.705-.54-3.71-1.5,2.82l-.041-.089c-.094.969-.159,1.758-.179,2.474a16.962,16.962,0,0,0,.07,2.033c-.291.194-.139,1.59-.26,2.038l-.02-.044c.147,1.2-.381,2.414-.3,3.566a.424.424,0,0,1-.069-.34c-.051.829-.093,1.969-.273,2.009l-.4,3.25a17.739,17.739,0,0,0-.261,2.735l-.029-.094a8.186,8.186,0,0,1-.212,1.737c-.03.039-.052.093-.059.082A20.953,20.953,0,0,1,91.4,90.4l-.114.015-.348,1.53.161-.564c.236.27-.447,1.11-.592,2.247a5.938,5.938,0,0,0-.184,1.634,4.372,4.372,0,0,1-.338,1.63c-.037.547-.064-.514-.214.271-.153-.026.026-.381-.154-.228a4.384,4.384,0,0,1-.372.976,5.191,5.191,0,0,0-.435,1.1L88.69,99c-.22,1.252-1.037,2.1-1.169,2.943a2.23,2.23,0,0,1-.3.626,2.2,2.2,0,0,1-.26.3,1.988,1.988,0,0,0-.5.991l-.374.386c-.3.48-.024.447-.4.958-.07-.083-.457.651-.362.283-.829,1.142-1.3,2.582-2.625,3.917-.094.434-.765,1.1-.841,1.424-.1-.018-1.255,1.387-.7.481.048-.077.156-.193.174-.163l-.005-.17a5.27,5.27,0,0,0-1.012,1.072,8.416,8.416,0,0,1-.962,1.112c.254-.177.53-.484.395-.229-.226.231-.479.432-.721.644l.084-.207-.555.455-.277.227-.29.21.232-.027c-.3.193-.524.286-.741.409a2.945,2.945,0,0,0-.7.568c-.238.283.642-.246.055.209a35.28,35.28,0,0,1-3.145,1.6c.162.078-.131.206-.419.369l-.084-.093c-.535.344-.674.315-.805.292s-.262-.052-.814.233l.073-.117c-.071.121-.149.227-.226.341-1,.575-.638-.042-1.757.591.236-.073.308-.024.246.056a.866.866,0,0,1-.569.225l.127-.144a3.752,3.752,0,0,1-.652.183c.185-.108.075-.17-.407-.086l.3-.19-.886.344c-.364-.035-.821.03-1.227.033a1.452,1.452,0,0,1-.812-.1s-.077-.02-.2-.049a2.889,2.889,0,0,1-.447-.124c-.083-.028-.17-.055-.255-.079s-.162-.071-.239-.1a1.767,1.767,0,0,0-.215-.066.706.706,0,0,0-.161-.039c.276.051-.3-.383-.052-.374a.989.989,0,0,1-.329-.151,1.807,1.807,0,0,1-.4-.3,2.059,2.059,0,0,1-.557-.754l.061.055a20.645,20.645,0,0,1-1-1.927,8.908,8.908,0,0,1-.345-.986,5.339,5.339,0,0,1-.172-1.091c-.126.093-.176-.731-.321-.507a6.468,6.468,0,0,1-.133-1.158c.007-.369.031-.712.044-1.02a1.921,1.921,0,0,0-.183-1.412,4.806,4.806,0,0,1,.3-1.255l.008.181a13.739,13.739,0,0,1,.543-2.8,3.622,3.622,0,0,1,.238-1.554c0,.326.09-.053.229-.379-.07.216-.061.292.176-.112a1.068,1.068,0,0,1,.036-.266c.009,0,.021-.015.028,0,.189-.56.121-.478.005-.229-.009-.019-.036,0-.094.063.329-.527.7-1.566.883-1.561a40.022,40.022,0,0,1,2.089-4.06c.17-.086.031.244-.176.626l.28-.449.3-.438c.1.083-.3.532-.453.822a8.025,8.025,0,0,0,.6-.751c.187-.265.354-.552.54-.837a8.107,8.107,0,0,1,1.323-1.657l.121-.3.07-.057c-.046-.034.12-.332.256-.506.225-.082.183.183.669-.366a16.253,16.253,0,0,0,1.6-1.811c-.306.275-.255.138-.157-.015.261-.261.486-.334.663-.561l.13.085c-.2,0,.594-.772.655-.909.229-.061-.355.46-.363.586.531-.513.674-.631.809-.757s.267-.255.824-.741c.525-.6-.2-.015,0-.361a10.459,10.459,0,0,1,1.658-1.426l-.283.053a10.137,10.137,0,0,1,2.41-1.778c1.833-1.656,2.885-2.557,3.357-3.067.487-.505.361-.6,0-.533a7.836,7.836,0,0,0-1.539.646c-.524.274-.95.531-.95.531a24.12,24.12,0,0,0-4.122,2.963C72.331,86.942,71.112,88.116,69.459,89.8Z" transform="translate(-59.045 -63.237)"/></g><g transform="translate(61.564 0)"><path class="a" d="M207.59,134.39c-.167.133-.336.265-.512.389C207.1,134.79,207.246,134.708,207.59,134.39Z" transform="translate(-198.948 -91.374)"/><path class="a" d="M299.636,57.6l-.016.145A.71.71,0,0,0,299.636,57.6Z" transform="translate(-261.869 -39.163)"/><path class="a" d="M209.621,109.807l-.029,0-.145,0Z" transform="translate(-200.559 -74.658)"/><path class="a" d="M193.574,36.086a30.16,30.16,0,0,1-3.029,4.075,16.545,16.545,0,0,1-2.869,2.584,7.43,7.43,0,0,1-3.264,1.367,3.3,3.3,0,0,1-.442.034c-.027,0-.016,0-.026,0a.03.03,0,0,1-.011-.01c0-.006,0,.005-.008-.016s-.041-.1-.064-.161a4.706,4.706,0,0,1-.178-1.068,8.127,8.127,0,0,1,.011-1.321,7.809,7.809,0,0,1,2.284-4.741,5.878,5.878,0,0,1,2.176-1.366,5.423,5.423,0,0,1,1.242-.28c.211-.031.427-.034.641-.045s.451,0,.675.013a10.22,10.22,0,0,1,3.311.51c1.242.361,2.534.857,3.647,1.142.268.131.539.26.817.386.786.185,1.733.392,2.593.554l-.059.027a10.639,10.639,0,0,0,2-.04,5.358,5.358,0,0,0,1.488-.387l-.042.052a6.684,6.684,0,0,0,1.469-.766c-.068.066-.135.133-.212.194a10.628,10.628,0,0,0,2.432-2.364,17.862,17.862,0,0,0,1.65-2.621l-.2.082a12.958,12.958,0,0,0,1.044-2.46,11.668,11.668,0,0,0,.446-2.136,8.6,8.6,0,0,0-.02-2.206,4.736,4.736,0,0,0-.41-1.312,2.875,2.875,0,0,0-1.267-1.279l-.12-.052h.091a2.458,2.458,0,0,0-1.338-.093,3.929,3.929,0,0,0-.963.341,8.769,8.769,0,0,0-1.4.891,21.974,21.974,0,0,0-2.151,1.894,21.172,21.172,0,0,0-3.663,4.78c.286-.513-.2.17-.2.112a27.629,27.629,0,0,0-1.5,2.671c-.37.776-.553,1.346-.437,1.42a11.779,11.779,0,0,1-.568,1.14c-.089.128-.123.091-.211.17.059.019-.036.354-.168.851a9.963,9.963,0,0,0-.353,1.858,5.736,5.736,0,0,1,.035-.633,5.043,5.043,0,0,0-.081.993c.02.308.019.616.058.924a8.688,8.688,0,0,0,.145.921l.1.457.14.45a5.779,5.779,0,0,1,.031-.762,5.177,5.177,0,0,1,.2,1.212.671.671,0,0,0,.045.279,4.085,4.085,0,0,0,.407.819l.148-.116a8.072,8.072,0,0,0,1.134,1.511,6.765,6.765,0,0,0,1.357,1.051,5.76,5.76,0,0,0,1.645.614c.152.028.309.044.469.065a1.411,1.411,0,0,0,.277.017l.174-.007.132-.014a7.771,7.771,0,0,0,.977-.181,25.677,25.677,0,0,0,3.715-1.461,29.449,29.449,0,0,0,3.5-1.972,21.348,21.348,0,0,0,3.191-2.535,12.915,12.915,0,0,0,2.523-3.319,9.051,9.051,0,0,0,.725-2.019c.049-.173.061-.356.093-.533a3.763,3.763,0,0,0,.059-.527l.023-.512a.387.387,0,0,1,.007-.071.34.34,0,0,0,0-.048c.012-.037.026-.08.036-.124a9.663,9.663,0,0,1,.85-1.512l1.036-1.591a51.405,51.405,0,0,0,3.648-6.528l.3-.342a3.665,3.665,0,0,0,.479-1.379c.078-.341.16-.685.235-.964a1.531,1.531,0,0,1,.216-.567c.089-.367.16-.738.233-1.107.128-.293.332-.931.235-.375a9.551,9.551,0,0,0,.343-1.79c.123-.355.245-.711.35-1.072a30.871,30.871,0,0,0,.639-5.852,57.269,57.269,0,0,0-.207-6.04l-.012-.157-.017-.187c-.009-.121-.028-.265-.044-.4-.034-.281-.078-.57-.137-.851a4.257,4.257,0,0,0-.548-1.487,2.073,2.073,0,0,0-.431-.488,1.185,1.185,0,0,0-.639-.275.621.621,0,0,0-.352.034,1.461,1.461,0,0,0-.283.1,2.076,2.076,0,0,0-.55.436,12.585,12.585,0,0,0-1.651,3.4c-.309.876-.589,1.775-.848,2.68-1.031,3.622-1.759,7.341-2.253,10.064-1.278,7.661-3.4,16.477-3.994,24.419a3.864,3.864,0,0,0-.05.923l-.871,7.2L211.707,63.4c-.151,1.35-.279,2.491-.348,3.229a5.589,5.589,0,0,0-.044.743c.006.008-.011.014.021.007a.785.785,0,0,1,.215.109l.045.035.021.018.01.009c.058.056-.489-.411-.239-.235a.371.371,0,0,1,.228-.109.354.354,0,0,1,.058,0,.129.129,0,0,1,.031,0h0l-.02.007a.1.1,0,0,0-.049.033c-.016.025,0,.055.054.091.011,0-.02,0-.046,0a.228.228,0,0,0-.151.071c-.147-.1.172.174.136.139l-.011-.01a.811.811,0,0,0-.095-.072.491.491,0,0,0-.046-.028v0l0,.008c.009,0,.023-.022.036-.036a.689.689,0,0,0,.088-.137,3.9,3.9,0,0,0,.213-.481c.152-.409.337-.991.542-1.768.415-1.553.937-3.882,1.578-7.172l.021.184a73.618,73.618,0,0,0,1.037-9.16c.328-.4.408-3.239.6-4.152l.012.09c.067-2.434.751-4.928.864-7.263a1.47,1.47,0,0,1,.016.684,22.6,22.6,0,0,1,.61-4.1c.258-2.01.617-4.41.955-6.629s.645-4.257.751-5.558l.012.183c.1-1.486.32-1.888.551-3.527.038-.084.072-.2.077-.177.139-1.616.937-4.606,1.175-5.884l.124-.057c.24-1.04.49-2.077.759-3.107l-.325,1.15c-.179-.476.769-2.3,1.286-4.55.173-.511.314-1.035.449-1.565l.1-.4c.032-.128.073-.283.086-.36.04-.2.075-.374.132-.593a5.081,5.081,0,0,1,.552-1.4.927.927,0,0,1,.126-.153.2.2,0,0,1,.167-.072.4.4,0,0,1,.295.171,1.725,1.725,0,0,1,.282.692c.172.353.074.226-.006.174-.041-.024-.078-.026-.079.038a2.037,2.037,0,0,0,.116.454c-.122.182-.192-.383-.23.031a2.829,2.829,0,0,1,.123.635c.009.1.015.211.02.333.008.167.015.335.023.505.023.683.033,1.414.108,2.38l-.118.081c.262,2.527-.269,4.733-.286,6.406a10.884,10.884,0,0,1-.218,1.389c-.084.317-.164.526-.239.738s-.146.429-.23.757-.154.772-.268,1.436c-.133.325-.278.646-.428.963a4.568,4.568,0,0,0-.212.978,3.292,3.292,0,0,1-.308,1.049c-.037-.054-.184.32-.316.61s-.234.5-.146.138a35.834,35.834,0,0,1-4.557,8.469,14.961,14.961,0,0,1-.877,1.633,4.793,4.793,0,0,0-.464,1.061,1.263,1.263,0,0,0-.057.319c0,.1-.022.234-.015.268a2.059,2.059,0,0,0,.029.276,11.286,11.286,0,0,1-.329,1.487c-.229.571-.373.881-.132-.043.026-.161.1-.434.129-.407a1.9,1.9,0,0,0-.063-.242,13.126,13.126,0,0,1-1.083,2.433,9,9,0,0,1-1.769,2.213c.24-.19.494-.436.646-.581s.215-.179.056.043a16.047,16.047,0,0,1-1.421,1.293l.242-.336a21.3,21.3,0,0,1-2.352,1.671l.4-.117a16.575,16.575,0,0,1-1.518.781,13.749,13.749,0,0,0-1.6.909c-.613.418,1.291-.47-.05.251a31.241,31.241,0,0,1-3.2,1.208c-.3.089-.6.178-.893.249-.149.038-.291.068-.425.093-.071.015-.118.016-.178.026a.091.091,0,0,1-.043,0h-.006c0,.006,0-.034,0,.1l0,.139,0,.069,0,.035c0,.084,0-.65,0-.34h0l-.024,0a3.753,3.753,0,0,1-1.45-.365c.119.2-.387,0-.86-.333l.023-.136a2.72,2.72,0,0,1-.772-.741.933.933,0,0,1-.168-.385,3.065,3.065,0,0,0-.128-.4c-.081-.193-.229-.472-.423-1l.135.162c-.13-.161-.28-.322-.4-.5a3.015,3.015,0,0,1-.21-1.65l.054-.53c.026-.238.053-.6.159-1.207-.131.463-.209.552-.235.39a2.738,2.738,0,0,1,.282-1.169v.333a8.032,8.032,0,0,1,.471-1.288c-.105.4.05.262.476-.661q-.086.338-.162.675c.2-.606.43-1.213.68-1.816.415-.629.906-1.469,1.374-2.195a8.628,8.628,0,0,1,1.152-1.543s.487-.648,1.043-1.353,1.188-1.46,1.375-1.787c-.176.276.04.092.273-.094s.481-.375.355-.154a8.485,8.485,0,0,1,1.383-1.439,4.807,4.807,0,0,1,.9-.6,1.328,1.328,0,0,1,.634-.173l-.093.035a.851.851,0,0,1,.214-.013.5.5,0,0,1,.061.023.737.737,0,0,1,.3.317,2.47,2.47,0,0,1,.227.679,6.383,6.383,0,0,1,.012,1.793A10.3,10.3,0,0,1,207.81,31c.092-.035-.059.316-.213.626s-.3.591-.113.462a7.424,7.424,0,0,1-2.869,3.04c-.985.532-1.818.626-2.378.909a4.5,4.5,0,0,1-1.486-.189c-.337-.106-.581-.205-.954-.321.118.021.237.044.354.06a30.8,30.8,0,0,1-3.09-.938c-.821-.28-1.558-.545-2.654-.867a7.539,7.539,0,0,0-1.349-.163c-.451-.025-1-.1-2.029-.215.677-.04-.167-.122-.952-.12.25,0,.414-.012.387-.033a2.8,2.8,0,0,0-.775-.076l-.592.114c-.01-.007-.053-.009-.033-.022a3.941,3.941,0,0,0-.966.229,3.331,3.331,0,0,0,.494-.075c-.028.02.028.031.221.026a6.131,6.131,0,0,0-2.38.72c-.731.388-1.248.814-1.369.8a8.822,8.822,0,0,0-1.832,2.152,9.178,9.178,0,0,0-1,2.318,9.773,9.773,0,0,0-.352,2.351,10.133,10.133,0,0,0,.037,1.181,7.11,7.11,0,0,0,.2,1.211c.015.406-.316-.382-.377-1.341a7.716,7.716,0,0,0,.152,1.189,4.444,4.444,0,0,0,.175.616,3.427,3.427,0,0,0,.134.319,2.463,2.463,0,0,0,.209.349c-.03.015-.12-.071-.224-.243a2.6,2.6,0,0,1-.26-.6,7.264,7.264,0,0,1-.238-1.349,5.384,5.384,0,0,0,.109,1.1,3.894,3.894,0,0,0,.17.589,2.7,2.7,0,0,0,.369.668,1.936,1.936,0,0,0,.608.526,1.858,1.858,0,0,0,.781.2,1.821,1.821,0,0,0,.2,0l.18-.012.293-.024c.194-.026.386-.065.579-.1a12.08,12.08,0,0,0,4.235-2.052c.152-.167.309-.326.45-.5l.154-.112a6.033,6.033,0,0,1,.756-.9c.384-.243.183.223,1.228-.944a12.289,12.289,0,0,0,1.514-1.877c.519-.76,1.009-1.589,1.41-2.278-.482.712-.383.445-.217.113a16.857,16.857,0,0,0,.993-1.505l.168.012c-.138.095.085-.357.34-.872s.543-1.095.58-1.235c.306-.333-.472,1.1-.5,1.3.74-1.352.9-1.7,1.074-2.047.089-.18.165-.328.323-.666a5.63,5.63,0,0,0,.237-.669c.079-.262.163-.574.249-.959.234-1.665-.2.267-.164-.543a17.606,17.606,0,0,0,.241-2.188,19.379,19.379,0,0,0-.008-2.382c-.026.185-.046.368-.083.548a4.861,4.861,0,0,0-1.293-3.184,2.671,2.671,0,0,0-1.315-.634,6.724,6.724,0,0,0-1.4-.068,6.8,6.8,0,0,0-3.114,1.368,7.948,7.948,0,0,0-1.729,1.909,4.274,4.274,0,0,0-.479.866,3.915,3.915,0,0,0-.165.8,7.279,7.279,0,0,0-.023,1.244,2.1,2.1,0,0,0,.218,1.009c.076.053.148-.151.216-.511.069-.305.156-.806.282-1.292a5,5,0,0,1,.223-.693l.064-.137.061-.1a.517.517,0,0,0,.051-.062l.129-.164a9.506,9.506,0,0,1,.9-.989c.122-.118.225-.207.3-.266l.111-.1A5.985,5.985,0,0,1,193,24.239a3.716,3.716,0,0,1,.511-.13l.254-.053.258-.029.255-.031.258-.008.255-.011c.074,0,.126.01.191.012a1.1,1.1,0,0,1,.953.562,4.08,4.08,0,0,1,.5,1.675,14.537,14.537,0,0,1-.337,4.6c-.046.206-.1.409-.155.606-.028.1-.058.19-.085.269l-.033.09-.073.158q-.3.642-.634,1.315C194.674,34.163,194.164,35.1,193.574,36.086Z" transform="translate(-181.679 0)"/></g><g transform="translate(5.017 33.871)"><path class="a" d="M5.237,108.921S24.484,106.9,31.575,107.4" transform="translate(-5.167 -106.841)"/><path class="a" d="M43.513,107.025a.7.7,0,0,0-.062.084C43.479,107.107,43.5,107.082,43.513,107.025Z" transform="translate(-31.149 -106.639)"/><path class="a" d="M60.483,106.577l.027-.009-.015-.019Z" transform="translate(-42.73 -106.315)"/><path class="a" d="M60.489,106.335l.044-.1C60.461,106.277,60.467,106.306,60.489,106.335Z" transform="translate(-42.723 -106.102)"/><path class="a" d="M41.979,109.186a.366.366,0,0,0-.134.128Z" transform="translate(-30.057 -108.108)"/><path class="a" d="M44.016,110.342a.1.1,0,0,0,.038.047A.149.149,0,0,0,44.016,110.342Z" transform="translate(-31.533 -108.894)"/><path class="a" d="M28.357,107.343l.018-.039A.063.063,0,0,0,28.357,107.343Z" transform="translate(-20.886 -106.829)"/><path class="a" d="M27.049,108.022a.232.232,0,0,0-.085.006l0,.022C26.977,108.076,27.025,108.04,27.049,108.022Z" transform="translate(-19.937 -107.316)"/><path class="a" d="M27.575,108.383l-.075.018A.166.166,0,0,0,27.575,108.383Z" transform="translate(-20.304 -107.562)"/><path class="a" d="M20.352,112.672l0,.1A.314.314,0,0,0,20.352,112.672Z" transform="translate(-15.442 -110.479)"/><path class="a" d="M28.468,107.017a.41.41,0,0,0-.055.092C28.444,107.078,28.5,107.064,28.468,107.017Z" transform="translate(-20.924 -106.634)"/><path class="a" d="M43.654,106.881a.314.314,0,0,1-.009.046C43.657,106.91,43.663,106.894,43.654,106.881Z" transform="translate(-31.281 -106.541)"/><path class="a" d="M41.159,109.2l.007,0C41.2,109.2,41.185,109.2,41.159,109.2Z" transform="translate(-29.591 -108.117)"/><path class="a" d="M66.854,106.1a1.325,1.325,0,0,0,.153-.04C66.887,106.029,66.852,106.052,66.854,106.1Z" transform="translate(-47.061 -105.972)"/><path class="a" d="M32.054,106.433c.078.293-.194.028-.157.311.1-.071.168-.125.228.026-.07.169-.211,0-.231.249l.144-.107c.108.115-.011.319.078.293.1-.347.447.1.584.034l-.048.036.229.141a.121.121,0,0,1,0,.018c0-.02,0-.039,0-.063a.4.4,0,0,0,.448.212c.054-.2.565-.109.635-.277a.2.2,0,0,1-.235.018l0-.23c.17-.009.027.212.179.062-.053-.311-.235.017-.357-.008a.4.4,0,0,1,.164-.18c-.239.007-.476-.082-.616.243a.168.168,0,0,1,0-.23c-.159.2-.141-.168-.275.01.028-.293.345-.18.48-.357.238.212.511-.028.753-.09.027.213-.133.408-.026.523.252.125.233-.133.361-.265.179.063.045.356.32.347l-.152.15c.18.291.142-.131.266-.078-.045-.076-.051-.153-.187-.134-.022-.11.079-.163.128-.18l-.033-.006c.046-.151.053-.311.232-.249-.1.187.147.125.2.2l-.042.041c.122-.069.254-.053.332-.092l0,.044c.09-.08.11-.3.252-.266-.008.09-.155.346-.005.3-.012.135-.18.161-.322.121.142.039.227.254.059.279.059.168.154-.085.249-.012-.02-.05,0-.111-.006-.163.021.229.332-.007.326-.166l-.157.14c-.026-.184.173-.32.1-.42.1.285.431-.173.535.066l-.07-.146c.348.066.608-.288.95-.382-.113.1-.1.419-.321.324.329.041.117.31.227.46.261.1.112-.3.184-.409l-.173.069c.2-.383.661.036,1-.216.032.1-.068.059-.113.1.169.182.15-.048.241-.127.165.021.366.093.28.332.182.047-.028-.14.063-.219l.036.051.173-.273a.749.749,0,0,1,.438.4c.359-.066.1-.533.356-.636.156.112-.018.18-.028.27l.233-.037c-.069.264-.265.147-.233.447.178-.317.259-.1.511-.319l-.018-.026c.1-.215.383-.083.535-.13-.056.129-.225.15-.334.2a.659.659,0,0,0,.741-.3c.1.037.318.136.18.254.351.028.127-.392.432-.326l0,.2c.343.279.638-.3.963-.041l.009-.249c.072.1.213.147.242.243l-.157.09c.142.205.15-.2.321-.064,0-.076-.147-.24-.15-.324-.665.162-1.345-.153-2.012.129.027.029.059.062.044.111-.077-.057-.21.015-.2-.119l.023-.02c-.174.066-.35-.233-.456-.224-.06.172-.37-.05-.275.236l-.127-.177c-.033.109-.005.25-.075.309-.123-.016-.132-.131-.04-.21a3.675,3.675,0,0,0-1.49.1l.119-.144c-.119-.061-.4.266-.325-.088-.223.153-.64-.057-.633.307-.177-.34-.572-.116-.891-.042.076.305-.259.1-.336.254-.061-.236.253-.264.247-.424-.307.394-.94-.206-1.037.42-.042-.021-.044-.046-.032-.071-.064,0-.156-.1-.221-.117-.03.109.112.149-.038.2-.123-.015-.067-.189-.123-.264-.221.156-.585.242-.606.491-.074-.062-.157-.2-.084-.249-.354.221-.357-.01-.72.141.13-.018.045-.266.241-.177-.174-.339-.566.107-.876-.052l-.1.231c-.177.054-.2-.159-.085-.249-.318-.114-.47.037-.705.056-.016-.026-.009-.071.031-.063l-.34.02c-.029.059-.142.181-.106.321C31.8,106.446,31.863,106.363,32.054,106.433Z" transform="translate(-23.2 -105.819)"/><path class="a" d="M31.768,108.187l-.006.028.013,0A.179.179,0,0,1,31.768,108.187Z" transform="translate(-23.201 -107.429)"/><path class="a" d="M41.434,110.285a.247.247,0,0,0-.09-.088A.218.218,0,0,0,41.434,110.285Z" transform="translate(-29.716 -108.796)"/><path class="a" d="M11,107.9c.074.336.2-.073.357,0-.136.064-.083.258-.056.356.134-.454.221.068.533-.051.02.142-.133.179-.137.339.166-.126.432-.209.45-.458a5.706,5.706,0,0,0,.7-.015c-.208.117-.019.248-.159.472.195-.3.656-.689.949-1.064a1.268,1.268,0,0,1,.059.541c.375.148.084-.258.433-.207l-.162-.034c.154-.1.143-.349.179-.531l-.4.071c-.012-.186.24-.18.311-.233.1-.232-.229-.14-.2-.318-.046.151-.209.117-.3.189l-.026-.1c-.2-.087-.281.171-.451.181a.1.1,0,0,1-.02-.064c-.05.117-.1.258-.2.307l.078-.019c-.125.249-.469.43-.213.667l-.414-.04c.023-.263.07-.667.3-.716l.018-.112c-.189-.131-.481.244-.346.456-.123.639-.623.077-.9.365-.036-.168.124-.25.186-.375.088-.028.153-.037.173.1.378-.129-.126-.531.312-.51.221.069-.237.295.08.292l.183-.49a1.87,1.87,0,0,0-.515.192,2.175,2.175,0,0,1-1.482.181l-3.82.522c-.394.107-.541.1-.652.584.093.086.333.019.267.189a.351.351,0,0,1,.378-.293c.039.167-.183.1-.125.136l.041.008c-.013.089-.043.152-.107.162a.523.523,0,0,0,.827-.205c.208.155-.1.277-.188.421a9.672,9.672,0,0,0,1.811-.054c-.018-.3.051-.2.125-.41l.068.105c-.034-.052.041-.267-.1-.317.411.2.424-.442.679-.6l0,.16a1.319,1.319,0,0,0,.466-.158c.38.26-.306.076-.173.447l.1-.073a1.644,1.644,0,0,1-.187.536c.316-.28.5.053.845-.172-.028.177-.346.341-.435.37.126.005.337-.14.362.019l.005-.22c.217-.047-.011.2.074.336C11.084,108.7,10.574,108.07,11,107.9Z" transform="translate(-5.579 -106.47)"/><path class="a" d="M38.05,109.315a.228.228,0,0,0-.165.025A.6.6,0,0,0,38.05,109.315Z" transform="translate(-27.365 -108.192)"/><path class="a" d="M35.243,110.861a.526.526,0,0,1-.013.08A.086.086,0,0,0,35.243,110.861Z" transform="translate(-25.559 -109.247)"/><path class="a" d="M34.875,111.342c-.033-.1.032-.1.065-.23C34.879,111.187,34.708,111.2,34.875,111.342Z" transform="translate(-25.27 -109.418)"/><path class="a" d="M86.845,109.213c.035-.062.173-.121.144-.175l-.2.067Z" transform="translate(-60.613 -108.008)"/><path class="a" d="M85.077,108.587l-.189-.093-.142.29C84.951,108.788,84.869,108.582,85.077,108.587Z" transform="translate(-59.226 -107.638)"/><path class="a" d="M84.1,108.047l.047-.069C84.1,108.007,84.1,108.028,84.1,108.047Z" transform="translate(-58.786 -107.287)"/><path class="a" d="M83.876,108.319l-.083.211.258-.146-.1-.046c0-.076-.059-.107-.067-.144l-.1.149C83.812,108.326,83.861,108.291,83.876,108.319Z" transform="translate(-58.575 -107.434)"/><path class="a" d="M83.388,108.587c0,.022.012.042.015.065A.1.1,0,0,0,83.388,108.587Z" transform="translate(-58.303 -107.701)"/><path class="a" d="M81.729,107.3c.049.079-.056.2-.072.285.193.085.21-.234.379-.131-.269.168.093.126.175.257a.481.481,0,0,0-.336-.405l-.024.133C81.745,107.443,81.8,107.363,81.729,107.3Z" transform="translate(-57.126 -106.827)"/><path class="a" d="M78.479,107.41l.157-.2c.027.1.277.1.263.306.088-.028.1-.118.175-.172.066.105.114.185.2.041-.372-.144-.26-.191-.584-.256.007-.044.048-.036.088-.028l-.212-.112C78.548,107.24,78.275,107.254,78.479,107.41Z" transform="translate(-54.914 -106.616)"/><path class="a" d="M77.283,107.112a.221.221,0,0,0,.178-.332c-.121.052-.241.1-.361.161C77.206,106.937,77.335,106.915,77.283,107.112Z" transform="translate(-54.028 -106.473)"/><path class="a" d="M76.263,107.382c-.068-.1-.181-.33-.3-.121C76.161,107.226,76.073,107.532,76.263,107.382Z" transform="translate(-53.258 -106.741)"/><path class="a" d="M73.052,106.883l.337.128c.067.263-.158.086-.258.206.284.049.192-.036.4-.2.082.015.206-.125.3-.2C73.406,107.037,73.373,106.39,73.052,106.883Z" transform="translate(-51.275 -106.413)"/><path class="a" d="M74.9,107.858l.037-.109-.159.087Z" transform="translate(-52.446 -107.131)"/><path class="a" d="M68.37,106.225c-.211-.307-.38.192-.614.063.024-.019.005-.044.052-.083l-.193.039-.012-.07c.018.186-.18.269-.261.416.206.192.092-.237.274-.026-.039.087-.065.217-.1.287a.76.76,0,0,0,.19-.319c.128-.026.093.083.105.154.14-.115.133-.39.355-.333.147.16-.075.262.164.186-.128-.294.245.039.333-.153.181.052.3.235.268.343a.562.562,0,0,1,.278-.5l-.3.2-.11-.271a.481.481,0,0,1-.451.088Z" transform="translate(-47.394 -106.026)"/><path class="a" d="M67.743,108.4a.456.456,0,0,1-.065.052C67.7,108.453,67.725,108.431,67.743,108.4Z" transform="translate(-47.621 -107.572)"/><path class="a" d="M72.313,108.258l-.07.056.052.077Z" transform="translate(-50.725 -107.477)"/><path class="a" d="M67.328,108.828c.041.007.052-.084.011-.09l-.057.128Z" transform="translate(-47.352 -107.804)"/><path class="a" d="M66.494,108.171l-.106-.154-.057.128Z" transform="translate(-46.705 -107.314)"/><path class="a" d="M53.965,108.166c.137.087.114-.1.127-.234C53.887,107.905,54.1,108.093,53.965,108.166Z" transform="translate(-38.298 -107.254)"/><path class="a" d="M45.934,109.665c.156.111.277-.079.423-.083A.369.369,0,0,0,45.934,109.665Z" transform="translate(-32.837 -108.351)"/><path class="a" d="M42.585,111.136c.032-.062.08-.1,0-.115l.117-.342C42.481,110.586,42.568,110.995,42.585,111.136Z" transform="translate(-30.539 -109.115)"/><path class="a" d="M38.751,111.6l.192-.141h-.1a1.212,1.212,0,0,1,.141-.315A.4.4,0,0,0,38.751,111.6Z" transform="translate(-27.947 -109.44)"/><path class="a" d="M39.884,110.912c-.022.006-.047.014-.073.025C39.836,110.974,39.854,111.022,39.884,110.912Z" transform="translate(-28.674 -109.282)"/><path class="a" d="M39.51,110.937l-.024.04a.827.827,0,0,1,.1-.05C39.571,110.9,39.548,110.875,39.51,110.937Z" transform="translate(-28.453 -109.272)"/><path class="a" d="M37.527,112.1l-.346.063.137.053C37.332,112.01,37.49,112.32,37.527,112.1Z" transform="translate(-26.886 -110.088)"/><path class="a" d="M31.017,111.59l-.052-.195c-.227-.027-.469.428-.629.119.108.114-.165.24.1.274C30.532,111.6,30.854,111.554,31.017,111.59Z" transform="translate(-22.219 -109.61)"/><path class="a" d="M29.468,110.979c.031-.062-.026-.1-.06-.151a.108.108,0,0,0-.11.161C29.342,110.723,29.4,111.148,29.468,110.979Z" transform="translate(-21.516 -109.224)"/><path class="a" d="M26.331,111.464c.064-.01.153-.036.055-.08-.193.028-.123.249-.209.392C26.348,111.881,26.462,111.56,26.331,111.464Z" transform="translate(-19.403 -109.603)"/><path class="a" d="M21.47,107.481c.037.168.19.13.221.068C21.643,107.585,21.545,107.542,21.47,107.481Z" transform="translate(-16.204 -106.949)"/><path class="a" d="M21.761,111.42l.058.035.041-.267Z" transform="translate(-16.402 -109.469)"/><path class="a" d="M17.887,112.684l-.132.18.217-.048Z" transform="translate(-13.678 -110.487)"/><path class="a" d="M17.048,112.613l-.193.03.074.061C17.028,112.746,16.984,112.623,17.048,112.613Z" transform="translate(-13.066 -110.438)"/><path class="a" d="M15.646,112.7c.023-.018.041.008.058.034l.166-.126Z" transform="translate(-12.244 -110.432)"/><path class="a" d="M5.216,110.29c.026-.178-.141-.049-.2-.083C5.012,110.251,5.15,110.461,5.216,110.29Z" transform="translate(-5.017 -108.793)"/></g></g></svg>