<svg xmlns="http://www.w3.org/2000/svg" width="293.807" height="379.314" viewBox="0 0 293.807 379.314"><defs><style>.a{fill:#040506;}</style></defs><g transform="translate(-14.031 -18.321)"><path d="M14.8,397.48l-.764-1.848c.278-.115,27.833-11.588,31.146-20.906.133-.374.277-.744.439-1.107.2-.446,1.037-3.351-2.031-16.956a14.582,14.582,0,0,1,1.2-9.894c1.747-3.376,3.757-3.849,5.134-3.65a3.82,3.82,0,0,1,1.685.708c1.1.792,3.626,3.005,3.382,6.454a1.334,1.334,0,0,0,.319.991,1.183,1.183,0,0,0,.852.4A27.778,27.778,0,0,0,78,342.418a60.865,60.865,0,0,1,5.424-5.221,98.551,98.551,0,0,1,13.9-9.811,50.165,50.165,0,0,1,22.291-6.393c.644-.033,1.283-.092,1.9-.174.415-.055.831-.1,1.247-.138,3.022-.3,10.16-2.382,12.194-4.474a28.174,28.174,0,0,0,3.508-5.28c2.607-4.555,5.56-9.718,10.912-10.937a5.361,5.361,0,0,1,1.544-.07,5.555,5.555,0,0,0,.762.012c1.825-.142,5.328.322,8.378,5.151l-1.691,1.068c-2.487-3.938-5.152-4.339-6.523-4.225a7.5,7.5,0,0,1-1.042-.008,3.8,3.8,0,0,0-.983.021c-4.5,1.024-7.219,5.783-9.621,9.981a29.318,29.318,0,0,1-3.81,5.681c-2.619,2.694-10.647,4.8-13.351,5.063-.474.047-.869.086-1.262.137-.667.089-1.359.153-2.057.19a48.107,48.107,0,0,0-21.4,6.13,96.273,96.273,0,0,0-13.605,9.607,58.841,58.841,0,0,0-5.247,5.051,29.749,29.749,0,0,1-23.395,9.887,3.181,3.181,0,0,1-2.255-1.064,3.31,3.31,0,0,1-.821-2.462c.173-2.446-1.73-4.1-2.556-4.69a1.826,1.826,0,0,0-.8-.352c-1.068-.146-2.1.717-3.07,2.589a12.575,12.575,0,0,0-1.029,8.536C47.74,366,48.4,372.3,47.442,374.436c-.141.314-.265.633-.379.959C43.452,385.546,15.964,397,14.8,397.48Z"/><path d="M143.594,397.635l-.371-.263c-3.123-2.22-30.155-21.8-26.1-31.548a1.267,1.267,0,0,1,.111-.428c.257-.558.735-1.6,8.871-2.12.041,0,7.13-.758,10.044-6.6a.676.676,0,0,0-.084-.745c-.9-1.046-2.748-3.017-6.424-6.471l-.075-.078a7.992,7.992,0,0,1-1.578-6c.463-3.313,2.895-6.448,7.231-9.32l9.426-6.815.169-.049c.253-.082,1.113-.475.866-1.874a15.288,15.288,0,0,1,10.079-15.438l.218-.058c.3-.045,7.435-1.059,9.07,2.972a2.121,2.121,0,0,0,.673.681,4.438,4.438,0,0,0,.363-.727c.8-2.4,2.522-9.647-.213-10.951l-.175-.083-.131-.143h0s-1.11-1.063-4.782-2.037a3.994,3.994,0,0,1-1.767-1.022.637.637,0,0,0-.826-.179,4.72,4.72,0,0,1-1.173.383,56.111,56.111,0,0,1-14.462.334c-.381-.046-8.668-.92-10.4,10.16a4.563,4.563,0,0,0-.016,1.269c.344,2.735,1.1,16.691-17.7,22.782-.148.042-10.406,2.882-13.805,7.152a2.077,2.077,0,0,1-.933.675c-.848.307-3.66,1.48-4.107,3.685-.347,1.715.846,3.892,3.449,6.3a60.8,60.8,0,0,0,12.707,7.922,4.644,4.644,0,0,1,1.393.928,7.911,7.911,0,0,1,2.395,6.311c-.322,4.458-4.069,9.328-11.139,14.475-.245.191-6.751,5.168-19.721,8.05a44.219,44.219,0,0,0-16.943,8.1l-1.232-1.576A45.416,45.416,0,0,1,84.279,386.8c12.459-2.77,18.858-7.641,18.922-7.69,8.209-5.978,10.155-10.377,10.345-13.02a5.937,5.937,0,0,0-1.8-4.736,2.631,2.631,0,0,0-.8-.525,61.589,61.589,0,0,1-13.229-8.256c-3.224-2.975-4.587-5.72-4.087-8.192.653-3.229,4.292-4.773,5.391-5.169,3.85-4.822,14.4-7.74,14.842-7.862,16.825-5.451,16.72-17.159,16.287-20.618a6.555,6.555,0,0,1,.024-1.825c2.04-13.044,12.5-11.853,12.6-11.839a54.7,54.7,0,0,0,13.9-.317,2.775,2.775,0,0,0,.678-.232,2.628,2.628,0,0,1,3.065.574,1.972,1.972,0,0,0,.875.512c3.616.961,5.119,2.057,5.583,2.467,4.6,2.429,1.464,12.234,1.087,13.355-.492,1.294-1.188,1.972-2.081,2.051-1.4.133-2.406-1.4-2.591-1.711l-.079-.163c-.8-2.133-5.2-2.031-6.833-1.814a13.075,13.075,0,0,0-8.722,13.25,3.428,3.428,0,0,1-2.109,4.018l-9.193,6.648c-3.852,2.551-5.988,5.207-6.383,7.913a5.99,5.99,0,0,0,1.085,4.429c3.708,3.484,5.592,5.5,6.521,6.576a2.673,2.673,0,0,1,.359,2.944c-3.417,6.856-11.341,7.673-11.677,7.7-5.086.328-6.693.83-7.163,1.044l-.056.115c-3.293,6.8,16.554,23.011,24.964,29.048l.35-.085c-7.809-16.649-5.115-45.513-4.994-46.762,2.764-14,7.283-20.321,9.732-22.854a8.56,8.56,0,0,1,3.438-2.159l9.3-3.1,9.058-6.411c1.811-2.618,2.893-9.318,3.16-11.718.945-5.493.281-9.661-1.966-12.45a10.178,10.178,0,0,0-6.826-3.536l-13.2.185-.064-.007c-5.748-.66-9.461.682-11.162,1.542a3.962,3.962,0,0,0-1.488,1.341,13.341,13.341,0,0,1-7.21,5.7l-.173.026a31.842,31.842,0,0,0-4.457.668c-3.167,1.579-5.155,5.455-5.175,5.494-2.753,6.587-6.485,6.923-7.416,6.889-7.222,1.435-8.871,3.319-8.886,3.338l-.076.086-1.035,1.044c-4.48,4.513-5.99,6.034-5.844,8.513.229,3.9-.57,6.614-2.375,8.078a5.506,5.506,0,0,1-4.62.972c-2.142-.757-5.406-1.916-6.752-2.417-7.139,5.5-3.873,19.108-3.517,20.5,4.23,7.446,4.379,9.824,4.366,10.228l-.008.227-.1.2c-1.978,3.79-7.944,3.833-8.2,3.833h-.226l-.2-.1c-5-2.384-6.409-1.112-6.422-1.1-3.2,3.208-1.691,13.359-.805,17.179a2.229,2.229,0,0,1,.1,2.386,2.939,2.939,0,0,1-2.662.941l-6.253.038c-3.53-.173-4.636.32-4.912.494l-.022.215-.384.263c-1.857,1.27-2.178,4.989-2.145,6.315.165,5.107-8.651,7.333-9.656,7.571l-.46-1.948c2.136-.5,8.212-2.613,8.117-5.565-.007-.237-.116-5.557,2.751-7.829.457-.829,2.014-1.747,6.755-1.515l6.31-.039.059.006a2.338,2.338,0,0,0,.781-.055,1.9,1.9,0,0,0-.189-.43l-.1-.259c-.14-.588-3.357-14.436,1.237-19.109.455-.523,2.544-2.263,8.545.53.933-.041,4.694-.34,6.075-2.514-.115-.656-.74-3.122-4.143-9.1l-.1-.227c-.189-.681-4.528-16.745,4.7-23.1l.487-.336.528.265c.014,0,.738.3,7.052,2.532h0a3.474,3.474,0,0,0,2.779-.63c1.247-1.027,1.808-3.238,1.623-6.4-.2-3.372,1.739-5.324,6.421-10.04l1-1.008c.4-.48,2.539-2.543,10.153-4.038l.165-.033.166.024c.01,0,3.05.206,5.533-5.729.123-.251,2.376-4.663,6.222-6.508l.2-.073a34.062,34.062,0,0,1,4.79-.734,11.808,11.808,0,0,0,5.952-4.845,5.978,5.978,0,0,1,2.247-2.014c1.9-.956,6-2.451,12.229-1.75l13.122-.183a12.031,12.031,0,0,1,8.336,4.254c2.641,3.257,3.451,7.971,2.409,14.012-.033.32-1.053,9.278-3.62,12.75l-.227.222-9.577,6.726-9.438,3.145a6.566,6.566,0,0,0-2.633,1.654c-2.3,2.375-6.544,8.359-9.194,21.754-.015.209-2.868,30.783,5.354,46.691l.585,1.132ZM56.4,382.74Zm12.2-2.541Z"/><path d="M248.951,396.824l-1.614-1.181c.84-1.151,2.358-3.927,1.691-5.159-.463-.855-2.156-.9-3.124-.846l-19.358-.745c-.185-.046-4.554-1.176-5.554-4.678-.727-2.55.547-5.54,3.789-8.884l.086-.079c3.97-3.234,10.2-9.508,10.031-12.58a1.473,1.473,0,0,0-.759-1.24,8.738,8.738,0,0,1-2.307-2.079c-.6-.795-1.349-1.792-1.93-2.59-.489-.451-5.685-4.982-25.421-13.062l-.208-.116c-.223-.162-2.166-1.629-1.831-3.481.238-1.313,1.458-2.255,3.728-2.88,1.485-.578,5.782-2.639,6.7-4.842a1.758,1.758,0,0,0,.128-1.059c-2.377-.463-8.183-1.651-10-2.539a3.252,3.252,0,0,1-1.907-2.094c-.334-1.261.17-2.7,1.5-4.281a3.042,3.042,0,0,0-.17-3.219c-2.893.362-11.8,1.147-16.609-2.1l-.154-.1-.106-.151a4.532,4.532,0,0,1-.542-3.248c-2.612.167-5.795.738-7.535,1.924l-1.127-1.652c2.988-2.038,8.266-2.293,9.813-2.322h.013a1.126,1.126,0,0,1,1.053,1.543,3.162,3.162,0,0,0-.1,2.481c4.506,2.841,13.44,1.855,15.208,1.626a1.712,1.712,0,0,1,1.593.673,5.026,5.026,0,0,1,.312,5.687l-.075.1c-.884,1.038-1.29,1.934-1.142,2.522a1.3,1.3,0,0,0,.733.766l.1.044c1.408.713,6.93,1.888,9.972,2.47a1.209,1.209,0,0,1,.879.7,3.737,3.737,0,0,1,.009,3.009c-1.41,3.384-7.258,5.715-7.92,5.97-1.685.468-2.321.993-2.385,1.338-.074.4.48,1.065.951,1.44,21.2,8.69,25.829,13.315,26.015,13.508l.091.108c.582.8,1.35,1.821,1.961,2.632a6.786,6.786,0,0,0,1.792,1.6,3.474,3.474,0,0,1,1.675,2.81c.282,5.028-9.386,13.115-10.718,14.2-2.638,2.735-3.766,5.117-3.263,6.9.614,2.171,3.482,3.108,4.029,3.268l18.946.712c2.471-.136,4.147.5,4.9,1.894C252.234,392.208,249.292,396.359,248.951,396.824Zm-35.5-65.414.009,0Z"/><path d="M283.9,396.41c-.034-.09-3.653-8.887-29.705-8.2-1-.035-9.3-.452-11.269-4.684-.9-1.935-.322-4.229,1.712-6.823.028-.039,4.64-6.391,5.3-10.333-1.041-.174-4.063-.219-11.672,2.158l-.279.046c-.142-.006-3.1.035-4.347-2.193-1.07-1.912-.427-4.73,1.91-8.376,2.257-3.587,4.013-7.433,3.865-8.432l-.9-.419.077-.12c-1.035-.146-3.567-.23-9.6.483a5.418,5.418,0,0,1-4.791-1.861,17.319,17.319,0,0,1-3.388-8.319,1.9,1.9,0,0,0-.715-1.2l-5.239-4-.219,3.952a5.2,5.2,0,0,0,.562,2.659c3.318,6.458,13.988,29.553,12.006,55.559l-1.994-.152c1.941-25.483-8.534-48.153-11.791-54.494a7.186,7.186,0,0,1-.779-3.682l.426-7.723,8.241,6.289a3.9,3.9,0,0,1,1.472,2.444c.7,4.051,1.988,6.242,2.943,7.367a3.443,3.443,0,0,0,3.031,1.17c10.951-1.294,11.663-.162,12.045.447a1.318,1.318,0,0,1,.11.223,1.792,1.792,0,0,1,.4.717c.686,2.33-2.946,8.365-4.075,10.159-1.854,2.893-2.512,5.137-1.857,6.32a3.04,3.04,0,0,0,2.446,1.173c8.056-2.5,11.524-2.494,13.01-2.042a1.619,1.619,0,0,1,1.136,1.727c-.5,4.431-5.53,11.362-5.744,11.655-1.553,1.98-2.048,3.576-1.493,4.772,1.231,2.655,7.25,3.448,9.464,3.529,27.725-.746,31.438,9.119,31.581,9.538Z"/><path d="M269.245,397.12l-.925-1.774c.039-.019,3.861-2.037,5.65-4.639a2.347,2.347,0,0,0-.149-2.846,39.239,39.239,0,0,0-13.06-9.783c-1.147-.59-10.957-5.775-12.125-10.916a4.176,4.176,0,0,1,.757-3.55l.217-.211c.116-.083,11.377-8.247,9.636-17.658-1.613.939-4.458,2.611-6.416,3.833l-.137.086-.159.038a11.814,11.814,0,0,1-9.454-2.187c-3.874-3.053-5.839-8.694-5.842-16.766a3.7,3.7,0,0,1,1.7-3.11c.684-.443,1.6-.985,2.719-1.609a3.381,3.381,0,0,0,1.173-1.079c.835-1.261,2.666-4.481,1.634-7.138a.634.634,0,0,0-.59-.367l-12.975.535-.091-.013a5.437,5.437,0,0,0-3.14.448,11.683,11.683,0,0,1-1.766,1c-4.608,2.015-12.754,5.007-16.546,2.889a1.789,1.789,0,0,1-1.029-.359c-1.03-.768-1.4-2.554-1.164-5.619l.022-.143c.013-.06,1.355-6.116.18-9.225a2,2,0,0,0-1.742-1.32c-1.349-.084-4.487.282-10.28,3.741l-.226.1c-.475.143-4.708,1.329-7.034-.824-1.293-1.2-1.666-3.1-1.108-5.65a44.454,44.454,0,0,1,1.682-5.3c-.342-.218-1.93-.863-8.009.054l-.3-1.978c7.593-1.142,9.342-.09,10,.8a1.744,1.744,0,0,1,.207,1.769,42.183,42.183,0,0,0-1.635,5.114c-.388,1.779-.215,3.042.52,3.724,1.219,1.134,3.911.705,4.99.41,5.878-3.49,9.4-4.079,11.322-3.952a4.026,4.026,0,0,1,3.484,2.609c1.324,3.5.084,9.524-.084,10.3-.194,2.6.155,3.462.3,3.707l.269-.1.433.3c2.4,1.653,9.29-.4,14.941-2.87a10.072,10.072,0,0,0,1.465-.837,7.239,7.239,0,0,1,4.427-.773l12.8-.527a2.561,2.561,0,0,1,2.537,1.641c1.322,3.4-.58,7.078-1.83,8.965a5.385,5.385,0,0,1-1.866,1.722c-1.083.6-1.959,1.122-2.605,1.541a1.707,1.707,0,0,0-.785,1.432c0,7.411,1.7,12.517,5.058,15.177a9.939,9.939,0,0,0,7.63,1.859c2.28-1.417,5.614-3.363,6.964-4.148a1.455,1.455,0,0,1,2.139.908c2.683,10.553-8.658,19.309-10.123,20.388a2.141,2.141,0,0,0-.32,1.788c.817,3.594,8.26,8.123,11.06,9.566a41.214,41.214,0,0,1,13.7,10.281,4.35,4.35,0,0,1,.273,5.273C273.544,394.857,269.42,397.029,269.245,397.12Zm-80.51-99.607a.3.3,0,0,0-.015.032Z"/><path d="M306.84,397.1c-.147-.084-3.6-2.114-3.821-5.781a4.493,4.493,0,0,0-.917-2.572c-1.407-1.742-3.641-2.362-6.632-1.844-.588.059-12.5,1.057-17.907-6.772a5.349,5.349,0,0,1-.853-2.052,76.68,76.68,0,0,1-.757-11.928h0a3.448,3.448,0,0,0-1.458-2.438c-1.314-.794-3.487-.571-6.281.648a7.6,7.6,0,0,1-4.752.436,11.433,11.433,0,0,1-4.8-2.218,3.728,3.728,0,0,1-1.2-1.97c-.611-2.48-2.778-10.793-5.419-15.46-1.387-.574-6.663-2.887-8.765-5.676-.768-.621-3.133-3.276-1.439-11.519l-.346-3.909a4.967,4.967,0,0,0-2.16-3.684l-11.739-8.005a7.5,7.5,0,0,1-3.522-5.2,7.01,7.01,0,0,0-.968-2.87c-1.384-2.286-3.822-5.22-7.586-6.215a4.739,4.739,0,0,0-1.115-.134c-1.26-.029-4.6-.629-8.461-5.571l-.066-.094c-.017-.021-.838-1.128-3.507-.45a17.533,17.533,0,0,1-7.7.24c-3.427-.684-8.18-2.091-11.378-4.9a3.673,3.673,0,0,0-2.889-.895,3.381,3.381,0,0,0-2.4,1.482c-.074.111-.149.23-.224.356l-1.715-1.031c.093-.154.185-.3.279-.441a5.358,5.358,0,0,1,3.807-2.349,5.672,5.672,0,0,1,4.467,1.375c2.864,2.513,7.262,3.8,10.449,4.438a15.521,15.521,0,0,0,6.815-.217c3.8-.965,5.355.853,5.654,1.267,3.419,4.372,6.157,4.769,6.916,4.786a6.708,6.708,0,0,1,1.582.2c4.41,1.166,7.212,4.512,8.786,7.114a8.994,8.994,0,0,1,1.245,3.7,5.594,5.594,0,0,0,2.6,3.717l11.8,8.045a6.965,6.965,0,0,1,3.026,5.16l.371,4.2-.031.145c-1.649,7.869.7,9.7.727,9.714l.13.1.126.154c1.619,2.268,6.535,4.551,8.293,5.24l.321.125.176.3c2.853,4.838,5.165,13.689,5.805,16.286a1.733,1.733,0,0,0,.552.922,9.615,9.615,0,0,0,3.972,1.8,5.589,5.589,0,0,0,3.494-.323c3.483-1.517,6.222-1.688,8.142-.509a5.436,5.436,0,0,1,2.394,4.061,74.985,74.985,0,0,0,.724,11.626,3.345,3.345,0,0,0,.534,1.289c4.737,6.861,15.887,5.935,16,5.926,4.606-.8,7.148.956,8.45,2.571a6.469,6.469,0,0,1,1.357,3.708c.156,2.6,2.8,4.152,2.823,4.168Z"/><path d="M186.392,396.751c-.135-.687-3.315-16.9-2.594-25.253l.017-.115a27.622,27.622,0,0,1,7.142-12.537l.178-.144c.208-.133,5.21-3.262,15.1-3.708a4.236,4.236,0,0,1,2.1.441l4.59,2.3a1.088,1.088,0,0,1-.575,2.056l-5.375-.469a1.987,1.987,0,0,0-.957.152c-3.057,1.306-10.252,3.906-14.236,1.414a25.969,25.969,0,0,0-6,10.85c-.674,8.1,2.536,24.465,2.57,24.629Zm7.377-37.139c2.815.92,7.548-.307,11.466-1.983a4.052,4.052,0,0,1,1.915-.3l.6.052-.3-.153a2.217,2.217,0,0,0-1.113-.232A35.713,35.713,0,0,0,193.769,359.612Z"/><path d="M146.568,377.312l-.481-.832a1.057,1.057,0,0,1,.367-1.366l10.05-6.508,15.124-1.547-3.333,4.446-11.048,1.74Zm10.618-6.765-2.177,1.41,1.824-.672,10.348-1.629.107-.142Z"/><path d="M150.788,382.38l-.785-.619c3.014-3.825,4.918-4.791,6.759-5.725a15.3,15.3,0,0,1,14.682.023l-.533.846a14.574,14.574,0,0,0-13.7.022C155.39,377.854,153.666,378.728,150.788,382.38Z"/><path d="M151.676,380.325a6.606,6.606,0,0,1-3.4-.818l.516-.855c2.113,1.274,5.448.345,5.481.334l.276.961A11.44,11.44,0,0,1,151.676,380.325Z"/><path d="M150.816,381.778a6.929,6.929,0,0,1-4.629-1.455l.677-.736c1.772,1.632,5.21,1.111,5.245,1.106l.156.988A9.986,9.986,0,0,1,150.816,381.778Z"/><path d="M148.793,383.3a3.138,3.138,0,0,1-.567-.049l.182-.984a5.4,5.4,0,0,0,2.825-.665l.475.88A7.143,7.143,0,0,1,148.793,383.3Z"/><path d="M192.478,372.9l-.893-.45c.05-.1,5.131-9.982,14.225-8.98a44.9,44.9,0,0,1,6.509.916l-.3.955a45.255,45.255,0,0,0-6.3-.875C197.306,363.538,192.526,372.806,192.478,372.9Z"/><path d="M206.8,366.152l-.577-.817c.017-.012,1.619-1.169,1.178-2.438l.945-.328C209.03,364.55,206.887,366.087,206.8,366.152Z"/><path d="M208.423,366.007l-.464-.885a5.464,5.464,0,0,0,2.64-3.713l.99.14A6.376,6.376,0,0,1,208.423,366.007Z"/><path d="M210.819,367.137l-.381-.925a10.783,10.783,0,0,0,4.735-4.259l.873.486A11.615,11.615,0,0,1,210.819,367.137Z"/><path class="a" d="M213.316,367.391s-1.075,1.362-2.043,1.362l.5,1,.52-.394,1.487.394v-.931l.358-.251Z"/><path d="M177.667,310.14l-1.514-1.305c.059-.07,5.946-7.029,8.076-19.029,1.965-11.08,1.038-28.868-14.546-50.685l-.087-.146c-.086-.179-9.095-18.154-45.448-42.5a102.054,102.054,0,0,1-25.864-26.061C87.4,154.666,76.152,128.552,84.373,93.573c.129-1.129,1.734-13.711,10.895-28.847,8.658-14.307,26-33.584,59.447-44.173a134.985,134.985,0,0,1,43.629-.841c30.305,4.7,50.778,21.053,59.209,47.281.153.365,4.4,10.885,4.079,28.784-.3,16.458-4.733,42.483-24.182,73-.268.408-6.552,9.77-21.374,16.064-13.59,5.775-37.236,9.867-72.7-3.41-.441-.13-12.348-3.716-15.49-6.656a37.965,37.965,0,0,0-3.678-2.949c-5.338-3.919-10.859-7.971-18.525-33.613l-.029-.122c-.365-2.184-8.761-53.759,7.588-76.849C113.4,61,131.142,34.79,171.4,27.3l6.371-1.384a22.833,22.833,0,0,1,6.886-.23c1.444.207,2.886.4,4.327.587,16.678,2.2,33.925,4.472,46.924,33.527.212.478,20.844,48.029-6.144,92.447-.587,1.415-7.5,17.266-24.719,23.242-13.685,4.75-29.9,1.857-48.189-8.593a59.136,59.136,0,0,1-21.7-15.4c-9.442-10.407-19.817-29.234-15.631-59.819.094-.5,9.119-45.225,54.451-51.4a6.745,6.745,0,0,1,1.607-.028c4.9.486,30.041,3.858,43.5,22.615,8.494,11.839,10.6,27.38,6.265,46.192-.183,2.245-3.161,34.779-22.575,46.575-9.086,5.52-20.293,5.515-33.307-.014-1.355-.73-31.245-17.21-37.253-43.336-2.8-12.173.135-24.44,8.725-36.462.882-1.789,14.78-28.763,44.345-20.718a6.609,6.609,0,0,0,.673.131,7.611,7.611,0,0,1,.963.2c2.614.762,5.674,3.09,6.868,4.056a4.174,4.174,0,0,1,.743.787,19.038,19.038,0,0,0,3.9,3.9c6.462,4.908,21.043,18.388,16.9,37.524-.343,1.562-8.173,36.034-29.495,36.037a21.408,21.408,0,0,1-4.251-.439c-.684-.135-17.023-3.53-26.808-22.121-.279-.481-7.258-12.736-6.049-25.345a20.625,20.625,0,0,1,15.534-17.913c7.213-1.822,18.447-2.173,30.989,6.5a20.124,20.124,0,0,1,8.381,11.775c1.4,5.794-.02,12.149-4.211,18.89-.416.79-4.813,8.569-15.849,6.943l-.187-.047c-.928-.327-22.7-8.16-20.648-20.456l.053-.195c.278-.72,6.9-17.615,16.719-14.46l.275.139c.494.353,12.046,8.712,7.654,14.935-.077.136-2.98,5.026-6.8,5.576a5.185,5.185,0,0,1-4.415-1.555l-.153-.143-.083-.192c-.447-1.047-2.607-6.4-1.2-9.007a2.674,2.674,0,0,1,1.947-1.4l.353,1.968a.684.684,0,0,0-.539.381c-.681,1.261.27,4.82,1.2,7.074a3.158,3.158,0,0,0,2.606.895c2.377-.34,4.708-3.494,5.406-4.68,2.705-3.839-4.023-9.96-7.007-12.131-7.631-2.257-13.537,11.931-14.057,13.226-1.572,10.24,17.783,17.562,19.269,18.107,9.991,1.422,13.543-5.609,13.689-5.91l.051-.093c3.906-6.27,5.248-12.113,3.99-17.369a18.436,18.436,0,0,0-7.526-10.592c-11.978-8.274-22.6-7.956-29.416-6.236A18.622,18.622,0,0,0,150.72,90.017c-1.149,11.979,5.739,24.068,5.808,24.188,9.34,17.744,25.29,21.094,25.45,21.126,22.658,4.588,31.315-33.675,31.4-34.062,3.895-18.011-10-30.83-16.159-35.506a21.038,21.038,0,0,1-4.311-4.315,2.155,2.155,0,0,0-.382-.409c-.86-.695-3.842-3.013-6.172-3.692a5.827,5.827,0,0,0-.719-.144,8.258,8.258,0,0,1-.883-.176c-28.815-7.838-41.921,19.448-42.05,19.725l-.093.16c-8.277,11.554-11.122,23.3-8.454,34.91,5.8,25.242,35.871,41.828,36.174,41.993,12.3,5.22,22.893,5.27,31.4.106,18.807-11.422,21.6-44.762,21.63-45.1l.022-.148c4.225-18.259,2.232-33.281-5.924-44.648C204.5,45.97,180.134,42.707,175.382,42.236a4.885,4.885,0,0,0-1.141.019c-43.882,5.978-52.664,49.3-52.747,49.741-4.067,29.718,5.952,47.993,15.074,58.081a57.945,57.945,0,0,0,21.039,14.96l.165.076c17.788,10.18,33.465,13.035,46.592,8.491,16.785-5.811,23.51-22.024,23.576-22.187l.073-.146c26.492-43.522,6.275-90.194,6.067-90.66C221.539,32.577,205.6,30.476,188.721,28.252c-1.447-.191-2.9-.383-4.349-.591a21.31,21.31,0,0,0-6.178.2l-6.4,1.39c-39.412,7.337-56.728,32.856-56.9,33.114-15.648,22.1-7.608,73.27-7.275,75.329,7.465,24.947,12.706,28.792,17.775,32.513a40,40,0,0,1,3.861,3.1c2.325,2.175,11.443,5.229,14.76,6.222,34.824,13.035,57.908,9.106,71.151,3.517,14.318-6.042,20.543-15.272,20.6-15.365,36.654-57.509,20.076-99.589,19.9-100.007-8.327-25.9-27.711-41.346-57.639-45.991a132.929,132.929,0,0,0-42.81.8c-32.712,10.361-49.711,29.208-58.2,43.19-9.2,15.163-10.663,28.046-10.677,28.175l-.021.124c-8.071,34.257,2.914,59.826,13.55,75.244A100.014,100.014,0,0,0,125.238,194.8c36.045,24.135,45.367,41.715,46.12,43.222,15.983,22.41,16.881,40.78,14.818,52.249C183.928,302.775,177.922,309.845,177.667,310.14Z"/><path class="a" d="M152.187,383.05s9.424,6.091,15.264-2.258c0,0,2.974.86,3.547-.609C171,380.183,160.858,371.8,152.187,383.05Zm1.863-.287a15.06,15.06,0,0,1,4.551-3.683c1.039,4.379,5.374,3.361,5.374,3.361C159.891,385.666,154.05,382.763,154.05,382.763Zm8.922-1.242a3.336,3.336,0,0,1-3.225-2.663,12.38,12.38,0,0,1,3.655-.466c.681,1.935,2.258.43,2.258.43l1,.5A4.209,4.209,0,0,1,162.972,381.521Z"/><path class="a" d="M201.1,367.535a12.864,12.864,0,0,0-6.414,5.088,10.037,10.037,0,0,0-1.755,2.15,4.207,4.207,0,0,0,3.081-1.075s6.163,2.508,9.89-.609a19.3,19.3,0,0,0,5.876-5.554A17.127,17.127,0,0,0,201.1,367.535Zm-4.765,4.873c.752-2.723,4.514-4.013,4.514-4.013a5.227,5.227,0,0,0,4.551,3.619A8.033,8.033,0,0,1,196.332,372.408Zm9.208-1.69c-3.288-.013-3.439-2.468-3.439-2.468l3.439-.644c.108.93.632.9.968.968a1.163,1.163,0,0,0,1.218-.753l1.326.108C208.98,370.885,206.759,370.723,205.54,370.718Z"/><path d="M146.773,392.773l3.141-5.9-3.129-.521,3.331-1.451-.212-1.107.982-.187.361,1.893-.969.422,1.171.2-1.159,2.178,2.351-2.1.666.746Z"/></g></svg>