<svg xmlns="http://www.w3.org/2000/svg" width="138.99" height="195.8" viewBox="0 0 138.99 195.8"><path d="M114.69.33a.5.5,0,0,1,.91-.07l3.45,6.42a.56.56,0,0,0,.25.23l6.61,2.7a.5.5,0,0,1,.07.89l-6.18,3.59a.49.49,0,0,0-.21.26l-2.52,6.84a.5.5,0,0,1-.91.06l-3.45-6.42a.45.45,0,0,0-.25-.22l-6.61-2.7a.5.5,0,0,1-.06-.9L112,7.42a.56.56,0,0,0,.22-.26Z" fill="#ecddd7"/><polygon points="127.22 172.86 131.27 180.42 138.99 183.57 131.79 187.76 128.82 195.81 124.76 188.25 117.05 185.1 124.25 180.91 127.22 172.86" fill="#ecddd7"/><path d="M11.28,121.8a1,1,0,0,1-1.82.12l-2.83-5.28a1,1,0,0,0-.5-.45L.62,114a1,1,0,0,1-.12-1.79l5.13-3a1,1,0,0,0,.44-.52L8.14,103A1,1,0,0,1,10,102.9l2.84,5.28a1,1,0,0,0,.5.45l5.5,2.25a1,1,0,0,1,.13,1.79l-5.14,3a1,1,0,0,0-.43.52Z" fill="#ecddd7"/><line x1="114.25" y1="173.77" x2="21.49" y2="123.12" fill="none" stroke="#ecddd7" stroke-linecap="round" stroke-width="1.5"/><line x1="105.71" y1="23" x2="19.88" y2="100.17" fill="none" stroke="#ecddd7" stroke-linecap="round" stroke-width="1.5"/></svg>