<svg xmlns="http://www.w3.org/2000/svg" width="276.5" height="285.83" viewBox="0 0 276.5 285.83"><path d="M45.28,102.08A1.15,1.15,0,1,0,44.17,101,1.13,1.13,0,0,0,45.28,102.08Z"/><path d="M45.26,100.34a.59.59,0,0,0-.54.61.56.56,0,1,0,1.11,0A.59.59,0,0,0,45.26,100.34Zm0,2.3h0A1.71,1.71,0,1,1,47,100.88a1.67,1.67,0,0,1-.47,1.22,1.72,1.72,0,0,1-1.19.54Z"/><path d="M52.78,102.22a1.15,1.15,0,1,0-1.1-1.1A1.14,1.14,0,0,0,52.78,102.22Z"/><path d="M52.75,100.48a.58.58,0,0,0-.36.19.62.62,0,0,0-.16.43.59.59,0,0,0,.55.56.6.6,0,0,0,.54-.61A.59.59,0,0,0,52.75,100.48Zm0,2.29h0a1.69,1.69,0,0,1-1.63-1.62,1.74,1.74,0,0,1,.45-1.23,1.68,1.68,0,0,1,1.18-.55A1.71,1.71,0,0,1,54.43,101a1.67,1.67,0,0,1-.45,1.22,1.65,1.65,0,0,1-1.18.55Z"/><path d="M59.93,102.15a1.15,1.15,0,1,0-1.09-1.1A1.14,1.14,0,0,0,59.93,102.15Z"/><path d="M59.91,100.41a.61.61,0,0,0-.36.19.62.62,0,0,0-.16.43.55.55,0,1,0,1.09,0A.61.61,0,0,0,59.91,100.41Zm0,2.3h0a1.71,1.71,0,0,1-1.18-2.86A1.68,1.68,0,1,1,60,102.71Z"/><path d="M67.12,118.76a15.54,15.54,0,1,0,15.54,15.53A15.53,15.53,0,0,0,67.12,118.76Zm0,31.79a16.26,16.26,0,1,1,16.26-16.26A16.25,16.25,0,0,1,67.12,150.55Z"/><path d="M67.12,119.31a15,15,0,0,0,0,30h0a15,15,0,0,0,0-30Zm0,31.79h0a16.81,16.81,0,0,1,0-33.62h0a16.81,16.81,0,1,1,0,33.62Z"/><path d="M86.35,141c-17.93-8.24-20.82-26.31-20.84-26.49l.71-.11c0,.18,2.86,17.87,20.43,26Z"/><path d="M86.62,141.72l-.5-.24C67.91,133.12,65,114.76,65,114.57l-.08-.55,1.81-.27.08.55c0,.18,2.85,17.59,20.11,25.52l.51.23Z"/><path d="M47.47,190.91H88.18V171.2A15.4,15.4,0,0,0,72.8,155.82H58.08a15.46,15.46,0,0,0-14.31,9.76,16.12,16.12,0,0,1,3.7,10.26Zm41.43.72H46.75V175.84a15.46,15.46,0,0,0-3.67-10l-.14-.16.08-.2a16.17,16.17,0,0,1,15.06-10.41H72.8A16.11,16.11,0,0,1,88.9,171.2Z"/><path d="M48,190.36h39.6V171.2A14.85,14.85,0,0,0,72.8,156.38H58.08a14.81,14.81,0,0,0-13.67,9.1A16.71,16.71,0,0,1,48,175.84Zm41.43,1.83H46.19V175.84a14.82,14.82,0,0,0-3.54-9.6l-.34-.41.19-.51a16.82,16.82,0,0,1,15.58-10.77H72.8A16.7,16.7,0,0,1,89.45,171.2Z"/><path d="M47.47,196.27H.56V175.84a16.11,16.11,0,0,1,16.09-16.1H31.37a16.12,16.12,0,0,1,12.26,5.67l-.55.47a15.36,15.36,0,0,0-11.71-5.42H16.65A15.39,15.39,0,0,0,1.28,175.83v19.72H46.74v-4.28h.72Z"/><path d="M48,196.83H0v-21a16.7,16.7,0,0,1,16.65-16.65H31.38a16.6,16.6,0,0,1,12.67,5.86l.36.42L43,166.66l-.36-.42A14.77,14.77,0,0,0,31.38,161H16.65A14.86,14.86,0,0,0,1.83,175.83V195H46.19v-4.29H48Z"/><path d="M47.47,191.27h-.72V175.84a15.46,15.46,0,0,0-3.67-10l.55-.47a16.13,16.13,0,0,1,3.83,10.43Z"/><path d="M48,191.83H46.19v-16a14.82,14.82,0,0,0-3.54-9.6l-.36-.42,1.4-1.19.36.42a16.72,16.72,0,0,1,4,10.79Z"/><path d="M24,154.2a25.86,25.86,0,0,1-6.55-.84c-7.12-1.87-12-6.51-13.28-12.73a21.8,21.8,0,0,1,4-18.44,21.55,21.55,0,0,1,16.3-8.08A20.52,20.52,0,0,1,44.87,131.2l-.71.1A19.81,19.81,0,0,0,24.9,114.82h-.34a20.86,20.86,0,0,0-15.75,7.82,21.07,21.07,0,0,0-3.89,17.84c1.25,6,5.9,10.39,12.76,12.18,7,1.84,14.74.49,17.93-3.14a19.74,19.74,0,0,0,4.17-16.43,15.68,15.68,0,0,0-9.31-11.22c-4.82-2.21-9.58-1.81-13.41,1.13A16.93,16.93,0,0,0,11,138.44a10.79,10.79,0,0,0,7.6,8.78c4.79,1.57,9.11.77,12.15-2.26a12.67,12.67,0,0,0,3.1-12.41,8.7,8.7,0,0,0-7.24-6.12c-3.64-.6-7.26,2.33-8.55,4.5-1.46,2.44-1.89,4.67-1.29,6.61a6.71,6.71,0,0,0,8.41,4.37,6.94,6.94,0,0,0,1.09-.45,4.16,4.16,0,0,0,2.24-3.16s.46-3-1.05-4.29c-.88-.74-2.29-.79-4.19-.14l-.23-.68c2.16-.73,3.8-.64,4.88.28,1.83,1.54,1.32,4.8,1.3,4.94a4.9,4.9,0,0,1-2.62,3.68,7.42,7.42,0,0,1-10-3.12,7.07,7.07,0,0,1-.51-1.21c-.66-2.15-.2-4.57,1.36-7.19,1.44-2.41,5.27-5.52,9.29-4.85a9.39,9.39,0,0,1,7.8,6.62,13.43,13.43,0,0,1-3.27,13.14c-3.25,3.22-7.83,4.09-12.9,2.43a11.48,11.48,0,0,1-8.07-9.35,17.42,17.42,0,0,1,6.32-16.13c4.05-3.11,9.08-3.54,14.15-1.22A16.39,16.39,0,0,1,40.47,133,20.55,20.55,0,0,1,36.15,150C33.79,152.68,29.12,154.2,24,154.2Z"/><path d="M24,154.75a26.81,26.81,0,0,1-6.67-.85C10,152,5,147.18,3.67,140.75a22,22,0,0,1,20.86-27.2h.1a21,21,0,0,1,20.79,17.56l.1.56-1.82.25-.09-.53a19.25,19.25,0,0,0-18.71-16h-.34a20.14,20.14,0,0,0-19.1,25c1.21,5.75,5.72,10,12.36,11.77,6.84,1.8,14.31.52,17.38-3a19.14,19.14,0,0,0,4-16,15.09,15.09,0,0,0-9-10.82c-4.64-2.13-9.2-1.75-12.86,1.06a16.45,16.45,0,0,0-5.85,14.92,10.28,10.28,0,0,0,7.2,8.33c4.6,1.51,8.72.75,11.61-2.12a12.16,12.16,0,0,0,3-11.86A8.16,8.16,0,0,0,26.54,127c-3.27-.54-6.74,2.12-8,4.24-1.38,2.3-1.79,4.37-1.24,6.16a6.16,6.16,0,0,0,7.71,4,5.87,5.87,0,0,0,1-.42A3.6,3.6,0,0,0,28,138.22s.39-2.72-.86-3.78c-.72-.61-2-.62-3.65,0l-.52.18-.59-1.74.52-.18c2.36-.8,4.18-.67,5.42.38,2.08,1.76,1.51,5.32,1.48,5.47a5.45,5.45,0,0,1-2.9,4.08,8,8,0,0,1-10.77-3.37,7.42,7.42,0,0,1-.54-1.3c-.71-2.3-.23-4.87,1.41-7.64,1.52-2.54,5.59-5.82,9.86-5.11a10,10,0,0,1,8.25,7,14.06,14.06,0,0,1-3.41,13.69c-3.42,3.38-8.2,4.29-13.47,2.57a12.08,12.08,0,0,1-8.45-9.8A18,18,0,0,1,16.26,122c4.24-3.25,9.47-3.71,14.73-1.29a16.89,16.89,0,0,1,10,12.12,21,21,0,0,1-4.45,17.52c-2.42,2.76-7.1,4.4-12.53,4.4h0Z"/><path d="M46.63,118.85l-.1-4.38.72,0,.06,2.73,6-5.84.13,0c.08,0,8-.88,11.47-5.37a7.89,7.89,0,0,0,1.49-6.26c-.87-5.63-6-7.62-10.17-8.31a21.44,21.44,0,0,0-12.7,1.67l-.31.15a8.42,8.42,0,0,0-4.74,7,8.64,8.64,0,0,0,3.77,7.8,25.14,25.14,0,0,0,3.89,2.18l-.3.65a26.47,26.47,0,0,1-4-2.24,9.31,9.31,0,0,1-4.08-8.44,9.15,9.15,0,0,1,5.13-7.61l.33-.16a22.18,22.18,0,0,1,13.12-1.73c4.4.73,9.83,2.86,10.76,8.91a8.59,8.59,0,0,1-1.63,6.82C62,110.86,54.71,111.9,53.62,112Z"/><path d="M46.1,120.14,46,113.93l1.82,0,.05,2L53,110.8l.32,0c.08,0,7.77-.85,11.09-5.16a7.3,7.3,0,0,0,1.38-5.82c-.82-5.31-5.73-7.21-9.71-7.86a20.8,20.8,0,0,0-12.37,1.62l-.31.15A7.93,7.93,0,0,0,39,100.26a8.12,8.12,0,0,0,3.53,7.3,24.91,24.91,0,0,0,3.81,2.13l.51.23-.77,1.67-.5-.23a27.67,27.67,0,0,1-4.08-2.29,9.93,9.93,0,0,1-4.32-8.94,9.72,9.72,0,0,1,5.45-8.07L43,91.9a22.6,22.6,0,0,1,13.46-1.77c4.57.75,10.23,3,11.21,9.37a9.07,9.07,0,0,1-1.74,7.23c-3.4,4.41-10.24,5.59-12,5.82Z"/><path d="M198.34,9.06a.85.85,0,0,0,0-1.7.85.85,0,0,0,0,1.7Z"/><path d="M198.33,7.77a.44.44,0,0,0,0,.88.44.44,0,0,0,0-.88Zm0,1.69h0a1.25,1.25,0,1,1,1.24-1.29,1.24,1.24,0,0,1-.34.9,1.26,1.26,0,0,1-.87.39Z"/><path d="M203.87,9.16a.85.85,0,0,0,.8-.89.83.83,0,0,0-.8-.8.85.85,0,0,0,0,1.69Z"/><path d="M203.85,7.87a.46.46,0,0,0-.27.15.39.39,0,0,0-.11.31.44.44,0,0,0,.4.42.42.42,0,0,0,.28-.14.47.47,0,0,0,.12-.32A.44.44,0,0,0,203.85,7.87Zm0,1.69h0a1.24,1.24,0,0,1-1.2-1.19,1.27,1.27,0,0,1,.33-.91,1.23,1.23,0,0,1,.87-.4,1.26,1.26,0,0,1,.91,2.1,1.23,1.23,0,0,1-.88.4Z"/><path d="M209.14,9.11a.86.86,0,0,0,.81-.89.81.81,0,1,0-.81.89Z"/><path d="M209.12,7.82a.46.46,0,0,0-.27.15.39.39,0,0,0-.11.31.4.4,0,1,0,.38-.46Zm0,1.7h0a1.24,1.24,0,0,1-1.2-1.19,1.27,1.27,0,0,1,.33-.91,1.23,1.23,0,0,1,.87-.4,1.25,1.25,0,0,1,0,2.5Z"/><path d="M214.43,21.33a11.44,11.44,0,1,0,11.44,11.44A11.45,11.45,0,0,0,214.43,21.33Zm0,23.42a12,12,0,1,1,12-12A12,12,0,0,1,214.43,44.75Z"/><path d="M214.43,21.74a11,11,0,0,0-7.8,18.83,10.92,10.92,0,0,0,7.8,3.23h0a11,11,0,0,0,0-22.06Zm0,23.42h0a12.38,12.38,0,1,1,0-24.76h0a12.38,12.38,0,0,1,0,24.76Z"/><path d="M228.59,37.7c-13.21-6.07-15.33-19.37-15.35-19.51l.53-.08c0,.13,2.1,13.16,15,19.11Z"/><path d="M228.79,38.24l-.37-.17C215,31.91,212.86,18.39,212.84,18.25l-.06-.4,1.33-.2.06.4c0,.13,2.1,13,14.81,18.8l.37.17Z"/><path d="M200,74.47h30V60a11.34,11.34,0,0,0-11.33-11.32H207.77a11.39,11.39,0,0,0-10.54,7.19A11.81,11.81,0,0,1,200,63.37Zm30.52.53h-31V63.37A11.31,11.31,0,0,0,196.72,56l-.1-.12.06-.15a11.92,11.92,0,0,1,11.09-7.67h10.84A11.87,11.87,0,0,1,230.47,60Z"/><path d="M200.36,74.06h29.17V60A11,11,0,0,0,218.61,49H207.77a10.91,10.91,0,0,0-10.07,6.71,12.24,12.24,0,0,1,2.66,7.62Zm30.51,1.35H199v-12a11,11,0,0,0-2.61-7.07l-.25-.3.14-.37a12.4,12.4,0,0,1,11.47-7.94h10.85A12.28,12.28,0,0,1,230.87,60Z"/><path d="M200,78.42H165.41V63.37a11.87,11.87,0,0,1,11.85-11.85H188.1a11.84,11.84,0,0,1,9,4.17l-.4.35a11.3,11.3,0,0,0-8.63-4H177.26a11.33,11.33,0,0,0-11.32,11.32V77.89h33.48V74.74H200Z"/><path d="M200.36,78.83H165V63.37a12.3,12.3,0,0,1,12.26-12.26h10.85a12.2,12.2,0,0,1,9.33,4.32l.27.31-1,.87-.27-.31a10.87,10.87,0,0,0-8.3-3.84H177.26a10.94,10.94,0,0,0-10.91,10.91V77.48H199V74.33h1.35Z"/><path d="M200,74.74h-.52V63.37A11.31,11.31,0,0,0,196.72,56l.41-.35A11.89,11.89,0,0,1,200,63.37Z"/><path d="M200.36,75.15H199V63.37a11,11,0,0,0-2.61-7.07l-.26-.31,1-.87.27.31a12.27,12.27,0,0,1,2.92,7.94Z"/><path d="M182.7,47.43a19.13,19.13,0,0,1-4.82-.61c-5.24-1.38-8.81-4.8-9.78-9.38a15.78,15.78,0,0,1,15-19.53A15.11,15.11,0,0,1,198,30.5l-.52.07a14.58,14.58,0,0,0-14.18-12.13h-.25a15.35,15.35,0,0,0-11.6,5.75,15.53,15.53,0,0,0-2.87,13.14c.93,4.38,4.35,7.65,9.4,9s10.85.37,13.21-2.31a14.57,14.57,0,0,0,3.06-12.1,11.53,11.53,0,0,0-6.85-8.27,9.25,9.25,0,0,0-9.88.84,12.46,12.46,0,0,0-4.46,11.37,8,8,0,0,0,5.59,6.47c3.53,1.15,6.72.56,9-1.67a9.35,9.35,0,0,0,2.28-9.14A6.42,6.42,0,0,0,184.6,27c-2.69-.44-5.35,1.72-6.3,3.32a6,6,0,0,0-1,4.87,4.93,4.93,0,0,0,6.2,3.21,4.55,4.55,0,0,0,.79-.33A3,3,0,0,0,186,35.72s.35-2.21-.77-3.15c-.65-.55-1.68-.58-3.08-.11L182,32c1.59-.54,2.8-.47,3.59.21,1.35,1.13,1,3.54.95,3.64a3.62,3.62,0,0,1-1.92,2.71,5.47,5.47,0,0,1-7.38-2.3,6.2,6.2,0,0,1-.37-.89,6.55,6.55,0,0,1,1-5.3c1.06-1.77,3.88-4.06,6.84-3.57a6.93,6.93,0,0,1,5.75,4.88A9.88,9.88,0,0,1,188,41c-2.39,2.38-5.77,3-9.5,1.79a8.46,8.46,0,0,1-6-6.88A12.86,12.86,0,0,1,177.23,24a9.76,9.76,0,0,1,10.42-.9,12,12,0,0,1,7.15,8.65,15.09,15.09,0,0,1-3.18,12.55C189.88,46.32,186.45,47.43,182.7,47.43Z"/><path d="M182.69,47.84a19.33,19.33,0,0,1-4.91-.63c-5.4-1.41-9.08-4.94-10.08-9.68a16.18,16.18,0,0,1,15.37-20h.07a15.47,15.47,0,0,1,15.31,12.93l.07.42-1.34.18-.06-.39a14.18,14.18,0,0,0-13.79-11.79h-.24a14.89,14.89,0,0,0-11.28,5.6A15.05,15.05,0,0,0,169,37.24c.89,4.23,4.21,7.38,9.1,8.67s10.54.38,12.8-2.19a14.08,14.08,0,0,0,3-11.75,11.12,11.12,0,0,0-6.61-8,8.87,8.87,0,0,0-9.47.79,12.08,12.08,0,0,0-4.3,11,7.57,7.57,0,0,0,5.3,6.14c3.39,1.11,6.42.55,8.55-1.57a9,9,0,0,0,2.18-8.73,6,6,0,0,0-5-4.22c-2.4-.4-5,1.56-5.89,3.12a5.62,5.62,0,0,0-.91,4.54A4.51,4.51,0,0,0,183.42,38a4.66,4.66,0,0,0,.73-.3,2.66,2.66,0,0,0,1.44-2s.29-2-.63-2.79c-.53-.44-1.44-.46-2.69,0l-.39.13-.43-1.27.39-.13c1.73-.59,3.07-.5,4,.27,1.53,1.3,1.11,3.92,1.09,4a4,4,0,0,1-2.14,3,5.89,5.89,0,0,1-7.93-2.47,6.71,6.71,0,0,1-.4-1,6.93,6.93,0,0,1,1-5.63c1.12-1.87,4.11-4.28,7.26-3.76a7.32,7.32,0,0,1,6.07,5.16,10.32,10.32,0,0,1-2.51,10.08c-2.51,2.49-6,3.16-9.91,1.89A8.89,8.89,0,0,1,172.17,36,13.28,13.28,0,0,1,177,23.72a10.14,10.14,0,0,1,10.84-.95,12.44,12.44,0,0,1,7.38,8.93,15.42,15.42,0,0,1-3.27,12.9c-1.78,2-5.23,3.24-9.23,3.24h0Z"/><path d="M199.34,21.4l-.07-3.22h.53l0,2,4.41-4.3h.09c.06,0,5.9-.65,8.45-3.95a5.83,5.83,0,0,0,1.09-4.62c-.64-4.14-4.42-5.61-7.48-6.11A15.78,15.78,0,0,0,197,2.4l-.23.11a6.22,6.22,0,0,0-3.49,5.18,6.36,6.36,0,0,0,2.78,5.74A19.54,19.54,0,0,0,199,15l-.22.48a19.68,19.68,0,0,1-2.94-1.64,6.89,6.89,0,0,1-3-6.22A6.73,6.73,0,0,1,196.58,2l.24-.12A16.39,16.39,0,0,1,206.48.65c3.24.54,7.24,2.11,7.93,6.56a6.35,6.35,0,0,1-1.2,5c-2.54,3.29-7.92,4.05-8.72,4.15Z"/><path d="M199,22.35l-.1-4.57,1.35,0,0,1.47,3.83-3.74.23,0c.06,0,5.73-.62,8.17-3.79a5.44,5.44,0,0,0,1-4.29c-.6-3.92-4.22-5.31-7.15-5.79a15.38,15.38,0,0,0-9.12,1.19l-.22.11a5.82,5.82,0,0,0-3.26,4.83,6,6,0,0,0,2.6,5.38,18.75,18.75,0,0,0,2.8,1.57l.38.17-.57,1.22-.37-.16a20.59,20.59,0,0,1-3-1.69,7.28,7.28,0,0,1-3.18-6.58,7.17,7.17,0,0,1,4-5.95l.24-.12a16.69,16.69,0,0,1,9.92-1.3c3.36.56,7.53,2.2,8.25,6.9a6.71,6.71,0,0,1-1.28,5.33c-2.5,3.25-7.54,4.11-8.85,4.29Z"/><path d="M191.34,216.06a.85.85,0,0,0,0-1.7.85.85,0,0,0,0,1.7Z"/><path d="M191.33,214.77a.44.44,0,0,0,0,.88.44.44,0,0,0,0-.88Zm0,1.69h0a1.25,1.25,0,1,1,1.24-1.29,1.24,1.24,0,0,1-.34.9,1.26,1.26,0,0,1-.87.39Z"/><path d="M196.87,216.16a.85.85,0,0,0,.8-.89.81.81,0,1,0-1.61.08A.85.85,0,0,0,196.87,216.16Z"/><path d="M196.85,214.87a.46.46,0,0,0-.27.15.39.39,0,0,0-.11.31.44.44,0,0,0,.4.42.42.42,0,0,0,.28-.14.47.47,0,0,0,.12-.32A.44.44,0,0,0,196.85,214.87Zm0,1.7h0a1.24,1.24,0,0,1-1.2-1.19,1.27,1.27,0,0,1,.33-.91,1.23,1.23,0,0,1,.87-.4,1.26,1.26,0,0,1,.91,2.1,1.23,1.23,0,0,1-.88.4Z"/><path d="M202.14,216.11a.86.86,0,0,0,.81-.89.81.81,0,1,0-.81.89Z"/><path d="M202.12,214.82a.46.46,0,0,0-.27.15.39.39,0,0,0-.11.31.4.4,0,1,0,.38-.46Zm0,1.7h0a1.24,1.24,0,0,1-1.2-1.19,1.27,1.27,0,0,1,.33-.91,1.23,1.23,0,0,1,.87-.4,1.25,1.25,0,0,1,0,2.5Z"/><path d="M207.43,228.33a11.44,11.44,0,1,0,11.44,11.44A11.45,11.45,0,0,0,207.43,228.33Zm0,23.42a12,12,0,1,1,12-12A12,12,0,0,1,207.43,251.75Z"/><path d="M207.43,228.74a11,11,0,0,0-7.8,18.83,10.92,10.92,0,0,0,7.8,3.23h0a11,11,0,0,0,0-22.06Zm0,23.42h0a12.38,12.38,0,1,1,0-24.76h0a12.38,12.38,0,0,1,0,24.76Z"/><path d="M221.59,244.7c-13.21-6.07-15.33-19.37-15.35-19.51l.53-.08c0,.13,2.1,13.16,15,19.11Z"/><path d="M221.79,245.24l-.37-.17c-13.41-6.16-15.56-19.68-15.58-19.82l-.06-.4,1.33-.2.06.4c0,.13,2.1,13,14.81,18.8l.37.17Z"/><path d="M193,281.47h30V267a11.34,11.34,0,0,0-11.33-11.32H200.77a11.39,11.39,0,0,0-10.54,7.19,11.81,11.81,0,0,1,2.72,7.55Zm30.52.53h-31V270.37a11.31,11.31,0,0,0-2.71-7.33l-.1-.12.06-.15a11.92,11.92,0,0,1,11.09-7.67h10.84A11.87,11.87,0,0,1,223.47,267Z"/><path d="M193.36,281.06h29.17V267A11,11,0,0,0,211.61,256H200.77a10.91,10.91,0,0,0-10.07,6.71,12.24,12.24,0,0,1,2.66,7.62Zm30.51,1.35H192v-12a11,11,0,0,0-2.61-7.07l-.25-.3.14-.37a12.4,12.4,0,0,1,11.47-7.94h10.85A12.28,12.28,0,0,1,223.87,267Z"/><path d="M193,285.42H158.41V270.37a11.87,11.87,0,0,1,11.85-11.85H181.1a11.84,11.84,0,0,1,9,4.17l-.4.35a11.3,11.3,0,0,0-8.63-4H170.26a11.33,11.33,0,0,0-11.32,11.32v14.52h33.48v-3.15H193Z"/><path d="M193.36,285.83H158V270.37a12.3,12.3,0,0,1,12.26-12.26h10.85a12.2,12.2,0,0,1,9.33,4.32l.27.31-1,.87-.27-.31a10.87,10.87,0,0,0-8.3-3.84H170.26a10.94,10.94,0,0,0-10.91,10.91v14.11H192v-3.15h1.35Z"/><path d="M193,281.74h-.52V270.37a11.31,11.31,0,0,0-2.71-7.33l.41-.35a11.89,11.89,0,0,1,2.82,7.68Z"/><path d="M193.36,282.15H192V270.37a11,11,0,0,0-2.61-7.07l-.26-.31,1-.87.27.31a12.27,12.27,0,0,1,2.92,7.94Z"/><path d="M175.7,254.43a19.13,19.13,0,0,1-4.82-.61c-5.24-1.38-8.81-4.8-9.78-9.38a15.78,15.78,0,0,1,15-19.53,15.11,15.11,0,0,1,15,12.59l-.52.07a14.58,14.58,0,0,0-14.18-12.13h-.25a15.35,15.35,0,0,0-11.6,5.75,15.53,15.53,0,0,0-2.87,13.14c.93,4.38,4.35,7.65,9.4,9s10.85.37,13.21-2.31a14.57,14.57,0,0,0,3.06-12.1,11.53,11.53,0,0,0-6.85-8.27,9.25,9.25,0,0,0-9.88.84,12.46,12.46,0,0,0-4.46,11.37,8,8,0,0,0,5.59,6.47c3.53,1.15,6.72.56,9-1.67a9.35,9.35,0,0,0,2.28-9.14A6.42,6.42,0,0,0,177.6,234c-2.69-.44-5.35,1.72-6.3,3.32a6,6,0,0,0-1,4.87,4.93,4.93,0,0,0,6.2,3.21,4.55,4.55,0,0,0,.79-.33,3,3,0,0,0,1.65-2.33s.35-2.21-.77-3.15c-.65-.55-1.68-.58-3.08-.11L175,239c1.59-.54,2.8-.47,3.59.21,1.35,1.13,1,3.54.95,3.64a3.62,3.62,0,0,1-1.92,2.71,5.47,5.47,0,0,1-7.38-2.3,6.2,6.2,0,0,1-.37-.89,6.55,6.55,0,0,1,1-5.3c1.06-1.77,3.88-4.06,6.84-3.57a6.93,6.93,0,0,1,5.75,4.88A9.88,9.88,0,0,1,181,248c-2.39,2.38-5.77,3-9.5,1.79a8.46,8.46,0,0,1-6-6.88A12.86,12.86,0,0,1,170.23,231a9.76,9.76,0,0,1,10.42-.9,12,12,0,0,1,7.15,8.65,15.09,15.09,0,0,1-3.18,12.55C182.88,253.32,179.45,254.43,175.7,254.43Z"/><path d="M175.69,254.84a19.33,19.33,0,0,1-4.91-.63c-5.4-1.41-9.08-4.94-10.08-9.68a16.18,16.18,0,0,1,15.37-20h.07a15.47,15.47,0,0,1,15.31,12.93l.07.42-1.34.18-.06-.39a14.18,14.18,0,0,0-13.79-11.79h-.24a14.89,14.89,0,0,0-11.28,5.6A15.05,15.05,0,0,0,162,244.24c.89,4.23,4.21,7.38,9.1,8.67s10.54.38,12.8-2.19a14.08,14.08,0,0,0,3-11.75,11.12,11.12,0,0,0-6.61-8,8.87,8.87,0,0,0-9.47.79,12.08,12.08,0,0,0-4.3,11,7.57,7.57,0,0,0,5.3,6.14c3.39,1.11,6.42.55,8.55-1.57a9,9,0,0,0,2.18-8.73,6,6,0,0,0-5-4.22c-2.4-.4-5,1.56-5.89,3.12a5.62,5.62,0,0,0-.91,4.54,4.51,4.51,0,0,0,5.68,2.94,4.66,4.66,0,0,0,.73-.3,2.66,2.66,0,0,0,1.44-2s.29-2-.63-2.79c-.53-.44-1.44-.46-2.69,0l-.39.13-.43-1.27.39-.13c1.73-.59,3.07-.5,4,.27,1.53,1.3,1.11,3.92,1.09,4a4,4,0,0,1-2.14,3,5.89,5.89,0,0,1-7.93-2.47,6.71,6.71,0,0,1-.4-1,6.93,6.93,0,0,1,1-5.63c1.12-1.87,4.11-4.28,7.26-3.76a7.32,7.32,0,0,1,6.07,5.16,10.32,10.32,0,0,1-2.51,10.08c-2.51,2.49-6,3.16-9.91,1.89a8.89,8.89,0,0,1-6.23-7.21A13.28,13.28,0,0,1,170,230.72a10.14,10.14,0,0,1,10.84-.95,12.44,12.44,0,0,1,7.38,8.93,15.42,15.42,0,0,1-3.27,12.9c-1.78,2-5.23,3.24-9.23,3.24h0Z"/><path d="M192.34,228.4l-.07-3.22h.53l0,2,4.41-4.3h.09c.06,0,5.9-.65,8.45-4a5.83,5.83,0,0,0,1.09-4.62c-.64-4.14-4.42-5.61-7.48-6.11A15.78,15.78,0,0,0,190,209.4l-.23.11a6.22,6.22,0,0,0-3.49,5.18,6.36,6.36,0,0,0,2.78,5.74A19.54,19.54,0,0,0,192,222l-.22.48a19.68,19.68,0,0,1-2.94-1.64,6.89,6.89,0,0,1-3-6.22,6.73,6.73,0,0,1,3.78-5.61l.24-.12a16.39,16.39,0,0,1,9.66-1.27c3.24.54,7.24,2.11,7.93,6.56a6.35,6.35,0,0,1-1.2,5c-2.54,3.29-7.92,4.05-8.72,4.15Z"/><path d="M192,229.35l-.1-4.57,1.35,0,0,1.47,3.83-3.74.23,0c.06,0,5.73-.62,8.17-3.79a5.44,5.44,0,0,0,1-4.29c-.6-3.92-4.22-5.31-7.15-5.79a15.38,15.38,0,0,0-9.12,1.19l-.22.11a5.83,5.83,0,0,0-3.26,4.84,6,6,0,0,0,2.6,5.37,18.75,18.75,0,0,0,2.8,1.57l.38.17-.57,1.22-.37-.16a20.59,20.59,0,0,1-3-1.69,7.28,7.28,0,0,1-3.18-6.58,7.17,7.17,0,0,1,4-6l.24-.12a16.69,16.69,0,0,1,9.92-1.3c3.36.56,7.53,2.2,8.25,6.9a6.71,6.71,0,0,1-1.28,5.33c-2.5,3.25-7.54,4.11-8.85,4.29Z"/></svg>