<svg xmlns="http://www.w3.org/2000/svg" width="276.5" height="285.83" viewBox="0 0 276.5 285.83"><path d="M72,38.58a.5.5,0,0,1,.92,0l4,9a.49.49,0,0,0,.23.24l8.47,4.28a.5.5,0,0,1,0,.89l-8.47,4.27a.47.47,0,0,0-.23.25l-4,9a.5.5,0,0,1-.92,0l-4-9a.47.47,0,0,0-.23-.25L59.39,53a.5.5,0,0,1,0-.89l8.47-4.28a.49.49,0,0,0,.23-.24Z" fill="#161616"/><path d="M63.71,9.44a.31.31,0,0,1,.58,0l.6,1.9a.32.32,0,0,0,.17.19l1.77.73a.3.3,0,0,1,0,.55l-1.77.73a.27.27,0,0,0-.17.19l-.6,1.9a.31.31,0,0,1-.58,0l-.6-1.9a.25.25,0,0,0-.17-.19l-1.77-.73a.3.3,0,0,1,0-.55l1.77-.73a.29.29,0,0,0,.17-.19Z" fill="#161616"/><polygon points="101.5 65.53 102.3 66.59 103.5 67.06 102.79 68.19 102.74 69.53 101.5 69.17 100.26 69.53 100.21 68.19 99.5 67.06 100.7 66.59 101.5 65.53" fill="#161616"/><polygon points="33.5 41.53 34.29 42.6 35.5 43.06 34.78 44.18 34.74 45.53 33.5 45.16 32.26 45.53 32.22 44.18 31.5 43.06 32.71 42.6 33.5 41.53" fill="#161616"/><polygon points="32.5 65.53 32.9 66.07 33.5 66.3 33.14 66.86 33.12 67.53 32.5 67.34 31.88 67.53 31.86 66.86 31.5 66.3 32.1 66.07 32.5 65.53" fill="#161616"/><path d="M60.92,29.58a1.86,1.86,0,0,1,.71.3,2.25,2.25,0,0,1,.55.56,2.19,2.19,0,0,1,.29.73,2.27,2.27,0,0,1,0,.78,2.1,2.1,0,0,1-.31.72,2.06,2.06,0,0,1-.56.54,1.87,1.87,0,0,1-.73.29,2,2,0,0,1-1.49-.32,2.09,2.09,0,0,1-.55-.56,2.06,2.06,0,0,1-.29-.72,2.27,2.27,0,0,1,0-.78,2.1,2.1,0,0,1,.31-.72,1.92,1.92,0,0,1,.56-.54,2,2,0,0,1,1.51-.28Z" fill="#161616"/><path d="M101.5,25.53a2,2,0,0,1,1.41.59,1.92,1.92,0,0,1,.44.65,2,2,0,0,1,.15.76,2,2,0,0,1-.59,1.42,2,2,0,0,1-.64.43,2.05,2.05,0,0,1-1.54,0,2,2,0,0,1-1.08-1.08,2,2,0,0,1-.15-.77,2,2,0,0,1,.15-.76,1.92,1.92,0,0,1,.44-.65,2,2,0,0,1,1.41-.59Z" fill="#161616"/><path d="M109.5,43.53a2,2,0,0,1,1.41.59,1.92,1.92,0,0,1,.44.65,2,2,0,0,1,.15.76,2,2,0,0,1-.59,1.42,2,2,0,0,1-.64.43,2.05,2.05,0,0,1-1.54,0,2,2,0,0,1-1.08-1.08,2,2,0,0,1-.15-.77,2,2,0,0,1,.15-.76,1.92,1.92,0,0,1,.44-.65,2,2,0,0,1,1.41-.59Z" fill="#161616"/><path d="M49.5,74.53a2,2,0,0,1,1.41.59,1.92,1.92,0,0,1,.44.65,2,2,0,0,1,.15.76A2,2,0,0,1,50.91,78a2,2,0,0,1-.64.43,2.05,2.05,0,0,1-1.54,0,2,2,0,0,1-1.08-1.08,2,2,0,0,1-.15-.77,2,2,0,0,1,.15-.76,1.92,1.92,0,0,1,.44-.65,2,2,0,0,1,1.41-.59Z" fill="#161616"/><path d="M87.5,66.53a2,2,0,0,1,1.41.59,1.92,1.92,0,0,1,.44.65,2,2,0,0,1,.15.76A2,2,0,0,1,88.91,70a2,2,0,0,1-.64.43,2.05,2.05,0,0,1-1.54,0,2,2,0,0,1-1.08-1.08,2,2,0,0,1-.15-.77,2,2,0,0,1,.15-.76,1.92,1.92,0,0,1,.44-.65,2,2,0,0,1,1.41-.59Z" fill="#161616"/><path d="M58.5,64.53a1,1,0,0,1,1,1,1,1,0,0,1-.29.71,1,1,0,0,1-1.42,0,1,1,0,0,1-.29-.71,1,1,0,0,1,1-1Z" fill="#161616"/><path d="M69.5,82.53a1,1,0,0,1,1,1,1,1,0,0,1-.29.71,1,1,0,0,1-1.42,0,1,1,0,0,1-.29-.71,1,1,0,0,1,1-1Z" fill="#161616"/><path d="M23.5,94.53a1,1,0,0,1,1,1,1,1,0,0,1-.29.71,1,1,0,0,1-1.42,0,1,1,0,0,1-.29-.71,1,1,0,0,1,1-1Z" fill="#161616"/><path d="M126.5,73.53a1,1,0,0,1,1,1,1,1,0,0,1-.29.71,1,1,0,0,1-1.42,0,1,1,0,0,1-.29-.71,1,1,0,0,1,1-1Z" fill="#161616"/><path d="M46.5,42.53a1,1,0,0,1,1,1,1,1,0,0,1-.29.71,1,1,0,0,1-1.42,0,1,1,0,0,1-.29-.71,1,1,0,0,1,1-1Z" fill="#161616"/><path d="M21.5,16.53a1,1,0,0,1,1,1,1,1,0,0,1-.29.71,1,1,0,0,1-1.42,0,1,1,0,0,1-.29-.71,1,1,0,0,1,1-1Z" fill="#161616"/><path d="M87.5,35.53a1,1,0,0,1,1,1,1,1,0,0,1-.29.71,1,1,0,0,1-1.42,0,1,1,0,0,1-.29-.71,1,1,0,0,1,1-1Z" fill="#161616"/><path d="M83.5,21.53a1,1,0,0,1,1,1,1,1,0,0,1-.29.71,1,1,0,0,1-1.42,0,1,1,0,0,1-.29-.71,1,1,0,0,1,1-1Z" fill="#161616"/><path d="M229,147.61a.5.5,0,0,1,.92,0l2.67,6.24a.61.61,0,0,0,.23.25l5.78,3a.5.5,0,0,1,0,.89l-5.78,3a.51.51,0,0,0-.23.25L230,167.46a.5.5,0,0,1-.92,0l-2.67-6.24a.47.47,0,0,0-.23-.25l-5.78-3a.5.5,0,0,1,0-.89l5.78-3a.55.55,0,0,0,.23-.25Z" fill="#161616"/><path d="M228.71,118.44a.31.31,0,0,1,.58,0l.6,1.9a.32.32,0,0,0,.17.19l1.77.73a.3.3,0,0,1,0,.55l-1.77.73a.27.27,0,0,0-.17.19l-.6,1.9a.31.31,0,0,1-.58,0l-.6-1.9a.25.25,0,0,0-.17-.19l-1.77-.73a.3.3,0,0,1,0-.55l1.77-.73a.29.29,0,0,0,.17-.19Z" fill="#161616"/><polygon points="266.5 174.53 267.3 175.59 268.5 176.06 267.79 177.19 267.74 178.53 266.5 178.18 265.26 178.53 265.21 177.19 264.5 176.06 265.7 175.59 266.5 174.53" fill="#161616"/><polygon points="198.5 150.53 199.29 151.6 200.5 152.06 199.78 153.18 199.74 154.53 198.5 154.16 197.26 154.53 197.22 153.18 196.5 152.06 197.71 151.6 198.5 150.53" fill="#161616"/><path d="M225.92,138.58a1.86,1.86,0,0,1,.71.3,2.25,2.25,0,0,1,.55.56,2.19,2.19,0,0,1,.29.73,2.27,2.27,0,0,1,0,.78,2.1,2.1,0,0,1-.31.72,2.06,2.06,0,0,1-.56.54,1.87,1.87,0,0,1-.73.29,2,2,0,0,1-1.49-.32,2.09,2.09,0,0,1-.55-.56,2.06,2.06,0,0,1-.29-.72,2.27,2.27,0,0,1,0-.78,2.1,2.1,0,0,1,.31-.72,1.92,1.92,0,0,1,.56-.54,2,2,0,0,1,1.51-.28Z" fill="#161616"/><path d="M266.5,134.53a2,2,0,0,1,1.41.59,1.92,1.92,0,0,1,.44.65,2,2,0,0,1,.15.76,2,2,0,0,1-.59,1.42,2,2,0,0,1-.64.43,2.05,2.05,0,0,1-1.54,0,2,2,0,0,1-1.08-1.08,2,2,0,0,1-.15-.77,2,2,0,0,1,.15-.76,1.92,1.92,0,0,1,.44-.65,2,2,0,0,1,1.41-.59Z" fill="#161616"/><path d="M274.5,152.53a2,2,0,0,1,1.41.59,1.92,1.92,0,0,1,.44.65,2,2,0,0,1,.15.76,2,2,0,0,1-.59,1.42,2,2,0,0,1-.64.43,2.05,2.05,0,0,1-1.54,0,2,2,0,0,1-1.08-1.08,2,2,0,0,1-.15-.77,2,2,0,0,1,.15-.76,1.92,1.92,0,0,1,.44-.65,2,2,0,0,1,1.41-.59Z" fill="#161616"/><path d="M214.5,183.53a2,2,0,0,1,1.41.59,1.92,1.92,0,0,1,.44.65,2,2,0,0,1,.15.76,2,2,0,0,1-.59,1.42,2,2,0,0,1-.64.43,2.05,2.05,0,0,1-1.54,0,2,2,0,0,1-1.08-1.08,2,2,0,0,1-.15-.77,2,2,0,0,1,.15-.76,1.92,1.92,0,0,1,.44-.65,2,2,0,0,1,1.41-.59Z" fill="#161616"/><path d="M252.5,175.53a2,2,0,0,1,1.41.59,1.92,1.92,0,0,1,.44.65,2,2,0,0,1,.15.76,2,2,0,0,1-.59,1.42,2,2,0,0,1-.64.43,2.05,2.05,0,0,1-1.54,0,2,2,0,0,1-1.08-1.08,2,2,0,0,1-.15-.77,2,2,0,0,1,.15-.76,1.92,1.92,0,0,1,.44-.65,2,2,0,0,1,1.41-.59Z" fill="#161616"/><path d="M223.5,173.53a1,1,0,0,1,1,1,1,1,0,0,1-.29.71,1,1,0,0,1-1.42,0,1,1,0,0,1,0-1.41A1,1,0,0,1,223.5,173.53Z" fill="#161616"/><path d="M234.5,191.53a1,1,0,0,1,1,1,1,1,0,0,1-.29.71,1,1,0,0,1-1.42,0,1,1,0,0,1,0-1.41A1,1,0,0,1,234.5,191.53Z" fill="#161616"/><path d="M263.5,185.53a1,1,0,0,1,1,1,1,1,0,0,1-.29.71,1,1,0,0,1-1.42,0,1,1,0,0,1,0-1.41A1,1,0,0,1,263.5,185.53Z" fill="#161616"/><path d="M211.5,151.53a1,1,0,0,1,1,1,1,1,0,0,1-.29.71,1,1,0,0,1-1.42,0,1,1,0,0,1,0-1.41A1,1,0,0,1,211.5,151.53Z" fill="#161616"/><path d="M252.5,144.53a1,1,0,0,1,1,1,1,1,0,0,1-.29.71,1,1,0,0,1-1.42,0,1,1,0,0,1,0-1.41A1,1,0,0,1,252.5,144.53Z" fill="#161616"/><line x1="100" y1="129.07" x2="151" y2="78.3" fill="none" stroke="#161616" stroke-linecap="round" stroke-width="1.5"/><line x1="144.46" y1="243.69" x2="95.61" y2="204.84" fill="none" stroke="#161616" stroke-linecap="round" stroke-width="1.5"/></svg>