<svg xmlns="http://www.w3.org/2000/svg" width="565.095" height="563.05" viewBox="0 0 565.095 563.05"><defs><style>.a{fill:#ecddd7;}</style></defs><g transform="translate(-2.653 -6.306)"><g transform="translate(256.168 400.07)"><path class="a" d="M310.752,611.877l1.211-1.485c4.277-5.248.707-14.865-3.053-19.711-.763-.984-1.589-1.983-2.389-2.949-3.819-4.609-7.766-9.376-8.188-16.089-.332-5.266,1.695-9.973,3.654-14.524.759-1.76,1.542-3.58,2.169-5.391,4.225-12.227,2.2-22.342-6.368-31.835-.814-.9-7.4-8.719-8.259-10.4-1.178-2.3-2.819-7.668-2.608-10.523.723-9.8-.375-18.134-2.246-27.628-2.066-10.487-1.252-22.044,2.028-28.757l1.459.714c-3.087,6.318-3.866,17.721-1.894,27.729,1.9,9.623,3.008,18.077,2.273,28.062-.183,2.491,1.327,7.5,2.433,9.662.691,1.348,6.867,8.77,8.02,10.047,9.008,9.979,11.137,20.609,6.7,33.454-.645,1.868-1.441,3.717-2.211,5.5-1.971,4.577-3.833,8.9-3.526,13.779.389,6.184,4.166,10.745,7.818,15.155.808.975,1.643,1.984,2.422,2.987,3.814,4.916,7.228,13.876,4.168,19.972a10.117,10.117,0,0,0,4.567-4.275c3.226-5.315,3.882-13.213,1.561-18.779-.432-1.038-.975-2.045-1.5-3.02a22.3,22.3,0,0,1-2.312-5.428c-1.486-6.234,2.232-12.415,5.828-18.393,2.771-4.606,5.635-9.368,6.073-14.062a33.381,33.381,0,0,0,.034-4.165,30.161,30.161,0,0,1,.117-5.026c.6-4.431,2.961-7.772,5.247-11a31.147,31.147,0,0,0,4.456-7.815c1.851-5.445,1.134-12.405-2.126-20.687a33.409,33.409,0,0,0-3.98-6.84c-2.165-3.108-4.4-6.321-4.949-10.853-1.6-13.248,5.182-29.116,8.173-35.323l1.463.7c-2.927,6.078-9.568,21.6-8.023,34.424.5,4.13,2.523,7.039,4.668,10.118a34.662,34.662,0,0,1,4.159,7.173c3.407,8.65,4.132,15.987,2.154,21.805a32.409,32.409,0,0,1-4.669,8.231c-2.273,3.213-4.419,6.246-4.964,10.282a28.611,28.611,0,0,0-.1,4.755,34.843,34.843,0,0,1-.041,4.37c-.473,5.061-3.434,9.986-6.3,14.747-3.586,5.96-6.972,11.59-5.64,17.178a20.743,20.743,0,0,0,2.163,5.035c.543,1.009,1.1,2.052,1.568,3.164,2.505,6.008,1.8,14.524-1.672,20.247-2,3.29-4.716,5.239-7.656,5.489Z" transform="translate(-283.543 -442.591)"/></g><g transform="translate(320.729 390.936)"><path class="a" d="M396.251,509.215a17.921,17.921,0,0,1-2.976-3.471c-6.629-8.4-10.934-18.488-15.115-28.28-4.644-10.882-9.449-22.136-17.4-30.887l-.424-.464c-1.938-2.121-4.35-4.761-5.255-7.359l1.535-.534c.793,2.283,3.178,4.893,4.919,6.8l.427.467c8.141,8.952,13,20.334,17.7,31.341,3.028,7.094,6.122,14.341,10.113,20.95-.592-1.971-1.077-3.995-1.558-6l-.374-1.551c-1.954-8-4.681-16.049-7.317-23.83-3.7-10.917-7.524-22.206-9.33-33.676l1.6-.252c1.784,11.331,5.588,22.554,9.265,33.407,2.648,7.813,5.385,15.893,7.356,23.964l.376,1.558c1.135,4.73,2.3,9.585,4.831,13.426q1.32,1.665,2.767,3.231Z" transform="translate(-355.077 -432.471)"/></g><g transform="translate(214.383 391.384)"><path class="a" d="M238.684,504.771l-1.437-.746a264.17,264.17,0,0,0,18.96-71.058l1.613.2a264.4,264.4,0,0,1-15.612,62.848c6.7-11.024,12.691-22.17,16.414-34.358.134-.442.265-.887.4-1.332a30.675,30.675,0,0,1,6.543-12.8l6.786-9.024,1.3.977-6.787,9.025a29.14,29.14,0,0,0-6.283,12.284c-.134.449-.266.9-.4,1.343C255.5,477.421,247.343,491.025,238.684,504.771Z" transform="translate(-237.247 -432.967)"/></g><g transform="translate(87.504 355.126)"><path class="a" d="M105.4,513.231a15.723,15.723,0,0,1-7.228-1.687l-1.645-.852,1.821-.482c3.332-.882,8.7-3,8.916-4.93a23.213,23.213,0,0,0,.057-3.183,17.211,17.211,0,0,1,.271-4.53l-3.081,1.523-.1-1.121c-.383-4.117,7.012-17.264,9.3-19.512,7.607-7.46,11.237-8.744,15.831-10.368,1.517-.537,3.085-1.091,4.965-1.921,3.756-1.659,9.617-6.428,9.677-6.477,4.892-3.9,6.432-10.183,7.92-16.26.262-1.068.522-2.13.8-3.173a142.879,142.879,0,0,1,7.205-19.371c2.831-6.612,6.357-14.842,13.428-19.736,6.457-4.465,19.321-7.444,26.392-8.356l.231,1.446c-8.325,1.074-20.138,4.267-25.634,8.069-6.711,4.643-10.145,12.66-12.9,19.1a141.862,141.862,0,0,0-7.142,19.185c-.274,1.034-.532,2.088-.792,3.148-1.544,6.306-3.141,12.826-8.422,17.035-.24.2-6.082,4.95-10.044,6.7-1.94.857-3.612,1.448-5.086,1.97-4.572,1.617-7.876,2.785-15.23,10-2,1.958-7.894,12.645-8.781,17.179l4.8-2.372-1.162,2.093c-.933,1.682-.879,3.642-.821,5.716a24.178,24.178,0,0,1-.064,3.368c-.3,2.642-5.247,4.649-8.128,5.6a15.631,15.631,0,0,0,9.563-.015,13.9,13.9,0,0,0,8.772-7.221,25.758,25.758,0,0,0,1.3-4.023,27.7,27.7,0,0,1,1.354-4.177c4.021-9.046,15.778-11.911,24.933-12.721,1.966-.175,4.013-.288,6.18-.408,8.161-.452,17.41-.964,23.39-5.145,6.783-4.744,8.734-13.822,10.622-22.6,1.943-9.039,3.953-18.386,11.206-23.47l.72-.5c4.075-2.865,10.232-7.194,14.922-8.5l14.773-4.114.479,1.4-14.773,4.114c-4.406,1.228-10.421,5.457-14.4,8.256l-.721.507c-6.772,4.748-8.724,13.821-10.61,22.6-1.945,9.045-3.956,18.4-11.22,23.478-6.375,4.457-15.89,4.985-24.286,5.449-2.151.119-4.184.232-6.12.4-8.706.77-19.865,3.445-23.584,11.81a26.222,26.222,0,0,0-1.283,3.975,27.368,27.368,0,0,1-1.379,4.231,15.46,15.46,0,0,1-9.748,8.054A18.371,18.371,0,0,1,105.4,513.231Z" transform="translate(-96.523 -392.794)"/></g><g transform="translate(353.828 348.073)"><path class="a" d="M517.594,508.8l-.578-1.129c-3.565-6.954-18.479-8.593-29.369-9.79-4.981-.547-8.914-.98-10.819-1.816a23.174,23.174,0,0,1-11.293-10.816,48.676,48.676,0,0,1-2.923-7.975c-1.361-4.514-2.647-8.777-6-12.136-3.381-3.392-8.65-5.624-16.58-7.022-1.6-.284-3.255-.533-4.851-.774-4.688-.708-9.534-1.44-14-3.134-8.932-3.388-14.814-10.007-18.175-14.964a115.42,115.42,0,0,1-11.256-21.608l1.517-.58a113.733,113.733,0,0,0,11.083,21.277c3.23,4.762,8.872,11.118,17.407,14.356,4.307,1.634,9.067,2.352,13.669,3.048,1.606.242,3.268.493,4.891.779,5.208.92,12.681,2.693,17.449,7.475,3.636,3.647,5.042,8.308,6.4,12.815a47.563,47.563,0,0,0,2.82,7.711,21.549,21.549,0,0,0,10.5,10.061c1.676.736,5.692,1.178,10.343,1.689,10.619,1.167,24.941,2.741,29.856,9.408.764-2.332.049-6.329-2.04-11.1-1.559-3.56-5.2-6.739-10.818-9.447a21.427,21.427,0,0,0-7.327-1.533c-2.851-.269-5.8-.546-8.319-1.932-5.62-3.089-9.218-7.12-10.13-11.349a20.337,20.337,0,0,1,.172-7.284l.137-.959c1.051-7.563,1.712-15.426-2.653-21.154-2.542-3.334-6.3-5.918-9.293-7.8-4.42-2.774-9.886-4.757-15.173-6.675-1.246-.452-2.48-.9-3.681-1.35l-.649-.243a25.453,25.453,0,0,1-5.385-2.5,40.5,40.5,0,0,0-3.663-1.927c-3.977-1.954-6.863-3.446-7.788-4.847-5.127-7.774-10.389-22.33-12.487-30.182l1.569-.42c2.069,7.746,7.246,22.085,12.273,29.706.754,1.142,4.45,2.958,7.149,4.284A40.2,40.2,0,0,1,443.428,421a24.172,24.172,0,0,0,5.046,2.323l.653.244c1.195.449,2.422.894,3.664,1.345,5.366,1.948,10.915,3.96,15.482,6.826,3.108,1.951,7.022,4.644,9.721,8.186,4.743,6.225,4.068,14.46,2.97,22.363l-.139.97a18.812,18.812,0,0,0-.191,6.707c1.095,5.077,6.311,8.613,9.324,10.268,2.225,1.224,4.879,1.474,7.689,1.739a22.92,22.92,0,0,1,7.879,1.688c5.979,2.881,9.883,6.333,11.6,10.258,1.624,3.71,3.943,10.445,1.248,13.881Z" transform="translate(-391.75 -384.979)"/></g><g transform="translate(387.608 323.097)"><path class="a" d="M507.119,395.6l-4.431-1.189c-12.241-3.283-24.3-6.507-36.362-9.731-12.321-3.3-24.641-6.589-37.148-9.943l.421-1.569c12.507,3.355,24.826,6.648,37.148,9.941,10.566,2.825,21.133,5.651,31.821,8.515-19.114-12.96-37.843-22.24-60.031-32.855l.7-1.465c23.749,11.36,43.551,21.2,64.128,35.657Z" transform="translate(-429.178 -357.306)"/></g><g transform="translate(399.682 266.117)"><path class="a" d="M478.344,338.356c-9.5,0-18.539-2.865-27.337-5.652-2.659-.841-5.407-1.713-8.139-2.5l.448-1.562c2.754.791,5.514,1.665,8.182,2.51,11.094,3.515,21.572,6.838,33.113,5.121,8.345-1.239,16.883-4.4,25.14-7.458,12.407-4.592,25.235-9.34,38.029-7.9,2.41.271,4.851.7,7.212,1.111,5.54.969,11.269,1.971,16.711.931a45.669,45.669,0,0,0,14.09-5.541l.443-.253c5.92-3.367,10.663-6.063,21.424-4.15-1.9-2.391-5.8-4.182-10.331-4.64-5.416-.546-10.932.684-15.137,1.814-.672.181-1.347.368-2.024.556-5.138,1.423-10.451,2.893-15.875,2.139a28.992,28.992,0,0,1-10.77-4.228,78.727,78.727,0,0,1-10.158-7.159l-.43-.359a16.528,16.528,0,0,0-4.644-3.08c-1.626-.634-10.274-2.023-12.14-2.147-9.162-.617-15.89,1.482-23.009,3.7a86.8,86.8,0,0,1-17.8,4.107c-15.924,1.651-30.322-.462-42.784-6.279l.688-1.471c12.191,5.691,26.3,7.753,41.928,6.135a85.52,85.52,0,0,0,17.485-4.043c7.269-2.266,14.129-4.407,23.6-3.771,1.854.124,10.728,1.517,12.619,2.254a18.01,18.01,0,0,1,5.1,3.351l.424.356a77.078,77.078,0,0,0,9.949,7.01,27.5,27.5,0,0,0,10.163,4.015c5.094.71,10.239-.716,15.218-2.1.682-.189,1.361-.376,2.037-.559,4.337-1.167,10.05-2.434,15.72-1.862,4.989.5,10.8,2.89,12.541,7.089l.59,1.425-1.509-.319c-11.443-2.422-15.9.114-22.074,3.624l-.444.253a47.24,47.24,0,0,1-14.586,5.724c-5.729,1.1-11.61.069-17.3-.926-2.338-.409-4.754-.831-7.114-1.1-12.408-1.4-25.055,3.286-37.283,7.813-8.335,3.086-16.954,6.277-25.466,7.542A44.186,44.186,0,0,1,478.344,338.356Z" transform="translate(-442.556 -294.173)"/></g><g transform="translate(400.284 284.805)"><path class="a" d="M477.722,325.116a96.806,96.806,0,0,1-17.912-1.375l-.656-.124c-7.234-1.365-11.6-2.189-15.932-7.073l1.216-1.078c3.963,4.468,7.888,5.209,15.016,6.554l.657.125c7.655,1.447,15.744,1.429,23.372,1.283,7.766-.148,15.313-.45,22.258-2.5,2.238-.662,4.45-1.522,6.589-2.355,4.209-1.638,8.561-3.333,13.414-3.64,5.425-.343,10.644,1.095,15.683,2.485.9.248,1.794.5,2.689.731a124.844,124.844,0,0,0,35.971,3.932l.059,1.624a126.528,126.528,0,0,1-36.444-3.985c-.9-.238-1.8-.486-2.706-.736-4.913-1.355-9.99-2.759-15.15-2.429-4.6.291-8.644,1.866-12.927,3.532-2.169.845-4.412,1.718-6.717,2.4-7.138,2.109-14.805,2.419-22.687,2.569C481.608,325.089,479.672,325.116,477.722,325.116Z" transform="translate(-443.222 -314.879)"/></g><g transform="translate(109.116 323.075)"><path class="a" d="M121.246,397.449l-.634-1.495c11.248-5.153,21.659-12.084,31.726-18.787,10.78-7.176,21.926-14.6,34.161-19.885l.645,1.491c-12.1,5.229-23.186,12.609-33.906,19.747-6.32,4.208-12.774,8.5-19.5,12.406a370.437,370.437,0,0,1,45.25-14.188c.654-.154,1.289-.308,1.908-.458,4.291-1.036,7.987-1.93,12.789-1.777l-.053,1.624c-4.57-.147-8.007.683-12.354,1.733-.623.15-1.26.3-1.918.459C160.263,382.821,142.316,389.223,121.246,397.449Z" transform="translate(-120.612 -357.282)"/></g><g transform="translate(2.653 265.34)"><path class="a" d="M105.485,340a33.8,33.8,0,0,1-9.025-1.638c-1.4-.389-2.852-.792-4.283-1.089-.949-.2-1.942-.357-2.9-.513a31.778,31.778,0,0,1-6.14-1.413,25.944,25.944,0,0,1-4.977-2.727l-.819-.531a76.247,76.247,0,0,0-29.379-10.7,17.513,17.513,0,0,0-3.588-.277,19.047,19.047,0,0,0-4.913,1.156C32.7,324.506,26.039,326.5,19,326.376c-7.6-.134-13.806-3.527-15.809-8.643l-.539-1.376,1.45.283c18.871,3.675,23.213-.61,27.814-5.149,2.229-2.2,4.534-4.475,8.445-5.992a18.4,18.4,0,0,1,5.127-1.374,18.276,18.276,0,0,1,5.156.462A92.751,92.751,0,0,1,60.952,307.6c6.431,2.15,12.507,4.181,19.112,3.528,5.727-.567,10.674-3.146,15.459-5.641q1.083-.566,2.162-1.119a96.772,96.772,0,0,1,37.293-10.823c15.1-1.045,27.421,1.5,36.6,7.563l-.9,1.356c-8.869-5.863-20.848-8.317-35.587-7.3A95.179,95.179,0,0,0,98.422,305.81c-.715.365-1.431.738-2.149,1.113-4.922,2.566-10.01,5.219-16.05,5.817-6.956.69-13.478-1.494-19.786-3.6a91.652,91.652,0,0,0-10.125-2.959,16.4,16.4,0,0,0-4.686-.433,17.034,17.034,0,0,0-4.677,1.269,22.179,22.179,0,0,0-7.892,5.634c-4.774,4.713-9.293,9.173-27.656,5.887,2.285,3.714,7.432,6.107,13.628,6.217,6.835.132,13.3-1.833,19.9-4.021a20.384,20.384,0,0,1,5.353-1.242,19.11,19.11,0,0,1,3.921.294,77.869,77.869,0,0,1,30.009,10.939l.829.536a24.3,24.3,0,0,0,4.665,2.569,30.092,30.092,0,0,0,5.825,1.33c.977.157,1.989.321,2.972.526,1.483.308,2.959.718,4.387,1.114,3.3.917,6.414,1.782,9.712,1.538,3.861-.284,6.98-2.005,10.282-3.827a41.788,41.788,0,0,1,6.667-3.172c5.316-1.811,19.6-3.9,25.369-3.367a29.269,29.269,0,0,1,14.369,4.816,49.947,49.947,0,0,0,9.062,4.422l-.556,1.527a51.383,51.383,0,0,1-9.332-4.55,27.581,27.581,0,0,0-13.692-4.6c-5.5-.5-19.629,1.561-24.7,3.286a40.517,40.517,0,0,0-6.405,3.058c-3.31,1.827-6.731,3.714-10.947,4.024Q106.1,340,105.485,340Z" transform="translate(-2.653 -293.312)"/></g><g transform="translate(168.937 252.586)"><path class="a" d="M310.428,432.717a85.46,85.46,0,0,1-11.212-.884c-27.865-3.718-50.8-12.219-68.162-25.269-18.567-13.955-32.433-34.41-39.045-57.6-6.3-22.08-7.232-46.862-.259-69.785l1.555.472c-6.884,22.628-5.945,47.085.266,68.867,6.515,22.849,20.173,43,38.459,56.744,17.137,12.88,39.815,21.277,67.4,24.958,8.684,1.156,15.836,1.457,22.5-.845,2.747-.949,5.744-2.15,8.642-3.31,2.228-.894,4.533-1.818,6.667-2.6,2.555-.939,4.955-1.719,7.275-2.475,2.493-.812,5.07-1.652,7.8-2.676,8.76-3.284,15.847-8.5,23.793-15.32,1.463-1.255,2.85-2.377,4.191-3.46,2.534-2.045,4.927-3.978,7.754-6.727,1.787-1.737,7.055-9.365,7.91-11.681,2.612-7.074,3.233-8.32,8.121-14.166.681-.813,1.381-1.613,2.082-2.412a47.768,47.768,0,0,0,5.178-6.648c3.208-5.324,4.184-11.845,4.846-17.537a240.564,240.564,0,0,0-.3-57.936l1.611-.2a242.09,242.09,0,0,1,.3,58.327c-.681,5.863-1.69,12.587-5.068,18.19a49.054,49.054,0,0,1-5.348,6.881c-.693.789-1.385,1.578-2.057,2.382-4.811,5.755-5.319,6.848-7.843,13.686-.951,2.578-6.329,10.366-8.3,12.284-2.879,2.8-5.3,4.755-7.865,6.826-1.331,1.076-2.709,2.188-4.154,3.428-8.077,6.933-15.3,12.241-24.279,15.608-2.767,1.039-5.362,1.883-7.87,2.7-2.307.751-4.692,1.527-7.219,2.455-2.111.776-4.405,1.695-6.624,2.585-2.915,1.167-5.931,2.375-8.715,3.338A36.725,36.725,0,0,1,310.428,432.717Z" transform="translate(-186.893 -279.181)"/></g><g transform="translate(276.81 404.584)"><path class="a" d="M309.616,589.55c-2.964-2.391-3.627-7.41-2.968-11.324a36.932,36.932,0,0,1,3.2-9.153c.255-.564.512-1.128.761-1.694,8.229-18.664,9.891-41.963,4.444-62.321-.69-2.58-1.505-5.169-2.293-7.672a93.1,93.1,0,0,1-3.99-15.933c-1.217-9.371,1.117-21.352,2.995-30.98q.287-1.481.559-2.883l1.595.305q-.268,1.4-.56,2.889c-1.854,9.512-4.161,21.35-2.977,30.459a91.815,91.815,0,0,0,3.929,15.655c.793,2.519,1.614,5.125,2.312,7.739,5.541,20.7,3.848,44.4-4.526,63.4-.252.571-.51,1.14-.769,1.709a35.742,35.742,0,0,0-3.079,8.751c-.561,3.336-.053,7.822,2.387,9.79Z" transform="translate(-306.415 -447.592)"/></g><g transform="translate(99.229 367.684)"><path class="a" d="M111,509.365l-1.338-.921c6.56-9.522,15.627-15.626,29.4-19.791l1.242-.37a27.885,27.885,0,0,0,8.278-3.441c4.336-3.055,6.709-8.6,8.615-13.061l18.512-43.32c2.093-4.9,7.239-9.685,11.136-12.057q1.271-.774,2.518-1.549c7.633-4.715,14.843-9.163,22.758-7.943l-.249,1.606c-7.316-1.133-14.285,3.168-21.655,7.72q-1.252.773-2.528,1.553c-3.8,2.313-8.621,6.94-10.487,11.308l-18.512,43.32c-1.986,4.647-4.459,10.431-9.172,13.75a29.081,29.081,0,0,1-8.754,3.672l-1.231.367C126.131,494.26,117.331,500.168,111,509.365Z" transform="translate(-109.658 -406.708)"/></g><g transform="translate(367.251 369.099)"><path class="a" d="M501.921,501.869a47.154,47.154,0,0,0-9.207-2.6c-5.531-1.175-11.249-2.39-14.391-6.625-2.581-3.48-2.924-7.615-3.256-11.612l-.088-1.035c-.708-8.09-2.459-14.234-5.514-19.338a28.039,28.039,0,0,0-16.9-12.9,53.433,53.433,0,0,0-11.343-1.158c-4.388-.136-8.927-.276-13.161-1.642a26.894,26.894,0,0,1-15.175-13.3c-3.5-6.69-5.832-20.435-6.264-23.124l1.6-.257c.425,2.644,2.717,16.162,6.1,22.628a25.258,25.258,0,0,0,14.234,12.507c4.015,1.3,8.436,1.431,12.712,1.563a54.716,54.716,0,0,1,11.691,1.207,29.677,29.677,0,0,1,17.895,13.643c3.185,5.321,5.009,11.686,5.738,20.03l.088,1.042c.312,3.771.637,7.671,2.942,10.779,2.775,3.741,7.947,4.839,13.423,6a48.471,48.471,0,0,1,9.53,2.709Z" transform="translate(-406.623 -408.275)"/></g><g transform="translate(7.283 281.118)"><path class="a" d="M19.522,327.333c-4.228,0-8.58-1.536-11.739-2.822l.614-1.5c3.792,1.544,9.375,3.47,14.073,2.386,4.764-1.1,8.643-3.677,12.393-6.169l.168-.112c4.137-2.748,8.272-5.293,13.342-6.239a35.5,35.5,0,0,1,11.1-.005,76.389,76.389,0,0,1,20.88,5.617c1.323.573,2.647,1.189,3.977,1.808,5.781,2.69,11.758,5.469,18.316,4.931,5.2-.429,9.6-2.9,13.853-5.285.663-.373,1.325-.744,1.986-1.106,9.413-5.151,18.653-7.854,27.465-8.032,9.169-.174,20.5,2.932,25.171,10.315l-1.374.869c-3.695-5.837-13.455-9.77-23.764-9.561-8.549.173-17.538,2.809-26.719,7.833-.655.359-1.311.727-1.97,1.1-4.406,2.472-8.962,5.029-14.514,5.487-7,.579-13.164-2.3-19.135-5.077-1.319-.613-2.629-1.223-3.939-1.791a74.8,74.8,0,0,0-20.437-5.5,34,34,0,0,0-10.6-.009c-4.777.891-8.6,3.242-12.74,5.995l-.169.112c-3.872,2.572-7.876,5.232-12.926,6.4A14.731,14.731,0,0,1,19.522,327.333Z" transform="translate(-7.783 -310.793)"/></g><g transform="translate(87.374 6.306)"><g transform="translate(168.793)"><path class="a" d="M310.752,6.306l1.211,1.485c4.277,5.248.707,14.865-3.053,19.711-.763.984-1.589,1.982-2.389,2.949-3.819,4.609-7.766,9.376-8.188,16.089-.332,5.266,1.695,9.973,3.654,14.523.759,1.761,1.542,3.58,2.169,5.392,4.225,12.227,2.2,22.342-6.368,31.835-.814.9-7.4,8.719-8.259,10.4-1.178,2.3-2.819,7.667-2.608,10.522.723,9.8-.375,18.135-2.246,27.629-2.066,10.488-1.252,22.044,2.028,28.757l1.459-.714c-3.087-6.318-3.866-17.721-1.894-27.73,1.9-9.622,3.008-18.076,2.273-28.061-.183-2.491,1.327-7.5,2.433-9.663.691-1.347,6.867-8.769,8.02-10.046,9.008-9.979,11.137-20.609,6.7-33.455-.645-1.867-1.441-3.716-2.211-5.5-1.971-4.578-3.833-8.9-3.526-13.779.389-6.185,4.166-10.745,7.818-15.155.808-.975,1.643-1.984,2.422-2.988,3.814-4.915,7.228-13.876,4.168-19.971a10.117,10.117,0,0,1,4.567,4.275c3.226,5.315,3.882,13.212,1.561,18.778-.432,1.039-.975,2.046-1.5,3.021a22.3,22.3,0,0,0-2.312,5.428c-1.486,6.234,2.232,12.415,5.828,18.393,2.771,4.6,5.635,9.368,6.073,14.062a33.381,33.381,0,0,1,.034,4.165,30.15,30.15,0,0,0,.117,5.025c.6,4.431,2.961,7.773,5.247,11a31.146,31.146,0,0,1,4.456,7.815c1.851,5.445,1.134,12.405-2.126,20.687a33.407,33.407,0,0,1-3.98,6.84c-2.165,3.107-4.4,6.321-4.949,10.852-1.6,13.249,5.182,29.117,8.173,35.324l1.666.56c-2.928-6.079-9.771-22.865-8.226-35.689.5-4.129,2.523-7.039,4.668-10.118a34.63,34.63,0,0,0,4.159-7.172c3.407-8.65,4.132-15.987,2.154-21.805a32.376,32.376,0,0,0-4.669-8.231c-2.273-3.213-4.419-6.246-4.964-10.282a28.613,28.613,0,0,1-.1-4.755,34.843,34.843,0,0,0-.041-4.37c-.473-5.062-3.434-9.987-6.3-14.747-3.586-5.96-6.972-11.59-5.64-17.178a20.744,20.744,0,0,1,2.163-5.035c.543-1.009,1.1-2.053,1.568-3.164,2.505-6.008,1.8-14.524-1.672-20.248-2-3.289-4.716-5.238-7.656-5.489Z" transform="translate(-283.543 -6.306)"/></g><g transform="translate(233.355 101.675)"><path class="a" d="M396.251,118.961a17.921,17.921,0,0,0-2.976,3.471c-6.629,8.4-10.934,18.489-15.115,28.28-4.644,10.882-9.449,22.136-17.4,30.886l-.424.465c-1.938,2.12-4.35,4.76-5.255,7.359l1.535.534c.793-2.283,3.178-4.893,4.919-6.8l.427-.468c8.141-8.953,13-20.334,17.7-31.341,3.028-7.094,6.122-14.341,10.113-20.95-.592,1.97-1.077,3.994-1.558,6l-.374,1.551c-1.954,8-4.681,16.048-7.317,23.829-3.7,10.918-7.524,22.207-9.33,33.677l1.6.252c1.784-11.332,5.588-22.554,9.265-33.408,2.648-7.813,5.385-15.892,7.356-23.963l.376-1.558c1.135-4.73,2.3-9.585,4.831-13.426q1.32-1.665,2.767-3.231Z" transform="translate(-355.077 -118.961)"/></g><g transform="translate(127.009 106.167)"><path class="a" d="M238.684,123.937l-1.437.747a264.152,264.152,0,0,1,18.96,71.058l1.613-.2A264.419,264.419,0,0,0,242.207,132.7c6.7,11.024,12.691,22.171,16.414,34.359.134.442.265.886.4,1.331a40.587,40.587,0,0,0,2.186,6.132,40.478,40.478,0,0,0,4.357,6.666l6.786,9.024,1.3-.977-6.787-9.025a39.344,39.344,0,0,1-4.191-6.394,39.411,39.411,0,0,1-2.091-5.889c-.134-.449-.266-.9-.4-1.344C255.5,151.288,247.343,137.684,238.684,123.937Z" transform="translate(-237.247 -123.937)"/></g><g transform="translate(0 80.338)"><path class="a" d="M105.4,95.319a14.472,14.472,0,0,0-7.235,1.875l-1.646.948,1.823.536c3.335.981,8.708,3.336,8.924,5.479a28.667,28.667,0,0,1,.057,3.54,21.214,21.214,0,0,0,.272,5.036l-3.084-1.693-.1,1.246c-.384,4.576,7.019,19.192,9.313,21.691,7.615,8.294,11.248,9.721,15.847,11.527,1.519.6,3.088,1.212,4.97,2.135,3.76,1.845,9.626,7.146,9.686,7.2,4.9,4.334,6.439,11.321,7.928,18.078.262,1.188.523,2.368.8,3.528a170.264,170.264,0,0,0,7.212,21.535c2.834,7.352,6.363,16.5,13.442,21.942,6.463,4.964,20.357,8.465,27.435,9.478l.231-1.607c-8.332-1.195-21.174-4.933-26.676-9.16-6.718-5.163-10.154-14.075-12.915-21.237a169.149,169.149,0,0,1-7.149-21.328c-.274-1.15-.532-2.321-.792-3.5-1.545-7.011-3.144-14.26-8.431-18.938-.24-.218-6.088-5.5-10.054-7.448-1.942-.953-3.616-1.609-5.091-2.19-4.577-1.8-7.884-3.1-15.245-11.114-2-2.177-7.9-14.058-8.79-19.1l4.805,2.638-1.163-2.327c-.934-1.87-.88-4.049-.822-6.355a29.839,29.839,0,0,0-.064-3.744c-.3-2.937-5.252-5.169-8.135-6.226a14.162,14.162,0,0,1,9.572.016,14.377,14.377,0,0,1,8.781,8.027,30.973,30.973,0,0,1,1.305,4.473,33.292,33.292,0,0,0,1.356,4.644c4.025,10.055,15.794,13.241,24.957,14.142,1.968.194,4.017.32,6.186.453,8.169.5,17.427,1.072,23.413,5.72,6.79,5.273,8.743,15.366,10.633,25.125,1.945,10.049,3.957,20.441,11.217,26.093l.72.561c4.079,3.185,10.242,8,14.937,9.449l14.787,4.574,1.827-1.282-16.135-4.843c-4.41-1.365-10.432-6.067-14.416-9.178l-.722-.563c-6.779-5.279-8.732-15.366-10.62-25.119-1.947-10.055-3.959-20.452-11.231-26.1-6.381-4.956-15.905-5.542-24.31-6.058-2.153-.134-4.188-.258-6.126-.449-8.715-.857-19.885-3.83-23.607-13.129a31.484,31.484,0,0,1-1.284-4.42,32.935,32.935,0,0,0-1.38-4.7,16,16,0,0,0-9.757-8.952A16.711,16.711,0,0,0,105.4,95.319Z" transform="translate(-96.523 -95.319)"/></g><g transform="translate(266.71 97.461)"><path class="a" d="M517.621,114.291l-.579,1.129c-3.565,6.954-18.479,8.592-29.369,9.79-4.981.547-8.914.98-10.819,1.815a23.18,23.18,0,0,0-11.293,10.817,48.646,48.646,0,0,0-2.923,7.975c-1.361,4.514-2.647,8.776-6,12.136-3.381,3.392-8.65,5.623-16.58,7.022-1.6.284-3.255.533-4.851.774-4.688.708-9.534,1.439-14,3.134-8.932,3.389-14.814,10.008-18.175,14.964a109.75,109.75,0,0,0-11,21.056l1.518.579a108.016,108.016,0,0,1,10.826-20.724c3.23-4.762,8.872-11.118,17.407-14.356,4.307-1.635,9.067-2.353,13.669-3.048,1.607-.243,3.268-.493,4.891-.779,5.208-.92,12.681-2.694,17.449-7.476,3.636-3.647,5.042-8.308,6.4-12.814a47.6,47.6,0,0,1,2.819-7.712,21.544,21.544,0,0,1,10.5-10.06c1.676-.736,5.692-1.178,10.343-1.689,10.619-1.167,24.941-2.741,29.856-9.408.764,2.332.049,6.33-2.04,11.1-1.559,3.56-5.2,6.738-10.818,9.446a21.427,21.427,0,0,1-7.327,1.534c-2.851.268-5.8.546-8.319,1.931-5.62,3.09-9.218,7.121-10.13,11.349a20.342,20.342,0,0,0,.172,7.285l.137.959c1.051,7.563,1.712,15.426-2.653,21.154-2.542,3.334-6.3,5.917-9.293,7.794-4.42,2.775-9.886,4.758-15.173,6.676-1.246.452-2.48.9-3.681,1.35l-.649.243a25.364,25.364,0,0,0-5.385,2.5,40.492,40.492,0,0,1-3.663,1.927c-3.977,1.954-6.863,3.445-7.788,4.847-5.127,7.774-9.088,18.027-11.185,25.879l1.569.42c2.07-7.746,5.945-17.783,10.972-25.4.754-1.141,4.45-2.958,7.149-4.283a39.96,39.96,0,0,0,3.852-2.036,24.217,24.217,0,0,1,5.046-2.322l.653-.244c1.195-.45,2.422-.9,3.664-1.346,5.366-1.947,10.915-3.959,15.482-6.825,3.108-1.951,7.022-4.644,9.721-8.187,4.743-6.224,4.068-14.46,2.97-22.362l-.139-.97a18.815,18.815,0,0,1-.191-6.708c1.095-5.077,6.311-8.613,9.324-10.268,2.225-1.223,4.879-1.473,7.689-1.738a22.941,22.941,0,0,0,7.879-1.689c5.979-2.88,9.883-6.332,11.6-10.258,1.624-3.709,3.943-10.444,1.248-13.881Z" transform="translate(-392.034 -114.291)"/></g><g transform="translate(302.381 207.963)"><path class="a" d="M507.351,236.726l-4.431,1.19c-12.241,3.283-24.3,6.507-36.361,9.731-12.321,3.294-22.494,5.905-35,9.26l.421,1.569c12.507-3.355,22.678-5.965,35-9.259,10.566-2.825,21.133-5.65,31.821-8.515-19.114,12.96-37.843,22.239-60.031,32.855l.7,1.465c23.749-11.361,43.551-21.2,64.128-35.658Z" transform="translate(-431.557 -236.726)"/></g><g transform="translate(21.741 206.114)"><path class="a" d="M121.246,234.677l-.634,1.495c11.248,5.153,21.659,12.084,31.726,18.786,10.78,7.177,21.926,14.6,34.161,19.886l-.394-1.691c-12.1-5.229-22.146-12.409-32.866-19.547-6.32-4.207-12.774-8.5-19.5-12.405a370.423,370.423,0,0,0,45.25,14.188c.654.154,1.289.308,1.908.458,4.291,1.035,9.634,2.813,14.436,2.661l-.053-1.624c-4.57.148-9.654-1.567-14-2.616-.623-.15-1.26-.3-1.918-.459C160.263,249.3,142.316,242.9,121.246,234.677Z" transform="translate(-120.612 -234.677)"/></g><g transform="translate(86.31 163.233)"><path class="a" d="M416.408,273.461c-6.515-22.849-22.673-45.1-40.959-58.843-17.137-12.881-39.815-21.277-67.4-24.958-8.684-1.157-15.836-1.458-22.5.845-2.747.949-5.744,2.15-8.641,3.311-2.229.894-4.534,1.818-6.668,2.6-2.555.939-4.954,1.719-7.275,2.475-2.492.812-5.07,1.651-7.8,2.676-8.76,3.284-15.847,8.5-23.793,15.32-1.463,1.255-2.85,2.376-4.191,3.46-2.534,2.045-4.927,3.978-7.754,6.727-1.786,1.737-7.054,9.365-7.91,11.681-2.612,7.074-3.233,8.32-8.121,14.165-.68.814-1.381,1.614-2.082,2.412a47.946,47.946,0,0,0-5.178,6.648c-3.209,5.325-2.313,8.705-2.313,8.705l-1.555-.472s-.9-3.468,2.477-9.071a49.059,49.059,0,0,1,5.348-6.881c.693-.789,1.385-1.578,2.058-2.382,5.157-6.169,5.358-6.959,7.842-13.686.952-2.578,6.33-10.366,8.3-12.284,2.88-2.8,5.3-4.755,7.865-6.826,1.332-1.076,2.709-2.189,4.155-3.429,8.076-6.932,15.3-12.24,24.278-15.609,2.767-1.038,5.362-1.883,7.871-2.7,2.306-.751,4.691-1.527,7.218-2.456,2.112-.775,4.406-1.694,6.625-2.584,2.914-1.168,5.93-2.376,8.714-3.338a36.7,36.7,0,0,1,12.035-1.8,85.468,85.468,0,0,1,11.213.884c27.865,3.718,50.8,12.219,68.162,25.269,18.567,13.955,34.982,36.75,41.594,59.938" transform="translate(-192.154 -187.166)"/></g><g transform="translate(189.436 22.813)"><path class="a" d="M309.616,31.583c-2.964,2.39-3.627,7.41-2.968,11.324a36.927,36.927,0,0,0,3.2,9.152c.255.564.512,1.128.761,1.694,8.229,18.665,9.891,41.964,4.444,62.322-.69,2.58-1.505,5.169-2.293,7.672a93.092,93.092,0,0,0-3.99,15.932c-1.217,9.371,1.117,21.353,2.995,30.981.191.986.379,1.949.559,2.883l1.595-.305q-.268-1.4-.56-2.889c-1.854-9.512-4.161-21.35-2.977-30.459a91.793,91.793,0,0,1,3.929-15.655c.793-2.519,1.614-5.126,2.312-7.739,5.541-20.7,3.848-44.4-4.526-63.4-.252-.571-.51-1.14-.769-1.71a35.723,35.723,0,0,1-3.079-8.75c-.561-3.336-.053-7.822,2.387-9.791Z" transform="translate(-306.415 -31.583)"/></g><g transform="translate(11.855 99.014)"><path class="a" d="M111,116.012l-1.338.922c6.56,9.522,15.627,15.626,29.4,19.791l1.242.37a27.861,27.861,0,0,1,8.278,3.441c4.336,3.054,6.709,8.6,8.615,13.061L175.7,196.916c2.093,4.9,7.239,9.686,11.136,12.058q1.271.774,2.518,1.548c7.633,4.716,14.843,9.164,22.758,7.944l2.179-1.688c-7.317,1.133-16.713-3.086-24.082-7.638q-1.252-.773-2.528-1.553c-3.8-2.313-8.621-6.941-10.487-11.309l-18.512-43.319c-1.986-4.647-4.459-10.431-9.172-13.75a29.083,29.083,0,0,0-8.754-3.672l-1.231-.366C126.131,131.118,117.331,125.21,111,116.012Z" transform="translate(-109.658 -116.012)"/></g><g transform="translate(280.152 106.662)"><path class="a" d="M501.951,124.486a47.158,47.158,0,0,1-9.207,2.6c-5.531,1.175-11.249,2.389-14.391,6.625-2.581,3.479-2.924,7.614-3.256,11.612l-.088,1.035c-.708,8.089-2.459,14.234-5.514,19.337a28.039,28.039,0,0,1-16.9,12.9,53.317,53.317,0,0,1-11.343,1.158c-4.388.137-8.927.277-13.161,1.643a26.9,26.9,0,0,0-15.175,13.3c-3.5,6.689-5.557,20.017-5.989,22.706l1.6.257c.424-2.644,2.441-15.744,5.825-22.211a25.255,25.255,0,0,1,14.234-12.507c4.015-1.3,8.436-1.431,12.712-1.564a54.659,54.659,0,0,0,11.691-1.207,29.675,29.675,0,0,0,17.895-13.642c3.185-5.321,5.009-11.686,5.738-20.03l.088-1.042c.312-3.77.637-7.671,2.942-10.778,2.775-3.741,7.947-4.839,13.423-6a48.471,48.471,0,0,0,9.53-2.709Z" transform="translate(-406.927 -124.486)"/></g></g></g></svg>