<svg xmlns="http://www.w3.org/2000/svg" width="561.66" height="559.63" viewBox="0 0 561.66 559.63"><path d="M279,559.63l1.2-1.48c4.25-5.21.7-14.77-3-19.59-.76-1-1.58-2-2.38-2.93-3.79-4.58-7.72-9.32-8.14-16-.33-5.23,1.69-9.91,3.64-14.43.75-1.75,1.53-3.56,2.15-5.36,4.2-12.16,2.19-22.21-6.33-31.64-.81-.9-7.35-8.67-8.21-10.34-1.17-2.28-2.8-7.62-2.59-10.46.72-9.74-.37-18-2.23-27.46-2-10.42-1.25-21.91,2-28.58l1.46.71c-3.07,6.28-3.85,17.62-1.89,27.56,1.89,9.57,3,18,2.26,27.89-.18,2.48,1.32,7.46,2.42,9.61.69,1.34,6.82,8.71,8,10,8.95,9.92,11.07,20.49,6.66,33.25-.64,1.86-1.43,3.7-2.2,5.47-2,4.55-3.81,8.85-3.5,13.7.38,6.15,4.14,10.68,7.77,15.06.8,1,1.63,2,2.4,3,3.79,4.89,7.19,13.79,4.15,19.85a10,10,0,0,0,4.53-4.25c3.21-5.28,3.86-13.13,1.56-18.66-.43-1-1-2-1.49-3a22,22,0,0,1-2.3-5.4c-1.48-6.19,2.22-12.34,5.79-18.28,2.75-4.58,5.6-9.31,6-14a33.6,33.6,0,0,0,0-4.14,29.82,29.82,0,0,1,.12-5c.59-4.4,2.94-7.73,5.21-10.94a30.64,30.64,0,0,0,4.43-7.76c1.84-5.42,1.13-12.33-2.11-20.57a33.14,33.14,0,0,0-4-6.79c-2.15-3.09-4.37-6.29-4.92-10.79-1.58-13.17,5.15-28.94,8.13-35.11l1.45.7c-2.91,6-9.51,21.47-8,34.22.49,4.1,2.5,7,4.64,10.05a34.43,34.43,0,0,1,4.13,7.13c3.39,8.6,4.11,15.89,2.14,21.67a32.11,32.11,0,0,1-4.64,8.19c-2.26,3.19-4.39,6.2-4.93,10.22a27.33,27.33,0,0,0-.1,4.72,35.17,35.17,0,0,1-.05,4.35c-.47,5-3.41,9.92-6.26,14.65-3.56,5.93-6.93,11.52-5.6,17.08a20.25,20.25,0,0,0,2.15,5c.54,1,1.09,2,1.56,3.15,2.49,6,1.79,14.43-1.67,20.12-2,3.27-4.68,5.21-7.6,5.46Z" fill="#ecddd7"/><path d="M357.07,458.57a17.86,17.86,0,0,1-3-3.45c-6.59-8.35-10.87-18.37-15-28.11-4.62-10.81-9.39-22-17.3-30.7l-.42-.46c-1.93-2.1-4.33-4.73-5.23-7.31l1.53-.53c.79,2.27,3.16,4.86,4.89,6.75l.42.47c8.09,8.9,12.92,20.21,17.59,31.15,3,7.05,6.09,14.25,10.05,20.82-.58-2-1.07-4-1.54-6l-.38-1.54c-1.94-7.95-4.65-15.95-7.27-23.68-3.67-10.85-7.48-22.07-9.27-33.48l1.59-.25c1.78,11.27,5.56,22.42,9.21,33.21,2.63,7.77,5.35,15.79,7.31,23.82l.38,1.55c1.12,4.7,2.28,9.52,4.8,13.34.87,1.1,1.79,2.18,2.75,3.21Z" fill="#ecddd7"/><path d="M211.87,454.11l-1.43-.74a262.43,262.43,0,0,0,18.85-70.63l1.6.2a262.84,262.84,0,0,1-15.52,62.46c6.66-10.95,12.62-22,16.32-34.15l.39-1.32a41.16,41.16,0,0,1,2.18-6.1,40.14,40.14,0,0,1,4.33-6.62l6.74-9,1.29,1-6.74,9a39.05,39.05,0,0,0-4.17,6.35,40,40,0,0,0-2.08,5.86c-.13.44-.26.89-.4,1.33C228.59,426.92,220.48,440.45,211.87,454.11Z" fill="#ecddd7"/><path d="M93,479.78a14.46,14.46,0,0,1-7.19-1.86L84.21,477l1.81-.53c3.31-1,8.65-3.31,8.87-5.45a31.46,31.46,0,0,0,.06-3.51,21,21,0,0,1,.26-5l-3.06,1.68-.1-1.23c-.38-4.55,7-19.08,9.25-21.56,7.57-8.25,11.18-9.67,15.75-11.46,1.51-.59,3.07-1.21,4.94-2.12,3.74-1.84,9.57-7.11,9.63-7.16,4.87-4.31,6.4-11.25,7.88-18,.26-1.18.52-2.35.8-3.5a169.1,169.1,0,0,1,7.16-21.41c2.82-7.3,6.33-16.4,13.36-21.81,6.43-4.93,19.23-8.22,26.26-9.23l.23,1.6c-8.28,1.19-20,4.71-25.5,8.92-6.68,5.13-10.09,14-12.84,21.1a169,169,0,0,0-7.1,21.2c-.28,1.14-.53,2.31-.79,3.48-1.54,7-3.13,14.17-8.38,18.82-.24.22-6,5.47-10,7.41-1.94.94-3.6,1.6-5.07,2.17-4.54,1.79-7.83,3.08-15.15,11.05-2,2.16-7.85,14-8.73,19l4.77-2.62-1.15,2.31c-.93,1.86-.88,4-.82,6.32a30.86,30.86,0,0,1-.06,3.72c-.3,2.92-5.22,5.13-8.09,6.19a14.05,14.05,0,0,0,9.51,0,14.31,14.31,0,0,0,8.73-8,31.56,31.56,0,0,0,1.3-4.45,31.37,31.37,0,0,1,1.35-4.61c4-10,15.69-13.16,24.8-14.06,2-.19,4-.32,6.15-.45,8.12-.5,17.32-1.06,23.27-5.68,6.75-5.24,8.69-15.28,10.57-25,1.93-10,3.93-20.31,11.15-25.93l.71-.56c4.06-3.16,10.18-7.95,14.85-9.39l14.7-4.55.47,1.55-14.69,4.54c-4.39,1.36-10.37,6-14.33,9.12l-.72.56c-6.74,5.25-8.68,15.28-10.56,25-1.93,10-3.93,20.33-11.16,25.94-6.34,4.93-15.81,5.51-24.16,6-2.14.14-4.16.26-6.09.45-8.66.85-19.77,3.81-23.46,13.05a31.1,31.1,0,0,0-1.28,4.39,33.64,33.64,0,0,1-1.37,4.68,15.94,15.94,0,0,1-9.7,8.9A16.86,16.86,0,0,1,93,479.78Z" fill="#ecddd7"/><path d="M474.12,462.76l-.57-1.12c-3.55-6.91-18.37-8.54-29.19-9.73-4.95-.55-8.86-1-10.76-1.81a23,23,0,0,1-11.22-10.75,49,49,0,0,1-2.91-7.92c-1.35-4.49-2.63-8.73-6-12.06s-8.59-5.59-16.48-7c-1.59-.29-3.23-.53-4.82-.77-4.66-.71-9.47-1.43-13.92-3.12-8.87-3.37-14.72-9.95-18.06-14.87A115,115,0,0,1,349,372.15l1.51-.58a112.71,112.71,0,0,0,11,21.15c3.21,4.74,8.81,11,17.3,14.27,4.28,1.63,9,2.34,13.58,3,1.6.24,3.25.49,4.86.77,5.18.92,12.61,2.68,17.35,7.43,3.61,3.63,5,8.26,6.36,12.74a47.55,47.55,0,0,0,2.8,7.67,21.41,21.41,0,0,0,10.43,10c1.67.73,5.66,1.17,10.28,1.67,10.56,1.16,24.79,2.73,29.68,9.35.76-2.31.05-6.29-2-11-1.55-3.54-5.17-6.7-10.75-9.39a21.35,21.35,0,0,0-7.28-1.52c-2.84-.27-5.77-.55-8.27-1.92-5.59-3.08-9.16-7.08-10.07-11.28a20.21,20.21,0,0,1,.17-7.24l.14-1c1-7.52,1.7-15.33-2.64-21-2.53-3.32-6.26-5.89-9.24-7.75-4.39-2.76-9.82-4.73-15.08-6.64-1.24-.45-2.46-.89-3.66-1.34l-.64-.24a25,25,0,0,1-5.35-2.48c-.7-.47-2.13-1.17-3.64-1.92-4-1.94-6.83-3.42-7.75-4.81-5.09-7.73-10.32-22.2-12.41-30l1.56-.42c2.06,7.7,7.21,21.95,12.2,29.53.75,1.13,4.43,2.94,7.11,4.26a39.94,39.94,0,0,1,3.83,2,24.13,24.13,0,0,0,5,2.31l.65.24c1.19.45,2.41.89,3.64,1.34,5.34,1.93,10.85,3.93,15.39,6.78,3.09,1.94,7,4.62,9.66,8.14,4.72,6.18,4.05,14.37,3,22.22l-.14,1a18.53,18.53,0,0,0-.19,6.66c1.09,5,6.27,8.57,9.27,10.21,2.21,1.22,4.84,1.47,7.64,1.73a22.68,22.68,0,0,1,7.83,1.68c5.94,2.86,9.82,6.29,11.53,10.19,1.61,3.69,3.92,10.38,1.24,13.8Z" fill="#ecddd7"/><path d="M460.08,352.93l-4.4-1.18-36.14-9.67c-12.25-3.28-24.49-6.55-36.92-9.89l.42-1.56c12.43,3.34,24.67,6.61,36.92,9.89L451.59,349c-19-12.88-37.62-22.11-59.67-32.66l.7-1.45c23.6,11.29,43.28,21.07,63.73,35.44Z" fill="#ecddd7"/><path d="M430.19,302.15c-9.44,0-18.43-2.85-27.17-5.62-2.64-.84-5.38-1.7-8.09-2.48l.44-1.55c2.74.78,5.48,1.65,8.14,2.49,11,3.49,21.44,6.8,32.91,5.09,8.29-1.23,16.78-4.37,25-7.41,12.34-4.57,25.09-9.29,37.8-7.86,2.4.27,4.82.7,7.17,1.11,5.51,1,11.2,2,16.61.92a45.43,45.43,0,0,0,14-5.51l.44-.25c5.89-3.34,10.6-6,21.3-4.12-1.89-2.38-5.76-4.16-10.27-4.61-5.38-.55-10.87.68-15.05,1.8l-2,.55c-5.11,1.42-10.39,2.88-15.78,2.13a28.89,28.89,0,0,1-10.7-4.2,78.18,78.18,0,0,1-10.1-7.12l-.42-.36a16.74,16.74,0,0,0-4.62-3.06A92.15,92.15,0,0,0,477.7,260c-9.1-.62-15.79,1.47-22.87,3.68a86.41,86.41,0,0,1-17.69,4.08c-15.83,1.64-30.14-.46-42.52-6.24l.68-1.46c12.12,5.65,26.14,7.7,41.68,6.09a84,84,0,0,0,17.37-4c7.23-2.25,14-4.38,23.46-3.74,1.85.12,10.67,1.5,12.55,2.24a17.58,17.58,0,0,1,5.06,3.33l.43.35a76.47,76.47,0,0,0,9.88,7,27.46,27.46,0,0,0,10.11,4c5.06.71,10.17-.71,15.12-2.08l2-.56c4.31-1.16,10-2.42,15.62-1.85,5,.5,10.74,2.87,12.47,7.05l.58,1.41-1.5-.31c-11.37-2.41-15.8.11-21.94,3.6l-.44.25a47.15,47.15,0,0,1-14.5,5.69c-5.69,1.09-11.54.07-17.19-.92-2.32-.41-4.72-.83-7.07-1.09-12.33-1.39-24.9,3.26-37,7.76-8.29,3.07-16.85,6.24-25.32,7.5A44.38,44.38,0,0,1,430.19,302.15Z" fill="#ecddd7"/><path d="M429.51,287a96.7,96.7,0,0,1-17.81-1.36l-.65-.13c-7.19-1.35-11.53-2.17-15.84-7l1.21-1.07c3.94,4.44,7.84,5.18,14.93,6.52l.65.12c7.61,1.44,15.65,1.42,23.23,1.27s15.22-.44,22.12-2.48c2.23-.66,4.43-1.52,6.55-2.34,4.19-1.63,8.51-3.32,13.33-3.62,5.4-.34,10.58,1.09,15.59,2.47l2.67.73a124.31,124.31,0,0,0,35.76,3.9l.06,1.62a126.13,126.13,0,0,1-36.23-4l-2.69-.73c-4.88-1.35-9.93-2.75-15.05-2.42-4.58.29-8.6,1.85-12.85,3.51-2.16.84-4.39,1.71-6.68,2.39-7.09,2.09-14.71,2.4-22.55,2.55C433.37,287,431.44,287,429.51,287Z" fill="#ecddd7"/><path d="M106.45,354.77l-.63-1.49c11.18-5.12,21.52-12,31.53-18.67,10.71-7.13,21.79-14.51,34-19.76l.64,1.48c-12,5.2-23,12.53-33.7,19.62-6.28,4.19-12.69,8.46-19.37,12.33a371,371,0,0,1,45-14.1l1.9-.45c4.26-1,7.94-1.92,12.71-1.77l0,1.62c-4.55-.15-8,.68-12.28,1.72l-1.91.45C145.23,340.23,127.39,346.59,106.45,354.77Z" fill="#ecddd7"/><path d="M102.21,303.87a33.61,33.61,0,0,1-9-1.63c-1.4-.39-2.84-.79-4.26-1.08-.94-.2-1.93-.36-2.89-.51a32.18,32.18,0,0,1-6.1-1.41,25.11,25.11,0,0,1-4.94-2.71l-.82-.53A75.75,75.75,0,0,0,45,285.37a17.51,17.51,0,0,0-3.57-.28,19.06,19.06,0,0,0-4.88,1.15c-6.72,2.23-13.34,4.21-20.33,4.08-7.56-.13-13.72-3.5-15.71-8.59L0,280.37l1.44.28c18.76,3.65,23.07-.61,27.65-5.12,2.21-2.19,4.5-4.45,8.39-6a18.47,18.47,0,0,1,5.1-1.36,18.1,18.1,0,0,1,5.12.46,90.82,90.82,0,0,1,10.24,3c6.4,2.13,12.44,4.15,19,3.5,5.69-.56,10.61-3.12,15.36-5.6l2.15-1.12a96.41,96.41,0,0,1,37.07-10.75c15-1,27.25,1.49,36.37,7.52l-.89,1.34c-8.81-5.82-20.72-8.26-35.37-7.25a94.52,94.52,0,0,0-36.44,10.58L93.05,271c-4.89,2.55-10,5.19-16,5.78-6.91.69-13.4-1.48-19.67-3.58a88.6,88.6,0,0,0-10.06-2.94,16.25,16.25,0,0,0-4.66-.43,17,17,0,0,0-4.65,1.26,22.16,22.16,0,0,0-7.84,5.6c-4.75,4.68-9.24,9.12-27.49,5.85,2.27,3.69,7.39,6.07,13.55,6.18,6.79.13,13.21-1.82,19.78-4a20.15,20.15,0,0,1,5.32-1.23,18.73,18.73,0,0,1,3.9.29A77.47,77.47,0,0,1,75.1,294.64l.83.54a24,24,0,0,0,4.63,2.55,29.91,29.91,0,0,0,5.79,1.32c1,.16,2,.32,3,.52,1.47.31,2.94.72,4.36,1.11,3.28.91,6.37,1.77,9.65,1.53,3.84-.28,6.94-2,10.22-3.8a42.19,42.19,0,0,1,6.63-3.16c5.28-1.8,19.47-3.87,25.21-3.34a29.08,29.08,0,0,1,14.28,4.78,49.16,49.16,0,0,0,9,4.4l-.55,1.52a50.84,50.84,0,0,1-9.28-4.53,27.44,27.44,0,0,0-13.61-4.56c-5.47-.5-19.51,1.55-24.54,3.26a40.1,40.1,0,0,0-6.37,3c-3.29,1.82-6.69,3.69-10.88,4C103,303.85,102.61,303.87,102.21,303.87Z" fill="#ecddd7"/><path d="M288.06,397.39a84.51,84.51,0,0,1-11.15-.88c-27.69-3.7-50.49-12.15-67.74-25.12-18.46-13.87-32.24-34.2-38.81-57.24-6.26-21.95-7.19-46.58-.26-69.37l1.55.47c-6.85,22.49-5.91,46.8.26,68.45,6.48,22.71,20.05,42.74,38.23,56.4,17,12.8,39.57,21.15,67,24.81,8.63,1.15,15.74,1.45,22.36-.84,2.73-.94,5.71-2.14,8.59-3.29,2.22-.89,4.51-1.81,6.63-2.59,2.54-.93,4.92-1.71,7.23-2.46,2.48-.8,5-1.64,7.76-2.66,8.7-3.26,15.75-8.44,23.64-15.22,1.46-1.25,2.84-2.37,4.17-3.44,2.52-2,4.9-4,7.71-6.69,1.77-1.72,7-9.31,7.86-11.61,2.59-7,3.21-8.27,8.07-14.08.68-.81,1.37-1.6,2.07-2.39a47.42,47.42,0,0,0,5.14-6.61c3.19-5.29,4.16-11.78,4.82-17.43a239.13,239.13,0,0,0-.3-57.59l1.61-.2a240.75,240.75,0,0,1,.29,58c-.67,5.83-1.68,12.51-5,18.08a48.3,48.3,0,0,1-5.32,6.84c-.69.79-1.37,1.57-2,2.37-4.78,5.72-5.29,6.81-7.8,13.6-.94,2.56-6.29,10.3-8.25,12.21a102.26,102.26,0,0,1-7.82,6.78c-1.32,1.07-2.69,2.18-4.13,3.41-8,6.89-15.2,12.17-24.13,15.52-2.75,1-5.33,1.87-7.82,2.68-2.29.74-4.66,1.52-7.17,2.44-2.1.77-4.38,1.68-6.59,2.57-2.9,1.16-5.89,2.36-8.66,3.31A36.31,36.31,0,0,1,288.06,397.39Z" fill="#ecddd7"/><path d="M275.67,537c-2.94-2.37-3.6-7.36-2.95-11.25a36.59,36.59,0,0,1,3.19-9.1l.75-1.68c8.18-18.55,9.83-41.71,4.42-61.94-.69-2.57-1.5-5.14-2.28-7.63a92.36,92.36,0,0,1-4-15.83c-1.21-9.32,1.11-21.23,3-30.8.19-1,.38-1.93.56-2.86l1.58.3c-.18.93-.36,1.89-.56,2.87-1.84,9.46-4.13,21.22-2.95,30.28a90.16,90.16,0,0,0,3.9,15.56c.79,2.5,1.6,5.09,2.3,7.69,5.51,20.58,3.82,44.13-4.5,63-.25.57-.51,1.13-.76,1.7a35.38,35.38,0,0,0-3.06,8.7c-.56,3.31-.06,7.77,2.37,9.73Z" fill="#ecddd7"/><path d="M97.32,461.22,96,460.3c6.52-9.46,15.53-15.53,29.22-19.67l1.23-.37a27.41,27.41,0,0,0,8.23-3.42c4.31-3,6.67-8.55,8.56-13l18.4-43.06c2.08-4.87,7.2-9.62,11.07-12,.85-.51,1.68-1,2.51-1.54,7.58-4.69,14.75-9.11,22.61-7.89l-.24,1.59c-7.27-1.12-14.2,3.15-21.53,7.68l-2.51,1.54c-3.77,2.3-8.57,6.9-10.42,11.24l-18.4,43.06c-2,4.61-4.43,10.36-9.12,13.66a28.75,28.75,0,0,1-8.7,3.65l-1.22.37C112.36,446.2,103.62,452.08,97.32,461.22Z" fill="#ecddd7"/><path d="M457.1,453.62A45.68,45.68,0,0,0,448,451c-5.5-1.17-11.18-2.38-14.3-6.59-2.57-3.46-2.91-7.56-3.24-11.54l-.08-1c-.71-8-2.45-14.14-5.49-19.22a27.87,27.87,0,0,0-16.79-12.82,53.64,53.64,0,0,0-11.28-1.15c-4.36-.14-8.87-.27-13.08-1.63a26.71,26.71,0,0,1-15.08-13.22c-3.48-6.65-5.8-20.31-6.23-23l1.6-.26c.42,2.63,2.7,16.06,6.06,22.49a25.1,25.1,0,0,0,14.15,12.43c4,1.29,8.38,1.42,12.63,1.56a54.12,54.12,0,0,1,11.62,1.19,29.53,29.53,0,0,1,17.79,13.56c3.17,5.29,5,11.62,5.7,19.91l.09,1c.31,3.75.63,7.62,2.93,10.71,2.75,3.72,7.89,4.81,13.34,6a47.75,47.75,0,0,1,9.47,2.69Z" fill="#ecddd7"/><path d="M16.27,289.58c-4.2,0-8.53-1.52-11.67-2.8l.61-1.5c3.77,1.54,9.32,3.45,14,2.37s8.59-3.65,12.32-6.13l.16-.11c4.12-2.73,8.22-5.26,13.26-6.2a35.47,35.47,0,0,1,11,0,76.23,76.23,0,0,1,20.76,5.59c1.31.57,2.63,1.18,4,1.79,5.74,2.68,11.68,5.44,18.2,4.9,5.17-.42,9.54-2.88,13.77-5.25l2-1.1c9.35-5.12,18.54-7.8,27.29-8,9.12-.17,20.38,2.91,25,10.25l-1.36.87c-3.68-5.81-13.38-9.71-23.62-9.51-8.5.18-17.43,2.79-26.56,7.79l-2,1.09c-4.38,2.46-8.91,5-14.42,5.45-7,.58-13.09-2.28-19-5-1.31-.61-2.62-1.22-3.92-1.78a74.11,74.11,0,0,0-20.31-5.46,33.55,33.55,0,0,0-10.54,0c-4.75.88-8.54,3.22-12.66,6l-.17.11c-3.85,2.55-7.83,5.2-12.85,6.36A15.07,15.07,0,0,1,16.27,289.58Z" fill="#ecddd7"/><path d="M279,0l1.2,1.48c4.25,5.21.7,14.77-3,19.59-.76,1-1.58,2-2.38,2.93-3.79,4.58-7.72,9.32-8.14,16-.33,5.23,1.69,9.91,3.64,14.43.75,1.75,1.53,3.56,2.15,5.36,4.2,12.16,2.19,22.21-6.33,31.64-.81.9-7.35,8.67-8.21,10.34-1.17,2.28-2.8,7.62-2.59,10.46.72,9.74-.37,18-2.23,27.46-2,10.42-1.25,21.91,2,28.58l1.46-.71c-3.07-6.28-3.85-17.62-1.89-27.56,1.89-9.57,3-18,2.26-27.89-.18-2.48,1.32-7.46,2.42-9.61.69-1.34,6.82-8.71,8-10C276.28,82.59,278.4,72,274,59.26c-.64-1.86-1.43-3.7-2.2-5.47-2-4.55-3.81-8.85-3.5-13.7.38-6.15,4.14-10.68,7.77-15.06.8-1,1.63-2,2.4-3,3.79-4.89,7.19-13.79,4.15-19.85a10,10,0,0,1,4.53,4.25c3.21,5.28,3.86,13.13,1.56,18.66-.43,1-1,2-1.49,3a22,22,0,0,0-2.3,5.4c-1.48,6.19,2.22,12.34,5.79,18.28,2.75,4.58,5.6,9.31,6,14a33.6,33.6,0,0,1,0,4.14,29.82,29.82,0,0,0,.12,5c.59,4.4,2.94,7.73,5.21,10.94a30.64,30.64,0,0,1,4.43,7.76c1.84,5.42,1.13,12.33-2.11,20.57a33.14,33.14,0,0,1-4,6.79c-2.15,3.09-4.37,6.29-4.92,10.79-1.58,13.17,5.15,28.94,8.13,35.11l1.65.56c-2.91-6.05-9.71-22.73-8.17-35.48.49-4.1,2.5-7,4.64-10a34.43,34.43,0,0,0,4.13-7.13c3.39-8.6,4.11-15.89,2.14-21.67a32.11,32.11,0,0,0-4.64-8.19c-2.26-3.19-4.39-6.2-4.93-10.22a27.33,27.33,0,0,1-.1-4.72,35.17,35.17,0,0,0-.05-4.35c-.47-5-3.41-9.92-6.26-14.65-3.56-5.93-6.93-11.52-5.6-17.08a20.25,20.25,0,0,1,2.15-5c.54-1,1.09-2,1.56-3.15,2.49-6,1.79-14.43-1.67-20.12-2-3.27-4.68-5.21-7.6-5.46Z" fill="#ecddd7"/><path d="M357.07,101.06a17.86,17.86,0,0,0-3,3.45c-6.59,8.35-10.87,18.37-15,28.11-4.62,10.81-9.39,22-17.3,30.7l-.42.46c-1.93,2.1-4.33,4.73-5.23,7.31l1.53.53c.79-2.27,3.16-4.86,4.89-6.75l.42-.47c8.09-8.9,12.92-20.21,17.59-31.15,3-7,6.09-14.25,10.05-20.82-.58,2-1.07,4-1.54,6l-.38,1.54c-1.94,7.95-4.65,15.95-7.27,23.68-3.67,10.85-7.48,22.07-9.27,33.48l1.59.25c1.78-11.27,5.56-22.42,9.21-33.21,2.63-7.77,5.35-15.79,7.31-23.82l.38-1.55c1.12-4.7,2.28-9.52,4.8-13.34.87-1.1,1.79-2.18,2.75-3.21Z" fill="#ecddd7"/><path d="M211.87,105.52l-1.43.74a262.43,262.43,0,0,1,18.85,70.63l1.6-.2a262.84,262.84,0,0,0-15.52-62.46c6.66,11,12.62,22,16.32,34.15l.39,1.32a41.16,41.16,0,0,0,2.18,6.1,40.14,40.14,0,0,0,4.33,6.62l6.74,9,1.29-1-6.74-9a39.05,39.05,0,0,1-4.17-6.35,40,40,0,0,1-2.08-5.86c-.13-.44-.26-.89-.4-1.33C228.59,132.71,220.48,119.18,211.87,105.52Z" fill="#ecddd7"/><path d="M93,79.85a14.46,14.46,0,0,0-7.19,1.86l-1.63,1,1.81.53c3.31,1,8.65,3.31,8.87,5.45A31.46,31.46,0,0,1,95,92.15a21,21,0,0,0,.26,5l-3.06-1.68-.1,1.23c-.38,4.55,7,19.08,9.25,21.56,7.57,8.25,11.18,9.67,15.75,11.46,1.51.59,3.07,1.21,4.94,2.12,3.74,1.84,9.57,7.11,9.63,7.16,4.87,4.31,6.4,11.25,7.88,18,.26,1.18.52,2.35.8,3.5a169.1,169.1,0,0,0,7.16,21.41c2.82,7.3,6.33,16.4,13.36,21.81,6.43,4.93,20.24,8.41,27.27,9.42l.23-1.6c-8.28-1.19-21-4.9-26.51-9.11-6.68-5.13-10.09-14-12.84-21.1a169,169,0,0,1-7.1-21.2c-.28-1.14-.53-2.31-.79-3.48-1.54-7-3.13-14.17-8.38-18.82-.24-.22-6-5.47-10-7.41-1.94-.94-3.6-1.6-5.07-2.17-4.54-1.79-7.83-3.08-15.15-11-2-2.16-7.85-14-8.73-19l4.77,2.62-1.15-2.31c-.93-1.86-.88-4-.82-6.32a30.86,30.86,0,0,0-.06-3.72c-.3-2.92-5.22-5.13-8.09-6.19a14.05,14.05,0,0,1,9.51,0,14.31,14.31,0,0,1,8.73,8,31.56,31.56,0,0,1,1.3,4.45,31.37,31.37,0,0,0,1.35,4.61c4,10,15.69,13.16,24.8,14.06,2,.19,4,.32,6.15.45,8.12.5,17.32,1.06,23.27,5.68,6.75,5.24,8.69,15.28,10.57,25,1.93,10,3.93,20.31,11.15,25.93l.71.56c4.06,3.16,10.18,7.95,14.85,9.39l14.7,4.55,1.81-1.28-16-4.81c-4.39-1.36-10.37-6-14.33-9.12l-.72-.56c-6.74-5.25-8.68-15.28-10.56-25-1.93-10-3.93-20.33-11.16-25.94-6.34-4.93-15.81-5.51-24.16-6-2.14-.14-4.16-.26-6.09-.45-8.66-.85-19.77-3.81-23.46-13.05a31.1,31.1,0,0,1-1.28-4.39,33.64,33.64,0,0,0-1.37-4.68,15.94,15.94,0,0,0-9.7-8.9A16.86,16.86,0,0,0,93,79.85Z" fill="#ecddd7"/><path d="M474.12,96.87,473.55,98c-3.55,6.91-18.37,8.54-29.19,9.73-4.95.55-8.86,1-10.76,1.81a23,23,0,0,0-11.22,10.75,49,49,0,0,0-2.91,7.92c-1.35,4.49-2.63,8.73-6,12.06s-8.59,5.59-16.48,7c-1.59.29-3.23.53-4.82.77-4.66.71-9.47,1.43-13.92,3.12-8.87,3.37-14.72,10-18.06,14.87a109.35,109.35,0,0,0-10.93,20.93l1.51.58a106.5,106.5,0,0,1,10.76-20.6c3.21-4.74,8.81-11,17.3-14.27,4.28-1.63,9-2.34,13.58-3,1.6-.24,3.25-.49,4.86-.77,5.18-.92,12.61-2.68,17.35-7.43,3.61-3.63,5-8.26,6.36-12.74a47.55,47.55,0,0,1,2.8-7.67,21.41,21.41,0,0,1,10.43-10c1.67-.73,5.66-1.17,10.28-1.67,10.56-1.16,24.79-2.73,29.68-9.35.76,2.31.05,6.29-2,11-1.55,3.54-5.17,6.7-10.75,9.39a21.35,21.35,0,0,1-7.28,1.52c-2.84.27-5.77.55-8.27,1.92-5.59,3.08-9.16,7.08-10.07,11.28a20.21,20.21,0,0,0,.17,7.24l.14,1c1,7.52,1.7,15.33-2.64,21-2.53,3.32-6.26,5.89-9.24,7.75-4.39,2.76-9.82,4.73-15.08,6.64-1.24.45-2.46.89-3.66,1.34l-.64.24a25,25,0,0,0-5.35,2.48c-.7.47-2.13,1.17-3.64,1.92-4,1.94-6.83,3.42-7.75,4.81-5.09,7.73-9,17.92-11.11,25.73l1.56.41c2.05-7.7,5.91-17.67,10.9-25.25.75-1.13,4.43-2.94,7.11-4.26a39.94,39.94,0,0,0,3.83-2,24.13,24.13,0,0,1,5-2.31l.65-.24c1.19-.45,2.41-.89,3.64-1.34,5.34-1.93,10.85-3.93,15.39-6.78,3.09-1.94,7-4.62,9.66-8.14,4.72-6.18,4.05-14.37,3-22.22l-.14-1a18.53,18.53,0,0,1-.19-6.66c1.09-5.05,6.27-8.57,9.27-10.21,2.21-1.22,4.84-1.47,7.64-1.73a22.68,22.68,0,0,0,7.83-1.68c5.94-2.86,9.82-6.29,11.53-10.19,1.61-3.69,3.92-10.38,1.24-13.8Z" fill="#ecddd7"/><path d="M460.08,206.7l-4.4,1.18-36.14,9.67c-12.25,3.28-22.36,5.87-34.79,9.21l.42,1.56c12.43-3.34,22.54-5.93,34.79-9.21l31.63-8.46c-19,12.88-37.62,22.11-59.67,32.66l.7,1.45c23.6-11.29,43.28-21.07,63.73-35.44Z" fill="#ecddd7"/><path d="M106.45,204.86l-.63,1.49c11.18,5.12,21.52,12,31.53,18.67,10.71,7.13,21.79,14.51,34,19.76l-.39-1.68c-12-5.19-22-12.33-32.67-19.42-6.28-4.19-12.69-8.46-19.37-12.33a371,371,0,0,0,45,14.1l1.9.45c4.26,1,9.57,2.8,14.35,2.65l-.06-1.62c-4.54.15-9.59-1.56-13.91-2.6l-1.91-.45C145.23,219.4,127.39,213,106.45,204.86Z" fill="#ecddd7"/><path d="M392.88,248c-6.47-22.71-22.53-44.82-40.71-58.48-17-12.8-39.57-21.15-67-24.81-8.63-1.15-15.74-1.45-22.36.84-2.73.94-5.71,2.14-8.59,3.29-2.22.89-4.51,1.81-6.63,2.59-2.54.93-4.92,1.71-7.23,2.46-2.48.8-5,1.64-7.75,2.66-8.71,3.26-15.75,8.44-23.65,15.22-1.46,1.25-2.84,2.37-4.17,3.44-2.52,2-4.9,4-7.71,6.69-1.77,1.72-7,9.31-7.86,11.61-2.59,7-3.21,8.27-8.07,14.08-.67.81-1.37,1.6-2.07,2.39A48.19,48.19,0,0,0,174,236.6c-3.19,5.29-2.3,8.65-2.3,8.65l-1.55-.47s-.89-3.44,2.46-9a49,49,0,0,1,5.32-6.84c.69-.79,1.38-1.57,2-2.37,5.13-6.13,5.33-6.92,7.8-13.6.94-2.56,6.29-10.3,8.25-12.21a102.26,102.26,0,0,1,7.82-6.78c1.32-1.07,2.69-2.18,4.13-3.41,8-6.89,15.2-12.17,24.13-15.52,2.75-1,5.33-1.87,7.82-2.68,2.29-.74,4.66-1.52,7.17-2.44,2.1-.77,4.38-1.68,6.59-2.57,2.9-1.16,5.89-2.36,8.66-3.31a36.31,36.31,0,0,1,12-1.8,84.51,84.51,0,0,1,11.15.88c27.69,3.7,50.49,12.15,67.75,25.12,18.45,13.87,34.76,36.52,41.34,59.57" fill="#ecddd7"/><path d="M275.67,22.68c-2.94,2.37-3.6,7.36-2.95,11.25a36.59,36.59,0,0,0,3.19,9.1l.75,1.68c8.18,18.55,9.83,41.71,4.42,61.94-.69,2.57-1.5,5.14-2.28,7.63a92.36,92.36,0,0,0-4,15.83c-1.21,9.32,1.11,21.23,3,30.8.19,1,.38,1.93.56,2.86l1.58-.3c-.18-.93-.36-1.89-.56-2.87-1.84-9.46-4.13-21.22-2.95-30.28a90.16,90.16,0,0,1,3.9-15.56c.79-2.5,1.6-5.09,2.3-7.69,5.51-20.58,3.82-44.13-4.5-63-.25-.57-.51-1.13-.76-1.7a35.38,35.38,0,0,1-3.06-8.7c-.56-3.31-.06-7.77,2.37-9.73Z" fill="#ecddd7"/><path d="M97.32,98.41,96,99.33c6.52,9.46,15.53,15.53,29.22,19.67l1.23.37a27.41,27.41,0,0,1,8.23,3.42c4.31,3,6.67,8.55,8.56,13l18.4,43.06c2.08,4.87,7.2,9.62,11.07,12,.85.51,1.68,1,2.51,1.54,7.58,4.69,14.75,9.11,22.61,7.89l2.17-1.67c-7.27,1.12-16.61-3.07-23.94-7.6l-2.51-1.54c-3.77-2.3-8.57-6.9-10.42-11.24l-18.4-43.06c-2-4.61-4.43-10.36-9.12-13.66a28.75,28.75,0,0,0-8.7-3.65l-1.22-.37C112.36,113.43,103.62,107.55,97.32,98.41Z" fill="#ecddd7"/><path d="M457.1,106A45.68,45.68,0,0,1,448,108.6c-5.5,1.17-11.18,2.38-14.3,6.59-2.57,3.46-2.91,7.56-3.24,11.54l-.08,1c-.71,8-2.45,14.14-5.49,19.22a27.87,27.87,0,0,1-16.79,12.82A53.64,53.64,0,0,1,396.77,161c-4.36.14-8.87.27-13.08,1.63a26.71,26.71,0,0,0-15.08,13.22c-3.48,6.65-5.52,19.9-5.95,22.57l1.59.26c.42-2.63,2.43-15.65,5.79-22.08a25.1,25.1,0,0,1,14.15-12.43c4-1.29,8.38-1.42,12.63-1.56a54.12,54.12,0,0,0,11.62-1.19,29.53,29.53,0,0,0,17.79-13.56c3.17-5.29,5-11.62,5.7-19.91l.09-1c.31-3.75.63-7.62,2.93-10.71,2.75-3.72,7.89-4.81,13.34-6a47.75,47.75,0,0,0,9.47-2.69Z" fill="#ecddd7"/></svg>